ISO-10303-21;
HEADER;
FILE_DESCRIPTION (( 'STEP AP214' ),
    '1' );
FILE_NAME ('08052U330JAT2A.STEP',
    '2019-12-28T10:38:35',
    ( '' ),
    ( '' ),
    'SwSTEP 2.0',
    'SolidWorks 2018',
    '' );
FILE_SCHEMA (( 'AUTOMOTIVE_DESIGN' ));
ENDSEC;

DATA;
#1 = ADVANCED_FACE ( 'NONE', ( #244 ), #567, .T. ) ;
#2 = FACE_OUTER_BOUND ( 'NONE', #969, .T. ) ;
#3 = AXIS2_PLACEMENT_3D ( 'NONE', #1226, #635, #748 ) ;
#4 = DIRECTION ( 'NONE',  ( 0.0000000000000000000, 0.0000000000000000000, -1.000000000000000000 ) ) ;
#5 = DIRECTION ( 'NONE',  ( -1.000000000000000000, -0.0000000000000000000, 8.673617379884036705E-17 ) ) ;
#6 = VERTEX_POINT ( 'NONE', #366 ) ;
#7 = ORIENTED_EDGE ( 'NONE', *, *, #470, .F. ) ;
#8 = ORIENTED_EDGE ( 'NONE', *, *, #704, .F. ) ;
#9 = DIRECTION ( 'NONE',  ( 1.000000000000000000, 0.0000000000000000000, 0.0000000000000000000 ) ) ;
#10 = ADVANCED_FACE ( 'NONE', ( #1166 ), #548, .T. ) ;
#11 = DIRECTION ( 'NONE',  ( 0.0000000000000000000, 0.0000000000000000000, -1.000000000000000000 ) ) ;
#12 = EDGE_CURVE ( 'NONE', #973, #1035, #1267, .T. ) ;
#13 = DIRECTION ( 'NONE',  ( -1.000000000000000000, 0.0000000000000000000, 0.0000000000000000000 ) ) ;
#14 = EDGE_LOOP ( 'NONE', ( #819, #787, #246, #36 ) ) ;
#15 = DIRECTION ( 'NONE',  ( 0.0000000000000000000, 0.0000000000000000000, -1.000000000000000000 ) ) ;
#16 = ORIENTED_EDGE ( 'NONE', *, *, #693, .T. ) ;
#17 = VERTEX_POINT ( 'NONE', #193 ) ;
#18 = CARTESIAN_POINT ( 'NONE',  ( 0.4949999999999997735, 0.0000000000000000000, 0.5747499999999999831 ) ) ;
#19 = CYLINDRICAL_SURFACE ( 'NONE', #108, 0.05024999999999994749 ) ;
#20 = EDGE_CURVE ( 'NONE', #957, #6, #466, .T. ) ;
#21 = DIRECTION ( 'NONE',  ( 0.0000000000000000000, -1.000000000000000000, -0.0000000000000000000 ) ) ;
#22 = AXIS2_PLACEMENT_3D ( 'NONE', #324, #1213, #617 ) ;
#23 = ADVANCED_FACE ( 'NONE', ( #597 ), #479, .T. ) ;
#24 = DIRECTION ( 'NONE',  ( 0.0000000000000000000, -0.0000000000000000000, -1.000000000000000000 ) ) ;
#25 = VECTOR ( 'NONE', #383, 1000.000000000000000 ) ;
#26 = VERTEX_POINT ( 'NONE', #889 ) ;
#27 = CARTESIAN_POINT ( 'NONE',  ( -1.004999999999999893, 1.149999999999999911, -0.5747499999999999831 ) ) ;
#28 = CARTESIAN_POINT ( 'NONE',  ( -1.004999999999999893, 1.099750000000000005, 0.5747499999999999831 ) ) ;
#29 = AXIS2_PLACEMENT_3D ( 'NONE', #779, #283, #689 ) ;
#30 = EDGE_LOOP ( 'NONE', ( #221, #545, #396 ) ) ;
#31 = VECTOR ( 'NONE', #873, 1000.000000000000000 ) ;
#32 = EDGE_LOOP ( 'NONE', ( #485, #603, #95, #8 ) ) ;
#33 = CARTESIAN_POINT ( 'NONE',  ( 0.4950000000008003553, 1.099750000000000005, 0.6082499999999998463 ) ) ;
#34 = AXIS2_PLACEMENT_3D ( 'NONE', #1280, #696, #720 ) ;
#35 = CARTESIAN_POINT ( 'NONE',  ( -0.4949999999999997735, 0.01674999999999999753, -0.5747499999999999831 ) ) ;
#36 = ORIENTED_EDGE ( 'NONE', *, *, #12, .F. ) ;
#37 = VECTOR ( 'NONE', #87, 1000.000000000000000 ) ;
#38 = CARTESIAN_POINT ( 'NONE',  ( 0.4949999999999997735, 1.099750000000000005, 0.6249999999999998890 ) ) ;
#39 = DIRECTION ( 'NONE',  ( 0.0000000000000000000, -1.000000000000000000, -0.0000000000000000000 ) ) ;
#40 = EDGE_CURVE ( 'NONE', #1193, #973, #944, .T. ) ;
#41 = VECTOR ( 'NONE', #1018, 1000.000000000000000 ) ;
#42 = STYLED_ITEM ( 'NONE', ( #330 ), #637 ) ;
#43 = EDGE_LOOP ( 'NONE', ( #190, #513, #165, #101 ) ) ;
#44 = VECTOR ( 'NONE', #1082, 1000.000000000000000 ) ;
#45 = EDGE_LOOP ( 'NONE', ( #194, #965, #1058, #503 ) ) ;
#46 = CARTESIAN_POINT ( 'NONE',  ( 0.4950000000008003553, 1.099750000000000005, 0.5747499999999999831 ) ) ;
#47 = DIRECTION ( 'NONE',  ( 0.0000000000000000000, 0.0000000000000000000, -1.000000000000000000 ) ) ;
#48 = VECTOR ( 'NONE', #536, 1000.000000000000000 ) ;
#49 = CIRCLE ( 'NONE', #521, 0.05024999999999994749 ) ;
#50 = AXIS2_PLACEMENT_3D ( 'NONE', #807, #1091, #216 ) ;
#51 = ORIENTED_EDGE ( 'NONE', *, *, #722, .F. ) ;
#52 =( NAMED_UNIT ( * ) SI_UNIT ( $, .STERADIAN. ) SOLID_ANGLE_UNIT ( ) );
#53 = COLOUR_RGB ( '',0.7921568627450980005, 0.8196078431372548767, 0.9333333333333333481 ) ;
#54 = DIRECTION ( 'NONE',  ( 1.000000000000000000, 0.0000000000000000000, 0.0000000000000000000 ) ) ;
#55 = EDGE_CURVE ( 'NONE', #274, #498, #1254, .T. ) ;
#56 = FACE_OUTER_BOUND ( 'NONE', #878, .T. ) ;
#57 = ORIENTED_EDGE ( 'NONE', *, *, #153, .F. ) ;
#58 = SURFACE_SIDE_STYLE ('',( #270 ) ) ;
#59 = ORIENTED_EDGE ( 'NONE', *, *, #247, .T. ) ;
#61 = VECTOR ( 'NONE', #959, 1000.000000000000000 ) ;
#60 = CARTESIAN_POINT ( 'NONE',  ( 0.4950000000008003553, 1.133249999999999869, 0.5747499999999999831 ) ) ;
#62 = CARTESIAN_POINT ( 'NONE',  ( 0.0000000000000000000, 1.099750000000000005, -0.5747499999999999831 ) ) ;
#63 = MANIFOLD_SOLID_BREP ( 'Mirror2', #552 ) ;
#64 = ORIENTED_EDGE ( 'NONE', *, *, #161, .T. ) ;
#65 = LINE ( 'NONE', #830, #811 ) ;
#66 = AXIS2_PLACEMENT_3D ( 'NONE', #448, #166, #158 ) ;
#67 = CARTESIAN_POINT ( 'NONE',  ( 500000.0000000000582, 1.133249999999999869, -0.5747500000433680700 ) ) ;
#68 = ORIENTED_EDGE ( 'NONE', *, *, #451, .F. ) ;
#69 = SURFACE_SIDE_STYLE ('',( #882 ) ) ;
#70 = DIRECTION ( 'NONE',  ( 0.0000000000000000000, 0.0000000000000000000, -1.000000000000000000 ) ) ;
#71 = ORIENTED_EDGE ( 'NONE', *, *, #410, .F. ) ;
#72 = DIRECTION ( 'NONE',  ( -1.000000000000000000, -0.0000000000000000000, 8.673617379884036705E-17 ) ) ;
#73 = CIRCLE ( 'NONE', #1234, 0.03349999999999989098 ) ;
#74 = CIRCLE ( 'NONE', #50, 0.05024999999999994749 ) ;
#75 = PLANE ( 'NONE',  #229 ) ;
#76 = COLOUR_RGB ( '',0.7921568627450980005, 0.8196078431372548767, 0.9333333333333333481 ) ;
#77 = LINE ( 'NONE', #157, #793 ) ;
#78 = EDGE_LOOP ( 'NONE', ( #1165, #156, #1168, #1012 ) ) ;
#79 = EDGE_CURVE ( 'NONE', #1279, #906, #841, .T. ) ;
#80 = AXIS2_PLACEMENT_3D ( 'NONE', #360, #374, #1164 ) ;
#81 = CARTESIAN_POINT ( 'NONE',  ( 0.9547499999999998765, 0.05024999999999994749, -0.5747499999999999831 ) ) ;
#82 = SURFACE_STYLE_USAGE ( .BOTH. , #69 ) ;
#83 = LINE ( 'NONE', #763, #133 ) ;
#84 = DIRECTION ( 'NONE',  ( 0.0000000000000000000, 0.0000000000000000000, 1.000000000000000000 ) ) ;
#85 = ORIENTED_EDGE ( 'NONE', *, *, #827, .F. ) ;
#86 = EDGE_CURVE ( 'NONE', #1046, #299, #112, .T. ) ;
#87 = DIRECTION ( 'NONE',  ( -1.000000000000000000, -0.0000000000000000000, -0.0000000000000000000 ) ) ;
#88 = EDGE_CURVE ( 'NONE', #1191, #1253, #318, .T. ) ;
#89 = PLANE ( 'NONE',  #904 ) ;
#90 = CARTESIAN_POINT ( 'NONE',  ( -0.4949999999999997735, 1.099750000000000005, 0.6082499999999998463 ) ) ;
#91 = VECTOR ( 'NONE', #403, 1000.000000000000000 ) ;
#92 = LINE ( 'NONE', #749, #173 ) ;
#93 = CARTESIAN_POINT ( 'NONE',  ( -0.9547499999999998765, 1.099750000000000005, 0.5747499999999999831 ) ) ;
#94 = CARTESIAN_POINT ( 'NONE',  ( 1.004999999999999893, 1.099750000000000005, -0.5747499999999999831 ) ) ;
#95 = ORIENTED_EDGE ( 'NONE', *, *, #440, .T. ) ;
#96 = EDGE_LOOP ( 'NONE', ( #427, #560, #1277 ) ) ;
#97 = DIRECTION ( 'NONE',  ( -0.0000000000000000000, -0.0000000000000000000, -1.000000000000000000 ) ) ;
#98 = CARTESIAN_POINT ( 'NONE',  ( 0.4950000000008003553, 0.05024999999999994749, 0.6082499999999999574 ) ) ;
#99 = ADVANCED_FACE ( 'NONE', ( #1140 ), #895, .T. ) ;
#100 = FACE_OUTER_BOUND ( 'NONE', #30, .T. ) ;
#101 = ORIENTED_EDGE ( 'NONE', *, *, #480, .F. ) ;
#102 = CARTESIAN_POINT ( 'NONE',  ( -0.9547499999999998765, 0.05024999999999999606, 0.5747499999999999831 ) ) ;
#103 = ORIENTED_EDGE ( 'NONE', *, *, #1215, .T. ) ;
#104 = LINE ( 'NONE', #661, #447 ) ;
#105 = EDGE_CURVE ( 'NONE', #302, #348, #439, .T. ) ;
#106 = EDGE_LOOP ( 'NONE', ( #1217, #319, #326, #202 ) ) ;
#107 = LINE ( 'NONE', #507, #757 ) ;
#108 = AXIS2_PLACEMENT_3D ( 'NONE', #430, #1222, #562 ) ;
#109 = DIRECTION ( 'NONE',  ( 0.0000000000000000000, 1.000000000000000000, 0.0000000000000000000 ) ) ;
#110 = ORIENTED_EDGE ( 'NONE', *, *, #327, .F. ) ;
#111 = DIRECTION ( 'NONE',  ( 8.673617379884036705E-17, -0.0000000000000000000, -1.000000000000000000 ) ) ;
#112 = LINE ( 'NONE', #286, #213 ) ;
#113 = EDGE_LOOP ( 'NONE', ( #268, #699, #818, #240 ) ) ;
#114 = DIRECTION ( 'NONE',  ( 1.000000000000000000, 0.0000000000000000000, 8.673617379884036705E-17 ) ) ;
#115 = ADVANCED_FACE ( 'NONE', ( #405 ), #303, .F. ) ;
#116 = AXIS2_PLACEMENT_3D ( 'NONE', #913, #520, #399 ) ;
#117 = FACE_OUTER_BOUND ( 'NONE', #164, .T. ) ;
#118 = FACE_OUTER_BOUND ( 'NONE', #32, .T. ) ;
#119 = DIRECTION ( 'NONE',  ( -0.0000000000000000000, 0.0000000000000000000, -1.000000000000000000 ) ) ;
#120 = ORIENTED_EDGE ( 'NONE', *, *, #20, .F. ) ;
#121 = PRODUCT_DEFINITION_SHAPE ( 'NONE', 'NONE',  #1209 ) ;
#122 = ORIENTED_EDGE ( 'NONE', *, *, #716, .F. ) ;
#123 = CARTESIAN_POINT ( 'NONE',  ( -1.004999999999999893, 1.149999999999999911, -0.6249999999999998890 ) ) ;
#124 = EDGE_CURVE ( 'NONE', #299, #1240, #177, .T. ) ;
#125 = CYLINDRICAL_SURFACE ( 'NONE', #116, 0.03349999999999989098 ) ;
#126 = VERTEX_POINT ( 'NONE', #773 ) ;
#127 = ORIENTED_EDGE ( 'NONE', *, *, #1062, .F. ) ;
#128 = CARTESIAN_POINT ( 'NONE',  ( -0.9547499999999998765, 1.099750000000000005, 0.5747499999999999831 ) ) ;
#129 = CARTESIAN_POINT ( 'NONE',  ( 1.004999999999999893, 0.05024999999999994749, -0.6249999999999998890 ) ) ;
#130 = CARTESIAN_POINT ( 'NONE',  ( -0.9547499999999998765, 1.149999999999999911, -0.5747499999999999831 ) ) ;
#131 = DIRECTION ( 'NONE',  ( 0.0000000000000000000, 0.0000000000000000000, 1.000000000000000000 ) ) ;
#132 = AXIS2_PLACEMENT_3D ( 'NONE', #329, #1025, #424 ) ;
#133 = VECTOR ( 'NONE', #457, 1000.000000000000000 ) ;
#134 = ORIENTED_EDGE ( 'NONE', *, *, #1257, .T. ) ;
#135 =( GEOMETRIC_REPRESENTATION_CONTEXT ( 3 ) GLOBAL_UNCERTAINTY_ASSIGNED_CONTEXT ( ( #680 ) ) GLOBAL_UNIT_ASSIGNED_CONTEXT ( ( #859, #1047, #1057 ) ) REPRESENTATION_CONTEXT ( 'NONE', 'WORKASPACE' ) );
#136 = ORIENTED_EDGE ( 'NONE', *, *, #739, .T. ) ;
#137 = FILL_AREA_STYLE_COLOUR ( '', #142 ) ;
#138 = FACE_OUTER_BOUND ( 'NONE', #398, .T. ) ;
#139 =( GEOMETRIC_REPRESENTATION_CONTEXT ( 3 ) GLOBAL_UNCERTAINTY_ASSIGNED_CONTEXT ( ( #772 ) ) GLOBAL_UNIT_ASSIGNED_CONTEXT ( ( #1152, #770, #765 ) ) REPRESENTATION_CONTEXT ( 'NONE', 'WORKASPACE' ) );
#140 = LINE ( 'NONE', #1249, #936 ) ;
#142 = COLOUR_RGB ( '',0.4862745098039215619, 0.2352941176470588203, 0.01568627450980392135 ) ;
#141 = DIRECTION ( 'NONE',  ( -1.000000000000000000, 0.0000000000000000000, 0.0000000000000000000 ) ) ;
#143 = PLANE ( 'NONE',  #651 ) ;
#144 = AXIS2_PLACEMENT_3D ( 'NONE', #672, #70, #679 ) ;
#145 = DIRECTION ( 'NONE',  ( 0.0000000000000000000, -1.000000000000000000, 1.033065433525968878E-16 ) ) ;
#146 = ORIENTED_EDGE ( 'NONE', *, *, #55, .F. ) ;
#147 = LINE ( 'NONE', #385, #643 ) ;
#148 = DIRECTION ( 'NONE',  ( 0.0000000000000000000, 0.0000000000000000000, 1.000000000000000000 ) ) ;
#149 = ORIENTED_EDGE ( 'NONE', *, *, #614, .F. ) ;
#150 = ADVANCED_FACE ( 'NONE', ( #359 ), #1233, .T. ) ;
#151 = DIRECTION ( 'NONE',  ( 1.000000000000000000, 0.0000000000000000000, -8.673617379884036705E-17 ) ) ;
#152 = CARTESIAN_POINT ( 'NONE',  ( -0.9547499999999998765, 1.099750000000000005, -0.6249999999999998890 ) ) ;
#153 = EDGE_CURVE ( 'NONE', #1202, #840, #65, .T. ) ;
#154 = PLANE ( 'NONE',  #883 ) ;
#155 = AXIS2_PLACEMENT_3D ( 'NONE', #1167, #467, #183 ) ;
#156 = ORIENTED_EDGE ( 'NONE', *, *, #335, .T. ) ;
#157 = CARTESIAN_POINT ( 'NONE',  ( 500000.0000000000582, 0.05024999999999994749, 0.6082499999566318705 ) ) ;
#158 = DIRECTION ( 'NONE',  ( 0.0000000000000000000, 0.0000000000000000000, -1.000000000000000000 ) ) ;
#159 = ORIENTED_EDGE ( 'NONE', *, *, #247, .F. ) ;
#160 = SURFACE_STYLE_USAGE ( .BOTH. , #260 ) ;
#161 = EDGE_CURVE ( 'NONE', #274, #375, #642, .T. ) ;
#162 = ORIENTED_EDGE ( 'NONE', *, *, #802, .F. ) ;
#163 = EDGE_CURVE ( 'NONE', #1240, #566, #275, .T. ) ;
#164 = EDGE_LOOP ( 'NONE', ( #120, #1107, #476 ) ) ;
#165 = ORIENTED_EDGE ( 'NONE', *, *, #105, .F. ) ;
#166 = DIRECTION ( 'NONE',  ( 1.000000000000000000, -0.0000000000000000000, 0.0000000000000000000 ) ) ;
#167 = DIRECTION ( 'NONE',  ( 1.000000000000000000, 0.0000000000000000000, 0.0000000000000000000 ) ) ;
#168 = LINE ( 'NONE', #341, #353 ) ;
#169 = AXIS2_PLACEMENT_3D ( 'NONE', #703, #5, #612 ) ;
#170 = CARTESIAN_POINT ( 'NONE',  ( 0.9547499999999998765, 1.149999999999999911, 0.6249999999999998890 ) ) ;
#171 = ORIENTED_EDGE ( 'NONE', *, *, #79, .F. ) ;
#172 = DIRECTION ( 'NONE',  ( -0.0000000000000000000, -0.0000000000000000000, -1.000000000000000000 ) ) ;
#173 = VECTOR ( 'NONE', #958, 1000.000000000000000 ) ;
#174 =( LENGTH_UNIT ( ) NAMED_UNIT ( * ) SI_UNIT ( .MILLI., .METRE. ) );
#175 = EDGE_CURVE ( 'NONE', #1224, #226, #49, .T. ) ;
#176 = EDGE_LOOP ( 'NONE', ( #1008, #382, #645, #1006 ) ) ;
#177 = CIRCLE ( 'NONE', #1263, 0.05024999999999994749 ) ;
#178 = ADVANCED_FACE ( 'NONE', ( #304 ), #143, .F. ) ;
#179 = AXIS2_PLACEMENT_3D ( 'NONE', #81, #805, #206 ) ;
#180 = CARTESIAN_POINT ( 'NONE',  ( 0.4950000000008003553, 1.099750000000000005, 0.6082499999999998463 ) ) ;
#181 = ORIENTED_EDGE ( 'NONE', *, *, #1103, .F. ) ;
#182 = DIRECTION ( 'NONE',  ( 0.0000000000000000000, -1.000000000000000000, 0.0000000000000000000 ) ) ;
#183 = DIRECTION ( 'NONE',  ( 0.0000000000000000000, 0.0000000000000000000, -1.000000000000000000 ) ) ;
#184 = FACE_OUTER_BOUND ( 'NONE', #1027, .T. ) ;
#185 = DIRECTION ( 'NONE',  ( 0.0000000000000000000, 0.0000000000000000000, -1.000000000000000000 ) ) ;
#186 = CARTESIAN_POINT ( 'NONE',  ( 0.9547499999999998765, 1.099750000000000005, -0.5747499999999999831 ) ) ;
#187 = AXIS2_PLACEMENT_3D ( 'NONE', #604, #11, #711 ) ;
#188 = VERTEX_POINT ( 'NONE', #930 ) ;
#189 = DIRECTION ( 'NONE',  ( 1.000000000000000000, 0.0000000000000000000, -8.673617379884036705E-17 ) ) ;
#190 = ORIENTED_EDGE ( 'NONE', *, *, #912, .F. ) ;
#191 = CARTESIAN_POINT ( 'NONE',  ( -0.4949999999999998845, 0.05024999999999994749, -0.6249999999999998890 ) ) ;
#192 = ORIENTED_EDGE ( 'NONE', *, *, #553, .T. ) ;
#193 = CARTESIAN_POINT ( 'NONE',  ( -0.4949999999999998845, 1.149999999999999911, -0.5747499999999999831 ) ) ;
#194 = ORIENTED_EDGE ( 'NONE', *, *, #506, .T. ) ;
#195 = EDGE_CURVE ( 'NONE', #777, #1026, #825, .T. ) ;
#196 = CARTESIAN_POINT ( 'NONE',  ( -1.004999999999999893, 1.149999999999999911, 0.6249999999999998890 ) ) ;
#197 = VECTOR ( 'NONE', #838, 1000.000000000000000 ) ;
#198 = DIRECTION ( 'NONE',  ( 1.000000000000000000, 0.0000000000000000000, -8.673617379884036705E-17 ) ) ;
#199 = DIRECTION ( 'NONE',  ( 8.673617379884036705E-17, 0.0000000000000000000, 1.000000000000000000 ) ) ;
#200 = ORIENTED_EDGE ( 'NONE', *, *, #1130, .F. ) ;
#201 = EDGE_CURVE ( 'NONE', #126, #1013, #241, .T. ) ;
#202 = ORIENTED_EDGE ( 'NONE', *, *, #201, .T. ) ;
#203 = AXIS2_PLACEMENT_3D ( 'NONE', #443, #1118, #141 ) ;
#204 = LINE ( 'NONE', #673, #1100 ) ;
#205 = ADVANCED_FACE ( 'NONE', ( #210 ), #869, .T. ) ;
#206 = DIRECTION ( 'NONE',  ( 0.0000000000000000000, 0.0000000000000000000, 1.000000000000000000 ) ) ;
#207 = CIRCLE ( 'NONE', #1258, 0.03350000000000000200 ) ;
#208 = DIRECTION ( 'NONE',  ( 0.0000000000000000000, 0.0000000000000000000, 1.000000000000000000 ) ) ;
#209 = ORIENTED_EDGE ( 'NONE', *, *, #1246, .F. ) ;
#210 = FACE_OUTER_BOUND ( 'NONE', #627, .T. ) ;
#211 = DIRECTION ( 'NONE',  ( 8.673617379884036705E-17, -0.0000000000000000000, -1.000000000000000000 ) ) ;
#212 = ORIENTED_EDGE ( 'NONE', *, *, #480, .T. ) ;
#213 = VECTOR ( 'NONE', #981, 1000.000000000000000 ) ;
#214 = VERTEX_POINT ( 'NONE', #1042 ) ;
#215 = CARTESIAN_POINT ( 'NONE',  ( 0.9547499999999998765, 1.099750000000000005, 0.6249999999999998890 ) ) ;
#216 = DIRECTION ( 'NONE',  ( 0.0000000000000000000, 0.0000000000000000000, 1.000000000000000000 ) ) ;
#217 = LINE ( 'NONE', #1238, #764 ) ;
#218 = DIRECTION ( 'NONE',  ( 0.0000000000000000000, 1.000000000000000000, -1.033065433525968878E-16 ) ) ;
#219 = ORIENTED_EDGE ( 'NONE', *, *, #813, .T. ) ;
#220 = EDGE_CURVE ( 'NONE', #573, #188, #92, .T. ) ;
#221 = ORIENTED_EDGE ( 'NONE', *, *, #1197, .F. ) ;
#222 = FACE_OUTER_BOUND ( 'NONE', #803, .T. ) ;
#223 = STYLED_ITEM ( 'NONE', ( #1116 ), #712 ) ;
#224 = DIRECTION ( 'NONE',  ( 0.0000000000000000000, 0.0000000000000000000, -1.000000000000000000 ) ) ;
#225 = FACE_OUTER_BOUND ( 'NONE', #858, .T. ) ;
#226 = VERTEX_POINT ( 'NONE', #864 ) ;
#227 = CARTESIAN_POINT ( 'NONE',  ( 0.9547499999999998765, 0.05024999999999999606, -0.5747499999999999831 ) ) ;
#228 = DIRECTION ( 'NONE',  ( -0.0000000000000000000, 1.000000000000000000, -0.0000000000000000000 ) ) ;
#229 = AXIS2_PLACEMENT_3D ( 'NONE', #284, #1074, #1172 ) ;
#230 = CARTESIAN_POINT ( 'NONE',  ( -0.9547499999999998765, 0.05024999999999999606, -0.5747499999999999831 ) ) ;
#231 = CARTESIAN_POINT ( 'NONE',  ( -0.4949999999999997735, 1.149999999999999911, 0.5747499999999999831 ) ) ;
#232 = DIRECTION ( 'NONE',  ( 0.0000000000000000000, -0.0000000000000000000, -1.000000000000000000 ) ) ;
#233 = ORIENTED_EDGE ( 'NONE', *, *, #1080, .F. ) ;
#234 = ORIENTED_EDGE ( 'NONE', *, *, #879, .F. ) ;
#235 = DIRECTION ( 'NONE',  ( 1.000000000000000000, 0.0000000000000000000, 0.0000000000000000000 ) ) ;
#236 = FACE_OUTER_BOUND ( 'NONE', #580, .T. ) ;
#237 =( GEOMETRIC_REPRESENTATION_CONTEXT ( 3 ) GLOBAL_UNCERTAINTY_ASSIGNED_CONTEXT ( ( #483 ) ) GLOBAL_UNIT_ASSIGNED_CONTEXT ( ( #174, #778, #370 ) ) REPRESENTATION_CONTEXT ( 'NONE', 'WORKASPACE' ) );
#238 = DIRECTION ( 'NONE',  ( 0.0000000000000000000, 0.0000000000000000000, 1.000000000000000000 ) ) ;
#239 = CYLINDRICAL_SURFACE ( 'NONE', #169, 0.03349999999999989098 ) ;
#240 = ORIENTED_EDGE ( 'NONE', *, *, #163, .F. ) ;
#241 = LINE ( 'NONE', #231, #1252 ) ;
#242 = DIRECTION ( 'NONE',  ( -1.000000000000000000, -0.0000000000000000000, 8.673617379884036705E-17 ) ) ;
#243 = ORIENTED_EDGE ( 'NONE', *, *, #569, .T. ) ;
#244 = FACE_OUTER_BOUND ( 'NONE', #113, .T. ) ;
#245 = DIRECTION ( 'NONE',  ( 1.000000000000000000, 0.0000000000000000000, 8.673617379884036705E-17 ) ) ;
#246 = ORIENTED_EDGE ( 'NONE', *, *, #953, .F. ) ;
#247 = EDGE_CURVE ( 'NONE', #339, #1261, #710, .T. ) ;
#248 = AXIS2_PLACEMENT_3D ( 'NONE', #707, #401, #218 ) ;
#249 = SPHERICAL_SURFACE ( 'NONE', #289, 0.05024999999999999606 ) ;
#250 = ORIENTED_EDGE ( 'NONE', *, *, #440, .F. ) ;
#251 = ORIENTED_EDGE ( 'NONE', *, *, #1210, .F. ) ;
#252 = DIRECTION ( 'NONE',  ( 0.0000000000000000000, 1.000000000000000000, 0.0000000000000000000 ) ) ;
#253 = CYLINDRICAL_SURFACE ( 'NONE', #537, 0.05024999999999994749 ) ;
#254 = EDGE_LOOP ( 'NONE', ( #737, #1230, #584, #365 ) ) ;
#256 = LINE ( 'NONE', #855, #478 ) ;
#255 = FILL_AREA_STYLE_COLOUR ( '', #53 ) ;
#257 = ADVANCED_FACE ( 'NONE', ( #970 ), #154, .F. ) ;
#258 = FACE_OUTER_BOUND ( 'NONE', #281, .T. ) ;
#259 = AXIS2_PLACEMENT_3D ( 'NONE', #186, #1061, #277 ) ;
#260 = SURFACE_SIDE_STYLE ('',( #271 ) ) ;
#261 = DIRECTION ( 'NONE',  ( 1.000000000000000000, 0.0000000000000000000, 8.673617379884036705E-17 ) ) ;
#262 = EDGE_CURVE ( 'NONE', #951, #840, #639, .T. ) ;
#263 = SURFACE_STYLE_FILL_AREA ( #267 ) ;
#264 = CARTESIAN_POINT ( 'NONE',  ( -1.004999999999999893, 0.05024999999999994749, -0.5747499999999999831 ) ) ;
#265 = CIRCLE ( 'NONE', #1106, 0.05024999999999994749 ) ;
#266 = ORIENTED_EDGE ( 'NONE', *, *, #163, .T. ) ;
#267 = FILL_AREA_STYLE ('',( #255 ) ) ;
#268 = ORIENTED_EDGE ( 'NONE', *, *, #371, .F. ) ;
#269 = DIRECTION ( 'NONE',  ( -1.000000000000000000, -0.0000000000000000000, -0.0000000000000000000 ) ) ;
#270 = SURFACE_STYLE_FILL_AREA ( #356 ) ;
#271 = SURFACE_STYLE_FILL_AREA ( #747 ) ;
#272 = PRESENTATION_LAYER_ASSIGNMENT (  '', '', ( #223 ) ) ;
#273 = PLANE ( 'NONE',  #742 ) ;
#274 = VERTEX_POINT ( 'NONE', #982 ) ;
#275 = LINE ( 'NONE', #361, #1075 ) ;
#276 = DIRECTION ( 'NONE',  ( 1.000000000000000000, 0.0000000000000000000, 0.0000000000000000000 ) ) ;
#277 = DIRECTION ( 'NONE',  ( 1.000000000000000000, 0.0000000000000000000, 0.0000000000000000000 ) ) ;
#278 = AXIS2_PLACEMENT_3D ( 'NONE', #1255, #1174, #1084 ) ;
#279 = EDGE_LOOP ( 'NONE', ( #542, #659, #1256, #297 ) ) ;
#280 = DIRECTION ( 'NONE',  ( -1.000000000000000000, -0.0000000000000000000, -0.0000000000000000000 ) ) ;
#281 = EDGE_LOOP ( 'NONE', ( #891, #769, #103, #1160 ) ) ;
#282 = DIRECTION ( 'NONE',  ( 0.0000000000000000000, 0.0000000000000000000, -1.000000000000000000 ) ) ;
#283 = DIRECTION ( 'NONE',  ( -1.000000000000000000, 0.0000000000000000000, 0.0000000000000000000 ) ) ;
#284 = CARTESIAN_POINT ( 'NONE',  ( -1.004999999999999893, 1.149999999999999911, -0.6249999999999998890 ) ) ;
#285 = CIRCLE ( 'NONE', #380, 0.05024999999999994749 ) ;
#286 = CARTESIAN_POINT ( 'NONE',  ( 0.0000000000000000000, 0.0000000000000000000, 0.5747499999999999831 ) ) ;
#287 = EDGE_CURVE ( 'NONE', #1068, #544, #387, .T. ) ;
#288 = ORIENTED_EDGE ( 'NONE', *, *, #88, .F. ) ;
#289 = AXIS2_PLACEMENT_3D ( 'NONE', #227, #1128, #541 ) ;
#290 = DIRECTION ( 'NONE',  ( 0.0000000000000000000, 1.000000000000000000, 0.0000000000000000000 ) ) ;
#291 = ORIENTED_EDGE ( 'NONE', *, *, #124, .F. ) ;
#292 = ADVANCED_FACE ( 'NONE', ( #436 ), #985, .T. ) ;
#293 = DIRECTION ( 'NONE',  ( 0.0000000000000000000, 1.000000000000000000, -0.0000000000000000000 ) ) ;
#294 = DIRECTION ( 'NONE',  ( -1.000000000000000000, 0.0000000000000000000, -0.0000000000000000000 ) ) ;
#295 = CARTESIAN_POINT ( 'NONE',  ( -0.9547499999999998765, 1.099750000000000005, 0.0000000000000000000 ) ) ;
#296 = VECTOR ( 'NONE', #809, 1000.000000000000000 ) ;
#297 = ORIENTED_EDGE ( 'NONE', *, *, #352, .F. ) ;
#298 = ADVANCED_FACE ( 'NONE', ( #225 ), #484, .T. ) ;
#299 = VERTEX_POINT ( 'NONE', #694 ) ;
#300 = VECTOR ( 'NONE', #21, 1000.000000000000000 ) ;
#301 = CARTESIAN_POINT ( 'NONE',  ( 0.0000000000000000000, 0.0000000000000000000, 0.0000000000000000000 ) ) ;
#302 = VERTEX_POINT ( 'NONE', #1078 ) ;
#303 = PLANE ( 'NONE',  #610 ) ;
#304 = FACE_OUTER_BOUND ( 'NONE', #1020, .T. ) ;
#305 = EDGE_CURVE ( 'NONE', #1261, #1193, #812, .T. ) ;
#306 = CARTESIAN_POINT ( 'NONE',  ( -0.4949999999999998845, 1.099750000000000005, -0.6249999999999998890 ) ) ;
#307 = ADVANCED_FACE ( 'NONE', ( #946 ), #1033, .T. ) ;
#308 = CARTESIAN_POINT ( 'NONE',  ( 0.4949999999999998845, 1.149999999999999911, -0.5747499999999999831 ) ) ;
#309 = VECTOR ( 'NONE', #598, 1000.000000000000000 ) ;
#310 = EDGE_LOOP ( 'NONE', ( #429, #746, #826, #962 ) ) ;
#311 = EDGE_CURVE ( 'NONE', #26, #633, #676, .T. ) ;
#312 = ORIENTED_EDGE ( 'NONE', *, *, #305, .T. ) ;
#313 = PRODUCT_DEFINITION_CONTEXT ( 'detailed design', #1156, 'design' ) ;
#314 = AXIS2_PLACEMENT_3D ( 'NONE', #526, #531, #238 ) ;
#315 = DIRECTION ( 'NONE',  ( -1.000000000000000000, -0.0000000000000000000, -0.0000000000000000000 ) ) ;
#316 = CYLINDRICAL_SURFACE ( 'NONE', #314, 0.05024999999999994749 ) ;
#317 = CARTESIAN_POINT ( 'NONE',  ( 0.9547499999999998765, 0.0000000000000000000, -0.5747499999999999831 ) ) ;
#318 = LINE ( 'NONE', #379, #628 ) ;
#319 = ORIENTED_EDGE ( 'NONE', *, *, #1080, .T. ) ;
#320 = DIRECTION ( 'NONE',  ( -0.0000000000000000000, 1.000000000000000000, -0.0000000000000000000 ) ) ;
#321 = EDGE_CURVE ( 'NONE', #1225, #1248, #147, .T. ) ;
#322 = UNCERTAINTY_MEASURE_WITH_UNIT (LENGTH_MEASURE( 1.000000000000000082E-05 ), #865, 'distance_accuracy_value', 'NONE');
#323 = ADVANCED_FACE ( 'NONE', ( #884 ), #89, .F. ) ;
#324 = CARTESIAN_POINT ( 'NONE',  ( -1.004999999999999893, 0.05024999999999994749, -0.5747499999999999831 ) ) ;
#325 = LINE ( 'NONE', #27, #649 ) ;
#326 = ORIENTED_EDGE ( 'NONE', *, *, #1055, .T. ) ;
#327 = EDGE_CURVE ( 'NONE', #633, #1225, #502, .T. ) ;
#328 = ORIENTED_EDGE ( 'NONE', *, *, #1170, .T. ) ;
#330 = PRESENTATION_STYLE_ASSIGNMENT (( #160 ) ) ;
#329 = CARTESIAN_POINT ( 'NONE',  ( 0.9547499999999998765, 1.099750000000000005, 0.5747499999999999831 ) ) ;
#331 = CARTESIAN_POINT ( 'NONE',  ( 0.4949999999999998845, 1.099750000000000005, -0.6249999999999998890 ) ) ;
#332 = ORIENTED_EDGE ( 'NONE', *, *, #614, .T. ) ;
#333 = ORIENTED_EDGE ( 'NONE', *, *, #455, .T. ) ;
#334 = DIRECTION ( 'NONE',  ( 0.0000000000000000000, 1.000000000000000000, 0.0000000000000000000 ) ) ;
#335 = EDGE_CURVE ( 'NONE', #421, #459, #77, .T. ) ;
#336 = CARTESIAN_POINT ( 'NONE',  ( 0.9547499999999998765, 1.099750000000000005, 0.5747499999999999831 ) ) ;
#337 = DIRECTION ( 'NONE',  ( 8.673617379884036705E-17, 1.033065433525968878E-16, 1.000000000000000000 ) ) ;
#338 = CARTESIAN_POINT ( 'NONE',  ( 0.4950000000008003553, 0.05024999999999994749, -0.6082499999999998463 ) ) ;
#339 = VERTEX_POINT ( 'NONE', #1144 ) ;
#340 = ORIENTED_EDGE ( 'NONE', *, *, #525, .T. ) ;
#341 = CARTESIAN_POINT ( 'NONE',  ( 500000.0000000000582, 0.01674999999999999753, -0.5747500000433680700 ) ) ;
#342 = VECTOR ( 'NONE', #347, 1000.000000000000000 ) ;
#343 = AXIS2_PLACEMENT_3D ( 'NONE', #571, #974, #585 ) ;
#344 = CARTESIAN_POINT ( 'NONE',  ( -0.4949999999999997735, 1.099750000000000005, 0.6082499999999998463 ) ) ;
#345 = VECTOR ( 'NONE', #426, 1000.000000000000000 ) ;
#346 = DIRECTION ( 'NONE',  ( 0.0000000000000000000, 0.0000000000000000000, -1.000000000000000000 ) ) ;
#347 = DIRECTION ( 'NONE',  ( -0.0000000000000000000, 0.0000000000000000000, -1.000000000000000000 ) ) ;
#348 = VERTEX_POINT ( 'NONE', #1063 ) ;
#349 = ADVANCED_FACE ( 'NONE', ( #564 ), #668, .F. ) ;
#350 = CARTESIAN_POINT ( 'NONE',  ( 0.4950000000008003553, 0.05024999999999995443, -0.6082499999999998463 ) ) ;
#351 = APPLICATION_CONTEXT ( 'automotive_design' ) ;
#352 = EDGE_CURVE ( 'NONE', #1191, #214, #1002, .T. ) ;
#353 = VECTOR ( 'NONE', #941, 1000.000000000000000 ) ;
#354 = SURFACE_SIDE_STYLE ('',( #263 ) ) ;
#355 = ORIENTED_EDGE ( 'NONE', *, *, #1179, .F. ) ;
#356 = FILL_AREA_STYLE ('',( #445 ) ) ;
#357 = DIRECTION ( 'NONE',  ( 0.0000000000000000000, 0.0000000000000000000, 1.000000000000000000 ) ) ;
#358 = EDGE_LOOP ( 'NONE', ( #1031, #219, #1089, #136, #621, #328, #64, #792 ) ) ;
#359 = FACE_OUTER_BOUND ( 'NONE', #1211, .T. ) ;
#360 = CARTESIAN_POINT ( 'NONE',  ( -0.4949999999999998845, 1.099750000000000005, -0.5747499999999999831 ) ) ;
#361 = CARTESIAN_POINT ( 'NONE',  ( -1.004999999999999893, 1.149999999999999911, 0.5747499999999999831 ) ) ;
#362 = AXIS2_PLACEMENT_3D ( 'NONE', #464, #469, #1271 ) ;
#363 = DIRECTION ( 'NONE',  ( -8.960414298788280290E-33, -1.000000000000000000, 1.033065433525968878E-16 ) ) ;
#364 = CIRCLE ( 'NONE', #578, 0.05024999999999994749 ) ;
#365 = ORIENTED_EDGE ( 'NONE', *, *, #667, .T. ) ;
#366 = CARTESIAN_POINT ( 'NONE',  ( 0.9547499999999998765, 1.149999999999999911, -0.5747499999999999831 ) ) ;
#367 = VERTEX_POINT ( 'NONE', #881 ) ;
#368 = LINE ( 'NONE', #180, #933 ) ;
#369 = CARTESIAN_POINT ( 'NONE',  ( -0.4949999999999997735, 1.099750000000000005, -0.5747499999999999831 ) ) ;
#370 =( NAMED_UNIT ( * ) SI_UNIT ( $, .STERADIAN. ) SOLID_ANGLE_UNIT ( ) );
#371 = EDGE_CURVE ( 'NONE', #767, #1240, #285, .T. ) ;
#372 = ORIENTED_EDGE ( 'NONE', *, *, #948, .T. ) ;
#373 = AXIS2_PLACEMENT_3D ( 'NONE', #46, #927, #432 ) ;
#374 = DIRECTION ( 'NONE',  ( 1.000000000000000000, -0.0000000000000000000, -8.673617379884036705E-17 ) ) ;
#375 = VERTEX_POINT ( 'NONE', #989 ) ;
#376 = ADVANCED_FACE ( 'NONE', ( #955 ), #759, .T. ) ;
#377 = ORIENTED_EDGE ( 'NONE', *, *, #993, .T. ) ;
#378 = DIRECTION ( 'NONE',  ( 1.000000000000000000, 0.0000000000000000000, 8.673617379884036705E-17 ) ) ;
#379 = CARTESIAN_POINT ( 'NONE',  ( 0.4950000000008003553, 1.133249999999999869, -0.5747500000867361569 ) ) ;
#380 = AXIS2_PLACEMENT_3D ( 'NONE', #1169, #798, #185 ) ;
#381 = CIRCLE ( 'NONE', #3, 0.05024999999999994749 ) ;
#382 = ORIENTED_EDGE ( 'NONE', *, *, #569, .F. ) ;
#383 = DIRECTION ( 'NONE',  ( -0.0000000000000000000, -1.000000000000000000, -0.0000000000000000000 ) ) ;
#384 = ORIENTED_EDGE ( 'NONE', *, *, #660, .T. ) ;
#385 = CARTESIAN_POINT ( 'NONE',  ( 500000.0000000000582, 1.099750000000000005, -0.6082500000433680443 ) ) ;
#386 = EDGE_CURVE ( 'NONE', #633, #367, #519, .T. ) ;
#387 = LINE ( 'NONE', #170, #1019 ) ;
#388 = ORIENTED_EDGE ( 'NONE', *, *, #794, .F. ) ;
#389 = ORIENTED_EDGE ( 'NONE', *, *, #722, .T. ) ;
#390 = ADVANCED_FACE ( 'NONE', ( #708 ), #940, .T. ) ;
#391 = VECTOR ( 'NONE', #1108, 1000.000000000000000 ) ;
#392 = EDGE_CURVE ( 'NONE', #6, #906, #74, .T. ) ;
#393 = DIRECTION ( 'NONE',  ( 8.960414298788280290E-33, 1.000000000000000000, -1.033065433525968878E-16 ) ) ;
#394 = LINE ( 'NONE', #1115, #41 ) ;
#395 = PRESENTATION_LAYER_ASSIGNMENT (  '', '', ( #42 ) ) ;
#396 = ORIENTED_EDGE ( 'NONE', *, *, #576, .F. ) ;
#397 = LINE ( 'NONE', #695, #44 ) ;
#398 = EDGE_LOOP ( 'NONE', ( #849, #847, #1200, #312 ) ) ;
#399 = DIRECTION ( 'NONE',  ( 0.0000000000000000000, 0.0000000000000000000, 1.000000000000000000 ) ) ;
#400 = CYLINDRICAL_SURFACE ( 'NONE', #875, 0.03350000000000000200 ) ;
#402 = CIRCLE ( 'NONE', #1188, 0.05024999999999994749 ) ;
#401 = DIRECTION ( 'NONE',  ( -8.673617379884036705E-17, -1.033065433525968878E-16, -1.000000000000000000 ) ) ;
#403 = DIRECTION ( 'NONE',  ( 8.673617379884036705E-17, 0.0000000000000000000, -1.000000000000000000 ) ) ;
#404 = ORIENTED_EDGE ( 'NONE', *, *, #311, .F. ) ;
#405 = FACE_OUTER_BOUND ( 'NONE', #310, .T. ) ;
#406 = STYLED_ITEM ( 'NONE', ( #1105 ), #63 ) ;
#407 = DIRECTION ( 'NONE',  ( 1.000000000000000000, 0.0000000000000000000, 0.0000000000000000000 ) ) ;
#408 = CARTESIAN_POINT ( 'NONE',  ( -0.9547499999999998765, 1.149999999999999911, 0.6249999999999998890 ) ) ;
#409 = CIRCLE ( 'NONE', #856, 0.05024999999999994749 ) ;
#410 = EDGE_CURVE ( 'NONE', #544, #348, #402, .T. ) ;
#411 = ADVANCED_FACE ( 'NONE', ( #258 ), #758, .T. ) ;
#412 = ORIENTED_EDGE ( 'NONE', *, *, #576, .T. ) ;
#413 = FACE_OUTER_BOUND ( 'NONE', #1077, .T. ) ;
#414 = AXIS2_PLACEMENT_3D ( 'NONE', #1038, #334, #235 ) ;
#415 = CARTESIAN_POINT ( 'NONE',  ( 0.9547499999999998765, 1.099750000000000005, 0.5747499999999999831 ) ) ;
#416 = LINE ( 'NONE', #570, #31 ) ;
#417 = DIRECTION ( 'NONE',  ( 1.000000000000000000, 0.0000000000000000000, 0.0000000000000000000 ) ) ;
#418 = DIRECTION ( 'NONE',  ( 1.000000000000000000, 0.0000000000000000000, 0.0000000000000000000 ) ) ;
#419 = DIRECTION ( 'NONE',  ( 0.0000000000000000000, -0.0000000000000000000, 1.000000000000000000 ) ) ;
#420 = ORIENTED_EDGE ( 'NONE', *, *, #86, .F. ) ;
#421 = VERTEX_POINT ( 'NONE', #98 ) ;
#422 = CARTESIAN_POINT ( 'NONE',  ( 500000.0000000000582, 0.05024999999999994749, 0.5747499999566318962 ) ) ;
#423 =( GEOMETRIC_REPRESENTATION_CONTEXT ( 3 ) GLOBAL_UNCERTAINTY_ASSIGNED_CONTEXT ( ( #322 ) ) GLOBAL_UNIT_ASSIGNED_CONTEXT ( ( #865, #1153, #52 ) ) REPRESENTATION_CONTEXT ( 'NONE', 'WORKASPACE' ) );
#424 = DIRECTION ( 'NONE',  ( 0.0000000000000000000, 0.0000000000000000000, 1.000000000000000000 ) ) ;
#425 = DIRECTION ( 'NONE',  ( 0.0000000000000000000, 0.0000000000000000000, 1.000000000000000000 ) ) ;
#426 = DIRECTION ( 'NONE',  ( 0.0000000000000000000, 0.0000000000000000000, 1.000000000000000000 ) ) ;
#427 = ORIENTED_EDGE ( 'NONE', *, *, #890, .T. ) ;
#428 = DIRECTION ( 'NONE',  ( 1.000000000000000000, 0.0000000000000000000, 8.673617379884036705E-17 ) ) ;
#429 = ORIENTED_EDGE ( 'NONE', *, *, #623, .T. ) ;
#430 = CARTESIAN_POINT ( 'NONE',  ( 1.004999999999999893, 0.05024999999999994749, 0.5747499999999999831 ) ) ;
#431 = COLOUR_RGB ( '',0.7921568627450980005, 0.8196078431372548767, 0.9333333333333333481 ) ;
#433 = CIRCLE ( 'NONE', #949, 0.05024999999999994749 ) ;
#432 = DIRECTION ( 'NONE',  ( 0.0000000000000000000, 0.0000000000000000000, -1.000000000000000000 ) ) ;
#434 = CARTESIAN_POINT ( 'NONE',  ( 500000.0000000000582, 0.05024999999999994749, -0.5747500000433680700 ) ) ;
#435 = ORIENTED_EDGE ( 'NONE', *, *, #386, .T. ) ;
#436 = FACE_OUTER_BOUND ( 'NONE', #45, .T. ) ;
#437 = ADVANCED_FACE ( 'NONE', ( #517 ), #125, .T. ) ;
#438 = ORIENTED_EDGE ( 'NONE', *, *, #86, .T. ) ;
#439 = LINE ( 'NONE', #808, #1121 ) ;
#440 = EDGE_CURVE ( 'NONE', #1026, #1184, #854, .T. ) ;
#441 =( NAMED_UNIT ( * ) PLANE_ANGLE_UNIT ( ) SI_UNIT ( $, .RADIAN. ) );
#442 =( GEOMETRIC_REPRESENTATION_CONTEXT ( 3 ) GLOBAL_UNCERTAINTY_ASSIGNED_CONTEXT ( ( #687 ) ) GLOBAL_UNIT_ASSIGNED_CONTEXT ( ( #945, #441, #1138 ) ) REPRESENTATION_CONTEXT ( 'NONE', 'WORKASPACE' ) );
#443 = CARTESIAN_POINT ( 'NONE',  ( 0.9547499999999998765, 1.099750000000000005, -0.5747499999999999831 ) ) ;
#444 = CYLINDRICAL_SURFACE ( 'NONE', #66, 0.05024999999999994749 ) ;
#445 = FILL_AREA_STYLE_COLOUR ( '', #431 ) ;
#446 = ORIENTED_EDGE ( 'NONE', *, *, #667, .F. ) ;
#447 = VECTOR ( 'NONE', #269, 1000.000000000000000 ) ;
#448 = CARTESIAN_POINT ( 'NONE',  ( -1.004999999999999893, 0.05024999999999994749, 0.5747499999999999831 ) ) ;
#449 = ORIENTED_EDGE ( 'NONE', *, *, #386, .F. ) ;
#450 = PRODUCT_DEFINITION_FORMATION_WITH_SPECIFIED_SOURCE ( 'ANY', '', #550, .NOT_KNOWN. ) ;
#451 = EDGE_CURVE ( 'NONE', #527, #605, #725, .T. ) ;
#452 = CARTESIAN_POINT ( 'NONE',  ( -0.9547499999999998765, 0.0000000000000000000, 0.0000000000000000000 ) ) ;
#453 = CARTESIAN_POINT ( 'NONE',  ( 0.0000000000000000000, 0.0000000000000000000, 0.0000000000000000000 ) ) ;
#454 = ORIENTED_EDGE ( 'NONE', *, *, #518, .T. ) ;
#455 = EDGE_CURVE ( 'NONE', #1225, #1191, #984, .T. ) ;
#456 = FACE_OUTER_BOUND ( 'NONE', #492, .T. ) ;
#457 = DIRECTION ( 'NONE',  ( -0.0000000000000000000, 1.000000000000000000, -0.0000000000000000000 ) ) ;
#458 = VECTOR ( 'NONE', #1001, 1000.000000000000000 ) ;
#459 = VERTEX_POINT ( 'NONE', #615 ) ;
#460 = PLANE ( 'NONE',  #155 ) ;
#461 = ORIENTED_EDGE ( 'NONE', *, *, #195, .F. ) ;
#462 = MECHANICAL_DESIGN_GEOMETRIC_PRESENTATION_REPRESENTATION (  '', ( #223 ), #442 ) ;
#463 = ORIENTED_EDGE ( 'NONE', *, *, #88, .T. ) ;
#464 = CARTESIAN_POINT ( 'NONE',  ( -0.9547499999999998765, 0.05024999999999999606, 0.5747499999999999831 ) ) ;
#465 = ORIENTED_EDGE ( 'NONE', *, *, #470, .T. ) ;
#466 = CIRCLE ( 'NONE', #259, 0.05024999999999994749 ) ;
#467 = DIRECTION ( 'NONE',  ( -1.000000000000000000, 0.0000000000000000000, 0.0000000000000000000 ) ) ;
#468 = EDGE_CURVE ( 'NONE', #528, #26, #1244, .T. ) ;
#469 = DIRECTION ( 'NONE',  ( 0.0000000000000000000, 1.000000000000000000, 0.0000000000000000000 ) ) ;
#470 = EDGE_CURVE ( 'NONE', #605, #777, #867, .T. ) ;
#471 = ADVANCED_FACE ( 'NONE', ( #1214 ), #723, .T. ) ;
#472 = CARTESIAN_POINT ( 'NONE',  ( -1.004999999999999893, 0.05024999999999994749, 0.6249999999999998890 ) ) ;
#473 = LINE ( 'NONE', #1199, #663 ) ;
#474 = DIRECTION ( 'NONE',  ( -1.000000000000000000, -0.0000000000000000000, 8.673617379884036705E-17 ) ) ;
#475 = CARTESIAN_POINT ( 'NONE',  ( -0.4949999999999998845, 1.149999999999999911, -0.6249999999999998890 ) ) ;
#476 = ORIENTED_EDGE ( 'NONE', *, *, #392, .F. ) ;
#477 = DIRECTION ( 'NONE',  ( 1.000000000000000000, -0.0000000000000000000, 0.0000000000000000000 ) ) ;
#478 = VECTOR ( 'NONE', #761, 1000.000000000000000 ) ;
#479 = PLANE ( 'NONE',  #343 ) ;
#480 = EDGE_CURVE ( 'NONE', #957, #302, #107, .T. ) ;
#481 = AXIS2_PLACEMENT_3D ( 'NONE', #1064, #378, #971 ) ;
#482 = DIRECTION ( 'NONE',  ( -1.000000000000000000, 0.0000000000000000000, 8.673617379884036705E-17 ) ) ;
#483 = UNCERTAINTY_MEASURE_WITH_UNIT (LENGTH_MEASURE( 1.000000000000000082E-05 ), #174, 'distance_accuracy_value', 'NONE');
#484 = SPHERICAL_SURFACE ( 'NONE', #844, 0.05024999999999999606 ) ;
#485 = ORIENTED_EDGE ( 'NONE', *, *, #760, .F. ) ;
#486 = STYLED_ITEM ( 'NONE', ( #1275 ), #533 ) ;
#487 = CARTESIAN_POINT ( 'NONE',  ( -0.9547499999999998765, 1.099750000000000005, -0.5747499999999999831 ) ) ;
#488 = CARTESIAN_POINT ( 'NONE',  ( 500000.0000000000582, 0.05024999999999994749, -0.6082500000433679332 ) ) ;
#489 = AXIS2_PLACEMENT_3D ( 'NONE', #301, #1278, #1088 ) ;
#490 = CYLINDRICAL_SURFACE ( 'NONE', #22, 0.05024999999999994749 ) ;
#491 = CARTESIAN_POINT ( 'NONE',  ( -0.9547499999999998765, 0.05024999999999999606, -0.5747499999999999831 ) ) ;
#492 = EDGE_LOOP ( 'NONE', ( #288, #1155, #801, #1053 ) ) ;
#493 = ORIENTED_EDGE ( 'NONE', *, *, #929, .F. ) ;
#494 = DIRECTION ( 'NONE',  ( 1.000000000000000000, 0.0000000000000000000, 0.0000000000000000000 ) ) ;
#495 = FACE_OUTER_BOUND ( 'NONE', #176, .T. ) ;
#496 = DIRECTION ( 'NONE',  ( 0.0000000000000000000, 0.0000000000000000000, 1.000000000000000000 ) ) ;
#497 = AXIS2_PLACEMENT_3D ( 'NONE', #839, #428, #425 ) ;
#498 = VERTEX_POINT ( 'NONE', #1203 ) ;
#499 = ADVANCED_FACE ( 'NONE', ( #2 ), #239, .T. ) ;
#500 = CARTESIAN_POINT ( 'NONE',  ( -0.9547499999999998765, 1.099750000000000005, 0.5747499999999999831 ) ) ;
#501 = ORIENTED_EDGE ( 'NONE', *, *, #1151, .F. ) ;
#502 = LINE ( 'NONE', #350, #549 ) ;
#503 = ORIENTED_EDGE ( 'NONE', *, *, #704, .T. ) ;
#504 = CARTESIAN_POINT ( 'NONE',  ( 0.4949999999999997735, 1.149999999999999911, 0.6249999999999998890 ) ) ;
#505 = DIRECTION ( 'NONE',  ( 0.0000000000000000000, -1.000000000000000000, 0.0000000000000000000 ) ) ;
#506 = EDGE_CURVE ( 'NONE', #1184, #188, #1101, .T. ) ;
#507 = CARTESIAN_POINT ( 'NONE',  ( 1.004999999999999893, 1.149999999999999911, -0.5747499999999999831 ) ) ;
#508 = CIRCLE ( 'NONE', #1157, 0.05024999999999994749 ) ;
#509 = AXIS2_PLACEMENT_3D ( 'NONE', #491, #290, #995 ) ;
#510 = EDGE_LOOP ( 'NONE', ( #122, #1032, #920, #743, #926, #535, #736, #493 ) ) ;
#511 = PLANE ( 'NONE',  #814 ) ;
#512 = EDGE_LOOP ( 'NONE', ( #641, #658, #389, #744 ) ) ;
#513 = ORIENTED_EDGE ( 'NONE', *, *, #1272, .F. ) ;
#514 = LINE ( 'NONE', #452, #342 ) ;
#515 = ADVANCED_FACE ( 'NONE', ( #636 ), #1229, .T. ) ;
#517 = FACE_OUTER_BOUND ( 'NONE', #279, .T. ) ;
#516 = CARTESIAN_POINT ( 'NONE',  ( -0.4949999999999997735, 0.0000000000000000000, 0.5747499999999999831 ) ) ;
#518 = EDGE_CURVE ( 'NONE', #566, #126, #433, .T. ) ;
#519 = LINE ( 'NONE', #488, #1017 ) ;
#520 = DIRECTION ( 'NONE',  ( -1.000000000000000000, -0.0000000000000000000, 8.673617379884036705E-17 ) ) ;
#521 = AXIS2_PLACEMENT_3D ( 'NONE', #624, #928, #923 ) ;
#522 = VERTEX_POINT ( 'NONE', #35 ) ;
#523 = PLANE ( 'NONE',  #939 ) ;
#524 = DIRECTION ( 'NONE',  ( 0.0000000000000000000, 1.000000000000000000, 0.0000000000000000000 ) ) ;
#525 = EDGE_CURVE ( 'NONE', #522, #367, #73, .T. ) ;
#526 = CARTESIAN_POINT ( 'NONE',  ( 0.0000000000000000000, 1.099750000000000005, 0.5747499999999999831 ) ) ;
#527 = VERTEX_POINT ( 'NONE', #828 ) ;
#528 = VERTEX_POINT ( 'NONE', #915 ) ;
#529 = DIRECTION ( 'NONE',  ( -1.000000000000000000, 0.0000000000000000000, 0.0000000000000000000 ) ) ;
#530 = LINE ( 'NONE', #1241, #61 ) ;
#531 = DIRECTION ( 'NONE',  ( -1.000000000000000000, 0.0000000000000000000, 0.0000000000000000000 ) ) ;
#532 = DIRECTION ( 'NONE',  ( -1.000000000000000000, 0.0000000000000000000, 0.0000000000000000000 ) ) ;
#533 = ADVANCED_BREP_SHAPE_REPRESENTATION ( '08052U330JAT2A', ( #712, #63, #637, #942 ), #139 ) ;
#534 = ORIENTED_EDGE ( 'NONE', *, *, #976, .F. ) ;
#535 = ORIENTED_EDGE ( 'NONE', *, *, #660, .F. ) ;
#536 = DIRECTION ( 'NONE',  ( -1.000000000000000000, 0.0000000000000000000, 0.0000000000000000000 ) ) ;
#537 = AXIS2_PLACEMENT_3D ( 'NONE', #62, #167, #870 ) ;
#538 = DIRECTION ( 'NONE',  ( 0.0000000000000000000, 0.0000000000000000000, 1.000000000000000000 ) ) ;
#539 = FACE_OUTER_BOUND ( 'NONE', #911, .T. ) ;
#540 = EDGE_CURVE ( 'NONE', #782, #714, #1196, .T. ) ;
#541 = DIRECTION ( 'NONE',  ( -1.000000000000000000, 0.0000000000000000000, 0.0000000000000000000 ) ) ;
#542 = ORIENTED_EDGE ( 'NONE', *, *, #455, .F. ) ;
#543 = MECHANICAL_DESIGN_GEOMETRIC_PRESENTATION_REPRESENTATION (  '', ( #406 ), #237 ) ;
#544 = VERTEX_POINT ( 'NONE', #1219 ) ;
#545 = ORIENTED_EDGE ( 'NONE', *, *, #175, .T. ) ;
#546 = ADVANCED_FACE ( 'NONE', ( #1087 ), #836, .T. ) ;
#547 = DIRECTION ( 'NONE',  ( 0.0000000000000000000, -0.0000000000000000000, 1.000000000000000000 ) ) ;
#548 = SPHERICAL_SURFACE ( 'NONE', #362, 0.05024999999999999606 ) ;
#549 = VECTOR ( 'NONE', #393, 1000.000000000000000 ) ;
#550 = PRODUCT ( '08052U330JAT2A', '08052U330JAT2A', '', ( #1054 ) ) ;
#551 = APPLICATION_PROTOCOL_DEFINITION ( 'draft international standard', 'automotive_design', 1998, #1156 ) ;
#552 = CLOSED_SHELL ( 'NONE', ( #785, #349, #755, #1183, #23, #880, #471, #99, #648, #992, #298, #376, #515, #411, #292, #1204, #1096, #150 ) ) ;
#553 = EDGE_CURVE ( 'NONE', #566, #774, #852, .T. ) ;
#554 = AXIS2_PLACEMENT_3D ( 'NONE', #664, #579, #276 ) ;
#555 = CARTESIAN_POINT ( 'NONE',  ( 0.4949999999999998845, 1.099750000000000005, -0.5747499999999999831 ) ) ;
#556 = SHAPE_DEFINITION_REPRESENTATION ( #121, #533 ) ;
#557 = DIRECTION ( 'NONE',  ( 0.0000000000000000000, 0.0000000000000000000, 1.000000000000000000 ) ) ;
#558 = ORIENTED_EDGE ( 'NONE', *, *, #853, .T. ) ;
#559 = DIRECTION ( 'NONE',  ( 0.0000000000000000000, 0.0000000000000000000, -1.000000000000000000 ) ) ;
#560 = ORIENTED_EDGE ( 'NONE', *, *, #593, .T. ) ;
#561 = AXIS2_PLACEMENT_3D ( 'NONE', #954, #151, #1146 ) ;
#562 = DIRECTION ( 'NONE',  ( 0.0000000000000000000, 0.0000000000000000000, -1.000000000000000000 ) ) ;
#563 = VECTOR ( 'NONE', #232, 1000.000000000000000 ) ;
#564 = FACE_OUTER_BOUND ( 'NONE', #685, .T. ) ;
#565 = DIRECTION ( 'NONE',  ( 1.000000000000000000, 0.0000000000000000000, -8.673617379884036705E-17 ) ) ;
#566 = VERTEX_POINT ( 'NONE', #28 ) ;
#567 = CYLINDRICAL_SURFACE ( 'NONE', #822, 0.05024999999999994749 ) ;
#568 = PRODUCT_RELATED_PRODUCT_CATEGORY ( 'part', '', ( #550 ) ) ;
#569 = EDGE_CURVE ( 'NONE', #691, #1240, #806, .T. ) ;
#570 = CARTESIAN_POINT ( 'NONE',  ( 0.0000000000000000000, 0.0000000000000000000, 0.5747499999999999831 ) ) ;
#571 = CARTESIAN_POINT ( 'NONE',  ( 0.0000000000000000000, 1.149999999999999911, 0.0000000000000000000 ) ) ;
#572 = SPHERICAL_SURFACE ( 'NONE', #509, 0.05024999999999999606 ) ;
#573 = VERTEX_POINT ( 'NONE', #331 ) ;
#574 = ORIENTED_EDGE ( 'NONE', *, *, #262, .T. ) ;
#575 = ADVANCED_FACE ( 'NONE', ( #577 ), #1070, .T. ) ;
#576 = EDGE_CURVE ( 'NONE', #1068, #226, #938, .T. ) ;
#577 = FACE_OUTER_BOUND ( 'NONE', #619, .T. ) ;
#578 = AXIS2_PLACEMENT_3D ( 'NONE', #487, #1181, #1274 ) ;
#579 = DIRECTION ( 'NONE',  ( 0.0000000000000000000, 0.0000000000000000000, 1.000000000000000000 ) ) ;
#580 = EDGE_LOOP ( 'NONE', ( #250, #461, #7, #68, #377, #931, #1150, #872 ) ) ;
#581 = VECTOR ( 'NONE', #796, 1000.000000000000000 ) ;
#582 = CARTESIAN_POINT ( 'NONE',  ( -0.4949999999999997735, 1.099750000000000005, -0.5747499999999999831 ) ) ;
#583 = CARTESIAN_POINT ( 'NONE',  ( -0.4949999999999998845, 1.149999999999999911, -0.6249999999999998890 ) ) ;
#584 = ORIENTED_EDGE ( 'NONE', *, *, #20, .T. ) ;
#585 = DIRECTION ( 'NONE',  ( 0.0000000000000000000, 0.0000000000000000000, 1.000000000000000000 ) ) ;
#586 = AXIS2_PLACEMENT_3D ( 'NONE', #717, #1093, #820 ) ;
#587 = CARTESIAN_POINT ( 'NONE',  ( 0.9547499999999998765, 0.05024999999999999606, 0.5747499999999999831 ) ) ;
#588 = CARTESIAN_POINT ( 'NONE',  ( 1.004999999999999893, 1.099750000000000005, -0.6249999999999998890 ) ) ;
#589 = FACE_OUTER_BOUND ( 'NONE', #996, .T. ) ;
#590 = DIRECTION ( 'NONE',  ( 0.0000000000000000000, 0.0000000000000000000, -1.000000000000000000 ) ) ;
#591 = EDGE_LOOP ( 'NONE', ( #162, #876, #384, #994 ) ) ;
#592 = CARTESIAN_POINT ( 'NONE',  ( -0.4949999999999997735, 1.099750000000000005, 0.5747499999999999831 ) ) ;
#593 = EDGE_CURVE ( 'NONE', #498, #126, #1056, .T. ) ;
#594 = ADVANCED_FACE ( 'NONE', ( #1029 ), #400, .T. ) ;
#595 = CARTESIAN_POINT ( 'NONE',  ( 1.004999999999999893, 1.099750000000000005, 0.6249999999999998890 ) ) ;
#596 = ORIENTED_EDGE ( 'NONE', *, *, #553, .F. ) ;
#597 = FACE_OUTER_BOUND ( 'NONE', #654, .T. ) ;
#598 = DIRECTION ( 'NONE',  ( -0.0000000000000000000, -0.0000000000000000000, -1.000000000000000000 ) ) ;
#599 = CARTESIAN_POINT ( 'NONE',  ( 0.4950000000008003553, 1.099750000000000005, -0.5747499999999999831 ) ) ;
#600 = DIRECTION ( 'NONE',  ( 0.0000000000000000000, 0.0000000000000000000, 1.000000000000000000 ) ) ;
#601 = PLANE ( 'NONE',  #248 ) ;
#602 = LINE ( 'NONE', #595, #296 ) ;
#603 = ORIENTED_EDGE ( 'NONE', *, *, #783, .F. ) ;
#604 = CARTESIAN_POINT ( 'NONE',  ( 0.9547499999999998765, 1.099750000000000005, 0.0000000000000000000 ) ) ;
#605 = VERTEX_POINT ( 'NONE', #38 ) ;
#606 = ADVANCED_FACE ( 'NONE', ( #222 ), #316, .T. ) ;
#607 = CARTESIAN_POINT ( 'NONE',  ( -0.9547499999999998765, 0.05024999999999994749, -0.6249999999999998890 ) ) ;
#608 = CIRCLE ( 'NONE', #626, 0.05024999999999994749 ) ;
#609 = CARTESIAN_POINT ( 'NONE',  ( 0.4949999999999998845, 0.05024999999999994749, -0.5747499999999999831 ) ) ;
#610 = AXIS2_PLACEMENT_3D ( 'NONE', #196, #1187, #294 ) ;
#611 = DIRECTION ( 'NONE',  ( 0.0000000000000000000, 0.0000000000000000000, 1.000000000000000000 ) ) ;
#612 = DIRECTION ( 'NONE',  ( 0.0000000000000000000, 0.0000000000000000000, 1.000000000000000000 ) ) ;
#613 = CARTESIAN_POINT ( 'NONE',  ( 500000.0000000000582, 1.133249999999999869, -0.5747500000433680700 ) ) ;
#614 = EDGE_CURVE ( 'NONE', #226, #527, #1015, .T. ) ;
#615 = CARTESIAN_POINT ( 'NONE',  ( -0.4949999999999997735, 0.05024999999999994749, 0.6082499999999999574 ) ) ;
#616 = CIRCLE ( 'NONE', #1171, 0.05024999999999994749 ) ;
#617 = DIRECTION ( 'NONE',  ( 0.0000000000000000000, 0.0000000000000000000, 1.000000000000000000 ) ) ;
#618 = ORIENTED_EDGE ( 'NONE', *, *, #321, .F. ) ;
#619 = EDGE_LOOP ( 'NONE', ( #404, #1120, #340, #449 ) ) ;
#620 = CARTESIAN_POINT ( 'NONE',  ( -1.004999999999999893, 0.05024999999999994749, -0.6249999999999998890 ) ) ;
#621 = ORIENTED_EDGE ( 'NONE', *, *, #1004, .F. ) ;
#622 = CARTESIAN_POINT ( 'NONE',  ( -0.4949999999999997735, 1.099750000000000005, 0.5747499999999999831 ) ) ;
#623 = EDGE_CURVE ( 'NONE', #498, #767, #908, .T. ) ;
#624 = CARTESIAN_POINT ( 'NONE',  ( 0.9547499999999998765, 1.099750000000000005, 0.5747499999999999831 ) ) ;
#625 = DIRECTION ( 'NONE',  ( 0.0000000000000000000, 0.0000000000000000000, 1.000000000000000000 ) ) ;
#626 = AXIS2_PLACEMENT_3D ( 'NONE', #756, #252, #47 ) ;
#627 = EDGE_LOOP ( 'NONE', ( #372, #234, #1098, #501 ) ) ;
#628 = VECTOR ( 'NONE', #1076, 1000.000000000000000 ) ;
#629 = DIRECTION ( 'NONE',  ( 0.0000000000000000000, -0.0000000000000000000, 1.000000000000000000 ) ) ;
#630 = DIRECTION ( 'NONE',  ( 0.0000000000000000000, -1.000000000000000000, 0.0000000000000000000 ) ) ;
#631 = EDGE_CURVE ( 'NONE', #421, #528, #207, .T. ) ;
#632 = DIRECTION ( 'NONE',  ( -1.000000000000000000, -0.0000000000000000000, 8.673617379884036705E-17 ) ) ;
#633 = VERTEX_POINT ( 'NONE', #338 ) ;
#634 = ORIENTED_EDGE ( 'NONE', *, *, #953, .T. ) ;
#635 = DIRECTION ( 'NONE',  ( 0.0000000000000000000, 0.0000000000000000000, 1.000000000000000000 ) ) ;
#636 = FACE_OUTER_BOUND ( 'NONE', #254, .T. ) ;
#637 = MANIFOLD_SOLID_BREP ( 'Boss-Extrude2', #762 ) ;
#638 = DIRECTION ( 'NONE',  ( 1.000000000000000000, -0.0000000000000000000, -8.673617379884036705E-17 ) ) ;
#639 = CIRCLE ( 'NONE', #681, 0.03349999999999989098 ) ;
#640 = EDGE_CURVE ( 'NONE', #459, #919, #966, .T. ) ;
#641 = ORIENTED_EDGE ( 'NONE', *, *, #195, .T. ) ;
#642 = LINE ( 'NONE', #1131, #857 ) ;
#643 = VECTOR ( 'NONE', #700, 1000.000000000000000 ) ;
#644 = MECHANICAL_DESIGN_GEOMETRIC_PRESENTATION_REPRESENTATION (  '', ( #42 ), #423 ) ;
#645 = ORIENTED_EDGE ( 'NONE', *, *, #1178, .F. ) ;
#646 = DIRECTION ( 'NONE',  ( 0.0000000000000000000, 0.0000000000000000000, 1.000000000000000000 ) ) ;
#647 = CARTESIAN_POINT ( 'NONE',  ( -0.4949999999999998845, 0.0000000000000000000, -0.5747499999999999831 ) ) ;
#648 = ADVANCED_FACE ( 'NONE', ( #1137 ), #19, .T. ) ;
#649 = VECTOR ( 'NONE', #630, 1000.000000000000000 ) ;
#650 = DIRECTION ( 'NONE',  ( -1.000000000000000000, 0.0000000000000000000, 0.0000000000000000000 ) ) ;
#651 = AXIS2_PLACEMENT_3D ( 'NONE', #1023, #337, #731 ) ;
#652 = ORIENTED_EDGE ( 'NONE', *, *, #868, .F. ) ;
#653 = LINE ( 'NONE', #472, #1113 ) ;
#654 = EDGE_LOOP ( 'NONE', ( #784, #149, #446, #534 ) ) ;
#655 = CARTESIAN_POINT ( 'NONE',  ( 1.004999999999999893, 1.099750000000000005, 0.5747499999999999831 ) ) ;
#656 = EDGE_LOOP ( 'NONE', ( #333, #463, #795, #1270, #925, #1177, #932, #709 ) ) ;
#657 = DIRECTION ( 'NONE',  ( 0.0000000000000000000, 1.000000000000000000, -1.033065433525968878E-16 ) ) ;
#658 = ORIENTED_EDGE ( 'NONE', *, *, #783, .T. ) ;
#659 = ORIENTED_EDGE ( 'NONE', *, *, #321, .T. ) ;
#660 = EDGE_CURVE ( 'NONE', #840, #459, #983, .T. ) ;
#661 = CARTESIAN_POINT ( 'NONE',  ( 0.4949999999999998845, 1.099750000000000005, -0.6249999999999998890 ) ) ;
#662 = CARTESIAN_POINT ( 'NONE',  ( 0.9547499999999998765, 0.05024999999999999606, -0.5747499999999999831 ) ) ;
#663 = VECTOR ( 'NONE', #532, 1000.000000000000000 ) ;
#664 = CARTESIAN_POINT ( 'NONE',  ( -0.9547499999999998765, 0.05024999999999994749, -0.6249999999999998890 ) ) ;
#665 = VECTOR ( 'NONE', #407, 1000.000000000000000 ) ;
#666 = ORIENTED_EDGE ( 'NONE', *, *, #868, .T. ) ;
#667 = EDGE_CURVE ( 'NONE', #6, #226, #1043, .T. ) ;
#668 = PLANE ( 'NONE',  #144 ) ;
#669 = ORIENTED_EDGE ( 'NONE', *, *, #1141, .T. ) ;
#670 = AXIS2_PLACEMENT_3D ( 'NONE', #918, #109, #419 ) ;
#671 = CARTESIAN_POINT ( 'NONE',  ( -0.9547499999999998765, 0.0000000000000000000, -0.5747499999999999831 ) ) ;
#672 = CARTESIAN_POINT ( 'NONE',  ( 1.004999999999999893, 1.149999999999999911, 0.6249999999999998890 ) ) ;
#673 = CARTESIAN_POINT ( 'NONE',  ( -0.4949999999999998845, 0.0000000000000000000, -0.6249999999999998890 ) ) ;
#674 = EDGE_LOOP ( 'NONE', ( #752, #558, #741, #181 ) ) ;
#675 = VECTOR ( 'NONE', #683, 1000.000000000000000 ) ;
#676 = CIRCLE ( 'NONE', #750, 0.03349999999999989098 ) ;
#677 = EDGE_CURVE ( 'NONE', #1035, #691, #608, .T. ) ;
#678 = ORIENTED_EDGE ( 'NONE', *, *, #1130, .T. ) ;
#679 = DIRECTION ( 'NONE',  ( 1.000000000000000000, 0.0000000000000000000, 0.0000000000000000000 ) ) ;
#680 = UNCERTAINTY_MEASURE_WITH_UNIT (LENGTH_MEASURE( 1.000000000000000082E-05 ), #859, 'distance_accuracy_value', 'NONE');
#681 = AXIS2_PLACEMENT_3D ( 'NONE', #592, #198, #1180 ) ;
#682 = DIRECTION ( 'NONE',  ( 1.000000000000000000, -0.0000000000000000000, -8.673617379884036705E-17 ) ) ;
#683 = DIRECTION ( 'NONE',  ( -0.0000000000000000000, 1.000000000000000000, -0.0000000000000000000 ) ) ;
#684 = DIRECTION ( 'NONE',  ( 0.0000000000000000000, 0.0000000000000000000, 1.000000000000000000 ) ) ;
#685 = EDGE_LOOP ( 'NONE', ( #1135, #652, #465, #963 ) ) ;
#686 = EDGE_CURVE ( 'NONE', #544, #777, #256, .T. ) ;
#687 = UNCERTAINTY_MEASURE_WITH_UNIT (LENGTH_MEASURE( 1.000000000000000082E-05 ), #945, 'distance_accuracy_value', 'NONE');
#688 = DIRECTION ( 'NONE',  ( 0.0000000000000000000, 1.000000000000000000, 0.0000000000000000000 ) ) ;
#689 = DIRECTION ( 'NONE',  ( 0.0000000000000000000, 0.0000000000000000000, -1.000000000000000000 ) ) ;
#690 = FILL_AREA_STYLE ('',( #1262 ) ) ;
#691 = VERTEX_POINT ( 'NONE', #264 ) ;
#692 = ORIENTED_EDGE ( 'NONE', *, *, #739, .F. ) ;
#693 = EDGE_CURVE ( 'NONE', #299, #782, #514, .T. ) ;
#694 = CARTESIAN_POINT ( 'NONE',  ( -0.9547499999999998765, 0.0000000000000000000, 0.5747499999999999831 ) ) ;
#695 = CARTESIAN_POINT ( 'NONE',  ( 500000.0000000000582, 0.01674999999999997324, 0.5747499999566318962 ) ) ;
#696 = DIRECTION ( 'NONE',  ( 0.0000000000000000000, -1.000000000000000000, 0.0000000000000000000 ) ) ;
#697 = DIRECTION ( 'NONE',  ( 1.000000000000000000, 0.0000000000000000000, 0.0000000000000000000 ) ) ;
#698 = LINE ( 'NONE', #588, #309 ) ;
#699 = ORIENTED_EDGE ( 'NONE', *, *, #623, .F. ) ;
#700 = DIRECTION ( 'NONE',  ( -1.000000000000000000, -0.0000000000000000000, 8.673617379884036705E-17 ) ) ;
#701 = DIRECTION ( 'NONE',  ( 0.0000000000000000000, 0.0000000000000000000, 1.000000000000000000 ) ) ;
#702 = ORIENTED_EDGE ( 'NONE', *, *, #79, .T. ) ;
#703 = CARTESIAN_POINT ( 'NONE',  ( 500000.0000000000582, 1.099750000000000005, 0.5747499999566318962 ) ) ;
#704 = EDGE_CURVE ( 'NONE', #988, #1184, #530, .T. ) ;
#705 = VECTOR ( 'NONE', #1110, 1000.000000000000000 ) ;
#706 = DIRECTION ( 'NONE',  ( -1.000000000000000000, 0.0000000000000000000, 0.0000000000000000000 ) ) ;
#708 = FACE_OUTER_BOUND ( 'NONE', #1083, .T. ) ;
#707 = CARTESIAN_POINT ( 'NONE',  ( 500000.0000000000582, 1.099750000000000005, 0.6082499999566317594 ) ) ;
#709 = ORIENTED_EDGE ( 'NONE', *, *, #327, .T. ) ;
#710 = CIRCLE ( 'NONE', #1122, 0.05024999999999994749 ) ;
#711 = DIRECTION ( 'NONE',  ( 1.000000000000000000, 0.0000000000000000000, 0.0000000000000000000 ) ) ;
#712 = MANIFOLD_SOLID_BREP ( 'Fillet1', #713 ) ;
#713 = CLOSED_SHELL ( 'NONE', ( #1000, #115, #848, #816, #546, #980, #606, #1, #1266, #307, #10, #821, #390, #719, #1073, #1104, #887, #205 ) ) ;
#714 = VERTEX_POINT ( 'NONE', #647 ) ;
#715 = DIRECTION ( 'NONE',  ( -1.000000000000000000, -0.0000000000000000000, 8.673617379884036705E-17 ) ) ;
#716 = EDGE_CURVE ( 'NONE', #1248, #214, #866, .T. ) ;
#717 = CARTESIAN_POINT ( 'NONE',  ( 0.9547499999999998765, 0.05024999999999994749, -0.6249999999999998890 ) ) ;
#718 = AXIS2_PLACEMENT_3D ( 'NONE', #1079, #1186, #1176 ) ;
#719 = ADVANCED_FACE ( 'NONE', ( #495 ), #835, .T. ) ;
#720 = DIRECTION ( 'NONE',  ( 0.0000000000000000000, 0.0000000000000000000, -1.000000000000000000 ) ) ;
#721 = ORIENTED_EDGE ( 'NONE', *, *, #305, .F. ) ;
#722 = EDGE_CURVE ( 'NONE', #1129, #544, #1250, .T. ) ;
#723 = CYLINDRICAL_SURFACE ( 'NONE', #1094, 0.05024999999999994749 ) ;
#724 = CARTESIAN_POINT ( 'NONE',  ( 0.0000000000000000000, 0.0000000000000000000, -0.5747499999999999831 ) ) ;
#725 = CIRCLE ( 'NONE', #1072, 0.05024999999999994749 ) ;
#726 = PRESENTATION_LAYER_ASSIGNMENT (  '', '', ( #406 ) ) ;
#727 = ORIENTED_EDGE ( 'NONE', *, *, #1239, .T. ) ;
#728 = DIRECTION ( 'NONE',  ( 1.000000000000000000, 0.0000000000000000000, 0.0000000000000000000 ) ) ;
#729 = ORIENTED_EDGE ( 'NONE', *, *, #948, .F. ) ;
#730 = DIRECTION ( 'NONE',  ( -1.000000000000000000, -0.0000000000000000000, 8.673617379884036705E-17 ) ) ;
#731 = DIRECTION ( 'NONE',  ( 0.0000000000000000000, -1.000000000000000000, 1.033065433525968878E-16 ) ) ;
#732 = EDGE_CURVE ( 'NONE', #1046, #714, #204, .T. ) ;
#733 = DIRECTION ( 'NONE',  ( -1.000000000000000000, -0.0000000000000000000, -0.0000000000000000000 ) ) ;
#734 = VECTOR ( 'NONE', #715, 1000.000000000000000 ) ;
#735 = LINE ( 'NONE', #800, #458 ) ;
#736 = ORIENTED_EDGE ( 'NONE', *, *, #262, .F. ) ;
#737 = ORIENTED_EDGE ( 'NONE', *, *, #175, .F. ) ;
#738 = DIRECTION ( 'NONE',  ( 1.000000000000000000, 0.0000000000000000000, -8.673617379884036705E-17 ) ) ;
#739 = EDGE_CURVE ( 'NONE', #1193, #17, #1195, .T. ) ;
#740 = VECTOR ( 'NONE', #474, 1000.000000000000000 ) ;
#741 = ORIENTED_EDGE ( 'NONE', *, *, #1041, .T. ) ;
#742 = AXIS2_PLACEMENT_3D ( 'NONE', #583, #482, #199 ) ;
#743 = ORIENTED_EDGE ( 'NONE', *, *, #1041, .F. ) ;
#744 = ORIENTED_EDGE ( 'NONE', *, *, #686, .T. ) ;
#745 = CARTESIAN_POINT ( 'NONE',  ( -0.4949999999999998845, 1.099750000000000005, -0.6249999999999998890 ) ) ;
#746 = ORIENTED_EDGE ( 'NONE', *, *, #794, .T. ) ;
#747 = FILL_AREA_STYLE ('',( #137 ) ) ;
#748 = DIRECTION ( 'NONE',  ( -1.000000000000000000, 0.0000000000000000000, 0.0000000000000000000 ) ) ;
#749 = CARTESIAN_POINT ( 'NONE',  ( 0.4949999999999998845, 1.149999999999999911, -0.6249999999999998890 ) ) ;
#750 = AXIS2_PLACEMENT_3D ( 'NONE', #892, #815, #4 ) ;
#751 = CIRCLE ( 'NONE', #132, 0.05024999999999994749 ) ;
#752 = ORIENTED_EDGE ( 'NONE', *, *, #468, .F. ) ;
#753 = FACE_OUTER_BOUND ( 'NONE', #358, .T. ) ;
#754 = DIRECTION ( 'NONE',  ( 0.0000000000000000000, 0.0000000000000000000, 1.000000000000000000 ) ) ;
#755 = ADVANCED_FACE ( 'NONE', ( #236 ), #780, .F. ) ;
#756 = CARTESIAN_POINT ( 'NONE',  ( -0.9547499999999998765, 0.05024999999999994749, -0.5747499999999999831 ) ) ;
#757 = VECTOR ( 'NONE', #824, 1000.000000000000000 ) ;
#758 = CYLINDRICAL_SURFACE ( 'NONE', #586, 0.05024999999999994749 ) ;
#759 = CYLINDRICAL_SURFACE ( 'NONE', #29, 0.05024999999999994749 ) ;
#760 = EDGE_CURVE ( 'NONE', #1129, #988, #140, .T. ) ;
#761 = DIRECTION ( 'NONE',  ( -1.000000000000000000, 0.0000000000000000000, 0.0000000000000000000 ) ) ;
#762 = CLOSED_SHELL ( 'NONE', ( #903, #257, #178, #575, #323, #594, #1045, #499, #1066, #437 ) ) ;
#763 = CARTESIAN_POINT ( 'NONE',  ( 1.004999999999999893, 1.149999999999999911, 0.5747499999999999831 ) ) ;
#764 = VECTOR ( 'NONE', #657, 1000.000000000000000 ) ;
#765 =( NAMED_UNIT ( * ) SI_UNIT ( $, .STERADIAN. ) SOLID_ANGLE_UNIT ( ) );
#766 = AXIS2_PLACEMENT_3D ( 'NONE', #1014, #315, #611 ) ;
#767 = VERTEX_POINT ( 'NONE', #768 ) ;
#768 = CARTESIAN_POINT ( 'NONE',  ( -0.9547499999999998765, 0.05024999999999994749, 0.6249999999999998890 ) ) ;
#769 = ORIENTED_EDGE ( 'NONE', *, *, #760, .T. ) ;
#770 =( NAMED_UNIT ( * ) PLANE_ANGLE_UNIT ( ) SI_UNIT ( $, .RADIAN. ) );
#771 = DIRECTION ( 'NONE',  ( -1.000000000000000000, 0.0000000000000000000, 0.0000000000000000000 ) ) ;
#772 = UNCERTAINTY_MEASURE_WITH_UNIT (LENGTH_MEASURE( 1.000000000000000082E-05 ), #1152, 'distance_accuracy_value', 'NONE');
#773 = CARTESIAN_POINT ( 'NONE',  ( -0.9547499999999998765, 1.149999999999999911, 0.5747499999999999831 ) ) ;
#774 = VERTEX_POINT ( 'NONE', #964 ) ;
#775 = AXIS2_PLACEMENT_3D ( 'NONE', #130, #1119, #1125 ) ;
#776 = CARTESIAN_POINT ( 'NONE',  ( 0.9547499999999998765, 0.05024999999999999606, 0.5747499999999999831 ) ) ;
#777 = VERTEX_POINT ( 'NONE', #1060 ) ;
#778 =( NAMED_UNIT ( * ) PLANE_ANGLE_UNIT ( ) SI_UNIT ( $, .RADIAN. ) );
#779 = CARTESIAN_POINT ( 'NONE',  ( 0.0000000000000000000, 1.099750000000000005, -0.5747499999999999831 ) ) ;
#780 = PLANE ( 'NONE',  #481 ) ;
#781 = VECTOR ( 'NONE', #1022, 1000.000000000000000 ) ;
#782 = VERTEX_POINT ( 'NONE', #671 ) ;
#783 = EDGE_CURVE ( 'NONE', #1026, #1129, #416, .T. ) ;
#784 = ORIENTED_EDGE ( 'NONE', *, *, #993, .F. ) ;
#785 = ADVANCED_FACE ( 'NONE', ( #998 ), #460, .F. ) ;
#786 = AXIS2_PLACEMENT_3D ( 'NONE', #230, #1231, #529 ) ;
#787 = ORIENTED_EDGE ( 'NONE', *, *, #540, .F. ) ;
#788 = VECTOR ( 'NONE', #557, 1000.000000000000000 ) ;
#789 = CARTESIAN_POINT ( 'NONE',  ( -0.9547499999999998765, 1.149999999999999911, 0.5747499999999999831 ) ) ;
#790 = CARTESIAN_POINT ( 'NONE',  ( -0.9547499999999998765, 1.099750000000000005, -0.5747499999999999831 ) ) ;
#791 = PLANE ( 'NONE',  #718 ) ;
#792 = ORIENTED_EDGE ( 'NONE', *, *, #1246, .T. ) ;
#793 = VECTOR ( 'NONE', #1268, 1000.000000000000000 ) ;
#794 = EDGE_CURVE ( 'NONE', #767, #375, #653, .T. ) ;
#795 = ORIENTED_EDGE ( 'NONE', *, *, #1179, .T. ) ;
#796 = DIRECTION ( 'NONE',  ( 1.000000000000000000, -0.0000000000000000000, -0.0000000000000000000 ) ) ;
#797 = CARTESIAN_POINT ( 'NONE',  ( -0.4949999999999997735, 1.133249999999999869, 0.5747499999999999831 ) ) ;
#798 = DIRECTION ( 'NONE',  ( 0.0000000000000000000, -1.000000000000000000, 0.0000000000000000000 ) ) ;
#799 = CARTESIAN_POINT ( 'NONE',  ( 500000.0000000000582, 0.01674999999999999753, 0.5747499999566318962 ) ) ;
#800 = CARTESIAN_POINT ( 'NONE',  ( -0.9547499999999998765, 1.149999999999999911, -0.6249999999999998890 ) ) ;
#801 = ORIENTED_EDGE ( 'NONE', *, *, #929, .T. ) ;
#802 = EDGE_CURVE ( 'NONE', #1202, #421, #368, .T. ) ;
#803 = EDGE_LOOP ( 'NONE', ( #943, #947, #832, #146 ) ) ;
#804 = CARTESIAN_POINT ( 'NONE',  ( 1.004999999999999893, 0.05024999999999994749, -0.5747499999999999831 ) ) ;
#805 = DIRECTION ( 'NONE',  ( -1.000000000000000000, 0.0000000000000000000, 0.0000000000000000000 ) ) ;
#806 = LINE ( 'NONE', #620, #345 ) ;
#807 = CARTESIAN_POINT ( 'NONE',  ( 0.9547499999999998765, 1.099750000000000005, -0.5747499999999999831 ) ) ;
#808 = CARTESIAN_POINT ( 'NONE',  ( 1.004999999999999893, 0.05024999999999994749, -0.6249999999999998890 ) ) ;
#809 = DIRECTION ( 'NONE',  ( 1.000000000000000000, -0.0000000000000000000, -0.0000000000000000000 ) ) ;
#810 = ORIENTED_EDGE ( 'NONE', *, *, #976, .T. ) ;
#811 = VECTOR ( 'NONE', #242, 1000.000000000000000 ) ;
#812 = LINE ( 'NONE', #306, #581 ) ;
#813 = EDGE_CURVE ( 'NONE', #714, #973, #1194, .T. ) ;
#814 = AXIS2_PLACEMENT_3D ( 'NONE', #123, #728, #922 ) ;
#815 = DIRECTION ( 'NONE',  ( 1.000000000000000000, 0.0000000000000000000, 8.673617379884036705E-17 ) ) ;
#816 = ADVANCED_FACE ( 'NONE', ( #138 ), #75, .F. ) ;
#817 = LINE ( 'NONE', #1205, #1221 ) ;
#818 = ORIENTED_EDGE ( 'NONE', *, *, #890, .F. ) ;
#819 = ORIENTED_EDGE ( 'NONE', *, *, #813, .F. ) ;
#820 = DIRECTION ( 'NONE',  ( -1.000000000000000000, 0.0000000000000000000, 0.0000000000000000000 ) ) ;
#821 = ADVANCED_FACE ( 'NONE', ( #413 ), #253, .T. ) ;
#822 = AXIS2_PLACEMENT_3D ( 'NONE', #789, #182, #590 ) ;
#823 = CARTESIAN_POINT ( 'NONE',  ( 500000.0000000000582, 1.133249999999999869, 0.5747499999566318962 ) ) ;
#824 = DIRECTION ( 'NONE',  ( 0.0000000000000000000, -1.000000000000000000, 0.0000000000000000000 ) ) ;
#825 = CIRCLE ( 'NONE', #497, 0.05024999999999994749 ) ;
#826 = ORIENTED_EDGE ( 'NONE', *, *, #161, .F. ) ;
#827 = EDGE_CURVE ( 'NONE', #906, #573, #104, .T. ) ;
#828 = CARTESIAN_POINT ( 'NONE',  ( 0.4949999999999997735, 1.149999999999999911, 0.5747499999999999831 ) ) ;
#829 = LINE ( 'NONE', #1102, #781 ) ;
#830 = CARTESIAN_POINT ( 'NONE',  ( 500000.0000000000582, 1.099750000000000005, 0.6082499999566317594 ) ) ;
#831 = CARTESIAN_POINT ( 'NONE',  ( -0.4949999999999997735, 0.05024999999999994749, -0.5747499999999999831 ) ) ;
#832 = ORIENTED_EDGE ( 'NONE', *, *, #593, .F. ) ;
#833 = ORIENTED_EDGE ( 'NONE', *, *, #1210, .T. ) ;
#834 = PLANE ( 'NONE',  #1007 ) ;
#835 = CYLINDRICAL_SURFACE ( 'NONE', #554, 0.05024999999999994749 ) ;
#836 = PLANE ( 'NONE',  #921 ) ;
#837 = AXIS2_PLACEMENT_3D ( 'NONE', #500, #293, #684 ) ;
#838 = DIRECTION ( 'NONE',  ( 1.000000000000000000, 0.0000000000000000000, 0.0000000000000000000 ) ) ;
#839 = CARTESIAN_POINT ( 'NONE',  ( 0.4949999999999997735, 0.05024999999999994749, 0.5747499999999999831 ) ) ;
#840 = VERTEX_POINT ( 'NONE', #90 ) ;
#841 = LINE ( 'NONE', #1071, #675 ) ;
#842 = DIRECTION ( 'NONE',  ( 0.0000000000000000000, 0.0000000000000000000, 1.000000000000000000 ) ) ;
#843 = CARTESIAN_POINT ( 'NONE',  ( -0.4949999999999997735, 1.099750000000000005, -0.6082499999999999574 ) ) ;
#844 = AXIS2_PLACEMENT_3D ( 'NONE', #587, #1273, #706 ) ;
#845 = CARTESIAN_POINT ( 'NONE',  ( 0.4950000000008003553, 0.05024999999999994749, 0.5747499999999999831 ) ) ;
#846 = CIRCLE ( 'NONE', #766, 0.05024999999999994749 ) ;
#847 = ORIENTED_EDGE ( 'NONE', *, *, #12, .T. ) ;
#848 = ADVANCED_FACE ( 'NONE', ( #753 ), #273, .F. ) ;
#849 = ORIENTED_EDGE ( 'NONE', *, *, #40, .T. ) ;
#850 = CARTESIAN_POINT ( 'NONE',  ( 0.9547499999999998765, 1.149999999999999911, 0.6249999999999998890 ) ) ;
#852 = LINE ( 'NONE', #937, #563 ) ;
#851 = DIRECTION ( 'NONE',  ( -1.000000000000000000, 0.0000000000000000000, 0.0000000000000000000 ) ) ;
#853 = EDGE_CURVE ( 'NONE', #528, #919, #397, .T. ) ;
#854 = LINE ( 'NONE', #1192, #1117 ) ;
#855 = CARTESIAN_POINT ( 'NONE',  ( 1.004999999999999893, 0.05024999999999994749, 0.6249999999999998890 ) ) ;
#856 = AXIS2_PLACEMENT_3D ( 'NONE', #662, #547, #952 ) ;
#857 = VECTOR ( 'NONE', #1218, 1000.000000000000000 ) ;
#858 = EDGE_LOOP ( 'NONE', ( #51, #669, #71 ) ) ;
#859 =( LENGTH_UNIT ( ) NAMED_UNIT ( * ) SI_UNIT ( .MILLI., .METRE. ) );
#860 = AXIS2_PLACEMENT_3D ( 'NONE', #336, #733, #924 ) ;
#861 = FACE_OUTER_BOUND ( 'NONE', #14, .T. ) ;
#862 = EDGE_LOOP ( 'NONE', ( #134, #810, #1114, #1143 ) ) ;
#863 = SURFACE_STYLE_USAGE ( .BOTH. , #354 ) ;
#864 = CARTESIAN_POINT ( 'NONE',  ( 0.9547499999999998765, 1.149999999999999911, 0.5747499999999999831 ) ) ;
#865 =( LENGTH_UNIT ( ) NAMED_UNIT ( * ) SI_UNIT ( .MILLI., .METRE. ) );
#866 = CIRCLE ( 'NONE', #1134, 0.03349999999999989098 ) ;
#867 = LINE ( 'NONE', #504, #300 ) ;
#868 = EDGE_CURVE ( 'NONE', #605, #1068, #602, .T. ) ;
#869 = CYLINDRICAL_SURFACE ( 'NONE', #775, 0.05024999999999994749 ) ;
#870 = DIRECTION ( 'NONE',  ( 0.0000000000000000000, 0.0000000000000000000, -1.000000000000000000 ) ) ;
#871 = ORIENTED_EDGE ( 'NONE', *, *, #1215, .F. ) ;
#872 = ORIENTED_EDGE ( 'NONE', *, *, #506, .F. ) ;
#873 = DIRECTION ( 'NONE',  ( 1.000000000000000000, -0.0000000000000000000, -0.0000000000000000000 ) ) ;
#874 = EDGE_CURVE ( 'NONE', #1279, #988, #901, .T. ) ;
#875 = AXIS2_PLACEMENT_3D ( 'NONE', #422, #632, #842 ) ;
#876 = ORIENTED_EDGE ( 'NONE', *, *, #153, .T. ) ;
#877 = DIRECTION ( 'NONE',  ( -8.673617379884036705E-17, -0.0000000000000000000, -1.000000000000000000 ) ) ;
#878 = EDGE_LOOP ( 'NONE', ( #634, #979, #1175 ) ) ;
#879 = EDGE_CURVE ( 'NONE', #1035, #1261, #735, .T. ) ;
#880 = ADVANCED_FACE ( 'NONE', ( #118 ), #1086, .F. ) ;
#881 = CARTESIAN_POINT ( 'NONE',  ( -0.4949999999999997735, 0.05024999999999994749, -0.6082499999999998463 ) ) ;
#882 = SURFACE_STYLE_FILL_AREA ( #690 ) ;
#883 = AXIS2_PLACEMENT_3D ( 'NONE', #582, #189, #886 ) ;
#884 = FACE_OUTER_BOUND ( 'NONE', #674, .T. ) ;
#885 = DIRECTION ( 'NONE',  ( 0.0000000000000000000, 0.0000000000000000000, 1.000000000000000000 ) ) ;
#886 = DIRECTION ( 'NONE',  ( -8.673617379884036705E-17, 0.0000000000000000000, -1.000000000000000000 ) ) ;
#887 = ADVANCED_FACE ( 'NONE', ( #56 ), #572, .T. ) ;
#888 = SPHERICAL_SURFACE ( 'NONE', #203, 0.05024999999999999606 ) ;
#889 = CARTESIAN_POINT ( 'NONE',  ( 0.4950000000008003553, 0.01674999999999999753, -0.5747499999999999831 ) ) ;
#890 = EDGE_CURVE ( 'NONE', #566, #498, #1276, .T. ) ;
#891 = ORIENTED_EDGE ( 'NONE', *, *, #1141, .F. ) ;
#892 = CARTESIAN_POINT ( 'NONE',  ( 0.4950000000008003553, 0.05024999999999994749, -0.5747499999999999831 ) ) ;
#893 = CARTESIAN_POINT ( 'NONE',  ( 0.9547499999999998765, 1.099750000000000005, -0.6249999999999998890 ) ) ;
#894 = ORIENTED_EDGE ( 'NONE', *, *, #874, .F. ) ;
#895 = CYLINDRICAL_SURFACE ( 'NONE', #278, 0.05024999999999994749 ) ;
#896 = PRESENTATION_LAYER_ASSIGNMENT (  '', '', ( #486 ) ) ;
#897 = DIRECTION ( 'NONE',  ( 1.000000000000000000, 0.0000000000000000000, 8.673617379884036705E-17 ) ) ;
#898 = DIRECTION ( 'NONE',  ( 0.0000000000000000000, 0.0000000000000000000, 1.000000000000000000 ) ) ;
#899 = FACE_OUTER_BOUND ( 'NONE', #1039, .T. ) ;
#900 = CARTESIAN_POINT ( 'NONE',  ( 1.004999999999999893, 1.149999999999999911, -0.5747499999999999831 ) ) ;
#901 = CIRCLE ( 'NONE', #179, 0.05024999999999994749 ) ;
#902 = ORIENTED_EDGE ( 'NONE', *, *, #410, .T. ) ;
#903 = ADVANCED_FACE ( 'NONE', ( #1050 ), #791, .T. ) ;
#904 = AXIS2_PLACEMENT_3D ( 'NONE', #799, #1085, #1190 ) ;
#905 = ORIENTED_EDGE ( 'NONE', *, *, #1151, .T. ) ;
#906 = VERTEX_POINT ( 'NONE', #893 ) ;
#907 = PLANE ( 'NONE',  #670 ) ;
#908 = LINE ( 'NONE', #1133, #1264 ) ;
#909 = DIRECTION ( 'NONE',  ( -1.000000000000000000, 0.0000000000000000000, 0.0000000000000000000 ) ) ;
#910 = ORIENTED_EDGE ( 'NONE', *, *, #1206, .F. ) ;
#911 = EDGE_LOOP ( 'NONE', ( #16, #1247, #1216, #438 ) ) ;
#912 = EDGE_CURVE ( 'NONE', #1224, #957, #698, .T. ) ;
#913 = CARTESIAN_POINT ( 'NONE',  ( 500000.0000000000582, 1.099750000000000005, -0.5747500000433680700 ) ) ;
#914 = AXIS2_PLACEMENT_3D ( 'NONE', #1243, #950, #646 ) ;
#915 = CARTESIAN_POINT ( 'NONE',  ( 0.4950000000008003553, 0.01674999999999997324, 0.5747499999999999831 ) ) ;
#916 = LINE ( 'NONE', #129, #197 ) ;
#917 = LINE ( 'NONE', #1092, #1159 ) ;
#918 = CARTESIAN_POINT ( 'NONE',  ( 0.0000000000000000000, 0.0000000000000000000, 0.0000000000000000000 ) ) ;
#919 = VERTEX_POINT ( 'NONE', #1269 ) ;
#920 = ORIENTED_EDGE ( 'NONE', *, *, #525, .F. ) ;
#921 = AXIS2_PLACEMENT_3D ( 'NONE', #1235, #524, #629 ) ;
#922 = DIRECTION ( 'NONE',  ( 0.0000000000000000000, 0.0000000000000000000, -1.000000000000000000 ) ) ;
#923 = DIRECTION ( 'NONE',  ( -1.000000000000000000, 0.0000000000000000000, 0.0000000000000000000 ) ) ;
#924 = DIRECTION ( 'NONE',  ( 0.0000000000000000000, 0.0000000000000000000, 1.000000000000000000 ) ) ;
#925 = ORIENTED_EDGE ( 'NONE', *, *, #631, .T. ) ;
#926 = ORIENTED_EDGE ( 'NONE', *, *, #640, .F. ) ;
#927 = DIRECTION ( 'NONE',  ( 1.000000000000000000, 0.0000000000000000000, 8.673617379884036705E-17 ) ) ;
#928 = DIRECTION ( 'NONE',  ( 0.0000000000000000000, 0.0000000000000000000, 1.000000000000000000 ) ) ;
#929 = EDGE_CURVE ( 'NONE', #214, #951, #917, .T. ) ;
#930 = CARTESIAN_POINT ( 'NONE',  ( 0.4949999999999998845, 0.05024999999999994749, -0.6249999999999998890 ) ) ;
#931 = ORIENTED_EDGE ( 'NONE', *, *, #1257, .F. ) ;
#932 = ORIENTED_EDGE ( 'NONE', *, *, #311, .T. ) ;
#933 = VECTOR ( 'NONE', #363, 1000.000000000000000 ) ;
#934 = CARTESIAN_POINT ( 'NONE',  ( 0.4950000000008003553, 1.133249999999999869, -0.5747499999999999831 ) ) ;
#935 = EDGE_CURVE ( 'NONE', #957, #906, #265, .T. ) ;
#936 = VECTOR ( 'NONE', #172, 1000.000000000000000 ) ;
#937 = CARTESIAN_POINT ( 'NONE',  ( -1.004999999999999893, 1.099750000000000005, -0.6249999999999998890 ) ) ;
#938 = CIRCLE ( 'NONE', #860, 0.05024999999999994749 ) ;
#939 = AXIS2_PLACEMENT_3D ( 'NONE', #613, #505, #24 ) ;
#940 = CYLINDRICAL_SURFACE ( 'NONE', #1036, 0.05024999999999994749 ) ;
#941 = DIRECTION ( 'NONE',  ( -1.000000000000000000, -0.0000000000000000000, 8.673617379884036705E-17 ) ) ;
#942 = AXIS2_PLACEMENT_3D ( 'NONE', #453, #357, #54 ) ;
#943 = ORIENTED_EDGE ( 'NONE', *, *, #1170, .F. ) ;
#944 = LINE ( 'NONE', #475, #25 ) ;
#946 = FACE_OUTER_BOUND ( 'NONE', #96, .T. ) ;
#945 =( LENGTH_UNIT ( ) NAMED_UNIT ( * ) SI_UNIT ( .MILLI., .METRE. ) );
#947 = ORIENTED_EDGE ( 'NONE', *, *, #201, .F. ) ;
#948 = EDGE_CURVE ( 'NONE', #774, #1261, #364, .T. ) ;
#949 = AXIS2_PLACEMENT_3D ( 'NONE', #1024, #119, #418 ) ;
#950 = DIRECTION ( 'NONE',  ( 1.000000000000000000, -0.0000000000000000000, -8.673617379884036705E-17 ) ) ;
#951 = VERTEX_POINT ( 'NONE', #797 ) ;
#952 = DIRECTION ( 'NONE',  ( 1.000000000000000000, 0.0000000000000000000, 0.0000000000000000000 ) ) ;
#953 = EDGE_CURVE ( 'NONE', #1035, #782, #846, .T. ) ;
#954 = CARTESIAN_POINT ( 'NONE',  ( -0.4949999999999997735, 0.05024999999999994749, 0.5747499999999999831 ) ) ;
#955 = FACE_OUTER_BOUND ( 'NONE', #862, .T. ) ;
#956 = CARTESIAN_POINT ( 'NONE',  ( -1.004999999999999893, 0.05024999999999994749, 0.5747499999999999831 ) ) ;
#957 = VERTEX_POINT ( 'NONE', #94 ) ;
#958 = DIRECTION ( 'NONE',  ( 0.0000000000000000000, -1.000000000000000000, -0.0000000000000000000 ) ) ;
#959 = DIRECTION ( 'NONE',  ( -1.000000000000000000, -0.0000000000000000000, -0.0000000000000000000 ) ) ;
#960 = AXIS2_PLACEMENT_3D ( 'NONE', #1069, #682, #885 ) ;
#961 = DIRECTION ( 'NONE',  ( 0.0000000000000000000, 0.0000000000000000000, -1.000000000000000000 ) ) ;
#962 = ORIENTED_EDGE ( 'NONE', *, *, #55, .T. ) ;
#963 = ORIENTED_EDGE ( 'NONE', *, *, #686, .F. ) ;
#964 = CARTESIAN_POINT ( 'NONE',  ( -1.004999999999999893, 1.099750000000000005, -0.5747499999999999831 ) ) ;
#965 = ORIENTED_EDGE ( 'NONE', *, *, #1206, .T. ) ;
#966 = CIRCLE ( 'NONE', #561, 0.03350000000000000200 ) ;
#967 = DIRECTION ( 'NONE',  ( -1.000000000000000000, 0.0000000000000000000, 0.0000000000000000000 ) ) ;
#968 = AXIS2_PLACEMENT_3D ( 'NONE', #609, #1212, #1198 ) ;
#969 = EDGE_LOOP ( 'NONE', ( #355, #1232, #574, #57 ) ) ;
#970 = FACE_OUTER_BOUND ( 'NONE', #510, .T. ) ;
#971 = DIRECTION ( 'NONE',  ( -8.673617379884036705E-17, 0.0000000000000000000, 1.000000000000000000 ) ) ;
#972 = ORIENTED_EDGE ( 'NONE', *, *, #287, .T. ) ;
#973 = VERTEX_POINT ( 'NONE', #191 ) ;
#974 = DIRECTION ( 'NONE',  ( 0.0000000000000000000, 1.000000000000000000, 0.0000000000000000000 ) ) ;
#975 = DIRECTION ( 'NONE',  ( 0.0000000000000000000, 0.0000000000000000000, 1.000000000000000000 ) ) ;
#976 = EDGE_CURVE ( 'NONE', #1095, #6, #1149, .T. ) ;
#977 = CIRCLE ( 'NONE', #373, 0.03349999999999989098 ) ;
#978 = AXIS2_PLACEMENT_3D ( 'NONE', #555, #261, #754 ) ;
#979 = ORIENTED_EDGE ( 'NONE', *, *, #1178, .T. ) ;
#980 = ADVANCED_FACE ( 'NONE', ( #539 ), #907, .F. ) ;
#981 = DIRECTION ( 'NONE',  ( -1.000000000000000000, 0.0000000000000000000, -0.0000000000000000000 ) ) ;
#982 = CARTESIAN_POINT ( 'NONE',  ( -0.4949999999999997735, 1.099750000000000005, 0.6249999999999998890 ) ) ;
#983 = LINE ( 'NONE', #344, #1163 ) ;
#984 = CIRCLE ( 'NONE', #986, 0.03349999999999989098 ) ;
#985 = CYLINDRICAL_SURFACE ( 'NONE', #1145, 0.05024999999999994749 ) ;
#986 = AXIS2_PLACEMENT_3D ( 'NONE', #599, #114, #15 ) ;
#987 = CARTESIAN_POINT ( 'NONE',  ( 0.9547499999999998765, 1.099750000000000005, -0.5747499999999999831 ) ) ;
#988 = VERTEX_POINT ( 'NONE', #317 ) ;
#989 = CARTESIAN_POINT ( 'NONE',  ( -0.4949999999999997735, 0.05024999999999994749, 0.6249999999999998890 ) ) ;
#990 = DIRECTION ( 'NONE',  ( 0.0000000000000000000, -1.000000000000000000, 0.0000000000000000000 ) ) ;
#991 = CIRCLE ( 'NONE', #978, 0.05024999999999994749 ) ;
#992 = ADVANCED_FACE ( 'NONE', ( #100 ), #1127, .T. ) ;
#993 = EDGE_CURVE ( 'NONE', #527, #1095, #817, .T. ) ;
#994 = ORIENTED_EDGE ( 'NONE', *, *, #335, .F. ) ;
#995 = DIRECTION ( 'NONE',  ( 1.000000000000000000, 0.0000000000000000000, 0.0000000000000000000 ) ) ;
#996 = EDGE_LOOP ( 'NONE', ( #894, #678, #871 ) ) ;
#997 = CARTESIAN_POINT ( 'NONE',  ( 0.9547499999999998765, 0.05024999999999994749, 0.5747499999999999831 ) ) ;
#998 = FACE_OUTER_BOUND ( 'NONE', #43, .T. ) ;
#999 = DIRECTION ( 'NONE',  ( 0.0000000000000000000, 1.000000000000000000, 0.0000000000000000000 ) ) ;
#1000 = ADVANCED_FACE ( 'NONE', ( #1065 ), #511, .F. ) ;
#1002 = LINE ( 'NONE', #67, #740 ) ;
#1001 = DIRECTION ( 'NONE',  ( -0.0000000000000000000, 1.000000000000000000, -0.0000000000000000000 ) ) ;
#1003 = ORIENTED_EDGE ( 'NONE', *, *, #220, .F. ) ;
#1004 = EDGE_CURVE ( 'NONE', #1013, #17, #394, .T. ) ;
#1005 = DIRECTION ( 'NONE',  ( 0.0000000000000000000, 0.0000000000000000000, -1.000000000000000000 ) ) ;
#1006 = ORIENTED_EDGE ( 'NONE', *, *, #693, .F. ) ;
#1007 = AXIS2_PLACEMENT_3D ( 'NONE', #1136, #148, #851 ) ;
#1008 = ORIENTED_EDGE ( 'NONE', *, *, #124, .T. ) ;
#1009 = CARTESIAN_POINT ( 'NONE',  ( -0.4949999999999997735, 1.149999999999999911, 0.5747499999999999831 ) ) ;
#1010 = DIRECTION ( 'NONE',  ( 0.0000000000000000000, -1.000000000000000000, 0.0000000000000000000 ) ) ;
#1011 = LINE ( 'NONE', #823, #734 ) ;
#1012 = ORIENTED_EDGE ( 'NONE', *, *, #853, .F. ) ;
#1013 = VERTEX_POINT ( 'NONE', #1009 ) ;
#1014 = CARTESIAN_POINT ( 'NONE',  ( -0.9547499999999998765, 0.05024999999999994749, -0.5747499999999999831 ) ) ;
#1015 = LINE ( 'NONE', #1126, #48 ) ;
#1016 = CARTESIAN_POINT ( 'NONE',  ( 0.4949999999999997735, 1.099750000000000005, 0.5747499999999999831 ) ) ;
#1017 = VECTOR ( 'NONE', #72, 1000.000000000000000 ) ;
#1018 = DIRECTION ( 'NONE',  ( -8.673617379884036705E-17, -0.0000000000000000000, -1.000000000000000000 ) ) ;
#1019 = VECTOR ( 'NONE', #990, 1000.000000000000000 ) ;
#1020 = EDGE_LOOP ( 'NONE', ( #110, #435, #727, #618 ) ) ;
#1021 = EDGE_CURVE ( 'NONE', #1253, #951, #1011, .T. ) ;
#1022 = DIRECTION ( 'NONE',  ( 0.0000000000000000000, 0.0000000000000000000, -1.000000000000000000 ) ) ;
#1023 = CARTESIAN_POINT ( 'NONE',  ( 500000.0000000000582, 0.05024999999999995443, -0.6082500000433679332 ) ) ;
#1024 = CARTESIAN_POINT ( 'NONE',  ( -0.9547499999999998765, 1.099750000000000005, 0.5747499999999999831 ) ) ;
#1025 = DIRECTION ( 'NONE',  ( -0.0000000000000000000, -1.000000000000000000, -0.0000000000000000000 ) ) ;
#1026 = VERTEX_POINT ( 'NONE', #18 ) ;
#1027 = EDGE_LOOP ( 'NONE', ( #833, #59, #729 ) ) ;
#1028 = AXIS2_PLACEMENT_3D ( 'NONE', #102, #13, #1097 ) ;
#1029 = FACE_OUTER_BOUND ( 'NONE', #78, .T. ) ;
#1030 = DIRECTION ( 'NONE',  ( 0.0000000000000000000, -1.000000000000000000, 0.0000000000000000000 ) ) ;
#1031 = ORIENTED_EDGE ( 'NONE', *, *, #732, .T. ) ;
#1032 = ORIENTED_EDGE ( 'NONE', *, *, #1239, .F. ) ;
#1033 = SPHERICAL_SURFACE ( 'NONE', #1162, 0.05024999999999999606 ) ;
#1034 = CARTESIAN_POINT ( 'NONE',  ( 0.4949999999999998845, 0.0000000000000000000, -0.5747499999999999831 ) ) ;
#1035 = VERTEX_POINT ( 'NONE', #607 ) ;
#1036 = AXIS2_PLACEMENT_3D ( 'NONE', #295, #282, #1182 ) ;
#1037 = DIRECTION ( 'NONE',  ( 0.0000000000000000000, 0.0000000000000000000, -1.000000000000000000 ) ) ;
#1038 = CARTESIAN_POINT ( 'NONE',  ( -0.9547499999999998765, 1.099750000000000005, -0.5747499999999999831 ) ) ;
#1039 = EDGE_LOOP ( 'NONE', ( #1003, #85, #171, #910 ) ) ;
#1040 = ORIENTED_EDGE ( 'NONE', *, *, #371, .T. ) ;
#1041 = EDGE_CURVE ( 'NONE', #919, #522, #829, .T. ) ;
#1042 = CARTESIAN_POINT ( 'NONE',  ( -0.4949999999999997735, 1.133249999999999869, -0.5747499999999999831 ) ) ;
#1043 = LINE ( 'NONE', #850, #788 ) ;
#1044 = AXIS2_PLACEMENT_3D ( 'NONE', #776, #280, #975 ) ;
#1045 = ADVANCED_FACE ( 'NONE', ( #1109 ), #601, .F. ) ;
#1046 = VERTEX_POINT ( 'NONE', #516 ) ;
#1047 =( NAMED_UNIT ( * ) PLANE_ANGLE_UNIT ( ) SI_UNIT ( $, .RADIAN. ) );
#1048 = AXIS2_PLACEMENT_3D ( 'NONE', #128, #1123, #131 ) ;
#1049 = APPLICATION_PROTOCOL_DEFINITION ( 'draft international standard', 'automotive_design', 1998, #351 ) ;
#1050 = FACE_OUTER_BOUND ( 'NONE', #656, .T. ) ;
#1051 = EDGE_LOOP ( 'NONE', ( #209, #388, #127, #420 ) ) ;
#1052 = SURFACE_STYLE_USAGE ( .BOTH. , #58 ) ;
#1053 = ORIENTED_EDGE ( 'NONE', *, *, #1021, .F. ) ;
#1054 = PRODUCT_CONTEXT ( 'NONE', #351, 'mechanical' ) ;
#1055 = EDGE_CURVE ( 'NONE', #339, #126, #1158, .T. ) ;
#1056 = CIRCLE ( 'NONE', #1048, 0.05024999999999994749 ) ;
#1057 =( NAMED_UNIT ( * ) SI_UNIT ( $, .STERADIAN. ) SOLID_ANGLE_UNIT ( ) );
#1058 = ORIENTED_EDGE ( 'NONE', *, *, #874, .T. ) ;
#1059 = DIRECTION ( 'NONE',  ( 0.0000000000000000000, 0.0000000000000000000, 1.000000000000000000 ) ) ;
#1060 = CARTESIAN_POINT ( 'NONE',  ( 0.4949999999999997735, 0.05024999999999994749, 0.6249999999999998890 ) ) ;
#1061 = DIRECTION ( 'NONE',  ( -0.0000000000000000000, -0.0000000000000000000, 1.000000000000000000 ) ) ;
#1062 = EDGE_CURVE ( 'NONE', #299, #767, #1173, .T. ) ;
#1063 = CARTESIAN_POINT ( 'NONE',  ( 1.004999999999999893, 0.05024999999999994749, 0.5747499999999999831 ) ) ;
#1064 = CARTESIAN_POINT ( 'NONE',  ( 0.4949999999999998845, 1.149999999999999911, -0.6249999999999998890 ) ) ;
#1065 = FACE_OUTER_BOUND ( 'NONE', #1112, .T. ) ;
#1066 = ADVANCED_FACE ( 'NONE', ( #456 ), #523, .F. ) ;
#1067 = ORIENTED_EDGE ( 'NONE', *, *, #935, .F. ) ;
#1068 = VERTEX_POINT ( 'NONE', #215 ) ;
#1069 = CARTESIAN_POINT ( 'NONE',  ( -0.4949999999999998845, 0.05024999999999994749, -0.5747499999999999831 ) ) ;
#1070 = CYLINDRICAL_SURFACE ( 'NONE', #1111, 0.03349999999999989098 ) ;
#1071 = CARTESIAN_POINT ( 'NONE',  ( 0.9547499999999998765, 1.149999999999999911, -0.6249999999999998890 ) ) ;
#1072 = AXIS2_PLACEMENT_3D ( 'NONE', #1016, #897, #208 ) ;
#1073 = ADVANCED_FACE ( 'NONE', ( #861 ), #490, .T. ) ;
#1074 = DIRECTION ( 'NONE',  ( 0.0000000000000000000, 0.0000000000000000000, 1.000000000000000000 ) ) ;
#1075 = VECTOR ( 'NONE', #228, 1000.000000000000000 ) ;
#1076 = DIRECTION ( 'NONE',  ( -8.673617379884036705E-17, 0.0000000000000000000, 1.000000000000000000 ) ) ;
#1077 = EDGE_LOOP ( 'NONE', ( #692, #721, #159, #233 ) ) ;
#1078 = CARTESIAN_POINT ( 'NONE',  ( 1.004999999999999893, 0.05024999999999994749, -0.5747499999999999831 ) ) ;
#1079 = CARTESIAN_POINT ( 'NONE',  ( 0.4949999999999998845, 1.149999999999999911, -0.6249999999999998890 ) ) ;
#1080 = EDGE_CURVE ( 'NONE', #17, #339, #473, .T. ) ;
#1081 = SPHERICAL_SURFACE ( 'NONE', #414, 0.05024999999999999606 ) ;
#1082 = DIRECTION ( 'NONE',  ( -1.000000000000000000, -0.0000000000000000000, 8.673617379884036705E-17 ) ) ;
#1083 = EDGE_LOOP ( 'NONE', ( #454, #1201, #251, #596 ) ) ;
#1084 = DIRECTION ( 'NONE',  ( 0.0000000000000000000, 0.0000000000000000000, -1.000000000000000000 ) ) ;
#1085 = DIRECTION ( 'NONE',  ( 0.0000000000000000000, 1.000000000000000000, 0.0000000000000000000 ) ) ;
#1086 = PLANE ( 'NONE',  #489 ) ;
#1087 = FACE_OUTER_BOUND ( 'NONE', #106, .T. ) ;
#1088 = DIRECTION ( 'NONE',  ( 0.0000000000000000000, 0.0000000000000000000, 1.000000000000000000 ) ) ;
#1089 = ORIENTED_EDGE ( 'NONE', *, *, #40, .F. ) ;
#1090 = VECTOR ( 'NONE', #967, 1000.000000000000000 ) ;
#1091 = DIRECTION ( 'NONE',  ( -1.000000000000000000, -0.0000000000000000000, -0.0000000000000000000 ) ) ;
#1092 = CARTESIAN_POINT ( 'NONE',  ( -0.4949999999999997735, 1.133249999999999869, -0.5747499999999999831 ) ) ;
#1093 = DIRECTION ( 'NONE',  ( 0.0000000000000000000, 0.0000000000000000000, 1.000000000000000000 ) ) ;
#1094 = AXIS2_PLACEMENT_3D ( 'NONE', #1099, #697, #496 ) ;
#1095 = VERTEX_POINT ( 'NONE', #308 ) ;
#1096 = ADVANCED_FACE ( 'NONE', ( #589 ), #249, .T. ) ;
#1097 = DIRECTION ( 'NONE',  ( 0.0000000000000000000, 0.0000000000000000000, 1.000000000000000000 ) ) ;
#1098 = ORIENTED_EDGE ( 'NONE', *, *, #677, .T. ) ;
#1099 = CARTESIAN_POINT ( 'NONE',  ( 0.0000000000000000000, 1.099750000000000005, 0.5747499999999999831 ) ) ;
#1100 = VECTOR ( 'NONE', #877, 1000.000000000000000 ) ;
#1101 = CIRCLE ( 'NONE', #968, 0.05024999999999994749 ) ;
#1102 = CARTESIAN_POINT ( 'NONE',  ( -0.4949999999999997735, 0.01674999999999999753, 0.5747499999999999831 ) ) ;
#1103 = EDGE_CURVE ( 'NONE', #26, #522, #168, .T. ) ;
#1104 = ADVANCED_FACE ( 'NONE', ( #184 ), #1081, .T. ) ;
#1105 = PRESENTATION_STYLE_ASSIGNMENT (( #82 ) ) ;
#1106 = AXIS2_PLACEMENT_3D ( 'NONE', #987, #688, #84 ) ;
#1107 = ORIENTED_EDGE ( 'NONE', *, *, #935, .T. ) ;
#1108 = DIRECTION ( 'NONE',  ( -0.0000000000000000000, 0.0000000000000000000, 1.000000000000000000 ) ) ;
#1109 = FACE_OUTER_BOUND ( 'NONE', #591, .T. ) ;
#1110 = DIRECTION ( 'NONE',  ( 1.000000000000000000, -0.0000000000000000000, -0.0000000000000000000 ) ) ;
#1111 = AXIS2_PLACEMENT_3D ( 'NONE', #434, #730, #625 ) ;
#1112 = EDGE_LOOP ( 'NONE', ( #192, #905, #243, #266 ) ) ;
#1113 = VECTOR ( 'NONE', #477, 1000.000000000000000 ) ;
#1114 = ORIENTED_EDGE ( 'NONE', *, *, #392, .T. ) ;
#1115 = CARTESIAN_POINT ( 'NONE',  ( -0.4949999999999998845, 1.149999999999999911, -0.6249999999999998890 ) ) ;
#1116 = PRESENTATION_STYLE_ASSIGNMENT (( #1052 ) ) ;
#1117 = VECTOR ( 'NONE', #111, 1000.000000000000000 ) ;
#1118 = DIRECTION ( 'NONE',  ( 0.0000000000000000000, -1.000000000000000000, 0.0000000000000000000 ) ) ;
#1119 = DIRECTION ( 'NONE',  ( 0.0000000000000000000, -1.000000000000000000, 0.0000000000000000000 ) ) ;
#1120 = ORIENTED_EDGE ( 'NONE', *, *, #1103, .T. ) ;
#1121 = VECTOR ( 'NONE', #898, 1000.000000000000000 ) ;
#1122 = AXIS2_PLACEMENT_3D ( 'NONE', #790, #771, #1059 ) ;
#1123 = DIRECTION ( 'NONE',  ( -1.000000000000000000, 0.0000000000000000000, 0.0000000000000000000 ) ) ;
#1124 = CARTESIAN_POINT ( 'NONE',  ( 0.4950000000008003553, 1.099750000000000005, -0.6082499999999999574 ) ) ;
#1125 = DIRECTION ( 'NONE',  ( 0.0000000000000000000, 0.0000000000000000000, -1.000000000000000000 ) ) ;
#1126 = CARTESIAN_POINT ( 'NONE',  ( 0.4949999999999997735, 1.149999999999999911, 0.5747499999999999831 ) ) ;
#1127 = SPHERICAL_SURFACE ( 'NONE', #1242, 0.05024999999999999606 ) ;
#1128 = DIRECTION ( 'NONE',  ( 0.0000000000000000000, -1.000000000000000000, 0.0000000000000000000 ) ) ;
#1129 = VERTEX_POINT ( 'NONE', #1220 ) ;
#1130 = EDGE_CURVE ( 'NONE', #1279, #302, #508, .T. ) ;
#1131 = CARTESIAN_POINT ( 'NONE',  ( -0.4949999999999997735, 1.149999999999999911, 0.6249999999999998890 ) ) ;
#1132 = ORIENTED_EDGE ( 'NONE', *, *, #1272, .T. ) ;
#1133 = CARTESIAN_POINT ( 'NONE',  ( -0.9547499999999998765, 1.149999999999999911, 0.6249999999999998890 ) ) ;
#1134 = AXIS2_PLACEMENT_3D ( 'NONE', #369, #565, #961 ) ;
#1135 = ORIENTED_EDGE ( 'NONE', *, *, #287, .F. ) ;
#1137 = FACE_OUTER_BOUND ( 'NONE', #512, .T. ) ;
#1136 = CARTESIAN_POINT ( 'NONE',  ( 1.004999999999999893, 1.149999999999999911, -0.6249999999999998890 ) ) ;
#1138 =( NAMED_UNIT ( * ) SI_UNIT ( $, .STERADIAN. ) SOLID_ANGLE_UNIT ( ) );
#1139 = ORIENTED_EDGE ( 'NONE', *, *, #1197, .T. ) ;
#1140 = FACE_OUTER_BOUND ( 'NONE', #1265, .T. ) ;
#1141 = EDGE_CURVE ( 'NONE', #1129, #348, #381, .T. ) ;
#1142 = CARTESIAN_POINT ( 'NONE',  ( -0.9547499999999998765, 1.099750000000000005, -0.5747499999999999831 ) ) ;
#1143 = ORIENTED_EDGE ( 'NONE', *, *, #827, .T. ) ;
#1144 = CARTESIAN_POINT ( 'NONE',  ( -0.9547499999999998765, 1.149999999999999911, -0.5747499999999999831 ) ) ;
#1145 = AXIS2_PLACEMENT_3D ( 'NONE', #804, #9, #600 ) ;
#1146 = DIRECTION ( 'NONE',  ( 0.0000000000000000000, 0.0000000000000000000, -1.000000000000000000 ) ) ;
#1147 = CARTESIAN_POINT ( 'NONE',  ( 0.9547499999999998765, 0.05024999999999994749, -0.6249999999999998890 ) ) ;
#1148 = CIRCLE ( 'NONE', #1223, 0.05024999999999994749 ) ;
#1149 = LINE ( 'NONE', #900, #665 ) ;
#1150 = ORIENTED_EDGE ( 'NONE', *, *, #220, .T. ) ;
#1151 = EDGE_CURVE ( 'NONE', #774, #691, #325, .T. ) ;
#1152 =( LENGTH_UNIT ( ) NAMED_UNIT ( * ) SI_UNIT ( .MILLI., .METRE. ) );
#1153 =( NAMED_UNIT ( * ) PLANE_ANGLE_UNIT ( ) SI_UNIT ( $, .RADIAN. ) );
#1154 = EDGE_LOOP ( 'NONE', ( #1245, #1040, #291 ) ) ;
#1155 = ORIENTED_EDGE ( 'NONE', *, *, #352, .T. ) ;
#1156 = APPLICATION_CONTEXT ( 'automotive_design' ) ;
#1157 = AXIS2_PLACEMENT_3D ( 'NONE', #1236, #39, #346 ) ;
#1158 = LINE ( 'NONE', #408, #391 ) ;
#1159 = VECTOR ( 'NONE', #701, 1000.000000000000000 ) ;
#1160 = ORIENTED_EDGE ( 'NONE', *, *, #105, .T. ) ;
#1161 = CARTESIAN_POINT ( 'NONE',  ( -1.004999999999999893, 0.05024999999999994749, -0.6249999999999998890 ) ) ;
#1162 = AXIS2_PLACEMENT_3D ( 'NONE', #93, #999, #494 ) ;
#1163 = VECTOR ( 'NONE', #145, 1000.000000000000000 ) ;
#1164 = DIRECTION ( 'NONE',  ( 0.0000000000000000000, 0.0000000000000000000, 1.000000000000000000 ) ) ;
#1165 = ORIENTED_EDGE ( 'NONE', *, *, #631, .F. ) ;
#1166 = FACE_OUTER_BOUND ( 'NONE', #1154, .T. ) ;
#1167 = CARTESIAN_POINT ( 'NONE',  ( 1.004999999999999893, 1.149999999999999911, -0.6249999999999998890 ) ) ;
#1168 = ORIENTED_EDGE ( 'NONE', *, *, #640, .T. ) ;
#1169 = CARTESIAN_POINT ( 'NONE',  ( -0.9547499999999998765, 0.05024999999999994749, 0.5747499999999999831 ) ) ;
#1170 = EDGE_CURVE ( 'NONE', #1013, #274, #1148, .T. ) ;
#1171 = AXIS2_PLACEMENT_3D ( 'NONE', #1142, #559, #650 ) ;
#1172 = DIRECTION ( 'NONE',  ( 1.000000000000000000, 0.0000000000000000000, -0.0000000000000000000 ) ) ;
#1173 = CIRCLE ( 'NONE', #1028, 0.05024999999999994749 ) ;
#1174 = DIRECTION ( 'NONE',  ( 0.0000000000000000000, -1.000000000000000000, 0.0000000000000000000 ) ) ;
#1175 = ORIENTED_EDGE ( 'NONE', *, *, #677, .F. ) ;
#1176 = DIRECTION ( 'NONE',  ( -8.673617379884036705E-17, 0.0000000000000000000, 1.000000000000000000 ) ) ;
#1177 = ORIENTED_EDGE ( 'NONE', *, *, #468, .T. ) ;
#1178 = EDGE_CURVE ( 'NONE', #782, #691, #1260, .T. ) ;
#1179 = EDGE_CURVE ( 'NONE', #1253, #1202, #977, .T. ) ;
#1180 = DIRECTION ( 'NONE',  ( 0.0000000000000000000, 0.0000000000000000000, -1.000000000000000000 ) ) ;
#1181 = DIRECTION ( 'NONE',  ( -0.0000000000000000000, -1.000000000000000000, -0.0000000000000000000 ) ) ;
#1182 = DIRECTION ( 'NONE',  ( -1.000000000000000000, 0.0000000000000000000, 0.0000000000000000000 ) ) ;
#1183 = ADVANCED_FACE ( 'NONE', ( #899 ), #834, .F. ) ;
#1184 = VERTEX_POINT ( 'NONE', #1034 ) ;
#1185 = ORIENTED_EDGE ( 'NONE', *, *, #451, .T. ) ;
#1186 = DIRECTION ( 'NONE',  ( 1.000000000000000000, 0.0000000000000000000, 8.673617379884036705E-17 ) ) ;
#1187 = DIRECTION ( 'NONE',  ( 0.0000000000000000000, 0.0000000000000000000, -1.000000000000000000 ) ) ;
#1188 = AXIS2_PLACEMENT_3D ( 'NONE', #997, #320, #1005 ) ;
#1189 = FACE_OUTER_BOUND ( 'NONE', #1051, .T. ) ;
#1190 = DIRECTION ( 'NONE',  ( 0.0000000000000000000, -0.0000000000000000000, 1.000000000000000000 ) ) ;
#1191 = VERTEX_POINT ( 'NONE', #934 ) ;
#1192 = CARTESIAN_POINT ( 'NONE',  ( 0.4949999999999998845, 0.0000000000000000000, -0.6249999999999998890 ) ) ;
#1193 = VERTEX_POINT ( 'NONE', #745 ) ;
#1194 = CIRCLE ( 'NONE', #960, 0.05024999999999994749 ) ;
#1195 = CIRCLE ( 'NONE', #80, 0.05024999999999994749 ) ;
#1196 = LINE ( 'NONE', #724, #705 ) ;
#1197 = EDGE_CURVE ( 'NONE', #1224, #1068, #751, .T. ) ;
#1198 = DIRECTION ( 'NONE',  ( 0.0000000000000000000, 0.0000000000000000000, 1.000000000000000000 ) ) ;
#1199 = CARTESIAN_POINT ( 'NONE',  ( -1.004999999999999893, 1.149999999999999911, -0.5747499999999999831 ) ) ;
#1200 = ORIENTED_EDGE ( 'NONE', *, *, #879, .T. ) ;
#1201 = ORIENTED_EDGE ( 'NONE', *, *, #1055, .F. ) ;
#1202 = VERTEX_POINT ( 'NONE', #33 ) ;
#1203 = CARTESIAN_POINT ( 'NONE',  ( -0.9547499999999998765, 1.099750000000000005, 0.6249999999999998890 ) ) ;
#1204 = ADVANCED_FACE ( 'NONE', ( #117 ), #888, .T. ) ;
#1205 = CARTESIAN_POINT ( 'NONE',  ( 0.4949999999999998845, 1.149999999999999911, -0.6249999999999998890 ) ) ;
#1206 = EDGE_CURVE ( 'NONE', #188, #1279, #916, .T. ) ;
#1207 = CARTESIAN_POINT ( 'NONE',  ( -0.9547499999999998765, 0.05024999999999994749, 0.5747499999999999831 ) ) ;
#1208 = CARTESIAN_POINT ( 'NONE',  ( 0.4950000000008003553, 0.01674999999999999753, 0.5747499999132638093 ) ) ;
#1209 = PRODUCT_DEFINITION ( 'UNKNOWN', '', #450, #313 ) ;
#1210 = EDGE_CURVE ( 'NONE', #774, #339, #616, .T. ) ;
#1211 = EDGE_LOOP ( 'NONE', ( #1067, #212, #200, #702 ) ) ;
#1212 = DIRECTION ( 'NONE',  ( 1.000000000000000000, 0.0000000000000000000, 8.673617379884036705E-17 ) ) ;
#1214 = FACE_OUTER_BOUND ( 'NONE', #1251, .T. ) ;
#1213 = DIRECTION ( 'NONE',  ( -1.000000000000000000, 0.0000000000000000000, 0.0000000000000000000 ) ) ;
#1215 = EDGE_CURVE ( 'NONE', #988, #302, #409, .T. ) ;
#1216 = ORIENTED_EDGE ( 'NONE', *, *, #732, .F. ) ;
#1217 = ORIENTED_EDGE ( 'NONE', *, *, #1004, .T. ) ;
#1218 = DIRECTION ( 'NONE',  ( -0.0000000000000000000, -1.000000000000000000, -0.0000000000000000000 ) ) ;
#1219 = CARTESIAN_POINT ( 'NONE',  ( 0.9547499999999998765, 0.05024999999999994749, 0.6249999999999998890 ) ) ;
#1220 = CARTESIAN_POINT ( 'NONE',  ( 0.9547499999999998765, 0.0000000000000000000, 0.5747499999999999831 ) ) ;
#1221 = VECTOR ( 'NONE', #211, 1000.000000000000000 ) ;
#1222 = DIRECTION ( 'NONE',  ( -1.000000000000000000, 0.0000000000000000000, 0.0000000000000000000 ) ) ;
#1223 = AXIS2_PLACEMENT_3D ( 'NONE', #622, #638, #538 ) ;
#1224 = VERTEX_POINT ( 'NONE', #655 ) ;
#1225 = VERTEX_POINT ( 'NONE', #1124 ) ;
#1226 = CARTESIAN_POINT ( 'NONE',  ( 0.9547499999999998765, 0.05024999999999994749, 0.5747499999999999831 ) ) ;
#1227 = MECHANICAL_DESIGN_GEOMETRIC_PRESENTATION_REPRESENTATION (  '', ( #486 ), #135 ) ;
#1228 = DIRECTION ( 'NONE',  ( 1.000000000000000000, -0.0000000000000000000, 0.0000000000000000000 ) ) ;
#1229 = CYLINDRICAL_SURFACE ( 'NONE', #187, 0.05024999999999994749 ) ;
#1230 = ORIENTED_EDGE ( 'NONE', *, *, #912, .T. ) ;
#1231 = DIRECTION ( 'NONE',  ( 0.0000000000000000000, -0.0000000000000000000, -1.000000000000000000 ) ) ;
#1232 = ORIENTED_EDGE ( 'NONE', *, *, #1021, .T. ) ;
#1233 = CYLINDRICAL_SURFACE ( 'NONE', #34, 0.05024999999999994749 ) ;
#1234 = AXIS2_PLACEMENT_3D ( 'NONE', #831, #738, #224 ) ;
#1235 = CARTESIAN_POINT ( 'NONE',  ( 0.0000000000000000000, 1.149999999999999911, 0.0000000000000000000 ) ) ;
#1236 = CARTESIAN_POINT ( 'NONE',  ( 0.9547499999999998765, 0.05024999999999994749, -0.5747499999999999831 ) ) ;
#1237 = CIRCLE ( 'NONE', #914, 0.05024999999999994749 ) ;
#1238 = CARTESIAN_POINT ( 'NONE',  ( -0.4949999999999997735, 0.05024999999999995443, -0.6082499999999998463 ) ) ;
#1239 = EDGE_CURVE ( 'NONE', #367, #1248, #217, .T. ) ;
#1240 = VERTEX_POINT ( 'NONE', #956 ) ;
#1241 = CARTESIAN_POINT ( 'NONE',  ( 0.0000000000000000000, 0.0000000000000000000, -0.5747499999999999831 ) ) ;
#1242 = AXIS2_PLACEMENT_3D ( 'NONE', #415, #1010, #909 ) ;
#1243 = CARTESIAN_POINT ( 'NONE',  ( -0.4949999999999997735, 0.05024999999999994749, 0.5747499999999999831 ) ) ;
#1244 = LINE ( 'NONE', #1208, #91 ) ;
#1245 = ORIENTED_EDGE ( 'NONE', *, *, #1062, .T. ) ;
#1246 = EDGE_CURVE ( 'NONE', #375, #1046, #1237, .T. ) ;
#1247 = ORIENTED_EDGE ( 'NONE', *, *, #540, .T. ) ;
#1248 = VERTEX_POINT ( 'NONE', #843 ) ;
#1249 = CARTESIAN_POINT ( 'NONE',  ( 0.9547499999999998765, 0.0000000000000000000, 0.0000000000000000000 ) ) ;
#1250 = CIRCLE ( 'NONE', #1044, 0.05024999999999994749 ) ;
#1251 = EDGE_LOOP ( 'NONE', ( #1185, #666, #412, #332 ) ) ;
#1252 = VECTOR ( 'NONE', #1228, 1000.000000000000000 ) ;
#1253 = VERTEX_POINT ( 'NONE', #60 ) ;
#1254 = LINE ( 'NONE', #1259, #37 ) ;
#1255 = CARTESIAN_POINT ( 'NONE',  ( 0.9547499999999998765, 1.149999999999999911, 0.5747499999999999831 ) ) ;
#1256 = ORIENTED_EDGE ( 'NONE', *, *, #716, .T. ) ;
#1257 = EDGE_CURVE ( 'NONE', #573, #1095, #991, .T. ) ;
#1258 = AXIS2_PLACEMENT_3D ( 'NONE', #845, #245, #1037 ) ;
#1259 = CARTESIAN_POINT ( 'NONE',  ( -1.004999999999999893, 1.099750000000000005, 0.6249999999999998890 ) ) ;
#1260 = CIRCLE ( 'NONE', #786, 0.05024999999999994749 ) ;
#1261 = VERTEX_POINT ( 'NONE', #152 ) ;
#1262 = FILL_AREA_STYLE_COLOUR ( '', #76 ) ;
#1263 = AXIS2_PLACEMENT_3D ( 'NONE', #1207, #97, #417 ) ;
#1264 = VECTOR ( 'NONE', #1030, 1000.000000000000000 ) ;
#1265 = EDGE_LOOP ( 'NONE', ( #902, #1132, #1139, #972 ) ) ;
#1266 = ADVANCED_FACE ( 'NONE', ( #1189 ), #444, .T. ) ;
#1267 = LINE ( 'NONE', #1161, #1090 ) ;
#1268 = DIRECTION ( 'NONE',  ( -1.000000000000000000, -0.0000000000000000000, 8.673617379884036705E-17 ) ) ;
#1269 = CARTESIAN_POINT ( 'NONE',  ( -0.4949999999999997735, 0.01674999999999997324, 0.5747499999999999831 ) ) ;
#1270 = ORIENTED_EDGE ( 'NONE', *, *, #802, .T. ) ;
#1271 = DIRECTION ( 'NONE',  ( 1.000000000000000000, 0.0000000000000000000, 0.0000000000000000000 ) ) ;
#1272 = EDGE_CURVE ( 'NONE', #348, #1224, #83, .T. ) ;
#1273 = DIRECTION ( 'NONE',  ( 0.0000000000000000000, -1.000000000000000000, 0.0000000000000000000 ) ) ;
#1274 = DIRECTION ( 'NONE',  ( 0.0000000000000000000, 0.0000000000000000000, 1.000000000000000000 ) ) ;
#1275 = PRESENTATION_STYLE_ASSIGNMENT (( #863 ) ) ;
#1276 = CIRCLE ( 'NONE', #837, 0.05024999999999994749 ) ;
#1277 = ORIENTED_EDGE ( 'NONE', *, *, #518, .F. ) ;
#1278 = DIRECTION ( 'NONE',  ( 0.0000000000000000000, 1.000000000000000000, 0.0000000000000000000 ) ) ;
#1279 = VERTEX_POINT ( 'NONE', #1147 ) ;
#1280 = CARTESIAN_POINT ( 'NONE',  ( 0.9547499999999998765, 1.149999999999999911, -0.5747499999999999831 ) ) ;
ENDSEC;
END-ISO-10303-21;
