ISO-10303-21;
HEADER;
FILE_DESCRIPTION(('STEP AP242'),'1');
FILE_NAME('10225394.stp','2026-02-01T11:31:11',('TraceParts'),('TraceParts S.A.S.'),'Spatial InterOp 3D',' ',' ');
FILE_SCHEMA(('AP242_MANAGED_MODEL_BASED_3D_ENGINEERING_MIM_LF  {1 0 10303 442 1 1 4}'));
ENDSEC;
DATA;
#1=PRODUCT_DEFINITION_CONTEXT('',#9,'design');
#2=APPLICATION_PROTOCOL_DEFINITION('INTERNATIONAL STANDARD','ap242_managed_model_based_3d_engineering',2014,#9);
#3=PRODUCT_CATEGORY_RELATIONSHIP('NONE','NONE',#10,#11);
#4=SHAPE_DEFINITION_REPRESENTATION(#12,#13);
#5= (GEOMETRIC_REPRESENTATION_CONTEXT(3)GLOBAL_UNCERTAINTY_ASSIGNED_CONTEXT((#16))GLOBAL_UNIT_ASSIGNED_CONTEXT((#18,#19,#20))REPRESENTATION_CONTEXT('NONE','WORKSPACE'));
#9=APPLICATION_CONTEXT('managed model based 3d engineering');
#10=PRODUCT_CATEGORY('part','NONE');
#11=PRODUCT_RELATED_PRODUCT_CATEGORY('detail',' ',(#22));
#12=PRODUCT_DEFINITION_SHAPE('NONE','NONE',#23);
#13=ADVANCED_BREP_SHAPE_REPRESENTATION('1',(#24,#25),#5);
#16=UNCERTAINTY_MEASURE_WITH_UNIT(LENGTH_MEASURE(1.0E-06),#18,'','');
#18= (CONVERSION_BASED_UNIT('MILLIMETRE',#28)LENGTH_UNIT()NAMED_UNIT(#31));
#19= (NAMED_UNIT(#33)PLANE_ANGLE_UNIT()SI_UNIT($,.RADIAN.));
#20= (NAMED_UNIT(#33)SOLID_ANGLE_UNIT()SI_UNIT($,.STERADIAN.));
#22=PRODUCT('1','','PART--DESC',(#39));
#23=PRODUCT_DEFINITION('','NONE',#40,#1);
#24=MANIFOLD_SOLID_BREP('1',#41);
#25=AXIS2_PLACEMENT_3D('',#42,#43,#44);
#28=LENGTH_MEASURE_WITH_UNIT(LENGTH_MEASURE(1.0),#45);
#31=DIMENSIONAL_EXPONENTS(1.0,0.0,0.0,0.0,0.0,0.0,0.0);
#33=DIMENSIONAL_EXPONENTS(0.0,0.0,0.0,0.0,0.0,0.0,0.0);
#39=PRODUCT_CONTEXT('',#9,'mechanical');
#40=PRODUCT_DEFINITION_FORMATION_WITH_SPECIFIED_SOURCE(' ','NONE',#22,.NOT_KNOWN.);
#41=CLOSED_SHELL('',(#46,#47,#48,#49,#50,#51,#52,#53,#54,#55,#56,#57,#58,#59,#60,#61,#62,#63,#64,#65,#66,#67,#68,#69,#70,#71));
#42=CARTESIAN_POINT('',(0.0,0.0,0.0));
#43=DIRECTION('',(0.0,0.0,1.0));
#44=DIRECTION('',(1.0,0.0,0.0));
#45= (NAMED_UNIT(#31)LENGTH_UNIT()SI_UNIT(.MILLI.,.METRE.));
#46=ADVANCED_FACE('NONE',(#73),#74,.T.);
#47=ADVANCED_FACE('NONE',(#75),#76,.T.);
#48=ADVANCED_FACE('NONE',(#77),#78,.F.);
#49=ADVANCED_FACE('NONE',(#79),#80,.T.);
#50=ADVANCED_FACE('NONE',(#81),#82,.T.);
#51=ADVANCED_FACE('NONE',(#83),#84,.F.);
#52=ADVANCED_FACE('NONE',(#85,#86),#87,.T.);
#53=ADVANCED_FACE('NONE',(#88,#89),#90,.T.);
#54=ADVANCED_FACE('NONE',(#91),#92,.T.);
#55=ADVANCED_FACE('NONE',(#93),#94,.T.);
#56=ADVANCED_FACE('NONE',(#95),#96,.T.);
#57=ADVANCED_FACE('NONE',(#97),#98,.T.);
#58=ADVANCED_FACE('NONE',(#99),#100,.T.);
#59=ADVANCED_FACE('NONE',(#101),#102,.T.);
#60=ADVANCED_FACE('NONE',(#103),#104,.T.);
#61=ADVANCED_FACE('NONE',(#105),#106,.T.);
#62=ADVANCED_FACE('NONE',(#107),#108,.T.);
#63=ADVANCED_FACE('NONE',(#109),#110,.T.);
#64=ADVANCED_FACE('NONE',(#111),#112,.T.);
#65=ADVANCED_FACE('NONE',(#113),#114,.T.);
#66=ADVANCED_FACE('NONE',(#115),#116,.T.);
#67=ADVANCED_FACE('NONE',(#117),#118,.T.);
#68=ADVANCED_FACE('NONE',(#119),#120,.T.);
#69=ADVANCED_FACE('NONE',(#121),#122,.T.);
#70=ADVANCED_FACE('NONE',(#123),#124,.T.);
#71=ADVANCED_FACE('NONE',(#125),#126,.T.);
#73=FACE_OUTER_BOUND('',#127,.T.);
#74=CONICAL_SURFACE('',#128,2.00000001547003,1.04719753333334);
#75=FACE_OUTER_BOUND('',#129,.T.);
#76=CONICAL_SURFACE('',#130,2.00000001547003,1.04719753333333);
#77=FACE_OUTER_BOUND('',#131,.T.);
#78=CYLINDRICAL_SURFACE('',#132,0.7835);
#79=FACE_OUTER_BOUND('',#133,.T.);
#80=CONICAL_SURFACE('',#134,2.00000001547004,1.04719753333333);
#81=FACE_OUTER_BOUND('',#135,.T.);
#82=CONICAL_SURFACE('',#136,2.00000001547004,1.04719753333333);
#83=FACE_OUTER_BOUND('',#137,.T.);
#84=CYLINDRICAL_SURFACE('',#138,0.7835);
#85=FACE_OUTER_BOUND('',#139,.T.);
#86=FACE_BOUND('',#140,.T.);
#87=PLANE('',#141);
#88=FACE_OUTER_BOUND('',#142,.T.);
#89=FACE_BOUND('',#143,.T.);
#90=PLANE('',#144);
#91=FACE_OUTER_BOUND('',#145,.T.);
#92=CONICAL_SURFACE('',#146,2.00000001547004,1.04719753333333);
#93=FACE_OUTER_BOUND('',#147,.T.);
#94=CONICAL_SURFACE('',#148,2.00000001547004,1.04719753333333);
#95=FACE_OUTER_BOUND('',#149,.T.);
#96=CONICAL_SURFACE('',#150,2.00000001547004,1.04719753333333);
#97=FACE_OUTER_BOUND('',#151,.T.);
#98=CONICAL_SURFACE('',#152,2.00000001547003,1.04719753333333);
#99=FACE_OUTER_BOUND('',#153,.T.);
#100=CONICAL_SURFACE('',#154,2.00000001547004,1.04719753333333);
#101=FACE_OUTER_BOUND('',#155,.T.);
#102=CONICAL_SURFACE('',#156,2.00000001547003,1.04719753333333);
#103=FACE_OUTER_BOUND('',#157,.T.);
#104=CONICAL_SURFACE('',#158,2.00000001547004,1.04719753333334);
#105=FACE_OUTER_BOUND('',#159,.T.);
#106=CONICAL_SURFACE('',#160,2.00000001547004,1.04719753333334);
#107=FACE_OUTER_BOUND('',#161,.T.);
#108=CONICAL_SURFACE('',#162,2.00000001547004,1.04719753333333);
#109=FACE_OUTER_BOUND('',#163,.T.);
#110=CONICAL_SURFACE('',#164,2.00000001547004,1.04719753333333);
#111=FACE_OUTER_BOUND('',#165,.T.);
#112=CONICAL_SURFACE('',#166,2.00000001547003,1.04719753333334);
#113=FACE_OUTER_BOUND('',#167,.T.);
#114=CONICAL_SURFACE('',#168,2.00000001547003,1.04719753333334);
#115=FACE_OUTER_BOUND('',#169,.T.);
#116=PLANE('',#170);
#117=FACE_OUTER_BOUND('',#171,.T.);
#118=PLANE('',#172);
#119=FACE_OUTER_BOUND('',#173,.T.);
#120=PLANE('',#174);
#121=FACE_OUTER_BOUND('',#175,.T.);
#122=PLANE('',#176);
#123=FACE_OUTER_BOUND('',#177,.T.);
#124=PLANE('',#178);
#125=FACE_OUTER_BOUND('',#179,.T.);
#126=PLANE('',#180);
#127=EDGE_LOOP('',(#181,#182,#183));
#128=AXIS2_PLACEMENT_3D('',#184,#185,#186);
#129=EDGE_LOOP('',(#187,#188,#189));
#130=AXIS2_PLACEMENT_3D('',#190,#191,#192);
#131=EDGE_LOOP('',(#193,#194,#195,#196));
#132=AXIS2_PLACEMENT_3D('',#197,#198,#199);
#133=EDGE_LOOP('',(#200,#201,#202));
#134=AXIS2_PLACEMENT_3D('',#203,#204,#205);
#135=EDGE_LOOP('',(#206,#207,#208));
#136=AXIS2_PLACEMENT_3D('',#209,#210,#211);
#137=EDGE_LOOP('',(#212,#213,#214,#215));
#138=AXIS2_PLACEMENT_3D('',#216,#217,#218);
#139=EDGE_LOOP('',(#219,#220,#221,#222,#223,#224,#225,#226));
#140=EDGE_LOOP('',(#227,#228));
#141=AXIS2_PLACEMENT_3D('',#229,#230,#231);
#142=EDGE_LOOP('',(#232,#233,#234,#235,#236,#237,#238,#239));
#143=EDGE_LOOP('',(#240,#241));
#144=AXIS2_PLACEMENT_3D('',#242,#243,#244);
#145=EDGE_LOOP('',(#245,#246,#247));
#146=AXIS2_PLACEMENT_3D('',#248,#249,#250);
#147=EDGE_LOOP('',(#251,#252,#253));
#148=AXIS2_PLACEMENT_3D('',#254,#255,#256);
#149=EDGE_LOOP('',(#257,#258,#259));
#150=AXIS2_PLACEMENT_3D('',#260,#261,#262);
#151=EDGE_LOOP('',(#263,#264,#265));
#152=AXIS2_PLACEMENT_3D('',#266,#267,#268);
#153=EDGE_LOOP('',(#269,#270,#271));
#154=AXIS2_PLACEMENT_3D('',#272,#273,#274);
#155=EDGE_LOOP('',(#275,#276,#277));
#156=AXIS2_PLACEMENT_3D('',#278,#279,#280);
#157=EDGE_LOOP('',(#281,#282,#283));
#158=AXIS2_PLACEMENT_3D('',#284,#285,#286);
#159=EDGE_LOOP('',(#287,#288,#289));
#160=AXIS2_PLACEMENT_3D('',#290,#291,#292);
#161=EDGE_LOOP('',(#293,#294,#295));
#162=AXIS2_PLACEMENT_3D('',#296,#297,#298);
#163=EDGE_LOOP('',(#299,#300,#301));
#164=AXIS2_PLACEMENT_3D('',#302,#303,#304);
#165=EDGE_LOOP('',(#305,#306,#307));
#166=AXIS2_PLACEMENT_3D('',#308,#309,#310);
#167=EDGE_LOOP('',(#311,#312,#313));
#168=AXIS2_PLACEMENT_3D('',#314,#315,#316);
#169=EDGE_LOOP('',(#317,#318,#319,#320,#321,#322));
#170=AXIS2_PLACEMENT_3D('',#323,#324,#325);
#171=EDGE_LOOP('',(#326,#327,#328,#329,#330,#331));
#172=AXIS2_PLACEMENT_3D('',#332,#333,#334);
#173=EDGE_LOOP('',(#335,#336,#337,#338,#339,#340));
#174=AXIS2_PLACEMENT_3D('',#341,#342,#343);
#175=EDGE_LOOP('',(#344,#345,#346,#347,#348,#349));
#176=AXIS2_PLACEMENT_3D('',#350,#351,#352);
#177=EDGE_LOOP('',(#353,#354,#355,#356,#357,#358));
#178=AXIS2_PLACEMENT_3D('',#359,#360,#361);
#179=EDGE_LOOP('',(#362,#363,#364,#365,#366,#367));
#180=AXIS2_PLACEMENT_3D('',#368,#369,#370);
#181=ORIENTED_EDGE('',*,*,#371,.F.);
#182=ORIENTED_EDGE('',*,*,#372,.T.);
#183=ORIENTED_EDGE('',*,*,#373,.F.);
#184=CARTESIAN_POINT('',(0.0,0.0,5.00000002679489));
#185=DIRECTION('',(-0.0,-0.0,-1.0));
#186=DIRECTION('',(-1.0,0.0,0.0));
#187=ORIENTED_EDGE('',*,*,#374,.F.);
#188=ORIENTED_EDGE('',*,*,#375,.T.);
#189=ORIENTED_EDGE('',*,*,#376,.F.);
#190=CARTESIAN_POINT('',(0.0,0.0,-2.6794893777729E-08));
#191=DIRECTION('',(-0.0,-0.0,1.0));
#192=DIRECTION('',(1.0,0.0,0.0));
#193=ORIENTED_EDGE('',*,*,#377,.T.);
#194=ORIENTED_EDGE('',*,*,#378,.T.);
#195=ORIENTED_EDGE('',*,*,#379,.T.);
#196=ORIENTED_EDGE('',*,*,#380,.F.);
#197=CARTESIAN_POINT('',(-2.06949820100817E-14,-3.31508346842384E-14,-4.44089209850063E-16));
#198=DIRECTION('',(0.0,0.0,-1.0));
#199=DIRECTION('',(1.0,0.0,0.0));
#200=ORIENTED_EDGE('',*,*,#381,.F.);
#201=ORIENTED_EDGE('',*,*,#382,.T.);
#202=ORIENTED_EDGE('',*,*,#383,.T.);
#203=CARTESIAN_POINT('',(0.0,0.0,-2.67948898746012E-08));
#204=DIRECTION('',(-0.0,-0.0,1.0));
#205=DIRECTION('',(1.0,0.0,0.0));
#206=ORIENTED_EDGE('',*,*,#384,.F.);
#207=ORIENTED_EDGE('',*,*,#385,.T.);
#208=ORIENTED_EDGE('',*,*,#386,.T.);
#209=CARTESIAN_POINT('',(0.0,0.0,5.00000002679489));
#210=DIRECTION('',(-0.0,-0.0,-1.0));
#211=DIRECTION('',(-1.0,0.0,0.0));
#212=ORIENTED_EDGE('',*,*,#378,.F.);
#213=ORIENTED_EDGE('',*,*,#387,.T.);
#214=ORIENTED_EDGE('',*,*,#380,.T.);
#215=ORIENTED_EDGE('',*,*,#388,.T.);
#216=CARTESIAN_POINT('',(-2.06949820100817E-14,-3.31508346842384E-14,-4.44089209850063E-16));
#217=DIRECTION('',(0.0,0.0,-1.0));
#218=DIRECTION('',(1.0,0.0,0.0));
#219=ORIENTED_EDGE('',*,*,#389,.T.);
#220=ORIENTED_EDGE('',*,*,#390,.T.);
#221=ORIENTED_EDGE('',*,*,#381,.T.);
#222=ORIENTED_EDGE('',*,*,#391,.T.);
#223=ORIENTED_EDGE('',*,*,#392,.T.);
#224=ORIENTED_EDGE('',*,*,#393,.T.);
#225=ORIENTED_EDGE('',*,*,#376,.T.);
#226=ORIENTED_EDGE('',*,*,#394,.T.);
#227=ORIENTED_EDGE('',*,*,#377,.F.);
#228=ORIENTED_EDGE('',*,*,#387,.F.);
#229=CARTESIAN_POINT('',(-2.37604548830763E-16,2.70616862252382E-15,0.0));
#230=DIRECTION('',(0.0,0.0,-1.0));
#231=DIRECTION('',(0.0,-1.0,0.0));
#232=ORIENTED_EDGE('',*,*,#395,.T.);
#233=ORIENTED_EDGE('',*,*,#396,.T.);
#234=ORIENTED_EDGE('',*,*,#397,.T.);
#235=ORIENTED_EDGE('',*,*,#373,.T.);
#236=ORIENTED_EDGE('',*,*,#398,.T.);
#237=ORIENTED_EDGE('',*,*,#399,.T.);
#238=ORIENTED_EDGE('',*,*,#400,.T.);
#239=ORIENTED_EDGE('',*,*,#384,.T.);
#240=ORIENTED_EDGE('',*,*,#388,.F.);
#241=ORIENTED_EDGE('',*,*,#379,.F.);
#242=CARTESIAN_POINT('',(-2.08166817117217E-16,2.60208521396521E-15,5.0));
#243=DIRECTION('',(0.0,0.0,1.0));
#244=DIRECTION('',(1.0,0.0,0.0));
#245=ORIENTED_EDGE('',*,*,#382,.F.);
#246=ORIENTED_EDGE('',*,*,#390,.F.);
#247=ORIENTED_EDGE('',*,*,#401,.T.);
#248=CARTESIAN_POINT('',(0.0,0.0,-2.67948898746012E-08));
#249=DIRECTION('',(-0.0,-0.0,1.0));
#250=DIRECTION('',(1.0,0.0,0.0));
#251=ORIENTED_EDGE('',*,*,#402,.T.);
#252=ORIENTED_EDGE('',*,*,#389,.F.);
#253=ORIENTED_EDGE('',*,*,#403,.T.);
#254=CARTESIAN_POINT('',(0.0,0.0,-2.67948903082821E-08));
#255=DIRECTION('',(-0.0,-0.0,1.0));
#256=DIRECTION('',(1.0,0.0,0.0));
#257=ORIENTED_EDGE('',*,*,#404,.T.);
#258=ORIENTED_EDGE('',*,*,#394,.F.);
#259=ORIENTED_EDGE('',*,*,#405,.T.);
#260=CARTESIAN_POINT('',(0.0,0.0,-2.67948903082821E-08));
#261=DIRECTION('',(-0.0,-0.0,1.0));
#262=DIRECTION('',(1.0,0.0,0.0));
#263=ORIENTED_EDGE('',*,*,#374,.T.);
#264=ORIENTED_EDGE('',*,*,#393,.F.);
#265=ORIENTED_EDGE('',*,*,#406,.T.);
#266=CARTESIAN_POINT('',(0.0,0.0,-2.6794893777729E-08));
#267=DIRECTION('',(-0.0,-0.0,1.0));
#268=DIRECTION('',(1.0,0.0,0.0));
#269=ORIENTED_EDGE('',*,*,#392,.F.);
#270=ORIENTED_EDGE('',*,*,#407,.T.);
#271=ORIENTED_EDGE('',*,*,#408,.T.);
#272=CARTESIAN_POINT('',(0.0,0.0,-2.67948911756438E-08));
#273=DIRECTION('',(-0.0,-0.0,1.0));
#274=DIRECTION('',(1.0,0.0,0.0));
#275=ORIENTED_EDGE('',*,*,#391,.F.);
#276=ORIENTED_EDGE('',*,*,#409,.T.);
#277=ORIENTED_EDGE('',*,*,#410,.T.);
#278=CARTESIAN_POINT('',(0.0,0.0,-2.67948935608886E-08));
#279=DIRECTION('',(-0.0,-0.0,1.0));
#280=DIRECTION('',(1.0,0.0,0.0));
#281=ORIENTED_EDGE('',*,*,#411,.T.);
#282=ORIENTED_EDGE('',*,*,#396,.F.);
#283=ORIENTED_EDGE('',*,*,#412,.T.);
#284=CARTESIAN_POINT('',(0.0,0.0,5.00000002679489));
#285=DIRECTION('',(-0.0,-0.0,-1.0));
#286=DIRECTION('',(-1.0,0.0,0.0));
#287=ORIENTED_EDGE('',*,*,#413,.T.);
#288=ORIENTED_EDGE('',*,*,#395,.F.);
#289=ORIENTED_EDGE('',*,*,#414,.T.);
#290=CARTESIAN_POINT('',(0.0,0.0,5.00000002679489));
#291=DIRECTION('',(-0.0,-0.0,-1.0));
#292=DIRECTION('',(-1.0,0.0,0.0));
#293=ORIENTED_EDGE('',*,*,#385,.F.);
#294=ORIENTED_EDGE('',*,*,#400,.F.);
#295=ORIENTED_EDGE('',*,*,#415,.T.);
#296=CARTESIAN_POINT('',(0.0,0.0,5.00000002679489));
#297=DIRECTION('',(-0.0,-0.0,-1.0));
#298=DIRECTION('',(-1.0,0.0,0.0));
#299=ORIENTED_EDGE('',*,*,#399,.F.);
#300=ORIENTED_EDGE('',*,*,#416,.T.);
#301=ORIENTED_EDGE('',*,*,#417,.T.);
#302=CARTESIAN_POINT('',(0.0,0.0,5.00000002679489));
#303=DIRECTION('',(-0.0,-0.0,-1.0));
#304=DIRECTION('',(-1.0,0.0,0.0));
#305=ORIENTED_EDGE('',*,*,#398,.F.);
#306=ORIENTED_EDGE('',*,*,#418,.T.);
#307=ORIENTED_EDGE('',*,*,#419,.T.);
#308=CARTESIAN_POINT('',(0.0,0.0,5.00000002679489));
#309=DIRECTION('',(-0.0,-0.0,-1.0));
#310=DIRECTION('',(-1.0,0.0,0.0));
#311=ORIENTED_EDGE('',*,*,#371,.T.);
#312=ORIENTED_EDGE('',*,*,#397,.F.);
#313=ORIENTED_EDGE('',*,*,#420,.T.);
#314=CARTESIAN_POINT('',(0.0,0.0,5.00000002679489));
#315=DIRECTION('',(-0.0,-0.0,-1.0));
#316=DIRECTION('',(-1.0,0.0,0.0));
#317=ORIENTED_EDGE('',*,*,#421,.T.);
#318=ORIENTED_EDGE('',*,*,#420,.F.);
#319=ORIENTED_EDGE('',*,*,#411,.F.);
#320=ORIENTED_EDGE('',*,*,#422,.T.);
#321=ORIENTED_EDGE('',*,*,#409,.F.);
#322=ORIENTED_EDGE('',*,*,#383,.F.);
#323=CARTESIAN_POINT('',(2.3094010767585,2.42163820401887E-15,0.0));
#324=DIRECTION('',(0.866025403784438,-0.500000000000001,0.0));
#325=DIRECTION('',(0.0,0.0,-1.0));
#326=ORIENTED_EDGE('',*,*,#402,.F.);
#327=ORIENTED_EDGE('',*,*,#423,.T.);
#328=ORIENTED_EDGE('',*,*,#418,.F.);
#329=ORIENTED_EDGE('',*,*,#372,.F.);
#330=ORIENTED_EDGE('',*,*,#421,.F.);
#331=ORIENTED_EDGE('',*,*,#401,.F.);
#332=CARTESIAN_POINT('',(1.15470053837925,2.0,0.0));
#333=DIRECTION('',(0.866025403784438,0.500000000000001,0.0));
#334=DIRECTION('',(0.0,0.0,-1.0));
#335=ORIENTED_EDGE('',*,*,#404,.F.);
#336=ORIENTED_EDGE('',*,*,#424,.T.);
#337=ORIENTED_EDGE('',*,*,#416,.F.);
#338=ORIENTED_EDGE('',*,*,#419,.F.);
#339=ORIENTED_EDGE('',*,*,#423,.F.);
#340=ORIENTED_EDGE('',*,*,#403,.F.);
#341=CARTESIAN_POINT('',(-1.15470053837925,2.0,0.0));
#342=DIRECTION('',(-0.0,1.0,0.0));
#343=DIRECTION('',(1.0,0.0,0.0));
#344=ORIENTED_EDGE('',*,*,#375,.F.);
#345=ORIENTED_EDGE('',*,*,#425,.T.);
#346=ORIENTED_EDGE('',*,*,#415,.F.);
#347=ORIENTED_EDGE('',*,*,#417,.F.);
#348=ORIENTED_EDGE('',*,*,#424,.F.);
#349=ORIENTED_EDGE('',*,*,#405,.F.);
#350=CARTESIAN_POINT('',(-2.3094010767585,2.18578734817553E-15,0.0));
#351=DIRECTION('',(-0.866025403784439,0.5,0.0));
#352=DIRECTION('',(0.0,0.0,1.0));
#353=ORIENTED_EDGE('',*,*,#426,.T.);
#354=ORIENTED_EDGE('',*,*,#414,.F.);
#355=ORIENTED_EDGE('',*,*,#386,.F.);
#356=ORIENTED_EDGE('',*,*,#425,.F.);
#357=ORIENTED_EDGE('',*,*,#406,.F.);
#358=ORIENTED_EDGE('',*,*,#408,.F.);
#359=CARTESIAN_POINT('',(-1.15470053837925,-2.0,0.0));
#360=DIRECTION('',(-0.866025403784439,-0.5,0.0));
#361=DIRECTION('',(-0.5,0.866025403784439,0.0));
#362=ORIENTED_EDGE('',*,*,#422,.F.);
#363=ORIENTED_EDGE('',*,*,#412,.F.);
#364=ORIENTED_EDGE('',*,*,#413,.F.);
#365=ORIENTED_EDGE('',*,*,#426,.F.);
#366=ORIENTED_EDGE('',*,*,#407,.F.);
#367=ORIENTED_EDGE('',*,*,#410,.F.);
#368=CARTESIAN_POINT('',(1.15470053837925,-2.0,0.0));
#369=DIRECTION('',(0.0,-1.0,0.0));
#370=DIRECTION('',(0.0,0.0,-1.0));
#371=EDGE_CURVE('',#427,#428,#429,.T.);
#372=EDGE_CURVE('NONE',#427,#430,#431,.T.);
#373=EDGE_CURVE('NONE',#428,#430,#432,.T.);
#374=EDGE_CURVE('',#433,#434,#435,.T.);
#375=EDGE_CURVE('NONE',#433,#436,#437,.T.);
#376=EDGE_CURVE('NONE',#434,#436,#438,.T.);
#377=EDGE_CURVE('NONE',#439,#440,#441,.T.);
#378=EDGE_CURVE('NONE',#440,#442,#443,.T.);
#379=EDGE_CURVE('NONE',#442,#444,#445,.T.);
#380=EDGE_CURVE('NONE',#439,#444,#446,.T.);
#381=EDGE_CURVE('NONE',#447,#448,#449,.T.);
#382=EDGE_CURVE('NONE',#447,#450,#451,.T.);
#383=EDGE_CURVE('NONE',#450,#448,#452,.T.);
#384=EDGE_CURVE('NONE',#453,#454,#455,.T.);
#385=EDGE_CURVE('NONE',#453,#456,#457,.T.);
#386=EDGE_CURVE('NONE',#456,#454,#458,.T.);
#387=EDGE_CURVE('NONE',#440,#439,#459,.T.);
#388=EDGE_CURVE('NONE',#444,#442,#460,.T.);
#389=EDGE_CURVE('NONE',#461,#462,#463,.T.);
#390=EDGE_CURVE('NONE',#462,#447,#464,.T.);
#391=EDGE_CURVE('NONE',#448,#465,#466,.T.);
#392=EDGE_CURVE('NONE',#465,#467,#468,.T.);
#393=EDGE_CURVE('NONE',#467,#434,#469,.T.);
#394=EDGE_CURVE('NONE',#436,#461,#470,.T.);
#395=EDGE_CURVE('NONE',#454,#471,#472,.T.);
#396=EDGE_CURVE('NONE',#471,#473,#474,.T.);
#397=EDGE_CURVE('NONE',#473,#428,#475,.T.);
#398=EDGE_CURVE('NONE',#430,#476,#477,.T.);
#399=EDGE_CURVE('NONE',#476,#478,#479,.T.);
#400=EDGE_CURVE('NONE',#478,#453,#480,.T.);
#401=EDGE_CURVE('NONE',#462,#450,#481,.T.);
#402=EDGE_CURVE('NONE',#482,#462,#483,.T.);
#403=EDGE_CURVE('NONE',#461,#482,#484,.T.);
#404=EDGE_CURVE('NONE',#485,#461,#486,.T.);
#405=EDGE_CURVE('NONE',#436,#485,#487,.T.);
#406=EDGE_CURVE('NONE',#467,#433,#488,.T.);
#407=EDGE_CURVE('NONE',#465,#489,#490,.T.);
#408=EDGE_CURVE('NONE',#489,#467,#491,.T.);
#409=EDGE_CURVE('NONE',#448,#492,#493,.T.);
#410=EDGE_CURVE('NONE',#492,#465,#494,.T.);
#411=EDGE_CURVE('NONE',#495,#473,#496,.T.);
#412=EDGE_CURVE('NONE',#471,#495,#497,.T.);
#413=EDGE_CURVE('NONE',#498,#471,#499,.T.);
#414=EDGE_CURVE('NONE',#454,#498,#500,.T.);
#415=EDGE_CURVE('NONE',#478,#456,#501,.T.);
#416=EDGE_CURVE('NONE',#476,#502,#503,.T.);
#417=EDGE_CURVE('NONE',#502,#478,#504,.T.);
#418=EDGE_CURVE('NONE',#430,#505,#506,.T.);
#419=EDGE_CURVE('NONE',#505,#476,#507,.T.);
#420=EDGE_CURVE('NONE',#473,#427,#508,.T.);
#421=EDGE_CURVE('NONE',#450,#427,#509,.T.);
#422=EDGE_CURVE('NONE',#495,#492,#510,.T.);
#423=EDGE_CURVE('NONE',#482,#505,#511,.T.);
#424=EDGE_CURVE('NONE',#485,#502,#512,.T.);
#425=EDGE_CURVE('NONE',#433,#456,#513,.T.);
#426=EDGE_CURVE('NONE',#489,#498,#514,.T.);
#427=VERTEX_POINT('NONE',#515);
#428=VERTEX_POINT('',#516);
#429=LINE('',#517,#518);
#430=VERTEX_POINT('NONE',#519);
#431=B_SPLINE_CURVE_WITH_KNOTS('',3,(#520,#521,#522,#523),.UNSPECIFIED.,.F.,.F.,(4,4),(0.0,0.00116843604438816),.UNSPECIFIED.);
#432=CIRCLE('',#524,2.00000001547003);
#433=VERTEX_POINT('NONE',#525);
#434=VERTEX_POINT('',#526);
#435=LINE('',#527,#528);
#436=VERTEX_POINT('NONE',#529);
#437=B_SPLINE_CURVE_WITH_KNOTS('',3,(#530,#531,#532,#533),.UNSPECIFIED.,.F.,.F.,(4,4),(0.0,0.00116843604438816),.UNSPECIFIED.);
#438=CIRCLE('',#534,2.00000001547003);
#439=VERTEX_POINT('NONE',#535);
#440=VERTEX_POINT('NONE',#536);
#441=CIRCLE('',#537,0.7835);
#442=VERTEX_POINT('NONE',#538);
#443=LINE('',#539,#540);
#444=VERTEX_POINT('NONE',#541);
#445=CIRCLE('',#542,0.7835);
#446=LINE('',#543,#544);
#447=VERTEX_POINT('NONE',#545);
#448=VERTEX_POINT('NONE',#546);
#449=CIRCLE('',#547,2.00000001547004);
#450=VERTEX_POINT('NONE',#548);
#451=LINE('',#549,#550);
#452=B_SPLINE_CURVE_WITH_KNOTS('',3,(#551,#552,#553,#554),.UNSPECIFIED.,.F.,.F.,(4,4),(0.0,0.00116843612938759),.UNSPECIFIED.);
#453=VERTEX_POINT('NONE',#555);
#454=VERTEX_POINT('NONE',#556);
#455=CIRCLE('',#557,2.00000001547004);
#456=VERTEX_POINT('NONE',#558);
#457=LINE('',#559,#560);
#458=B_SPLINE_CURVE_WITH_KNOTS('',3,(#561,#562,#563,#564),.UNSPECIFIED.,.F.,.F.,(4,4),(0.0,0.00116843612938759),.UNSPECIFIED.);
#459=CIRCLE('',#565,0.7835);
#460=CIRCLE('',#566,0.7835);
#461=VERTEX_POINT('NONE',#567);
#462=VERTEX_POINT('NONE',#568);
#463=CIRCLE('',#569,2.00000001547004);
#464=CIRCLE('',#570,2.00000001547004);
#465=VERTEX_POINT('NONE',#571);
#466=CIRCLE('',#572,2.00000001547003);
#467=VERTEX_POINT('NONE',#573);
#468=CIRCLE('',#574,2.00000001547004);
#469=CIRCLE('',#575,2.00000001547003);
#470=CIRCLE('',#576,2.00000001547004);
#471=VERTEX_POINT('NONE',#577);
#472=CIRCLE('',#578,2.00000001547004);
#473=VERTEX_POINT('NONE',#579);
#474=CIRCLE('',#580,2.00000001547004);
#475=CIRCLE('',#581,2.00000001547003);
#476=VERTEX_POINT('NONE',#582);
#477=CIRCLE('',#583,2.00000001547003);
#478=VERTEX_POINT('NONE',#584);
#479=CIRCLE('',#585,2.00000001547004);
#480=CIRCLE('',#586,2.00000001547004);
#481=B_SPLINE_CURVE_WITH_KNOTS('',3,(#587,#588,#589,#590),.UNSPECIFIED.,.F.,.F.,(4,4),(3.41372225978448E-13,0.00116843612972896),.UNSPECIFIED.);
#482=VERTEX_POINT('NONE',#591);
#483=B_SPLINE_CURVE_WITH_KNOTS('',3,(#592,#593,#594,#595),.UNSPECIFIED.,.F.,.F.,(4,4),(0.0,0.00116843604438817),.UNSPECIFIED.);
#484=B_SPLINE_CURVE_WITH_KNOTS('',3,(#596,#597,#598,#599),.UNSPECIFIED.,.F.,.F.,(4,4),(3.41371612606031E-13,0.00116843615953869),.UNSPECIFIED.);
#485=VERTEX_POINT('NONE',#600);
#486=B_SPLINE_CURVE_WITH_KNOTS('',3,(#601,#602,#603,#604),.UNSPECIFIED.,.F.,.F.,(4,4),(0.0,0.00116843604438816),.UNSPECIFIED.);
#487=B_SPLINE_CURVE_WITH_KNOTS('',3,(#605,#606,#607,#608),.UNSPECIFIED.,.F.,.F.,(4,4),(3.41371848054522E-13,0.0011684361595387),.UNSPECIFIED.);
#488=B_SPLINE_CURVE_WITH_KNOTS('',3,(#609,#610,#611,#612),.UNSPECIFIED.,.F.,.F.,(4,4),(3.41370568495075E-13,0.00116843615953869),.UNSPECIFIED.);
#489=VERTEX_POINT('NONE',#613);
#490=B_SPLINE_CURVE_WITH_KNOTS('',3,(#614,#615,#616,#617),.UNSPECIFIED.,.F.,.F.,(4,4),(3.41371406777126E-13,0.00116843615953869),.UNSPECIFIED.);
#491=B_SPLINE_CURVE_WITH_KNOTS('',3,(#618,#619,#620,#621),.UNSPECIFIED.,.F.,.F.,(4,4),(0.0,0.00116843604438816),.UNSPECIFIED.);
#492=VERTEX_POINT('NONE',#622);
#493=B_SPLINE_CURVE_WITH_KNOTS('',3,(#623,#624,#625,#626),.UNSPECIFIED.,.F.,.F.,(4,4),(3.41372825275915E-13,0.0011684361595387),.UNSPECIFIED.);
#494=B_SPLINE_CURVE_WITH_KNOTS('',3,(#627,#628,#629,#630),.UNSPECIFIED.,.F.,.F.,(4,4),(0.0,0.00116843604438816),.UNSPECIFIED.);
#495=VERTEX_POINT('NONE',#631);
#496=B_SPLINE_CURVE_WITH_KNOTS('',3,(#632,#633,#634,#635),.UNSPECIFIED.,.F.,.F.,(4,4),(0.0,0.00116843604438816),.UNSPECIFIED.);
#497=B_SPLINE_CURVE_WITH_KNOTS('',3,(#636,#637,#638,#639),.UNSPECIFIED.,.F.,.F.,(4,4),(3.41371568667927E-13,0.00116843615953869),.UNSPECIFIED.);
#498=VERTEX_POINT('NONE',#640);
#499=B_SPLINE_CURVE_WITH_KNOTS('',3,(#641,#642,#643,#644),.UNSPECIFIED.,.F.,.F.,(4,4),(0.0,0.00116843604438816),.UNSPECIFIED.);
#500=B_SPLINE_CURVE_WITH_KNOTS('',3,(#645,#646,#647,#648),.UNSPECIFIED.,.F.,.F.,(4,4),(3.41371193892387E-13,0.0011684361595387),.UNSPECIFIED.);
#501=B_SPLINE_CURVE_WITH_KNOTS('',3,(#649,#650,#651,#652),.UNSPECIFIED.,.F.,.F.,(4,4),(3.41372097533034E-13,0.00116843612972895),.UNSPECIFIED.);
#502=VERTEX_POINT('NONE',#653);
#503=B_SPLINE_CURVE_WITH_KNOTS('',3,(#654,#655,#656,#657),.UNSPECIFIED.,.F.,.F.,(4,4),(3.41371300706717E-13,0.00116843615953869),.UNSPECIFIED.);
#504=B_SPLINE_CURVE_WITH_KNOTS('',3,(#658,#659,#660,#661),.UNSPECIFIED.,.F.,.F.,(4,4),(0.0,0.00116843604438817),.UNSPECIFIED.);
#505=VERTEX_POINT('NONE',#662);
#506=B_SPLINE_CURVE_WITH_KNOTS('',3,(#663,#664,#665,#666),.UNSPECIFIED.,.F.,.F.,(4,4),(3.41371486619875E-13,0.0011684361595387),.UNSPECIFIED.);
#507=B_SPLINE_CURVE_WITH_KNOTS('',3,(#667,#668,#669,#670),.UNSPECIFIED.,.F.,.F.,(4,4),(0.0,0.00116843604438816),.UNSPECIFIED.);
#508=B_SPLINE_CURVE_WITH_KNOTS('',3,(#671,#672,#673,#674),.UNSPECIFIED.,.F.,.F.,(4,4),(3.41370237273874E-13,0.0011684361595387),.UNSPECIFIED.);
#509=LINE('',#675,#676);
#510=LINE('',#677,#678);
#511=LINE('',#679,#680);
#512=LINE('',#681,#682);
#513=LINE('',#683,#684);
#514=LINE('',#685,#686);
#515=CARTESIAN_POINT('',(2.30940105378513,3.97910478563125E-08,4.8213672466669));
#516=CARTESIAN_POINT('',(2.00000001547003,-2.44929361724003E-16,5.00000002679489));
#517=CARTESIAN_POINT('',(2.00000001547003,-2.44929361724003E-16,5.00000002679489));
#518=VECTOR('',#687,1.0);
#519=CARTESIAN_POINT('',(1.7320508142676,1.00000000386751,5.0000000312607));
#520=CARTESIAN_POINT('',(2.30940105378513,3.97910478563125E-08,4.8213672466669));
#521=CARTESIAN_POINT('',(2.12076916026685,0.326720081668017,4.93027392950713));
#522=CARTESIAN_POINT('',(1.92910664646552,0.658689275102906,5.00000003565318));
#523=CARTESIAN_POINT('',(1.7320508142676,1.00000000386751,5.0000000312607));
#524=AXIS2_PLACEMENT_3D('',#688,#689,#690);
#525=CARTESIAN_POINT('',(-2.30940105378513,3.9791045625397E-08,0.178632753333093));
#526=CARTESIAN_POINT('',(-2.00000001547003,-2.44929361724003E-16,-2.67948940257945E-08));
#527=CARTESIAN_POINT('',(-2.00000001547003,-2.44929361724003E-16,-2.67948937759943E-08));
#528=VECTOR('',#691,1.0);
#529=CARTESIAN_POINT('',(-1.7320508142676,1.00000000386751,-3.12607069062919E-08));
#530=CARTESIAN_POINT('',(-2.30940105378513,3.9791045625397E-08,0.178632753333093));
#531=CARTESIAN_POINT('',(-2.12076916026685,0.326720081668012,0.0697260704928679));
#532=CARTESIAN_POINT('',(-1.92910664646552,0.658689275102903,-3.56531887923594E-08));
#533=CARTESIAN_POINT('',(-1.7320508142676,1.00000000386751,-3.12607069062919E-08));
#534=AXIS2_PLACEMENT_3D('',#692,#693,#694);
#535=CARTESIAN_POINT('',(0.783499999999979,-3.31508346842384E-14,0.0));
#536=CARTESIAN_POINT('',(-0.783500000000021,-3.30548836075252E-14,0.0));
#537=AXIS2_PLACEMENT_3D('',#695,#696,#697);
#538=CARTESIAN_POINT('',(-0.783500000000021,-3.30548836075252E-14,5.0));
#539=CARTESIAN_POINT('',(-0.783500000000021,-3.30548836075252E-14,-4.44089209850063E-16));
#540=VECTOR('',#698,1000.0);
#541=CARTESIAN_POINT('',(0.783499999999979,-3.31508346842384E-14,5.0));
#542=AXIS2_PLACEMENT_3D('',#699,#700,#701);
#543=CARTESIAN_POINT('',(0.783499999999979,-3.31508346842384E-14,-4.44089209850063E-16));
#544=VECTOR('',#702,1000.0);
#545=CARTESIAN_POINT('',(2.00000001547004,0.0,-2.67948898746012E-08));
#546=CARTESIAN_POINT('',(1.7320508142676,-1.00000000386751,-3.12607094604676E-08));
#547=AXIS2_PLACEMENT_3D('',#703,#704,#705);
#548=CARTESIAN_POINT('',(2.30940107454656,-3.83118055061711E-09,0.178632765319713));
#549=CARTESIAN_POINT('',(2.00000001547004,0.0,-2.67948898746012E-08));
#550=VECTOR('',#706,1000.0);
#551=CARTESIAN_POINT('',(2.30940107454656,-3.83118055061711E-09,0.178632765319713));
#552=CARTESIAN_POINT('',(2.12076918010992,-0.326720028923423,0.0697260864220527));
#553=CARTESIAN_POINT('',(1.92910666123703,-0.658689249517896,-3.56531905673798E-08));
#554=CARTESIAN_POINT('',(1.7320508142676,-1.00000000386751,-3.12607094604676E-08));
#555=CARTESIAN_POINT('',(-2.00000001547004,0.0,5.00000002679489));
#556=CARTESIAN_POINT('',(-1.7320508142676,-1.00000000386751,5.0000000312607));
#557=AXIS2_PLACEMENT_3D('',#707,#708,#709);
#558=CARTESIAN_POINT('',(-2.30940107454656,-3.83118269744981E-09,4.82136723468028));
#559=CARTESIAN_POINT('',(-2.00000001547004,0.0,5.00000002679489));
#560=VECTOR('',#710,1000.0);
#561=CARTESIAN_POINT('',(-2.30940107454656,-3.83118269744981E-09,4.82136723468028));
#562=CARTESIAN_POINT('',(-2.12076918010992,-0.326720028923426,4.93027391357794));
#563=CARTESIAN_POINT('',(-1.92910666123703,-0.658689249517899,5.00000003565318));
#564=CARTESIAN_POINT('',(-1.7320508142676,-1.00000000386751,5.0000000312607));
#565=AXIS2_PLACEMENT_3D('',#711,#712,#713);
#566=AXIS2_PLACEMENT_3D('',#714,#715,#716);
#567=CARTESIAN_POINT('',(-8.09035916728645E-16,2.00000000773502,-3.12607059227257E-08));
#568=CARTESIAN_POINT('',(1.7320508142676,1.00000000386751,-3.12607061463075E-08));
#569=AXIS2_PLACEMENT_3D('',#717,#718,#719);
#570=AXIS2_PLACEMENT_3D('',#720,#721,#722);
#571=CARTESIAN_POINT('',(-2.83831386241205E-16,-2.00000000773502,-3.12607069152803E-08));
#572=AXIS2_PLACEMENT_3D('',#723,#724,#725);
#573=CARTESIAN_POINT('',(-1.7320508142676,-1.00000000386751,-3.12607087975064E-08));
#574=AXIS2_PLACEMENT_3D('',#726,#727,#728);
#575=AXIS2_PLACEMENT_3D('',#729,#730,#731);
#576=AXIS2_PLACEMENT_3D('',#732,#733,#734);
#577=CARTESIAN_POINT('',(1.75411168293794E-16,-2.00000000773502,5.0000000312607));
#578=AXIS2_PLACEMENT_3D('',#735,#736,#737);
#579=CARTESIAN_POINT('',(1.73205081426759,-1.00000000386751,5.00000003126071));
#580=AXIS2_PLACEMENT_3D('',#738,#739,#740);
#581=AXIS2_PLACEMENT_3D('',#741,#742,#743);
#582=CARTESIAN_POINT('',(-9.62116768240309E-16,2.00000000773502,5.0000000312607));
#583=AXIS2_PLACEMENT_3D('',#744,#745,#746);
#584=CARTESIAN_POINT('',(-1.7320508142676,1.00000000386751,5.0000000312607));
#585=AXIS2_PLACEMENT_3D('',#747,#748,#749);
#586=AXIS2_PLACEMENT_3D('',#750,#751,#752);
#587=CARTESIAN_POINT('',(1.7320508142676,1.00000000386751,-3.12607061463075E-08));
#588=CARTESIAN_POINT('',(1.92910665751091,0.658689248236718,-3.3493614421247E-08));
#589=CARTESIAN_POINT('',(2.12076918006219,0.326720029006093,0.0697260863945002));
#590=CARTESIAN_POINT('',(2.30940107454656,-3.83118055061711E-09,0.178632765319713));
#591=CARTESIAN_POINT('',(1.15470056135262,1.99999996020896,0.178632753333095));
#592=CARTESIAN_POINT('',(1.15470056135262,1.99999996020896,0.178632753333095));
#593=CARTESIAN_POINT('',(1.34333247078445,1.67327992751968,0.0697260704928687));
#594=CARTESIAN_POINT('',(1.53499496867223,1.3413107248971,-3.56531880311017E-08));
#595=CARTESIAN_POINT('',(1.7320508142676,1.00000000386751,-3.12607061463075E-08));
#596=CARTESIAN_POINT('',(-8.09035916728645E-16,2.00000000773502,-3.12607059227257E-08));
#597=CARTESIAN_POINT('',(0.394111717211292,1.99999999613249,-3.34936151616607E-08));
#598=CARTESIAN_POINT('',(0.777436819732639,2.0,0.0697261020974121));
#599=CARTESIAN_POINT('',(1.15470056135262,1.99999996020896,0.178632753333095));
#600=CARTESIAN_POINT('',(-1.15470049243251,2.0,0.178632753333095));
#601=CARTESIAN_POINT('',(-1.15470049243251,2.0,0.178632753333095));
#602=CARTESIAN_POINT('',(-0.7774366894824,2.00000000918769,0.0697260704928691));
#603=CARTESIAN_POINT('',(-0.394111677793289,2.0,-3.56531876316441E-08));
#604=CARTESIAN_POINT('',(-8.09035916728645E-16,2.00000000773502,-3.12607059227257E-08));
#605=CARTESIAN_POINT('',(-1.7320508142676,1.00000000386751,-3.12607069062919E-08));
#606=CARTESIAN_POINT('',(-1.53499494561387,1.34131075710033,-3.34936157095072E-08));
#607=CARTESIAN_POINT('',(-1.34333239770256,1.67328003572585,0.0697261020974117));
#608=CARTESIAN_POINT('',(-1.15470049243251,2.0,0.178632753333095));
#609=CARTESIAN_POINT('',(-1.7320508142676,-1.00000000386751,-3.12607087975064E-08));
#610=CARTESIAN_POINT('',(-1.92910666282516,-0.658689239032155,-3.34936159054226E-08));
#611=CARTESIAN_POINT('',(-2.1207692174352,-0.326719964274149,0.069726102097411));
#612=CARTESIAN_POINT('',(-2.30940105378513,3.9791045625397E-08,0.178632753333093));
#613=CARTESIAN_POINT('',(-1.15470056135262,-1.99999996020896,0.178632753333095));
#614=CARTESIAN_POINT('',(-2.83831386241205E-16,-2.00000000773502,-3.12607069152803E-08));
#615=CARTESIAN_POINT('',(-0.394111717211293,-1.99999999613249,-3.34936144280134E-08));
#616=CARTESIAN_POINT('',(-0.77743681973264,-2.0,0.069726102097412));
#617=CARTESIAN_POINT('',(-1.15470056135262,-1.99999996020896,0.178632753333095));
#618=CARTESIAN_POINT('',(-1.15470056135262,-1.99999996020896,0.178632753333095));
#619=CARTESIAN_POINT('',(-1.34333247078445,-1.67327992751968,0.0697260704928677));
#620=CARTESIAN_POINT('',(-1.53499496867223,-1.3413107248971,-3.56531887704769E-08));
#621=CARTESIAN_POINT('',(-1.7320508142676,-1.00000000386751,-3.12607087975064E-08));
#622=CARTESIAN_POINT('',(1.15470049243251,-2.0,0.178632753333093));
#623=CARTESIAN_POINT('',(1.7320508142676,-1.00000000386751,-3.12607094604676E-08));
#624=CARTESIAN_POINT('',(1.53499494561386,-1.34131075710033,-3.3493618473326E-08));
#625=CARTESIAN_POINT('',(1.34333239770255,-1.67328003572585,0.069726102097409));
#626=CARTESIAN_POINT('',(1.15470049243251,-2.0,0.178632753333093));
#627=CARTESIAN_POINT('',(1.15470049243251,-2.0,0.178632753333093));
#628=CARTESIAN_POINT('',(0.777436689482398,-2.00000000918769,0.069726070492869));
#629=CARTESIAN_POINT('',(0.394111677793288,-2.0,-3.56531877372381E-08));
#630=CARTESIAN_POINT('',(-2.83831386241205E-16,-2.00000000773502,-3.12607069152803E-08));
#631=CARTESIAN_POINT('',(1.15470056135262,-1.99999996020895,4.8213672466669));
#632=CARTESIAN_POINT('',(1.15470056135262,-1.99999996020895,4.8213672466669));
#633=CARTESIAN_POINT('',(1.34333247078445,-1.67327992751968,4.93027392950713));
#634=CARTESIAN_POINT('',(1.53499496867223,-1.34131072489709,5.00000003565319));
#635=CARTESIAN_POINT('',(1.73205081426759,-1.00000000386751,5.00000003126071));
#636=CARTESIAN_POINT('',(1.75411168293794E-16,-2.00000000773502,5.0000000312607));
#637=CARTESIAN_POINT('',(0.394111717211291,-1.99999999613249,5.00000003349361));
#638=CARTESIAN_POINT('',(0.777436819732637,-2.0,4.93027389790258));
#639=CARTESIAN_POINT('',(1.15470056135262,-1.99999996020895,4.8213672466669));
#640=CARTESIAN_POINT('',(-1.15470049243251,-2.0,4.8213672466669));
#641=CARTESIAN_POINT('',(-1.15470049243251,-2.0,4.8213672466669));
#642=CARTESIAN_POINT('',(-0.777436689482399,-2.00000000918769,4.93027392950713));
#643=CARTESIAN_POINT('',(-0.394111677793288,-2.0,5.00000003565318));
#644=CARTESIAN_POINT('',(1.75411168293794E-16,-2.00000000773502,5.0000000312607));
#645=CARTESIAN_POINT('',(-1.7320508142676,-1.00000000386751,5.0000000312607));
#646=CARTESIAN_POINT('',(-1.53499494561387,-1.34131075710033,5.00000003349361));
#647=CARTESIAN_POINT('',(-1.34333239770256,-1.67328003572585,4.93027389790258));
#648=CARTESIAN_POINT('',(-1.15470049243251,-2.0,4.8213672466669));
#649=CARTESIAN_POINT('',(-1.7320508142676,1.00000000386751,5.0000000312607));
#650=CARTESIAN_POINT('',(-1.92910665751091,0.658689248236718,5.00000003349361));
#651=CARTESIAN_POINT('',(-2.12076918006219,0.326720029006093,4.9302739136055));
#652=CARTESIAN_POINT('',(-2.30940107454656,-3.83118269744981E-09,4.82136723468028));
#653=CARTESIAN_POINT('',(-1.15470056135262,1.99999996020896,4.8213672466669));
#654=CARTESIAN_POINT('',(-9.62116768240309E-16,2.00000000773502,5.0000000312607));
#655=CARTESIAN_POINT('',(-0.394111717211294,1.99999999613249,5.00000003349361));
#656=CARTESIAN_POINT('',(-0.77743681973264,2.0,4.93027389790258));
#657=CARTESIAN_POINT('',(-1.15470056135262,1.99999996020896,4.8213672466669));
#658=CARTESIAN_POINT('',(-1.15470056135262,1.99999996020896,4.8213672466669));
#659=CARTESIAN_POINT('',(-1.34333247078445,1.67327992751968,4.93027392950713));
#660=CARTESIAN_POINT('',(-1.53499496867223,1.3413107248971,5.00000003565318));
#661=CARTESIAN_POINT('',(-1.7320508142676,1.00000000386751,5.0000000312607));
#662=CARTESIAN_POINT('',(1.15470049243251,2.0,4.8213672466669));
#663=CARTESIAN_POINT('',(1.7320508142676,1.00000000386751,5.0000000312607));
#664=CARTESIAN_POINT('',(1.53499494561387,1.34131075710033,5.00000003349361));
#665=CARTESIAN_POINT('',(1.34333239770256,1.67328003572585,4.93027389790258));
#666=CARTESIAN_POINT('',(1.15470049243251,2.0,4.8213672466669));
#667=CARTESIAN_POINT('',(1.15470049243251,2.0,4.8213672466669));
#668=CARTESIAN_POINT('',(0.777436689482398,2.00000000918769,4.93027392950713));
#669=CARTESIAN_POINT('',(0.394111677793287,2.0,5.00000003565318));
#670=CARTESIAN_POINT('',(-9.62116768240309E-16,2.00000000773502,5.0000000312607));
#671=CARTESIAN_POINT('',(1.73205081426759,-1.00000000386751,5.00000003126071));
#672=CARTESIAN_POINT('',(1.92910666282516,-0.658689239032154,5.00000003349361));
#673=CARTESIAN_POINT('',(2.12076921743519,-0.32671996427415,4.93027389790259));
#674=CARTESIAN_POINT('',(2.30940105378513,3.97910478563125E-08,4.8213672466669));
#675=CARTESIAN_POINT('',(2.3094010767585,2.42163820401887E-15,0.0));
#676=VECTOR('',#753,1000.0);
#677=CARTESIAN_POINT('',(1.15470053837924,-2.0,0.0));
#678=VECTOR('',#754,1000.0);
#679=CARTESIAN_POINT('',(1.15470053837925,2.0,0.0));
#680=VECTOR('',#755,1000.0);
#681=CARTESIAN_POINT('',(-1.15470053837925,2.0,0.0));
#682=VECTOR('',#756,1000.0);
#683=CARTESIAN_POINT('',(-2.3094010767585,2.18578734817553E-15,0.0));
#684=VECTOR('',#757,1000.0);
#685=CARTESIAN_POINT('',(-1.15470053837925,-2.0,0.0));
#686=VECTOR('',#758,1000.0);
#687=DIRECTION('',(-0.866025394852807,1.06057522778681E-16,0.500000015470039));
#688=CARTESIAN_POINT('',(0.0,0.0,5.00000002679489));
#689=DIRECTION('',(0.0,0.0,1.0));
#690=DIRECTION('',(-1.0,1.77635683940025E-15,0.0));
#691=DIRECTION('',(0.866025394852807,1.06057522778681E-16,-0.50000001547004));
#692=CARTESIAN_POINT('',(0.0,0.0,-2.67948940281148E-08));
#693=DIRECTION('',(0.0,0.0,-1.0));
#694=DIRECTION('',(1.0,1.77635683940025E-15,0.0));
#695=CARTESIAN_POINT('',(-2.06949820100817E-14,-3.31508346842384E-14,0.0));
#696=DIRECTION('',(0.0,0.0,-1.0));
#697=DIRECTION('',(1.0,0.0,0.0));
#698=DIRECTION('',(0.0,0.0,1.0));
#699=CARTESIAN_POINT('',(-2.06949820100817E-14,-3.31508346842384E-14,5.0));
#700=DIRECTION('',(0.0,0.0,1.0));
#701=DIRECTION('',(1.0,0.0,0.0));
#702=DIRECTION('',(0.0,0.0,1.0));
#703=CARTESIAN_POINT('',(0.0,0.0,-2.67948898746012E-08));
#704=DIRECTION('',(0.0,0.0,-1.0));
#705=DIRECTION('',(1.0,0.0,0.0));
#706=DIRECTION('',(0.866025394852807,0.0,0.500000015470039));
#707=CARTESIAN_POINT('',(0.0,0.0,5.00000002679489));
#708=DIRECTION('',(0.0,0.0,1.0));
#709=DIRECTION('',(-1.0,0.0,0.0));
#710=DIRECTION('',(-0.866025394852807,0.0,-0.50000001547004));
#711=CARTESIAN_POINT('',(-2.06949820100817E-14,-3.31508346842384E-14,0.0));
#712=DIRECTION('',(0.0,0.0,-1.0));
#713=DIRECTION('',(1.0,0.0,0.0));
#714=CARTESIAN_POINT('',(-2.06949820100817E-14,-3.31508346842384E-14,5.0));
#715=DIRECTION('',(0.0,0.0,1.0));
#716=DIRECTION('',(1.0,0.0,0.0));
#717=CARTESIAN_POINT('',(0.0,0.0,-2.67948895571248E-08));
#718=DIRECTION('',(0.0,0.0,-1.0));
#719=DIRECTION('',(1.0,1.77635683940025E-15,0.0));
#720=CARTESIAN_POINT('',(0.0,0.0,-2.67948898746012E-08));
#721=DIRECTION('',(0.0,0.0,-1.0));
#722=DIRECTION('',(1.0,1.77635683940025E-15,0.0));
#723=CARTESIAN_POINT('',(0.0,0.0,-2.67948935608886E-08));
#724=DIRECTION('',(0.0,0.0,-1.0));
#725=DIRECTION('',(1.0,0.0,0.0));
#726=CARTESIAN_POINT('',(0.0,0.0,-2.67948914260296E-08));
#727=DIRECTION('',(0.0,0.0,-1.0));
#728=DIRECTION('',(1.0,0.0,0.0));
#729=CARTESIAN_POINT('',(0.0,0.0,-2.67948940281148E-08));
#730=DIRECTION('',(0.0,0.0,-1.0));
#731=DIRECTION('',(1.0,1.77635683940025E-15,0.0));
#732=CARTESIAN_POINT('',(0.0,0.0,-2.67948903082821E-08));
#733=DIRECTION('',(0.0,-0.0,-1.0));
#734=DIRECTION('',(1.0,-1.77635683940025E-15,0.0));
#735=CARTESIAN_POINT('',(0.0,0.0,5.00000002679489));
#736=DIRECTION('',(0.0,0.0,1.0));
#737=DIRECTION('',(-1.0,0.0,0.0));
#738=CARTESIAN_POINT('',(0.0,0.0,5.00000002679489));
#739=DIRECTION('',(0.0,0.0,1.0));
#740=DIRECTION('',(-1.0,0.0,0.0));
#741=CARTESIAN_POINT('',(0.0,0.0,5.00000002679489));
#742=DIRECTION('',(0.0,0.0,1.0));
#743=DIRECTION('',(-1.0,1.77635683940025E-15,0.0));
#744=CARTESIAN_POINT('',(0.0,0.0,5.00000002679489));
#745=DIRECTION('',(0.0,0.0,1.0));
#746=DIRECTION('',(-1.0,1.77635683940025E-15,0.0));
#747=CARTESIAN_POINT('',(0.0,0.0,5.00000002679489));
#748=DIRECTION('',(0.0,0.0,1.0));
#749=DIRECTION('',(-1.0,-1.77635683940025E-15,0.0));
#750=CARTESIAN_POINT('',(0.0,0.0,5.00000002679489));
#751=DIRECTION('',(0.0,0.0,1.0));
#752=DIRECTION('',(-1.0,1.77635683940025E-15,0.0));
#753=DIRECTION('',(-0.0,0.0,1.0));
#754=DIRECTION('',(0.0,-0.0,-1.0));
#755=DIRECTION('',(0.0,-0.0,1.0));
#756=DIRECTION('',(0.0,-0.0,1.0));
#757=DIRECTION('',(0.0,0.0,1.0));
#758=DIRECTION('',(0.0,0.0,1.0));
#759=PRESENTATION_LAYER_ASSIGNMENT('','',(#24,#46,#47,#48,#49,#50,#51,#52,#53,#54,#55,#56,#57,#58,#59,#60,#61,#62,#63,#64,#65,#66,#67,#68,#69,#70,#71,#372,#373,#375,#376,#377,#378,#379,#380,#381,#382,#383,#384,#385,#386,#387,#388,#389,#390,#391,#392,#393,#394,#395,#396,#397,#398,#399,#400,#401,#402,#403,#404,#405,#406,#407,#408,#409,#410,#411,#412,#413,#414,#415,#416,#417,#418,#419,#420,#421,#422,#423,#424,#425,#426,#427,#430,#433,#436,#439,#440,#442,#444,#447,#448,#450,#453,#454,#456,#461,#462,#465,#467,#471,#473,#476,#478,#482,#485,#489,#492,#495,#498,#502,#505));
ENDSEC;
END-ISO-10303-21;
