ISO-10303-21;
HEADER;
FILE_DESCRIPTION(('STEP AP242'),'1');
FILE_NAME('10368817.stp','2026-02-01T11:26:21',('TraceParts'),('TraceParts S.A.S.'),'Spatial InterOp 3D',' ',' ');
FILE_SCHEMA(('AP242_MANAGED_MODEL_BASED_3D_ENGINEERING_MIM_LF  {1 0 10303 442 1 1 4}'));
ENDSEC;
DATA;
#1=PRODUCT_DEFINITION_CONTEXT('',#9,'design');
#2=APPLICATION_PROTOCOL_DEFINITION('INTERNATIONAL STANDARD','ap242_managed_model_based_3d_engineering',2014,#9);
#3=PRODUCT_CATEGORY_RELATIONSHIP('NONE','NONE',#10,#11);
#4=SHAPE_DEFINITION_REPRESENTATION(#12,#13);
#5= (GEOMETRIC_REPRESENTATION_CONTEXT(3)GLOBAL_UNCERTAINTY_ASSIGNED_CONTEXT((#16))GLOBAL_UNIT_ASSIGNED_CONTEXT((#18,#19,#20))REPRESENTATION_CONTEXT('NONE','WORKSPACE'));
#9=APPLICATION_CONTEXT('managed model based 3d engineering');
#10=PRODUCT_CATEGORY('part','NONE');
#11=PRODUCT_RELATED_PRODUCT_CATEGORY('detail',' ',(#22));
#12=PRODUCT_DEFINITION_SHAPE('NONE','NONE',#23);
#13=ADVANCED_BREP_SHAPE_REPRESENTATION('1',(#24,#25),#5);
#16=UNCERTAINTY_MEASURE_WITH_UNIT(LENGTH_MEASURE(1.0E-06),#18,'','');
#18= (CONVERSION_BASED_UNIT('MILLIMETRE',#28)LENGTH_UNIT()NAMED_UNIT(#31));
#19= (NAMED_UNIT(#33)PLANE_ANGLE_UNIT()SI_UNIT($,.RADIAN.));
#20= (NAMED_UNIT(#33)SOLID_ANGLE_UNIT()SI_UNIT($,.STERADIAN.));
#22=PRODUCT('1','','PART--DESC',(#39));
#23=PRODUCT_DEFINITION('','NONE',#40,#1);
#24=MANIFOLD_SOLID_BREP('1',#41);
#25=AXIS2_PLACEMENT_3D('',#42,#43,#44);
#28=LENGTH_MEASURE_WITH_UNIT(LENGTH_MEASURE(1.0),#45);
#31=DIMENSIONAL_EXPONENTS(1.0,0.0,0.0,0.0,0.0,0.0,0.0);
#33=DIMENSIONAL_EXPONENTS(0.0,0.0,0.0,0.0,0.0,0.0,0.0);
#39=PRODUCT_CONTEXT('',#9,'mechanical');
#40=PRODUCT_DEFINITION_FORMATION_WITH_SPECIFIED_SOURCE(' ','NONE',#22,.NOT_KNOWN.);
#41=CLOSED_SHELL('',(#46,#47,#48,#49,#50,#51,#52,#53,#54,#55));
#42=CARTESIAN_POINT('',(0.0,0.0,0.0));
#43=DIRECTION('',(0.0,0.0,1.0));
#44=DIRECTION('',(1.0,0.0,0.0));
#45= (NAMED_UNIT(#31)LENGTH_UNIT()SI_UNIT(.MILLI.,.METRE.));
#46=ADVANCED_FACE('NONE',(#57),#58,.F.);
#47=ADVANCED_FACE('NONE',(#59),#60,.F.);
#48=ADVANCED_FACE('NONE',(#61),#62,.F.);
#49=ADVANCED_FACE('NONE',(#63),#64,.T.);
#50=ADVANCED_FACE('NONE',(#65),#66,.T.);
#51=ADVANCED_FACE('NONE',(#67,#68),#69,.T.);
#52=ADVANCED_FACE('NONE',(#70,#71),#72,.F.);
#53=ADVANCED_FACE('NONE',(#73),#74,.F.);
#54=ADVANCED_FACE('NONE',(#75),#76,.F.);
#55=ADVANCED_FACE('NONE',(#77),#78,.F.);
#57=FACE_OUTER_BOUND('',#79,.T.);
#58=CONICAL_SURFACE('',#80,1.025,0.785398163397448);
#59=FACE_OUTER_BOUND('',#81,.T.);
#60=CONICAL_SURFACE('',#82,1.025,0.785398163397448);
#61=FACE_OUTER_BOUND('',#83,.T.);
#62=CYLINDRICAL_SURFACE('',#84,0.799999999999998);
#63=FACE_OUTER_BOUND('',#85,.T.);
#64=CYLINDRICAL_SURFACE('',#86,2.5);
#65=FACE_OUTER_BOUND('',#87,.T.);
#66=CYLINDRICAL_SURFACE('',#88,2.5);
#67=FACE_OUTER_BOUND('',#89,.T.);
#68=FACE_BOUND('',#90,.T.);
#69=PLANE('',#91);
#70=FACE_OUTER_BOUND('',#92,.T.);
#71=FACE_BOUND('',#93,.T.);
#72=PLANE('',#94);
#73=FACE_OUTER_BOUND('',#95,.T.);
#74=CYLINDRICAL_SURFACE('',#96,0.799999999999998);
#75=FACE_OUTER_BOUND('',#97,.T.);
#76=CONICAL_SURFACE('',#98,1.025,0.785398163397448);
#77=FACE_OUTER_BOUND('',#99,.T.);
#78=CONICAL_SURFACE('',#100,1.025,0.785398163397448);
#79=EDGE_LOOP('',(#101,#102,#103,#104));
#80=AXIS2_PLACEMENT_3D('',#105,#106,#107);
#81=EDGE_LOOP('',(#108,#109,#110,#111));
#82=AXIS2_PLACEMENT_3D('',#112,#113,#114);
#83=EDGE_LOOP('',(#115,#116,#117,#118));
#84=AXIS2_PLACEMENT_3D('',#119,#120,#121);
#85=EDGE_LOOP('',(#122,#123,#124,#125));
#86=AXIS2_PLACEMENT_3D('',#126,#127,#128);
#87=EDGE_LOOP('',(#129,#130,#131,#132));
#88=AXIS2_PLACEMENT_3D('',#133,#134,#135);
#89=EDGE_LOOP('',(#136,#137));
#90=EDGE_LOOP('',(#138,#139));
#91=AXIS2_PLACEMENT_3D('',#140,#141,#142);
#92=EDGE_LOOP('',(#143,#144));
#93=EDGE_LOOP('',(#145,#146));
#94=AXIS2_PLACEMENT_3D('',#147,#148,#149);
#95=EDGE_LOOP('',(#150,#151,#152,#153));
#96=AXIS2_PLACEMENT_3D('',#154,#155,#156);
#97=EDGE_LOOP('',(#157,#158,#159,#160));
#98=AXIS2_PLACEMENT_3D('',#161,#162,#163);
#99=EDGE_LOOP('',(#164,#165,#166,#167));
#100=AXIS2_PLACEMENT_3D('',#168,#169,#170);
#101=ORIENTED_EDGE('',*,*,#171,.F.);
#102=ORIENTED_EDGE('',*,*,#172,.T.);
#103=ORIENTED_EDGE('',*,*,#173,.T.);
#104=ORIENTED_EDGE('',*,*,#174,.F.);
#105=CARTESIAN_POINT('',(0.0,0.0,-2.5));
#106=DIRECTION('',(-0.0,-0.0,-1.0));
#107=DIRECTION('',(-1.0,0.0,0.0));
#108=ORIENTED_EDGE('',*,*,#175,.F.);
#109=ORIENTED_EDGE('',*,*,#176,.T.);
#110=ORIENTED_EDGE('',*,*,#177,.T.);
#111=ORIENTED_EDGE('',*,*,#178,.F.);
#112=CARTESIAN_POINT('',(0.0,0.0,2.5));
#113=DIRECTION('',(-0.0,-0.0,1.0));
#114=DIRECTION('',(1.0,0.0,0.0));
#115=ORIENTED_EDGE('',*,*,#171,.T.);
#116=ORIENTED_EDGE('',*,*,#179,.T.);
#117=ORIENTED_EDGE('',*,*,#175,.T.);
#118=ORIENTED_EDGE('',*,*,#180,.F.);
#119=CARTESIAN_POINT('',(0.0,0.0,2.5));
#120=DIRECTION('',(0.0,0.0,-1.0));
#121=DIRECTION('',(1.0,0.0,0.0));
#122=ORIENTED_EDGE('',*,*,#181,.F.);
#123=ORIENTED_EDGE('',*,*,#182,.T.);
#124=ORIENTED_EDGE('',*,*,#183,.T.);
#125=ORIENTED_EDGE('',*,*,#184,.F.);
#126=CARTESIAN_POINT('',(0.0,0.0,2.5));
#127=DIRECTION('',(0.0,0.0,1.0));
#128=DIRECTION('',(-1.0,0.0,0.0));
#129=ORIENTED_EDGE('',*,*,#182,.F.);
#130=ORIENTED_EDGE('',*,*,#185,.F.);
#131=ORIENTED_EDGE('',*,*,#184,.T.);
#132=ORIENTED_EDGE('',*,*,#186,.T.);
#133=CARTESIAN_POINT('',(0.0,0.0,2.5));
#134=DIRECTION('',(0.0,0.0,1.0));
#135=DIRECTION('',(-1.0,0.0,0.0));
#136=ORIENTED_EDGE('',*,*,#185,.T.);
#137=ORIENTED_EDGE('',*,*,#181,.T.);
#138=ORIENTED_EDGE('',*,*,#187,.F.);
#139=ORIENTED_EDGE('',*,*,#177,.F.);
#140=CARTESIAN_POINT('',(0.0,0.0,2.5));
#141=DIRECTION('',(0.0,0.0,1.0));
#142=DIRECTION('',(1.0,0.0,0.0));
#143=ORIENTED_EDGE('',*,*,#186,.F.);
#144=ORIENTED_EDGE('',*,*,#183,.F.);
#145=ORIENTED_EDGE('',*,*,#188,.F.);
#146=ORIENTED_EDGE('',*,*,#173,.F.);
#147=CARTESIAN_POINT('',(0.0,0.0,-2.5));
#148=DIRECTION('',(0.0,0.0,1.0));
#149=DIRECTION('',(1.0,0.0,0.0));
#150=ORIENTED_EDGE('',*,*,#179,.F.);
#151=ORIENTED_EDGE('',*,*,#189,.T.);
#152=ORIENTED_EDGE('',*,*,#180,.T.);
#153=ORIENTED_EDGE('',*,*,#190,.T.);
#154=CARTESIAN_POINT('',(0.0,0.0,2.5));
#155=DIRECTION('',(0.0,0.0,-1.0));
#156=DIRECTION('',(1.0,0.0,0.0));
#157=ORIENTED_EDGE('',*,*,#176,.F.);
#158=ORIENTED_EDGE('',*,*,#190,.F.);
#159=ORIENTED_EDGE('',*,*,#178,.T.);
#160=ORIENTED_EDGE('',*,*,#187,.T.);
#161=CARTESIAN_POINT('',(0.0,0.0,2.5));
#162=DIRECTION('',(-0.0,-0.0,1.0));
#163=DIRECTION('',(1.0,0.0,0.0));
#164=ORIENTED_EDGE('',*,*,#172,.F.);
#165=ORIENTED_EDGE('',*,*,#189,.F.);
#166=ORIENTED_EDGE('',*,*,#174,.T.);
#167=ORIENTED_EDGE('',*,*,#188,.T.);
#168=CARTESIAN_POINT('',(0.0,0.0,-2.5));
#169=DIRECTION('',(-0.0,-0.0,-1.0));
#170=DIRECTION('',(-1.0,0.0,0.0));
#171=EDGE_CURVE('NONE',#191,#192,#193,.T.);
#172=EDGE_CURVE('NONE',#191,#194,#195,.T.);
#173=EDGE_CURVE('NONE',#194,#196,#197,.T.);
#174=EDGE_CURVE('NONE',#192,#196,#198,.T.);
#175=EDGE_CURVE('NONE',#199,#200,#201,.T.);
#176=EDGE_CURVE('NONE',#199,#202,#203,.T.);
#177=EDGE_CURVE('NONE',#202,#204,#205,.T.);
#178=EDGE_CURVE('NONE',#200,#204,#206,.T.);
#179=EDGE_CURVE('NONE',#192,#199,#207,.T.);
#180=EDGE_CURVE('NONE',#191,#200,#208,.T.);
#181=EDGE_CURVE('NONE',#209,#210,#211,.T.);
#182=EDGE_CURVE('NONE',#209,#212,#213,.T.);
#183=EDGE_CURVE('NONE',#212,#214,#215,.T.);
#184=EDGE_CURVE('NONE',#210,#214,#216,.T.);
#185=EDGE_CURVE('NONE',#210,#209,#217,.T.);
#186=EDGE_CURVE('NONE',#214,#212,#218,.T.);
#187=EDGE_CURVE('NONE',#204,#202,#219,.T.);
#188=EDGE_CURVE('NONE',#196,#194,#220,.T.);
#189=EDGE_CURVE('NONE',#192,#191,#221,.T.);
#190=EDGE_CURVE('NONE',#200,#199,#222,.T.);
#191=VERTEX_POINT('NONE',#223);
#192=VERTEX_POINT('NONE',#224);
#193=CIRCLE('',#225,0.799999999999999);
#194=VERTEX_POINT('NONE',#226);
#195=LINE('',#227,#228);
#196=VERTEX_POINT('NONE',#229);
#197=CIRCLE('',#230,1.025);
#198=LINE('',#231,#232);
#199=VERTEX_POINT('NONE',#233);
#200=VERTEX_POINT('NONE',#234);
#201=CIRCLE('',#235,0.799999999999999);
#202=VERTEX_POINT('NONE',#236);
#203=LINE('',#237,#238);
#204=VERTEX_POINT('NONE',#239);
#205=CIRCLE('',#240,1.025);
#206=LINE('',#241,#242);
#207=LINE('',#243,#244);
#208=LINE('',#245,#246);
#209=VERTEX_POINT('NONE',#247);
#210=VERTEX_POINT('NONE',#248);
#211=CIRCLE('',#249,2.5);
#212=VERTEX_POINT('NONE',#250);
#213=LINE('',#251,#252);
#214=VERTEX_POINT('NONE',#253);
#215=CIRCLE('',#254,2.5);
#216=LINE('',#255,#256);
#217=CIRCLE('',#257,2.5);
#218=CIRCLE('',#258,2.5);
#219=CIRCLE('',#259,1.025);
#220=CIRCLE('',#260,1.025);
#221=CIRCLE('',#261,0.799999999999999);
#222=CIRCLE('',#262,0.799999999999999);
#223=CARTESIAN_POINT('',(0.799999999999999,0.0,-2.275));
#224=CARTESIAN_POINT('',(-0.799999999999999,9.79717439317881E-17,-2.275));
#225=AXIS2_PLACEMENT_3D('',#263,#264,#265);
#226=CARTESIAN_POINT('',(1.025,1.25526296912604E-16,-2.5));
#227=CARTESIAN_POINT('',(1.025,1.25526296912604E-16,-2.5));
#228=VECTOR('',#266,1000.0);
#229=CARTESIAN_POINT('',(-1.025,0.0,-2.5));
#230=AXIS2_PLACEMENT_3D('',#267,#268,#269);
#231=CARTESIAN_POINT('',(-1.025,0.0,-2.5));
#232=VECTOR('',#270,1000.0);
#233=CARTESIAN_POINT('',(-0.799999999999999,9.79717439317881E-17,2.275));
#234=CARTESIAN_POINT('',(0.799999999999999,0.0,2.275));
#235=AXIS2_PLACEMENT_3D('',#271,#272,#273);
#236=CARTESIAN_POINT('',(-1.025,1.25526296912604E-16,2.5));
#237=CARTESIAN_POINT('',(-1.025,1.25526296912604E-16,2.5));
#238=VECTOR('',#274,1000.0);
#239=CARTESIAN_POINT('',(1.025,0.0,2.5));
#240=AXIS2_PLACEMENT_3D('',#275,#276,#277);
#241=CARTESIAN_POINT('',(1.025,0.0,2.5));
#242=VECTOR('',#278,1000.0);
#243=CARTESIAN_POINT('',(-0.799999999999998,9.7971743931788E-17,2.5));
#244=VECTOR('',#279,1000.0);
#245=CARTESIAN_POINT('',(0.799999999999998,0.0,2.5));
#246=VECTOR('',#280,1000.0);
#247=CARTESIAN_POINT('',(2.5,3.06161699786838E-16,2.5));
#248=CARTESIAN_POINT('',(-2.5,0.0,2.5));
#249=AXIS2_PLACEMENT_3D('',#281,#282,#283);
#250=CARTESIAN_POINT('',(2.5,3.06161699786838E-16,-2.5));
#251=CARTESIAN_POINT('',(2.5,3.06161699786838E-16,2.5));
#252=VECTOR('',#284,1000.0);
#253=CARTESIAN_POINT('',(-2.5,0.0,-2.5));
#254=AXIS2_PLACEMENT_3D('',#285,#286,#287);
#255=CARTESIAN_POINT('',(-2.5,0.0,2.5));
#256=VECTOR('',#288,1000.0);
#257=AXIS2_PLACEMENT_3D('',#289,#290,#291);
#258=AXIS2_PLACEMENT_3D('',#292,#293,#294);
#259=AXIS2_PLACEMENT_3D('',#295,#296,#297);
#260=AXIS2_PLACEMENT_3D('',#298,#299,#300);
#261=AXIS2_PLACEMENT_3D('',#301,#302,#303);
#262=AXIS2_PLACEMENT_3D('',#304,#305,#306);
#263=CARTESIAN_POINT('',(0.0,0.0,-2.275));
#264=DIRECTION('',(0.0,0.0,-1.0));
#265=DIRECTION('',(-1.0,0.0,0.0));
#266=DIRECTION('',(0.707106781186548,8.65956056235493E-17,-0.707106781186548));
#267=CARTESIAN_POINT('',(0.0,0.0,-2.5));
#268=DIRECTION('',(0.0,0.0,-1.0));
#269=DIRECTION('',(-1.0,0.0,0.0));
#270=DIRECTION('',(-0.707106781186548,0.0,-0.707106781186548));
#271=CARTESIAN_POINT('',(0.0,0.0,2.275));
#272=DIRECTION('',(0.0,-0.0,1.0));
#273=DIRECTION('',(1.0,0.0,0.0));
#274=DIRECTION('',(-0.707106781186548,8.65956056235493E-17,0.707106781186548));
#275=CARTESIAN_POINT('',(0.0,0.0,2.5));
#276=DIRECTION('',(0.0,-0.0,1.0));
#277=DIRECTION('',(1.0,0.0,0.0));
#278=DIRECTION('',(0.707106781186548,0.0,0.707106781186548));
#279=DIRECTION('',(-0.0,-0.0,1.0));
#280=DIRECTION('',(-0.0,-0.0,1.0));
#281=CARTESIAN_POINT('',(0.0,0.0,2.5));
#282=DIRECTION('',(0.0,0.0,1.0));
#283=DIRECTION('',(1.0,0.0,0.0));
#284=DIRECTION('',(-0.0,-0.0,-1.0));
#285=CARTESIAN_POINT('',(0.0,0.0,-2.5));
#286=DIRECTION('',(0.0,0.0,1.0));
#287=DIRECTION('',(1.0,0.0,0.0));
#288=DIRECTION('',(-0.0,-0.0,-1.0));
#289=CARTESIAN_POINT('',(0.0,0.0,2.5));
#290=DIRECTION('',(0.0,0.0,1.0));
#291=DIRECTION('',(1.0,0.0,0.0));
#292=CARTESIAN_POINT('',(0.0,0.0,-2.5));
#293=DIRECTION('',(0.0,0.0,1.0));
#294=DIRECTION('',(1.0,0.0,0.0));
#295=CARTESIAN_POINT('',(0.0,0.0,2.5));
#296=DIRECTION('',(0.0,-0.0,1.0));
#297=DIRECTION('',(1.0,0.0,0.0));
#298=CARTESIAN_POINT('',(0.0,0.0,-2.5));
#299=DIRECTION('',(0.0,0.0,-1.0));
#300=DIRECTION('',(-1.0,0.0,0.0));
#301=CARTESIAN_POINT('',(0.0,0.0,-2.275));
#302=DIRECTION('',(0.0,0.0,-1.0));
#303=DIRECTION('',(-1.0,0.0,0.0));
#304=CARTESIAN_POINT('',(0.0,0.0,2.275));
#305=DIRECTION('',(0.0,-0.0,1.0));
#306=DIRECTION('',(1.0,0.0,0.0));
#307=PRESENTATION_LAYER_ASSIGNMENT('','',(#24,#46,#47,#48,#49,#50,#51,#52,#53,#54,#55,#171,#172,#173,#174,#175,#176,#177,#178,#179,#180,#181,#182,#183,#184,#185,#186,#187,#188,#189,#190,#191,#192,#194,#196,#199,#200,#202,#204,#209,#210,#212,#214));
ENDSEC;
END-ISO-10303-21;
