ISO-10303-21;
HEADER;
FILE_DESCRIPTION (( 'STEP AP214' ),
    '1' );
FILE_NAME ('URG3216L-101-L-T05.STEP',
    '2019-12-26T10:48:28',
    ( '' ),
    ( '' ),
    'SwSTEP 2.0',
    'SolidWorks 2018',
    '' );
FILE_SCHEMA (( 'AUTOMOTIVE_DESIGN' ));
ENDSEC;

DATA;
#1 = DIRECTION ( 'NONE',  ( 0.0000000000000000000, -1.000000000000000000, 0.0000000000000000000 ) ) ;
#2 = EDGE_CURVE ( 'NONE', #361, #307, #840, .T. ) ;
#3 = ORIENTED_EDGE ( 'NONE', *, *, #213, .F. ) ;
#4 = SURFACE_SIDE_STYLE ('',( #162 ) ) ;
#5 = ORIENTED_EDGE ( 'NONE', *, *, #405, .F. ) ;
#6 =( GEOMETRIC_REPRESENTATION_CONTEXT ( 3 ) GLOBAL_UNCERTAINTY_ASSIGNED_CONTEXT ( ( #42 ) ) GLOBAL_UNIT_ASSIGNED_CONTEXT ( ( #209, #739, #438 ) ) REPRESENTATION_CONTEXT ( 'NONE', 'WORKASPACE' ) );
#7 = DIRECTION ( 'NONE',  ( -1.355252715606880543E-16, -0.0000000000000000000, -1.000000000000000000 ) ) ;
#8 = LINE ( 'NONE', #24, #954 ) ;
#9 =( NAMED_UNIT ( * ) SI_UNIT ( $, .STERADIAN. ) SOLID_ANGLE_UNIT ( ) );
#10 = ORIENTED_EDGE ( 'NONE', *, *, #662, .F. ) ;
#11 =( LENGTH_UNIT ( ) NAMED_UNIT ( * ) SI_UNIT ( .MILLI., .METRE. ) );
#12 = VECTOR ( 'NONE', #444, 1000.000000000000000 ) ;
#13 = ADVANCED_FACE ( 'NONE', ( #657 ), #136, .F. ) ;
#14 = DIRECTION ( 'NONE',  ( 1.000000000000000000, 0.0000000000000000000, -0.0000000000000000000 ) ) ;
#15 = DIRECTION ( 'NONE',  ( 0.0000000000000000000, 0.0000000000000000000, -1.000000000000000000 ) ) ;
#16 = CARTESIAN_POINT ( 'NONE',  ( 1.099999999999999645, 0.02749999999999994463, -0.8000000000000000444 ) ) ;
#17 = DIRECTION ( 'NONE',  ( -1.000000000000000000, 0.0000000000000000000, 0.0000000000000000000 ) ) ;
#18 = DIRECTION ( 'NONE',  ( 1.000000000000000000, 0.0000000000000000000, 0.0000000000000000000 ) ) ;
#19 = EDGE_CURVE ( 'NONE', #124, #360, #118, .T. ) ;
#20 = CARTESIAN_POINT ( 'NONE',  ( 1.572499999999999787, 0.02749999999999988565, -0.8000000000000000444 ) ) ;
#21 = CARTESIAN_POINT ( 'NONE',  ( -1.599999999999999645, -1.959434878635764737E-16, -0.8000000000000000444 ) ) ;
#22 = VECTOR ( 'NONE', #843, 1000.000000000000000 ) ;
#23 = LINE ( 'NONE', #720, #174 ) ;
#24 = CARTESIAN_POINT ( 'NONE',  ( -1.572499999999999787, 0.5224999999999999645, 0.8000000000000000444 ) ) ;
#25 = DIRECTION ( 'NONE',  ( 0.0000000000000000000, 1.000000000000000000, 0.0000000000000000000 ) ) ;
#26 = CARTESIAN_POINT ( 'NONE',  ( 1.099999999999999423, 0.5224999999999999645, -0.8000000000000000444 ) ) ;
#27 = EDGE_LOOP ( 'NONE', ( #290, #941, #58, #763 ) ) ;
#28 = DIRECTION ( 'NONE',  ( 0.0000000000000000000, 0.0000000000000000000, -1.000000000000000000 ) ) ;
#29 = EDGE_LOOP ( 'NONE', ( #267, #913, #679, #5 ) ) ;
#30 = ORIENTED_EDGE ( 'NONE', *, *, #546, .T. ) ;
#31 = PLANE ( 'NONE',  #863 ) ;
#32 = VECTOR ( 'NONE', #495, 1000.000000000000000 ) ;
#33 = ORIENTED_EDGE ( 'NONE', *, *, #506, .T. ) ;
#34 = EDGE_CURVE ( 'NONE', #594, #500, #952, .T. ) ;
#35 = LINE ( 'NONE', #905, #98 ) ;
#36 = LINE ( 'NONE', #929, #924 ) ;
#37 = EDGE_LOOP ( 'NONE', ( #72, #402, #926, #741 ) ) ;
#38 = AXIS2_PLACEMENT_3D ( 'NONE', #845, #410, #328 ) ;
#39 = VERTEX_POINT ( 'NONE', #833 ) ;
#40 = EDGE_CURVE ( 'NONE', #447, #904, #422, .T. ) ;
#41 = VECTOR ( 'NONE', #544, 1000.000000000000000 ) ;
#42 = UNCERTAINTY_MEASURE_WITH_UNIT (LENGTH_MEASURE( 1.000000000000000082E-05 ), #209, 'distance_accuracy_value', 'NONE');
#43 = VECTOR ( 'NONE', #928, 1000.000000000000000 ) ;
#44 = DIRECTION ( 'NONE',  ( 0.0000000000000000000, -0.0000000000000000000, -1.000000000000000000 ) ) ;
#45 = VECTOR ( 'NONE', #645, 1000.000000000000000 ) ;
#46 = LINE ( 'NONE', #317, #587 ) ;
#47 = ORIENTED_EDGE ( 'NONE', *, *, #249, .T. ) ;
#48 = ORIENTED_EDGE ( 'NONE', *, *, #565, .F. ) ;
#49 = PLANE ( 'NONE',  #812 ) ;
#50 = VERTEX_POINT ( 'NONE', #449 ) ;
#51 =( NAMED_UNIT ( * ) PLANE_ANGLE_UNIT ( ) SI_UNIT ( $, .RADIAN. ) );
#52 = PLANE ( 'NONE',  #298 ) ;
#53 = DIRECTION ( 'NONE',  ( 1.000000000000000000, -0.0000000000000000000, 0.0000000000000000000 ) ) ;
#54 = FILL_AREA_STYLE_COLOUR ( '', #254 ) ;
#55 = LINE ( 'NONE', #159, #261 ) ;
#56 = LINE ( 'NONE', #231, #686 ) ;
#57 = CARTESIAN_POINT ( 'NONE',  ( 1.099999999999999645, 0.02749999999999994463, 0.8000000000000000444 ) ) ;
#58 = ORIENTED_EDGE ( 'NONE', *, *, #907, .F. ) ;
#59 = FACE_OUTER_BOUND ( 'NONE', #860, .T. ) ;
#60 = ORIENTED_EDGE ( 'NONE', *, *, #508, .T. ) ;
#61 = ORIENTED_EDGE ( 'NONE', *, *, #527, .F. ) ;
#62 = ADVANCED_FACE ( 'NONE', ( #751 ), #909, .T. ) ;
#63 = FACE_OUTER_BOUND ( 'NONE', #613, .T. ) ;
#64 = LINE ( 'NONE', #486, #846 ) ;
#65 = ADVANCED_FACE ( 'NONE', ( #111 ), #689, .T. ) ;
#66 = EDGE_CURVE ( 'NONE', #500, #464, #765, .T. ) ;
#67 = MANIFOLD_SOLID_BREP ( 'Boss-Extrude3', #519 ) ;
#68 = CARTESIAN_POINT ( 'NONE',  ( 1.099999999999999645, 0.5499999999999999334, 0.8000000000000000444 ) ) ;
#69 = ORIENTED_EDGE ( 'NONE', *, *, #705, .T. ) ;
#70 = CARTESIAN_POINT ( 'NONE',  ( -1.099999999999999645, 0.5499999999999999334, -0.8000000000000000444 ) ) ;
#71 = PRODUCT_DEFINITION ( 'UNKNOWN', '', #425, #263 ) ;
#72 = ORIENTED_EDGE ( 'NONE', *, *, #705, .F. ) ;
#73 = CARTESIAN_POINT ( 'NONE',  ( 1.599999999999999645, -1.959434878635764737E-16, -0.8000000000000000444 ) ) ;
#74 = FILL_AREA_STYLE_COLOUR ( '', #338 ) ;
#75 = EDGE_CURVE ( 'NONE', #466, #391, #574, .T. ) ;
#76 = CARTESIAN_POINT ( 'NONE',  ( 1.099999999999999423, 0.5224999999999999645, -0.8000000000000000444 ) ) ;
#77 = AXIS2_PLACEMENT_3D ( 'NONE', #702, #412, #107 ) ;
#78 = ADVANCED_FACE ( 'NONE', ( #582 ), #300, .F. ) ;
#79 = CARTESIAN_POINT ( 'NONE',  ( -1.099999999999999645, 0.02749999999999994463, 0.8000000000000000444 ) ) ;
#80 = FACE_OUTER_BOUND ( 'NONE', #27, .T. ) ;
#81 = DIRECTION ( 'NONE',  ( 0.0000000000000000000, 0.0000000000000000000, -1.000000000000000000 ) ) ;
#82 = LINE ( 'NONE', #820, #146 ) ;
#83 =( NAMED_UNIT ( * ) PLANE_ANGLE_UNIT ( ) SI_UNIT ( $, .RADIAN. ) );
#84 = EDGE_LOOP ( 'NONE', ( #659, #762, #604, #588 ) ) ;
#85 = EDGE_CURVE ( 'NONE', #834, #605, #354, .T. ) ;
#86 = EDGE_LOOP ( 'NONE', ( #509, #842, #673, #749 ) ) ;
#87 = DIRECTION ( 'NONE',  ( 0.0000000000000000000, 1.000000000000000000, 0.0000000000000000000 ) ) ;
#88 = ORIENTED_EDGE ( 'NONE', *, *, #873, .T. ) ;
#89 = CARTESIAN_POINT ( 'NONE',  ( 1.599999999999999645, 0.5499999999999998224, 0.8000000000000000444 ) ) ;
#90 = ORIENTED_EDGE ( 'NONE', *, *, #612, .T. ) ;
#91 = DIRECTION ( 'NONE',  ( 0.0000000000000000000, 1.000000000000000000, 0.0000000000000000000 ) ) ;
#92 = VERTEX_POINT ( 'NONE', #221 ) ;
#93 = VERTEX_POINT ( 'NONE', #392 ) ;
#94 = EDGE_CURVE ( 'NONE', #189, #361, #346, .T. ) ;
#95 = PLANE ( 'NONE',  #232 ) ;
#96 = VECTOR ( 'NONE', #758, 1000.000000000000000 ) ;
#97 = VECTOR ( 'NONE', #892, 1000.000000000000000 ) ;
#98 = VECTOR ( 'NONE', #912, 1000.000000000000000 ) ;
#99 = LINE ( 'NONE', #259, #678 ) ;
#100 = CARTESIAN_POINT ( 'NONE',  ( -1.599999999999999645, 0.5499999999999998224, 0.8000000000000000444 ) ) ;
#101 = ORIENTED_EDGE ( 'NONE', *, *, #549, .F. ) ;
#102 = CARTESIAN_POINT ( 'NONE',  ( 1.572499999999999787, 0.02749999999999988565, 0.8000000000000000444 ) ) ;
#103 = ORIENTED_EDGE ( 'NONE', *, *, #527, .T. ) ;
#104 = CARTESIAN_POINT ( 'NONE',  ( -1.099999999999999645, 0.02749999999999994463, 0.8000000000000000444 ) ) ;
#105 = CARTESIAN_POINT ( 'NONE',  ( 1.572499999999999787, 0.02749999999999988565, 0.8000000000000000444 ) ) ;
#106 = DIRECTION ( 'NONE',  ( 0.0000000000000000000, -1.000000000000000000, -0.0000000000000000000 ) ) ;
#107 = DIRECTION ( 'NONE',  ( 0.0000000000000000000, 0.0000000000000000000, -1.000000000000000000 ) ) ;
#108 = EDGE_CURVE ( 'NONE', #341, #119, #364, .T. ) ;
#109 = DIRECTION ( 'NONE',  ( -0.0000000000000000000, -1.000000000000000000, -0.0000000000000000000 ) ) ;
#110 = MECHANICAL_DESIGN_GEOMETRIC_PRESENTATION_REPRESENTATION (  '', ( #251 ), #6 ) ;
#111 = FACE_OUTER_BOUND ( 'NONE', #257, .T. ) ;
#112 = ORIENTED_EDGE ( 'NONE', *, *, #337, .F. ) ;
#113 = DIRECTION ( 'NONE',  ( -1.000000000000000000, 0.0000000000000000000, 0.0000000000000000000 ) ) ;
#114 = UNCERTAINTY_MEASURE_WITH_UNIT (LENGTH_MEASURE( 1.000000000000000082E-05 ), #730, 'distance_accuracy_value', 'NONE');
#115 = CARTESIAN_POINT ( 'NONE',  ( 1.099999999999999645, 0.0000000000000000000, -0.8000000000000000444 ) ) ;
#116 = VECTOR ( 'NONE', #295, 1000.000000000000000 ) ;
#117 = EDGE_CURVE ( 'NONE', #92, #788, #258, .T. ) ;
#118 = LINE ( 'NONE', #160, #41 ) ;
#119 = VERTEX_POINT ( 'NONE', #567 ) ;
#120 = CARTESIAN_POINT ( 'NONE',  ( -1.099999999999999645, 0.02749999999999994463, 0.8000000000000000444 ) ) ;
#121 = EDGE_CURVE ( 'NONE', #194, #50, #526, .T. ) ;
#122 = FACE_OUTER_BOUND ( 'NONE', #339, .T. ) ;
#123 = EDGE_CURVE ( 'NONE', #216, #447, #456, .T. ) ;
#124 = VERTEX_POINT ( 'NONE', #649 ) ;
#125 = ORIENTED_EDGE ( 'NONE', *, *, #117, .T. ) ;
#126 = DIRECTION ( 'NONE',  ( 0.0000000000000000000, 0.0000000000000000000, -1.000000000000000000 ) ) ;
#127 = ORIENTED_EDGE ( 'NONE', *, *, #745, .T. ) ;
#128 = DIRECTION ( 'NONE',  ( -0.0000000000000000000, 0.0000000000000000000, 1.000000000000000000 ) ) ;
#129 =( LENGTH_UNIT ( ) NAMED_UNIT ( * ) SI_UNIT ( .MILLI., .METRE. ) );
#130 = VECTOR ( 'NONE', #704, 1000.000000000000000 ) ;
#131 = PRODUCT_CONTEXT ( 'NONE', #602, 'mechanical' ) ;
#132 = DIRECTION ( 'NONE',  ( 0.0000000000000000000, 0.0000000000000000000, -1.000000000000000000 ) ) ;
#133 = ORIENTED_EDGE ( 'NONE', *, *, #794, .T. ) ;
#134 = ADVANCED_FACE ( 'NONE', ( #381 ), #407, .F. ) ;
#135 = EDGE_CURVE ( 'NONE', #494, #280, #959, .T. ) ;
#136 = PLANE ( 'NONE',  #273 ) ;
#137 =( NAMED_UNIT ( * ) SI_UNIT ( $, .STERADIAN. ) SOLID_ANGLE_UNIT ( ) );
#138 = ORIENTED_EDGE ( 'NONE', *, *, #94, .F. ) ;
#139 = EDGE_LOOP ( 'NONE', ( #47, #618, #345, #712 ) ) ;
#140 = AXIS2_PLACEMENT_3D ( 'NONE', #147, #687, #220 ) ;
#141 = VERTEX_POINT ( 'NONE', #772 ) ;
#142 = PLANE ( 'NONE',  #652 ) ;
#143 = FACE_OUTER_BOUND ( 'NONE', #230, .T. ) ;
#144 = FILL_AREA_STYLE ('',( #166 ) ) ;
#145 = DIRECTION ( 'NONE',  ( 0.0000000000000000000, -0.0000000000000000000, 1.000000000000000000 ) ) ;
#146 = VECTOR ( 'NONE', #475, 1000.000000000000000 ) ;
#147 = CARTESIAN_POINT ( 'NONE',  ( 1.572499999999999787, 0.5224999999999999645, 0.8000000000000000444 ) ) ;
#148 =( GEOMETRIC_REPRESENTATION_CONTEXT ( 3 ) GLOBAL_UNCERTAINTY_ASSIGNED_CONTEXT ( ( #931 ) ) GLOBAL_UNIT_ASSIGNED_CONTEXT ( ( #129, #671, #137 ) ) REPRESENTATION_CONTEXT ( 'NONE', 'WORKASPACE' ) );
#149 = ORIENTED_EDGE ( 'NONE', *, *, #213, .T. ) ;
#150 = DIRECTION ( 'NONE',  ( -1.000000000000000000, 0.0000000000000000000, 0.0000000000000000000 ) ) ;
#151 = ADVANCED_FACE ( 'NONE', ( #245 ), #243, .T. ) ;
#152 = ORIENTED_EDGE ( 'NONE', *, *, #303, .F. ) ;
#153 = CARTESIAN_POINT ( 'NONE',  ( 1.572499999999999787, 0.02749999999999988565, -0.7999999999999999334 ) ) ;
#154 = CARTESIAN_POINT ( 'NONE',  ( 1.572499999999999787, 0.5224999999999999645, -0.7999999999999999334 ) ) ;
#155 = DIRECTION ( 'NONE',  ( 0.0000000000000000000, 0.0000000000000000000, 1.000000000000000000 ) ) ;
#156 = PRODUCT ( 'URG3216L-101-L-T05', 'URG3216L-101-L-T05', '', ( #131 ) ) ;
#157 = DIRECTION ( 'NONE',  ( 0.0000000000000000000, 0.0000000000000000000, 1.000000000000000000 ) ) ;
#158 = LINE ( 'NONE', #803, #488 ) ;
#159 = CARTESIAN_POINT ( 'NONE',  ( 1.599999999999999645, 0.5499999999999998224, 0.8000000000000000444 ) ) ;
#160 = CARTESIAN_POINT ( 'NONE',  ( -1.099999999999999867, -2.197794101747088114, -0.8000000000000000444 ) ) ;
#161 = CARTESIAN_POINT ( 'NONE',  ( -1.099999999999999645, 0.5499999999999999334, 0.8000000000000000444 ) ) ;
#162 = SURFACE_STYLE_FILL_AREA ( #467 ) ;
#163 = ORIENTED_EDGE ( 'NONE', *, *, #188, .T. ) ;
#164 = EDGE_LOOP ( 'NONE', ( #573, #497, #149, #187, #564, #876, #510, #660 ) ) ;
#165 = CARTESIAN_POINT ( 'NONE',  ( -1.099999999999999645, 0.02749999999999994463, -0.8000000000000000444 ) ) ;
#166 = FILL_AREA_STYLE_COLOUR ( '', #878 ) ;
#167 = DIRECTION ( 'NONE',  ( 0.0000000000000000000, 0.0000000000000000000, 1.000000000000000000 ) ) ;
#168 = VECTOR ( 'NONE', #150, 1000.000000000000000 ) ;
#169 = PLANE ( 'NONE',  #524 ) ;
#170 = CARTESIAN_POINT ( 'NONE',  ( -1.099999999999999423, 0.5500000000000002665, 0.8000000000000000444 ) ) ;
#171 = FILL_AREA_STYLE_COLOUR ( '', #872 ) ;
#172 = AXIS2_PLACEMENT_3D ( 'NONE', #804, #384, #899 ) ;
#173 = VECTOR ( 'NONE', #167, 1000.000000000000000 ) ;
#174 = VECTOR ( 'NONE', #44, 1000.000000000000000 ) ;
#175 = EDGE_CURVE ( 'NONE', #307, #280, #643, .T. ) ;
#176 = CARTESIAN_POINT ( 'NONE',  ( -1.599999999999999645, -1.959434878635764737E-16, -0.8000000000000000444 ) ) ;
#177 = FACE_OUTER_BOUND ( 'NONE', #688, .T. ) ;
#178 = EDGE_CURVE ( 'NONE', #500, #479, #798, .T. ) ;
#179 = DIRECTION ( 'NONE',  ( 0.0000000000000000000, 0.0000000000000000000, -1.000000000000000000 ) ) ;
#180 = ORIENTED_EDGE ( 'NONE', *, *, #388, .F. ) ;
#181 = VECTOR ( 'NONE', #369, 1000.000000000000000 ) ;
#182 = CARTESIAN_POINT ( 'NONE',  ( -1.572499999999999787, 0.02749999999999988565, 0.8000000000000000444 ) ) ;
#183 = LINE ( 'NONE', #664, #329 ) ;
#184 = FACE_OUTER_BOUND ( 'NONE', #740, .T. ) ;
#185 = PRESENTATION_LAYER_ASSIGNMENT (  '', '', ( #888 ) ) ;
#186 = DIRECTION ( 'NONE',  ( 0.0000000000000000000, 0.0000000000000000000, 1.000000000000000000 ) ) ;
#187 = ORIENTED_EDGE ( 'NONE', *, *, #727, .T. ) ;
#188 = EDGE_CURVE ( 'NONE', #119, #605, #415, .T. ) ;
#189 = VERTEX_POINT ( 'NONE', #828 ) ;
#190 = ORIENTED_EDGE ( 'NONE', *, *, #894, .F. ) ;
#191 = AXIS2_PLACEMENT_3D ( 'NONE', #395, #308, #398 ) ;
#192 = LINE ( 'NONE', #747, #714 ) ;
#193 = VECTOR ( 'NONE', #342, 1000.000000000000000 ) ;
#194 = VERTEX_POINT ( 'NONE', #469 ) ;
#195 = EDGE_LOOP ( 'NONE', ( #281, #653, #222, #676 ) ) ;
#196 = AXIS2_PLACEMENT_3D ( 'NONE', #701, #779, #764 ) ;
#197 = CARTESIAN_POINT ( 'NONE',  ( 1.599999999999999645, -1.959434878635764737E-16, 0.8000000000000000444 ) ) ;
#198 = ORIENTED_EDGE ( 'NONE', *, *, #759, .F. ) ;
#199 = DIRECTION ( 'NONE',  ( 1.000000000000000000, 0.0000000000000000000, 0.0000000000000000000 ) ) ;
#200 = MECHANICAL_DESIGN_GEOMETRIC_PRESENTATION_REPRESENTATION (  '', ( #650 ), #906 ) ;
#201 = SURFACE_STYLE_USAGE ( .BOTH. , #274 ) ;
#202 = FACE_OUTER_BOUND ( 'NONE', #330, .T. ) ;
#203 = DIRECTION ( 'NONE',  ( 0.0000000000000000000, 1.000000000000000000, 0.0000000000000000000 ) ) ;
#204 = ORIENTED_EDGE ( 'NONE', *, *, #340, .T. ) ;
#205 = DIRECTION ( 'NONE',  ( -1.000000000000000000, 0.0000000000000000000, -0.0000000000000000000 ) ) ;
#206 = ADVANCED_FACE ( 'NONE', ( #610 ), #955, .F. ) ;
#207 = CARTESIAN_POINT ( 'NONE',  ( -1.099999999999999645, 0.0000000000000000000, 0.8000000000000000444 ) ) ;
#208 = UNCERTAINTY_MEASURE_WITH_UNIT (LENGTH_MEASURE( 1.000000000000000082E-05 ), #310, 'distance_accuracy_value', 'NONE');
#209 =( LENGTH_UNIT ( ) NAMED_UNIT ( * ) SI_UNIT ( .MILLI., .METRE. ) );
#210 = ADVANCED_FACE ( 'NONE', ( #586 ), #224, .F. ) ;
#211 = EDGE_LOOP ( 'NONE', ( #351, #163, #615, #239 ) ) ;
#212 = FILL_AREA_STYLE ('',( #440 ) ) ;
#213 = EDGE_CURVE ( 'NONE', #603, #578, #938, .T. ) ;
#214 = FACE_OUTER_BOUND ( 'NONE', #265, .T. ) ;
#215 = VECTOR ( 'NONE', #666, 1000.000000000000000 ) ;
#216 = VERTEX_POINT ( 'NONE', #89 ) ;
#217 = ORIENTED_EDGE ( 'NONE', *, *, #786, .T. ) ;
#218 = ORIENTED_EDGE ( 'NONE', *, *, #786, .F. ) ;
#219 = EDGE_CURVE ( 'NONE', #194, #376, #601, .T. ) ;
#220 = DIRECTION ( 'NONE',  ( 0.0000000000000000000, 0.0000000000000000000, 1.000000000000000000 ) ) ;
#221 = CARTESIAN_POINT ( 'NONE',  ( -1.599999999999999645, -1.959434878635764737E-16, 0.8000000000000000444 ) ) ;
#222 = ORIENTED_EDGE ( 'NONE', *, *, #436, .T. ) ;
#223 = DIRECTION ( 'NONE',  ( 0.0000000000000000000, -1.000000000000000000, -0.0000000000000000000 ) ) ;
#224 = PLANE ( 'NONE',  #191 ) ;
#225 = PLANE ( 'NONE',  #504 ) ;
#226 = ADVANCED_FACE ( 'NONE', ( #256 ), #344, .F. ) ;
#227 = CARTESIAN_POINT ( 'NONE',  ( -1.572499999999999787, 0.02749999999999988565, -3.983716381840567866 ) ) ;
#228 = LINE ( 'NONE', #153, #336 ) ;
#229 = LINE ( 'NONE', #371, #882 ) ;
#230 = EDGE_LOOP ( 'NONE', ( #516, #312, #370, #598 ) ) ;
#231 = CARTESIAN_POINT ( 'NONE',  ( 1.572499999999999787, 0.02749999999999988565, 0.8000000000000000444 ) ) ;
#232 = AXIS2_PLACEMENT_3D ( 'NONE', #408, #411, #917 ) ;
#233 = ORIENTED_EDGE ( 'NONE', *, *, #668, .F. ) ;
#234 = CARTESIAN_POINT ( 'NONE',  ( 1.099999999999999645, 0.0000000000000000000, 0.8000000000000000444 ) ) ;
#235 = CARTESIAN_POINT ( 'NONE',  ( -1.099999999999999645, 0.5224999999999999645, 0.8000000000000000444 ) ) ;
#236 = VECTOR ( 'NONE', #335, 1000.000000000000000 ) ;
#237 = EDGE_CURVE ( 'NONE', #433, #834, #99, .T. ) ;
#238 = VECTOR ( 'NONE', #781, 1000.000000000000000 ) ;
#239 = ORIENTED_EDGE ( 'NONE', *, *, #237, .F. ) ;
#240 = CARTESIAN_POINT ( 'NONE',  ( -1.099999999999999645, 0.02749999999999994463, 0.8000000000000000444 ) ) ;
#241 = CARTESIAN_POINT ( 'NONE',  ( -1.099999999999999645, 0.0000000000000000000, 0.8000000000000000444 ) ) ;
#242 = DIRECTION ( 'NONE',  ( -1.000000000000000000, 0.0000000000000000000, -0.0000000000000000000 ) ) ;
#243 = PLANE ( 'NONE',  #196 ) ;
#244 = CARTESIAN_POINT ( 'NONE',  ( -1.099999999999999645, 0.5224999999999999645, 0.8000000000000000444 ) ) ;
#245 = FACE_OUTER_BOUND ( 'NONE', #822, .T. ) ;
#246 = LINE ( 'NONE', #16, #569 ) ;
#247 = CARTESIAN_POINT ( 'NONE',  ( 1.599999999999999645, -1.959434878635764737E-16, -0.8000000000000000444 ) ) ;
#248 = CARTESIAN_POINT ( 'NONE',  ( -1.572499999999999787, 0.5224999999999999645, 0.8000000000000000444 ) ) ;
#249 = EDGE_CURVE ( 'NONE', #433, #124, #36, .T. ) ;
#250 = CARTESIAN_POINT ( 'NONE',  ( 1.099999999999999423, -2.197794101747088114, 0.8000000000000000444 ) ) ;
#251 = STYLED_ITEM ( 'NONE', ( #316 ), #579 ) ;
#252 = DIRECTION ( 'NONE',  ( 1.000000000000000000, 0.0000000000000000000, 0.0000000000000000000 ) ) ;
#253 = LINE ( 'NONE', #120, #945 ) ;
#254 = COLOUR_RGB ( '',0.7921568627450980005, 0.8196078431372548767, 0.9333333333333333481 ) ;
#255 = ORIENTED_EDGE ( 'NONE', *, *, #271, .F. ) ;
#256 = FACE_OUTER_BOUND ( 'NONE', #419, .T. ) ;
#257 = EDGE_LOOP ( 'NONE', ( #670, #592, #631, #30, #352, #69, #291, #88 ) ) ;
#258 = LINE ( 'NONE', #850, #785 ) ;
#259 = CARTESIAN_POINT ( 'NONE',  ( -1.099999999999999645, -2.197794101747088114, 0.8000000000000000444 ) ) ;
#260 = SURFACE_STYLE_USAGE ( .BOTH. , #503 ) ;
#261 = VECTOR ( 'NONE', #485, 1000.000000000000000 ) ;
#262 = VECTOR ( 'NONE', #109, 1000.000000000000000 ) ;
#263 = PRODUCT_DEFINITION_CONTEXT ( 'detailed design', #282, 'design' ) ;
#264 = ORIENTED_EDGE ( 'NONE', *, *, #823, .T. ) ;
#265 = EDGE_LOOP ( 'NONE', ( #589, #862, #930, #792 ) ) ;
#266 = CLOSED_SHELL ( 'NONE', ( #533, #13, #373, #378, #292, #62 ) ) ;
#267 = ORIENTED_EDGE ( 'NONE', *, *, #932, .F. ) ;
#268 = VECTOR ( 'NONE', #418, 1000.000000000000000 ) ;
#269 = DIRECTION ( 'NONE',  ( 3.918869757271529967E-16, 1.000000000000000000, 0.0000000000000000000 ) ) ;
#270 = ADVANCED_BREP_SHAPE_REPRESENTATION ( 'URG3216L-101-L-T05', ( #579, #767, #356, #67, #607 ), #148 ) ;
#271 = EDGE_CURVE ( 'NONE', #558, #603, #229, .T. ) ;
#272 = CARTESIAN_POINT ( 'NONE',  ( 1.099999999999999645, 0.5500000000000000444, 0.8000000000000000444 ) ) ;
#273 = AXIS2_PLACEMENT_3D ( 'NONE', #815, #455, #606 ) ;
#274 = SURFACE_SIDE_STYLE ('',( #817 ) ) ;
#275 = LINE ( 'NONE', #288, #458 ) ;
#276 =( GEOMETRIC_REPRESENTATION_CONTEXT ( 3 ) GLOBAL_UNCERTAINTY_ASSIGNED_CONTEXT ( ( #647 ) ) GLOBAL_UNIT_ASSIGNED_CONTEXT ( ( #11, #83, #396 ) ) REPRESENTATION_CONTEXT ( 'NONE', 'WORKASPACE' ) );
#277 = PLANE ( 'NONE',  #172 ) ;
#278 = EDGE_LOOP ( 'NONE', ( #427, #367, #783, #217 ) ) ;
#279 = CARTESIAN_POINT ( 'NONE',  ( 1.099999999999999645, 0.0000000000000000000, 0.8000000000000000444 ) ) ;
#280 = VERTEX_POINT ( 'NONE', #881 ) ;
#281 = ORIENTED_EDGE ( 'NONE', *, *, #546, .F. ) ;
#282 = APPLICATION_CONTEXT ( 'automotive_design' ) ;
#283 = PRESENTATION_LAYER_ASSIGNMENT (  '', '', ( #650 ) ) ;
#284 = DIRECTION ( 'NONE',  ( -1.000000000000000000, 2.168404344971008868E-16, 0.0000000000000000000 ) ) ;
#285 = CLOSED_SHELL ( 'NONE', ( #609, #629, #226, #616, #887, #826, #134, #311, #397, #393 ) ) ;
#286 = PLANE ( 'NONE',  #590 ) ;
#287 = APPLICATION_PROTOCOL_DEFINITION ( 'draft international standard', 'automotive_design', 1998, #282 ) ;
#288 = CARTESIAN_POINT ( 'NONE',  ( -1.572499999999999787, 0.5224999999999999645, -0.8000000000000000444 ) ) ;
#289 = VECTOR ( 'NONE', #1, 1000.000000000000000 ) ;
#290 = ORIENTED_EDGE ( 'NONE', *, *, #249, .F. ) ;
#291 = ORIENTED_EDGE ( 'NONE', *, *, #577, .T. ) ;
#292 = ADVANCED_FACE ( 'NONE', ( #512 ), #142, .T. ) ;
#293 = ORIENTED_EDGE ( 'NONE', *, *, #219, .T. ) ;
#294 = CARTESIAN_POINT ( 'NONE',  ( -1.572499999999999787, 0.02749999999999988565, -3.983716381840567866 ) ) ;
#295 = DIRECTION ( 'NONE',  ( -1.000000000000000000, 0.0000000000000000000, 0.0000000000000000000 ) ) ;
#296 = EDGE_CURVE ( 'NONE', #553, #189, #400, .T. ) ;
#297 = DIRECTION ( 'NONE',  ( 0.0000000000000000000, 1.000000000000000000, 0.0000000000000000000 ) ) ;
#298 = AXIS2_PLACEMENT_3D ( 'NONE', #874, #880, #284 ) ;
#299 = LINE ( 'NONE', #104, #43 ) ;
#300 = PLANE ( 'NONE',  #584 ) ;
#301 = ADVANCED_FACE ( 'NONE', ( #184 ), #620, .T. ) ;
#302 = DIRECTION ( 'NONE',  ( 0.0000000000000000000, -0.0000000000000000000, -1.000000000000000000 ) ) ;
#303 = EDGE_CURVE ( 'NONE', #493, #570, #446, .T. ) ;
#304 = DIRECTION ( 'NONE',  ( 9.856383386231863758E-17, 1.000000000000000000, -1.335789035025327385E-32 ) ) ;
#305 = EDGE_LOOP ( 'NONE', ( #264, #854, #190, #125 ) ) ;
#306 = DIRECTION ( 'NONE',  ( 0.0000000000000000000, -0.0000000000000000000, -1.000000000000000000 ) ) ;
#307 = VERTEX_POINT ( 'NONE', #742 ) ;
#308 = DIRECTION ( 'NONE',  ( 0.0000000000000000000, 1.000000000000000000, 0.0000000000000000000 ) ) ;
#309 = VECTOR ( 'NONE', #921, 1000.000000000000000 ) ;
#310 =( LENGTH_UNIT ( ) NAMED_UNIT ( * ) SI_UNIT ( .MILLI., .METRE. ) );
#311 = ADVANCED_FACE ( 'NONE', ( #490 ), #958, .F. ) ;
#312 = ORIENTED_EDGE ( 'NONE', *, *, #219, .F. ) ;
#313 = ORIENTED_EDGE ( 'NONE', *, *, #108, .F. ) ;
#314 = DIRECTION ( 'NONE',  ( -0.0000000000000000000, -0.0000000000000000000, -1.000000000000000000 ) ) ;
#315 = ORIENTED_EDGE ( 'NONE', *, *, #612, .F. ) ;
#316 = PRESENTATION_STYLE_ASSIGNMENT (( #260 ) ) ;
#317 = CARTESIAN_POINT ( 'NONE',  ( 1.572499999999999787, 0.5224999999999999645, 0.8000000000000000444 ) ) ;
#318 = VERTEX_POINT ( 'NONE', #536 ) ;
#319 = DIRECTION ( 'NONE',  ( 1.000000000000000000, 0.0000000000000000000, -0.0000000000000000000 ) ) ;
#320 = SHAPE_DEFINITION_REPRESENTATION ( #771, #270 ) ;
#321 = DIRECTION ( 'NONE',  ( 1.355252715606880789E-16, 0.0000000000000000000, 1.000000000000000000 ) ) ;
#322 = DIRECTION ( 'NONE',  ( 1.000000000000000000, -9.856383386231863758E-17, 0.0000000000000000000 ) ) ;
#323 = DIRECTION ( 'NONE',  ( 1.000000000000000000, 3.918869757271529474E-16, -0.0000000000000000000 ) ) ;
#324 = DIRECTION ( 'NONE',  ( 0.0000000000000000000, 1.000000000000000000, 0.0000000000000000000 ) ) ;
#325 = CARTESIAN_POINT ( 'NONE',  ( -1.099999999999999645, 0.5224999999999999645, -0.8000000000000000444 ) ) ;
#326 = VECTOR ( 'NONE', #893, 1000.000000000000000 ) ;
#327 = AXIS2_PLACEMENT_3D ( 'NONE', #753, #81, #691 ) ;
#328 = DIRECTION ( 'NONE',  ( 0.0000000000000000000, 0.0000000000000000000, 1.000000000000000000 ) ) ;
#329 = VECTOR ( 'NONE', #865, 1000.000000000000000 ) ;
#330 = EDGE_LOOP ( 'NONE', ( #848, #547, #448, #429 ) ) ;
#331 = CARTESIAN_POINT ( 'NONE',  ( -1.572499999999999787, 0.5224999999999999645, -3.983716381840567866 ) ) ;
#332 = DIRECTION ( 'NONE',  ( 1.000000000000000000, -1.219010379117300040E-16, 0.0000000000000000000 ) ) ;
#333 = VECTOR ( 'NONE', #7, 1000.000000000000000 ) ;
#334 = DIRECTION ( 'NONE',  ( -0.0000000000000000000, -0.0000000000000000000, -1.000000000000000000 ) ) ;
#335 = DIRECTION ( 'NONE',  ( 0.0000000000000000000, 0.0000000000000000000, 1.000000000000000000 ) ) ;
#336 = VECTOR ( 'NONE', #91, 1000.000000000000000 ) ;
#337 = EDGE_CURVE ( 'NONE', #787, #376, #911, .T. ) ;
#338 = COLOUR_RGB ( '',1.000000000000000000, 1.000000000000000000, 1.000000000000000000 ) ;
#339 = EDGE_LOOP ( 'NONE', ( #816, #218, #869, #293 ) ) ;
#340 = EDGE_CURVE ( 'NONE', #189, #635, #760, .T. ) ;
#341 = VERTEX_POINT ( 'NONE', #76 ) ;
#342 = DIRECTION ( 'NONE',  ( -1.000000000000000000, 0.0000000000000000000, -0.0000000000000000000 ) ) ;
#343 = ORIENTED_EDGE ( 'NONE', *, *, #925, .F. ) ;
#344 = PLANE ( 'NONE',  #711 ) ;
#345 = ORIENTED_EDGE ( 'NONE', *, *, #108, .T. ) ;
#346 = LINE ( 'NONE', #331, #130 ) ;
#347 = CARTESIAN_POINT ( 'NONE',  ( 1.099999999999999645, 0.5499999999999999334, 0.8000000000000000444 ) ) ;
#348 = CARTESIAN_POINT ( 'NONE',  ( 1.572499999999999787, 0.5224999999999999645, 0.8000000000000000444 ) ) ;
#349 = VERTEX_POINT ( 'NONE', #903 ) ;
#350 = VECTOR ( 'NONE', #203, 1000.000000000000000 ) ;
#351 = ORIENTED_EDGE ( 'NONE', *, *, #844, .F. ) ;
#352 = ORIENTED_EDGE ( 'NONE', *, *, #949, .T. ) ;
#353 = DIRECTION ( 'NONE',  ( -1.000000000000000000, 1.219010379117300040E-16, 0.0000000000000000000 ) ) ;
#354 = LINE ( 'NONE', #170, #886 ) ;
#355 = VECTOR ( 'NONE', #571, 1000.000000000000000 ) ;
#356 = MANIFOLD_SOLID_BREP ( 'Boss-Extrude2', #266 ) ;
#357 = EDGE_CURVE ( 'NONE', #904, #93, #192, .T. ) ;
#358 = LINE ( 'NONE', #115, #491 ) ;
#359 = CARTESIAN_POINT ( 'NONE',  ( 1.099999999999999645, 0.5224999999999999645, 0.8000000000000000444 ) ) ;
#360 = VERTEX_POINT ( 'NONE', #683 ) ;
#361 = VERTEX_POINT ( 'NONE', #550 ) ;
#362 = DIRECTION ( 'NONE',  ( -0.0000000000000000000, -0.0000000000000000000, -1.000000000000000000 ) ) ;
#363 = EDGE_LOOP ( 'NONE', ( #539, #576, #572, #884 ) ) ;
#364 = LINE ( 'NONE', #26, #675 ) ;
#365 = VECTOR ( 'NONE', #434, 1000.000000000000000 ) ;
#366 = EDGE_LOOP ( 'NONE', ( #61, #484, #655, #101 ) ) ;
#367 = ORIENTED_EDGE ( 'NONE', *, *, #117, .F. ) ;
#368 = CARTESIAN_POINT ( 'NONE',  ( 1.099999999999999645, 0.5499999999999999334, -0.8000000000000000444 ) ) ;
#369 = DIRECTION ( 'NONE',  ( -0.0000000000000000000, -1.000000000000000000, -0.0000000000000000000 ) ) ;
#370 = ORIENTED_EDGE ( 'NONE', *, *, #853, .F. ) ;
#371 = CARTESIAN_POINT ( 'NONE',  ( -1.099999999999999645, 0.02749999999999994463, 0.8000000000000000444 ) ) ;
#372 = DIRECTION ( 'NONE',  ( -1.000000000000000000, -2.168404344971008868E-16, -0.0000000000000000000 ) ) ;
#373 = ADVANCED_FACE ( 'NONE', ( #838 ), #690, .T. ) ;
#374 = DIRECTION ( 'NONE',  ( 0.0000000000000000000, 0.0000000000000000000, 1.000000000000000000 ) ) ;
#375 = ORIENTED_EDGE ( 'NONE', *, *, #560, .F. ) ;
#376 = VERTEX_POINT ( 'NONE', #896 ) ;
#377 = PLANE ( 'NONE',  #409 ) ;
#378 = ADVANCED_FACE ( 'NONE', ( #810 ), #699, .T. ) ;
#379 = PRESENTATION_LAYER_ASSIGNMENT (  '', '', ( #442 ) ) ;
#380 = LINE ( 'NONE', #599, #350 ) ;
#381 = FACE_OUTER_BOUND ( 'NONE', #278, .T. ) ;
#382 = AXIS2_PLACEMENT_3D ( 'NONE', #79, #457, #956 ) ;
#383 = VERTEX_POINT ( 'NONE', #247 ) ;
#384 = DIRECTION ( 'NONE',  ( -1.000000000000000000, 0.0000000000000000000, 0.0000000000000000000 ) ) ;
#385 = DIRECTION ( 'NONE',  ( -1.000000000000000000, 3.918869757271529474E-16, 0.0000000000000000000 ) ) ;
#386 = DIRECTION ( 'NONE',  ( -1.000000000000000000, -3.918869757271529967E-16, 0.0000000000000000000 ) ) ;
#387 = ORIENTED_EDGE ( 'NONE', *, *, #668, .T. ) ;
#388 = EDGE_CURVE ( 'NONE', #318, #788, #634, .T. ) ;
#389 = FILL_AREA_STYLE ('',( #54 ) ) ;
#390 = ORIENTED_EDGE ( 'NONE', *, *, #340, .F. ) ;
#391 = VERTEX_POINT ( 'NONE', #766 ) ;
#392 = CARTESIAN_POINT ( 'NONE',  ( 1.099999999999999645, 0.0000000000000000000, -0.8000000000000000444 ) ) ;
#393 = ADVANCED_FACE ( 'NONE', ( #59 ), #707, .T. ) ;
#394 = FACE_OUTER_BOUND ( 'NONE', #778, .T. ) ;
#395 = CARTESIAN_POINT ( 'NONE',  ( -1.572499999999999787, 0.5224999999999999645, -3.983716381840567866 ) ) ;
#396 =( NAMED_UNIT ( * ) SI_UNIT ( $, .STERADIAN. ) SOLID_ANGLE_UNIT ( ) );
#397 = ADVANCED_FACE ( 'NONE', ( #499 ), #770, .F. ) ;
#398 = DIRECTION ( 'NONE',  ( 0.0000000000000000000, -0.0000000000000000000, 1.000000000000000000 ) ) ;
#399 = PLANE ( 'NONE',  #934 ) ;
#400 = LINE ( 'NONE', #825, #96 ) ;
#401 = CARTESIAN_POINT ( 'NONE',  ( -1.572499999999999787, 0.02749999999999988565, 0.8000000000000000444 ) ) ;
#402 = ORIENTED_EDGE ( 'NONE', *, *, #870, .F. ) ;
#403 = CARTESIAN_POINT ( 'NONE',  ( 1.599999999999999645, -1.959434878635764737E-16, 0.8000000000000000444 ) ) ;
#404 = CARTESIAN_POINT ( 'NONE',  ( -1.099999999999999645, 0.0000000000000000000, -0.8000000000000000444 ) ) ;
#405 = EDGE_CURVE ( 'NONE', #341, #349, #575, .T. ) ;
#406 = SURFACE_STYLE_USAGE ( .BOTH. , #460 ) ;
#407 = PLANE ( 'NONE',  #901 ) ;
#408 = CARTESIAN_POINT ( 'NONE',  ( -1.599999999999999645, 0.5499999999999998224, 0.8000000000000000444 ) ) ;
#409 = AXIS2_PLACEMENT_3D ( 'NONE', #885, #132, #205 ) ;
#410 = DIRECTION ( 'NONE',  ( 1.000000000000000000, 0.0000000000000000000, -0.0000000000000000000 ) ) ;
#411 = DIRECTION ( 'NONE',  ( 2.168404344971008868E-16, -1.000000000000000000, 0.0000000000000000000 ) ) ;
#412 = DIRECTION ( 'NONE',  ( 1.000000000000000000, 0.0000000000000000000, 0.0000000000000000000 ) ) ;
#413 = LINE ( 'NONE', #946, #895 ) ;
#414 = PLANE ( 'NONE',  #452 ) ;
#415 = LINE ( 'NONE', #250, #22 ) ;
#416 = VECTOR ( 'NONE', #836, 1000.000000000000000 ) ;
#417 = EDGE_CURVE ( 'NONE', #578, #570, #8, .T. ) ;
#418 = DIRECTION ( 'NONE',  ( -0.0000000000000000000, -1.000000000000000000, -0.0000000000000000000 ) ) ;
#419 = EDGE_LOOP ( 'NONE', ( #784, #807, #3, #728 ) ) ;
#420 = CARTESIAN_POINT ( 'NONE',  ( 1.572499999999999787, 0.02749999999999988565, 0.8000000000000000444 ) ) ;
#421 = EDGE_CURVE ( 'NONE', #466, #558, #299, .T. ) ;
#422 = LINE ( 'NONE', #234, #793 ) ;
#423 = CARTESIAN_POINT ( 'NONE',  ( -1.099999999999999645, 0.5499999999999999334, 0.8000000000000000444 ) ) ;
#424 = FACE_OUTER_BOUND ( 'NONE', #29, .T. ) ;
#425 = PRODUCT_DEFINITION_FORMATION_WITH_SPECIFIED_SOURCE ( 'ANY', '', #156, .NOT_KNOWN. ) ;
#426 = FACE_OUTER_BOUND ( 'NONE', #651, .T. ) ;
#427 = ORIENTED_EDGE ( 'NONE', *, *, #388, .T. ) ;
#428 = LINE ( 'NONE', #752, #513 ) ;
#429 = ORIENTED_EDGE ( 'NONE', *, *, #357, .T. ) ;
#430 = FACE_OUTER_BOUND ( 'NONE', #37, .T. ) ;
#431 = VECTOR ( 'NONE', #684, 1000.000000000000000 ) ;
#432 = VECTOR ( 'NONE', #935, 1000.000000000000000 ) ;
#433 = VERTEX_POINT ( 'NONE', #756 ) ;
#434 = DIRECTION ( 'NONE',  ( 0.0000000000000000000, 1.000000000000000000, 0.0000000000000000000 ) ) ;
#435 = VECTOR ( 'NONE', #910, 1000.000000000000000 ) ;
#436 = EDGE_CURVE ( 'NONE', #464, #656, #768, .T. ) ;
#437 = CARTESIAN_POINT ( 'NONE',  ( 1.572499999999999787, 0.02749999999999988565, -0.8000000000000000444 ) ) ;
#438 =( NAMED_UNIT ( * ) SI_UNIT ( $, .STERADIAN. ) SOLID_ANGLE_UNIT ( ) );
#439 = ORIENTED_EDGE ( 'NONE', *, *, #34, .F. ) ;
#440 = FILL_AREA_STYLE_COLOUR ( '', #566 ) ;
#441 = PLANE ( 'NONE',  #514 ) ;
#442 = STYLED_ITEM ( 'NONE', ( #694 ), #67 ) ;
#443 = ORIENTED_EDGE ( 'NONE', *, *, #508, .F. ) ;
#444 = DIRECTION ( 'NONE',  ( 1.355252715606880543E-16, 0.0000000000000000000, 1.000000000000000000 ) ) ;
#445 = LINE ( 'NONE', #248, #507 ) ;
#446 = LINE ( 'NONE', #830, #545 ) ;
#447 = VERTEX_POINT ( 'NONE', #197 ) ;
#448 = ORIENTED_EDGE ( 'NONE', *, *, #40, .T. ) ;
#449 = CARTESIAN_POINT ( 'NONE',  ( -1.599999999999999645, 0.5499999999999998224, 0.8000000000000000444 ) ) ;
#450 = ORIENTED_EDGE ( 'NONE', *, *, #454, .F. ) ;
#451 = VERTEX_POINT ( 'NONE', #515 ) ;
#452 = AXIS2_PLACEMENT_3D ( 'NONE', #920, #498, #321 ) ;
#453 = ADVANCED_FACE ( 'NONE', ( #537 ), #441, .F. ) ;
#454 = EDGE_CURVE ( 'NONE', #93, #39, #801, .T. ) ;
#455 = DIRECTION ( 'NONE',  ( 0.0000000000000000000, 0.0000000000000000000, -1.000000000000000000 ) ) ;
#456 = LINE ( 'NONE', #501, #774 ) ;
#457 = DIRECTION ( 'NONE',  ( 1.219010379117300040E-16, -1.000000000000000000, 0.0000000000000000000 ) ) ;
#458 = VECTOR ( 'NONE', #948, 1000.000000000000000 ) ;
#459 = CARTESIAN_POINT ( 'NONE',  ( -1.099999999999999645, 0.0000000000000000000, 0.8000000000000000444 ) ) ;
#460 = SURFACE_SIDE_STYLE ('',( #805 ) ) ;
#461 = CARTESIAN_POINT ( 'NONE',  ( 1.599999999999999645, 0.5499999999999998224, -0.8000000000000000444 ) ) ;
#462 = DIRECTION ( 'NONE',  ( -1.000000000000000000, -0.0000000000000000000, -0.0000000000000000000 ) ) ;
#463 = EDGE_CURVE ( 'NONE', #216, #646, #596, .T. ) ;
#464 = VERTEX_POINT ( 'NONE', #722 ) ;
#465 = STYLED_ITEM ( 'NONE', ( #556 ), #356 ) ;
#466 = VERTEX_POINT ( 'NONE', #797 ) ;
#467 = FILL_AREA_STYLE ('',( #74 ) ) ;
#468 = ADVANCED_FACE ( 'NONE', ( #424 ), #49, .T. ) ;
#469 = CARTESIAN_POINT ( 'NONE',  ( -1.099999999999999645, 0.5499999999999999334, 0.8000000000000000444 ) ) ;
#470 = EDGE_CURVE ( 'NONE', #802, #787, #183, .T. ) ;
#471 = CARTESIAN_POINT ( 'NONE',  ( 1.099999999999999423, 0.5500000000000000444, -0.8000000000000000444 ) ) ;
#472 = SURFACE_STYLE_USAGE ( .BOTH. , #4 ) ;
#473 = AXIS2_PLACEMENT_3D ( 'NONE', #481, #17, #15 ) ;
#474 = ORIENTED_EDGE ( 'NONE', *, *, #135, .F. ) ;
#475 = DIRECTION ( 'NONE',  ( 1.000000000000000000, 0.0000000000000000000, 0.0000000000000000000 ) ) ;
#476 = DIRECTION ( 'NONE',  ( -1.000000000000000000, 9.856383386231863758E-17, 0.0000000000000000000 ) ) ;
#477 = ORIENTED_EDGE ( 'NONE', *, *, #831, .F. ) ;
#478 = DIRECTION ( 'NONE',  ( 1.000000000000000000, 0.0000000000000000000, 0.0000000000000000000 ) ) ;
#479 = VERTEX_POINT ( 'NONE', #437 ) ;
#480 = ORIENTED_EDGE ( 'NONE', *, *, #296, .F. ) ;
#481 = CARTESIAN_POINT ( 'NONE',  ( 1.599999999999999645, -1.959434878635764737E-16, 0.8000000000000000444 ) ) ;
#482 = SURFACE_STYLE_USAGE ( .BOTH. , #757 ) ;
#483 = ORIENTED_EDGE ( 'NONE', *, *, #357, .F. ) ;
#484 = ORIENTED_EDGE ( 'NONE', *, *, #296, .T. ) ;
#485 = DIRECTION ( 'NONE',  ( 1.000000000000000000, -2.168404344971008868E-16, -0.0000000000000000000 ) ) ;
#486 = CARTESIAN_POINT ( 'NONE',  ( -1.099999999999999645, 0.5500000000000002665, -0.8000000000000000444 ) ) ;
#487 = PLANE ( 'NONE',  #38 ) ;
#488 = VECTOR ( 'NONE', #362, 1000.000000000000000 ) ;
#489 = CARTESIAN_POINT ( 'NONE',  ( -1.599999999999999645, -1.959434878635764737E-16, 0.8000000000000000444 ) ) ;
#490 = FACE_OUTER_BOUND ( 'NONE', #305, .T. ) ;
#491 = VECTOR ( 'NONE', #661, 1000.000000000000000 ) ;
#492 = DIRECTION ( 'NONE',  ( -0.0000000000000000000, -0.0000000000000000000, -1.000000000000000000 ) ) ;
#493 = VERTEX_POINT ( 'NONE', #505 ) ;
#494 = VERTEX_POINT ( 'NONE', #725 ) ;
#495 = DIRECTION ( 'NONE',  ( 9.856383386231858827E-17, 1.000000000000000000, 0.0000000000000000000 ) ) ;
#496 = MECHANICAL_DESIGN_GEOMETRIC_PRESENTATION_REPRESENTATION (  '', ( #442 ), #540 ) ;
#497 = ORIENTED_EDGE ( 'NONE', *, *, #271, .T. ) ;
#498 = DIRECTION ( 'NONE',  ( -1.000000000000000000, 9.856383386231858827E-17, 1.355252715606880789E-16 ) ) ;
#499 = FACE_OUTER_BOUND ( 'NONE', #164, .T. ) ;
#500 = VERTEX_POINT ( 'NONE', #420 ) ;
#501 = CARTESIAN_POINT ( 'NONE',  ( 1.599999999999999645, -1.959434878635764737E-16, 0.8000000000000000444 ) ) ;
#502 =( NAMED_UNIT ( * ) SI_UNIT ( $, .STERADIAN. ) SOLID_ANGLE_UNIT ( ) );
#503 = SURFACE_SIDE_STYLE ('',( #624 ) ) ;
#504 = AXIS2_PLACEMENT_3D ( 'NONE', #548, #960, #608 ) ;
#505 = CARTESIAN_POINT ( 'NONE',  ( -1.572499999999999787, 0.02749999999999988565, -0.8000000000000000444 ) ) ;
#506 = EDGE_CURVE ( 'NONE', #451, #493, #563, .T. ) ;
#507 = VECTOR ( 'NONE', #478, 1000.000000000000000 ) ;
#508 = EDGE_CURVE ( 'NONE', #558, #451, #253, .T. ) ;
#509 = ORIENTED_EDGE ( 'NONE', *, *, #2, .T. ) ;
#510 = ORIENTED_EDGE ( 'NONE', *, *, #750, .T. ) ;
#511 = LINE ( 'NONE', #957, #813 ) ;
#512 = FACE_OUTER_BOUND ( 'NONE', #366, .T. ) ;
#513 = VECTOR ( 'NONE', #953, 1000.000000000000000 ) ;
#514 = AXIS2_PLACEMENT_3D ( 'NONE', #855, #866, #353 ) ;
#515 = CARTESIAN_POINT ( 'NONE',  ( -1.099999999999999645, 0.02749999999999994463, -0.8000000000000000444 ) ) ;
#516 = ORIENTED_EDGE ( 'NONE', *, *, #337, .T. ) ;
#517 = CARTESIAN_POINT ( 'NONE',  ( 1.099999999999999645, 0.02749999999999994463, -0.8000000000000000444 ) ) ;
#518 = EDGE_CURVE ( 'NONE', #656, #141, #814, .T. ) ;
#519 = CLOSED_SHELL ( 'NONE', ( #692, #468, #151, #900, #301, #210 ) ) ;
#520 = CARTESIAN_POINT ( 'NONE',  ( -1.099999999999999645, -2.197794101747088114, 0.8000000000000000444 ) ) ;
#521 = AXIS2_PLACEMENT_3D ( 'NONE', #685, #304, #476 ) ;
#522 = VECTOR ( 'NONE', #735, 1000.000000000000000 ) ;
#523 = DIRECTION ( 'NONE',  ( 1.000000000000000000, 0.0000000000000000000, 0.0000000000000000000 ) ) ;
#524 = AXIS2_PLACEMENT_3D ( 'NONE', #719, #269, #581 ) ;
#525 = CARTESIAN_POINT ( 'NONE',  ( -1.572499999999999787, 0.02749999999999988565, 0.8000000000000000444 ) ) ;
#526 = LINE ( 'NONE', #100, #309 ) ;
#527 = EDGE_CURVE ( 'NONE', #553, #667, #658, .T. ) ;
#528 = ADVANCED_FACE ( 'NONE', ( #394 ), #31, .F. ) ;
#529 = CARTESIAN_POINT ( 'NONE',  ( 0.0000000000000000000, 0.0000000000000000000, 0.0000000000000000000 ) ) ;
#530 = ORIENTED_EDGE ( 'NONE', *, *, #2, .F. ) ;
#531 = PRESENTATION_LAYER_ASSIGNMENT (  '', '', ( #465 ) ) ;
#532 = CARTESIAN_POINT ( 'NONE',  ( 1.572499999999999787, 0.5224999999999999645, -0.8000000000000000444 ) ) ;
#533 = ADVANCED_FACE ( 'NONE', ( #868 ), #377, .T. ) ;
#534 = ORIENTED_EDGE ( 'NONE', *, *, #940, .F. ) ;
#535 = LINE ( 'NONE', #532, #116 ) ;
#536 = CARTESIAN_POINT ( 'NONE',  ( -1.599999999999999645, 0.5499999999999998224, -0.8000000000000000444 ) ) ;
#537 = FACE_OUTER_BOUND ( 'NONE', #951, .T. ) ;
#538 = ADVANCED_FACE ( 'NONE', ( #430 ), #52, .F. ) ;
#539 = ORIENTED_EDGE ( 'NONE', *, *, #577, .F. ) ;
#540 =( GEOMETRIC_REPRESENTATION_CONTEXT ( 3 ) GLOBAL_UNCERTAINTY_ASSIGNED_CONTEXT ( ( #208 ) ) GLOBAL_UNIT_ASSIGNED_CONTEXT ( ( #310, #623, #9 ) ) REPRESENTATION_CONTEXT ( 'NONE', 'WORKASPACE' ) );
#541 = LINE ( 'NONE', #471, #333 ) ;
#542 = LINE ( 'NONE', #294, #97 ) ;
#543 = LINE ( 'NONE', #20, #698 ) ;
#544 = DIRECTION ( 'NONE',  ( 9.856383386231858827E-17, 1.000000000000000000, 0.0000000000000000000 ) ) ;
#545 = VECTOR ( 'NONE', #87, 1000.000000000000000 ) ;
#546 = EDGE_CURVE ( 'NONE', #879, #141, #535, .T. ) ;
#547 = ORIENTED_EDGE ( 'NONE', *, *, #674, .F. ) ;
#548 = CARTESIAN_POINT ( 'NONE',  ( -1.572499999999999787, 0.5224999999999999645, 0.8000000000000000444 ) ) ;
#549 = EDGE_CURVE ( 'NONE', #667, #361, #511, .T. ) ;
#550 = CARTESIAN_POINT ( 'NONE',  ( -1.572499999999999787, 0.5224999999999999645, 0.8000000000000000444 ) ) ;
#551 = VERTEX_POINT ( 'NONE', #68 ) ;
#552 = DIRECTION ( 'NONE',  ( -1.000000000000000000, 0.0000000000000000000, 0.0000000000000000000 ) ) ;
#553 = VERTEX_POINT ( 'NONE', #154 ) ;
#554 = EDGE_LOOP ( 'NONE', ( #138, #204, #939, #530 ) ) ;
#555 = DIRECTION ( 'NONE',  ( 0.0000000000000000000, -0.0000000000000000000, -1.000000000000000000 ) ) ;
#556 = PRESENTATION_STYLE_ASSIGNMENT (( #472 ) ) ;
#557 = DIRECTION ( 'NONE',  ( -0.0000000000000000000, 1.000000000000000000, -0.0000000000000000000 ) ) ;
#558 = VERTEX_POINT ( 'NONE', #240 ) ;
#559 = ORIENTED_EDGE ( 'NONE', *, *, #506, .F. ) ;
#560 = EDGE_CURVE ( 'NONE', #391, #451, #950, .T. ) ;
#561 = ORIENTED_EDGE ( 'NONE', *, *, #907, .T. ) ;
#562 = DIRECTION ( 'NONE',  ( 0.0000000000000000000, 0.0000000000000000000, -1.000000000000000000 ) ) ;
#563 = LINE ( 'NONE', #595, #238 ) ;
#564 = ORIENTED_EDGE ( 'NONE', *, *, #853, .T. ) ;
#565 = EDGE_CURVE ( 'NONE', #551, #216, #55, .T. ) ;
#566 = COLOUR_RGB ( '',0.7921568627450980005, 0.8196078431372548767, 0.9333333333333333481 ) ;
#567 = CARTESIAN_POINT ( 'NONE',  ( 1.099999999999999645, 0.5224999999999999645, 0.8000000000000000444 ) ) ;
#568 = VECTOR ( 'NONE', #223, 1000.000000000000000 ) ;
#569 = VECTOR ( 'NONE', #332, 1000.000000000000000 ) ;
#570 = VERTEX_POINT ( 'NONE', #696 ) ;
#571 = DIRECTION ( 'NONE',  ( 0.0000000000000000000, -0.0000000000000000000, -1.000000000000000000 ) ) ;
#572 = ORIENTED_EDGE ( 'NONE', *, *, #123, .T. ) ;
#573 = ORIENTED_EDGE ( 'NONE', *, *, #421, .T. ) ;
#574 = LINE ( 'NONE', #241, #326 ) ;
#575 = LINE ( 'NONE', #852, #32 ) ;
#576 = ORIENTED_EDGE ( 'NONE', *, *, #463, .F. ) ;
#577 = EDGE_CURVE ( 'NONE', #646, #383, #709, .T. ) ;
#578 = VERTEX_POINT ( 'NONE', #614 ) ;
#579 = MANIFOLD_SOLID_BREP ( 'Boss-Extrude1', #285 ) ;
#580 = ORIENTED_EDGE ( 'NONE', *, *, #178, .T. ) ;
#581 = DIRECTION ( 'NONE',  ( 1.000000000000000000, -3.918869757271529967E-16, 0.0000000000000000000 ) ) ;
#582 = FACE_OUTER_BOUND ( 'NONE', #84, .T. ) ;
#583 = CARTESIAN_POINT ( 'NONE',  ( 1.572499999999999787, 0.5224999999999999645, -0.8000000000000000444 ) ) ;
#584 = AXIS2_PLACEMENT_3D ( 'NONE', #761, #319, #841 ) ;
#585 = CARTESIAN_POINT ( 'NONE',  ( 0.0000000000000000000, 0.0000000000000000000, 0.8000000000000000444 ) ) ;
#586 = FACE_OUTER_BOUND ( 'NONE', #139, .T. ) ;
#587 = VECTOR ( 'NONE', #555, 1000.000000000000000 ) ;
#588 = ORIENTED_EDGE ( 'NONE', *, *, #870, .T. ) ;
#589 = ORIENTED_EDGE ( 'NONE', *, *, #759, .T. ) ;
#590 = AXIS2_PLACEMENT_3D ( 'NONE', #520, #128, #199 ) ;
#591 = DIRECTION ( 'NONE',  ( -1.000000000000000000, 0.0000000000000000000, -0.0000000000000000000 ) ) ;
#592 = ORIENTED_EDGE ( 'NONE', *, *, #831, .T. ) ;
#593 = CARTESIAN_POINT ( 'NONE',  ( -1.099999999999999645, 0.5499999999999999334, 0.8000000000000000444 ) ) ;
#594 = VERTEX_POINT ( 'NONE', #57 ) ;
#595 = CARTESIAN_POINT ( 'NONE',  ( -1.099999999999999645, 0.02749999999999994463, -0.8000000000000000444 ) ) ;
#596 = LINE ( 'NONE', #943, #355 ) ;
#597 = AXIS2_PLACEMENT_3D ( 'NONE', #619, #552, #155 ) ;
#598 = ORIENTED_EDGE ( 'NONE', *, *, #470, .T. ) ;
#599 = CARTESIAN_POINT ( 'NONE',  ( 1.099999999999999645, 0.02749999999999994463, 0.8000000000000000444 ) ) ;
#600 = VECTOR ( 'NONE', #875, 1000.000000000000000 ) ;
#601 = LINE ( 'NONE', #423, #737 ) ;
#602 = APPLICATION_CONTEXT ( 'automotive_design' ) ;
#603 = VERTEX_POINT ( 'NONE', #525 ) ;
#604 = ORIENTED_EDGE ( 'NONE', *, *, #857, .T. ) ;
#605 = VERTEX_POINT ( 'NONE', #272 ) ;
#606 = DIRECTION ( 'NONE',  ( -1.000000000000000000, 0.0000000000000000000, -0.0000000000000000000 ) ) ;
#607 = AXIS2_PLACEMENT_3D ( 'NONE', #529, #374, #523 ) ;
#608 = DIRECTION ( 'NONE',  ( 0.0000000000000000000, -0.0000000000000000000, 1.000000000000000000 ) ) ;
#609 = ADVANCED_FACE ( 'NONE', ( #63 ), #277, .F. ) ;
#610 = FACE_OUTER_BOUND ( 'NONE', #195, .T. ) ;
#611 = VECTOR ( 'NONE', #314, 1000.000000000000000 ) ;
#612 = EDGE_CURVE ( 'NONE', #594, #39, #428, .T. ) ;
#613 = EDGE_LOOP ( 'NONE', ( #859, #443, #665, #621 ) ) ;
#614 = CARTESIAN_POINT ( 'NONE',  ( -1.572499999999999787, 0.5224999999999999645, 0.8000000000000000444 ) ) ;
#615 = ORIENTED_EDGE ( 'NONE', *, *, #85, .F. ) ;
#616 = ADVANCED_FACE ( 'NONE', ( #214 ), #225, .F. ) ;
#617 = ORIENTED_EDGE ( 'NONE', *, *, #66, .T. ) ;
#618 = ORIENTED_EDGE ( 'NONE', *, *, #932, .T. ) ;
#619 = CARTESIAN_POINT ( 'NONE',  ( -1.572499999999999787, 0.02749999999999988565, -3.983716381840567866 ) ) ;
#620 = PLANE ( 'NONE',  #521 ) ;
#621 = ORIENTED_EDGE ( 'NONE', *, *, #75, .T. ) ;
#622 = CARTESIAN_POINT ( 'NONE',  ( 1.099999999999999645, 0.5499999999999999334, -0.8000000000000000444 ) ) ;
#623 =( NAMED_UNIT ( * ) PLANE_ANGLE_UNIT ( ) SI_UNIT ( $, .RADIAN. ) );
#624 = SURFACE_STYLE_FILL_AREA ( #693 ) ;
#625 = CARTESIAN_POINT ( 'NONE',  ( 1.099999999999999645, 0.02749999999999994463, 0.8000000000000000444 ) ) ;
#626 =( LENGTH_UNIT ( ) NAMED_UNIT ( * ) SI_UNIT ( .MILLI., .METRE. ) );
#627 = CARTESIAN_POINT ( 'NONE',  ( -1.572499999999999787, 0.02749999999999988565, -0.7999999999999999334 ) ) ;
#628 = EDGE_CURVE ( 'NONE', #605, #349, #541, .T. ) ;
#629 = ADVANCED_FACE ( 'NONE', ( #177 ), #743, .F. ) ;
#630 = ORIENTED_EDGE ( 'NONE', *, *, #178, .F. ) ;
#631 = ORIENTED_EDGE ( 'NONE', *, *, #700, .T. ) ;
#632 = CARTESIAN_POINT ( 'NONE',  ( -1.599999999999999645, 0.5499999999999998224, 0.8000000000000000444 ) ) ;
#633 = DIRECTION ( 'NONE',  ( 0.0000000000000000000, 0.0000000000000000000, -1.000000000000000000 ) ) ;
#634 = LINE ( 'NONE', #176, #268 ) ;
#635 = VERTEX_POINT ( 'NONE', #889 ) ;
#636 = AXIS2_PLACEMENT_3D ( 'NONE', #847, #28, #242 ) ;
#637 = PLANE ( 'NONE',  #473 ) ;
#638 = DIRECTION ( 'NONE',  ( 1.000000000000000000, -1.219010379117300040E-16, 0.0000000000000000000 ) ) ;
#639 = DIRECTION ( 'NONE',  ( -1.000000000000000000, 9.856383386231863758E-17, -0.0000000000000000000 ) ) ;
#640 = DIRECTION ( 'NONE',  ( -1.000000000000000000, 0.0000000000000000000, -0.0000000000000000000 ) ) ;
#641 = CLOSED_SHELL ( 'NONE', ( #748, #453, #736, #206, #78, #538, #677, #755, #528, #65 ) ) ;
#642 = PRESENTATION_STYLE_ASSIGNMENT (( #201 ) ) ;
#643 = LINE ( 'NONE', #769, #818 ) ;
#644 = LINE ( 'NONE', #161, #435 ) ;
#645 = DIRECTION ( 'NONE',  ( 0.0000000000000000000, -0.0000000000000000000, -1.000000000000000000 ) ) ;
#646 = VERTEX_POINT ( 'NONE', #461 ) ;
#647 = UNCERTAINTY_MEASURE_WITH_UNIT (LENGTH_MEASURE( 1.000000000000000082E-05 ), #11, 'distance_accuracy_value', 'NONE');
#648 = VERTEX_POINT ( 'NONE', #622 ) ;
#649 = CARTESIAN_POINT ( 'NONE',  ( -1.099999999999999867, 0.5224999999999999645, -0.8000000000000000444 ) ) ;
#650 = STYLED_ITEM ( 'NONE', ( #642 ), #270 ) ;
#651 = EDGE_LOOP ( 'NONE', ( #450, #483, #942, #90 ) ) ;
#652 = AXIS2_PLACEMENT_3D ( 'NONE', #837, #297, #145 ) ;
#653 = ORIENTED_EDGE ( 'NONE', *, *, #745, .F. ) ;
#654 = ORIENTED_EDGE ( 'NONE', *, *, #123, .F. ) ;
#655 = ORIENTED_EDGE ( 'NONE', *, *, #94, .T. ) ;
#656 = VERTEX_POINT ( 'NONE', #681 ) ;
#657 = FACE_OUTER_BOUND ( 'NONE', #86, .T. ) ;
#658 = LINE ( 'NONE', #871, #236 ) ;
#659 = ORIENTED_EDGE ( 'NONE', *, *, #949, .F. ) ;
#660 = ORIENTED_EDGE ( 'NONE', *, *, #894, .T. ) ;
#661 = DIRECTION ( 'NONE',  ( -1.000000000000000000, 3.918869757271529474E-16, 0.0000000000000000000 ) ) ;
#662 = EDGE_CURVE ( 'NONE', #635, #307, #542, .T. ) ;
#663 = LINE ( 'NONE', #404, #799 ) ;
#664 = CARTESIAN_POINT ( 'NONE',  ( -1.099999999999999645, 0.5224999999999999645, 0.8000000000000000444 ) ) ;
#665 = ORIENTED_EDGE ( 'NONE', *, *, #421, .F. ) ;
#666 = DIRECTION ( 'NONE',  ( 0.0000000000000000000, 1.000000000000000000, 0.0000000000000000000 ) ) ;
#667 = VERTEX_POINT ( 'NONE', #824 ) ;
#668 = EDGE_CURVE ( 'NONE', #635, #494, #82, .T. ) ;
#669 = FACE_OUTER_BOUND ( 'NONE', #363, .T. ) ;
#670 = ORIENTED_EDGE ( 'NONE', *, *, #454, .T. ) ;
#671 =( NAMED_UNIT ( * ) PLANE_ANGLE_UNIT ( ) SI_UNIT ( $, .RADIAN. ) );
#672 = CARTESIAN_POINT ( 'NONE',  ( -1.099999999999999645, 0.5500000000000002665, -0.8000000000000000444 ) ) ;
#673 = ORIENTED_EDGE ( 'NONE', *, *, #721, .T. ) ;
#674 = EDGE_CURVE ( 'NONE', #447, #383, #877, .T. ) ;
#675 = VECTOR ( 'NONE', #914, 1000.000000000000000 ) ;
#676 = ORIENTED_EDGE ( 'NONE', *, *, #518, .T. ) ;
#677 = ADVANCED_FACE ( 'NONE', ( #669 ), #637, .F. ) ;
#678 = VECTOR ( 'NONE', #922, 1000.000000000000000 ) ;
#679 = ORIENTED_EDGE ( 'NONE', *, *, #794, .F. ) ;
#680 = ORIENTED_EDGE ( 'NONE', *, *, #628, .F. ) ;
#681 = CARTESIAN_POINT ( 'NONE',  ( 1.099999999999999645, 0.5224999999999999645, 0.8000000000000000444 ) ) ;
#682 = EDGE_CURVE ( 'NONE', #494, #553, #228, .T. ) ;
#683 = CARTESIAN_POINT ( 'NONE',  ( -1.099999999999999645, 0.5500000000000002665, -0.8000000000000000444 ) ) ;
#684 = DIRECTION ( 'NONE',  ( 0.0000000000000000000, 1.000000000000000000, 0.0000000000000000000 ) ) ;
#685 = CARTESIAN_POINT ( 'NONE',  ( 5.421010862427527100E-17, 0.5500000000000001554, -7.346839692639302399E-33 ) ) ;
#686 = VECTOR ( 'NONE', #324, 1000.000000000000000 ) ;
#687 = DIRECTION ( 'NONE',  ( 0.0000000000000000000, 1.000000000000000000, 0.0000000000000000000 ) ) ;
#688 = EDGE_LOOP ( 'NONE', ( #33, #343, #255, #60 ) ) ;
#689 = PLANE ( 'NONE',  #327 ) ;
#690 = PLANE ( 'NONE',  #927 ) ;
#691 = DIRECTION ( 'NONE',  ( 1.000000000000000000, 0.0000000000000000000, 0.0000000000000000000 ) ) ;
#692 = ADVANCED_FACE ( 'NONE', ( #80 ), #414, .T. ) ;
#693 = FILL_AREA_STYLE ('',( #171 ) ) ;
#694 = PRESENTATION_STYLE_ASSIGNMENT (( #482 ) ) ;
#695 = CARTESIAN_POINT ( 'NONE',  ( -1.099999999999999423, 0.5500000000000002665, 0.8000000000000000444 ) ) ;
#696 = CARTESIAN_POINT ( 'NONE',  ( -1.572499999999999787, 0.5224999999999999645, -0.8000000000000000444 ) ) ;
#697 = CARTESIAN_POINT ( 'NONE',  ( 1.572499999999999787, 0.02749999999999988565, 0.8000000000000000444 ) ) ;
#698 = VECTOR ( 'NONE', #25, 1000.000000000000000 ) ;
#699 = PLANE ( 'NONE',  #77 ) ;
#700 = EDGE_CURVE ( 'NONE', #479, #879, #543, .T. ) ;
#701 = CARTESIAN_POINT ( 'NONE',  ( 1.099999999999999201, -2.197794101747088114, -0.8000000000000000444 ) ) ;
#702 = CARTESIAN_POINT ( 'NONE',  ( 1.572499999999999787, 0.02749999999999988565, -3.983716381840567866 ) ) ;
#703 = EDGE_LOOP ( 'NONE', ( #10, #387, #851, #849 ) ) ;
#704 = DIRECTION ( 'NONE',  ( 0.0000000000000000000, 0.0000000000000000000, 1.000000000000000000 ) ) ;
#705 = EDGE_CURVE ( 'NONE', #648, #646, #35, .T. ) ;
#706 = DIRECTION ( 'NONE',  ( 1.000000000000000000, 0.0000000000000000000, 0.0000000000000000000 ) ) ;
#707 = PLANE ( 'NONE',  #636 ) ;
#708 = LINE ( 'NONE', #672, #12 ) ;
#709 = LINE ( 'NONE', #73, #568 ) ;
#710 = LINE ( 'NONE', #207, #522 ) ;
#711 = AXIS2_PLACEMENT_3D ( 'NONE', #182, #113, #186 ) ;
#712 = ORIENTED_EDGE ( 'NONE', *, *, #844, .T. ) ;
#713 = AXIS2_PLACEMENT_3D ( 'NONE', #915, #633, #640 ) ;
#714 = VECTOR ( 'NONE', #302, 1000.000000000000000 ) ;
#715 = ORIENTED_EDGE ( 'NONE', *, *, #700, .F. ) ;
#716 = ORIENTED_EDGE ( 'NONE', *, *, #883, .F. ) ;
#717 = DIRECTION ( 'NONE',  ( -1.000000000000000000, -1.219010379117300040E-16, 0.0000000000000000000 ) ) ;
#718 = ORIENTED_EDGE ( 'NONE', *, *, #436, .F. ) ;
#719 = CARTESIAN_POINT ( 'NONE',  ( 1.099999999999999645, 0.0000000000000000000, 0.8000000000000000444 ) ) ;
#720 = CARTESIAN_POINT ( 'NONE',  ( 1.099999999999999645, 0.5499999999999999334, 0.8000000000000000444 ) ) ;
#721 = EDGE_CURVE ( 'NONE', #280, #667, #56, .T. ) ;
#722 = CARTESIAN_POINT ( 'NONE',  ( 1.572499999999999787, 0.5224999999999999645, 0.8000000000000000444 ) ) ;
#723 = LINE ( 'NONE', #936, #897 ) ;
#724 = PRODUCT_RELATED_PRODUCT_CATEGORY ( 'part', '', ( #156 ) ) ;
#725 = CARTESIAN_POINT ( 'NONE',  ( 1.572499999999999787, 0.02749999999999988565, -0.7999999999999999334 ) ) ;
#726 = PLANE ( 'NONE',  #829 ) ;
#727 = EDGE_CURVE ( 'NONE', #578, #802, #445, .T. ) ;
#728 = ORIENTED_EDGE ( 'NONE', *, *, #925, .T. ) ;
#729 = DIRECTION ( 'NONE',  ( 0.0000000000000000000, 0.0000000000000000000, 1.000000000000000000 ) ) ;
#730 =( LENGTH_UNIT ( ) NAMED_UNIT ( * ) SI_UNIT ( .MILLI., .METRE. ) );
#731 = ORIENTED_EDGE ( 'NONE', *, *, #405, .T. ) ;
#732 = APPLICATION_PROTOCOL_DEFINITION ( 'draft international standard', 'automotive_design', 1998, #602 ) ;
#733 = LINE ( 'NONE', #368, #600 ) ;
#734 = UNCERTAINTY_MEASURE_WITH_UNIT (LENGTH_MEASURE( 1.000000000000000082E-05 ), #626, 'distance_accuracy_value', 'NONE');
#735 = DIRECTION ( 'NONE',  ( 1.000000000000000000, 3.918869757271529474E-16, -0.0000000000000000000 ) ) ;
#736 = ADVANCED_FACE ( 'NONE', ( #937 ), #399, .F. ) ;
#737 = VECTOR ( 'NONE', #789, 1000.000000000000000 ) ;
#738 = ORIENTED_EDGE ( 'NONE', *, *, #188, .F. ) ;
#739 =( NAMED_UNIT ( * ) PLANE_ANGLE_UNIT ( ) SI_UNIT ( $, .RADIAN. ) );
#740 = EDGE_LOOP ( 'NONE', ( #561, #800, #776, #133 ) ) ;
#741 = ORIENTED_EDGE ( 'NONE', *, *, #463, .T. ) ;
#742 = CARTESIAN_POINT ( 'NONE',  ( -1.572499999999999787, 0.02749999999999988565, 0.8000000000000000444 ) ) ;
#743 = PLANE ( 'NONE',  #382 ) ;
#744 = CARTESIAN_POINT ( 'NONE',  ( -1.572499999999999787, 0.02749999999999988565, 0.8000000000000000444 ) ) ;
#745 = EDGE_CURVE ( 'NONE', #464, #879, #46, .T. ) ;
#746 = VECTOR ( 'NONE', #908, 1000.000000000000000 ) ;
#747 = CARTESIAN_POINT ( 'NONE',  ( 1.099999999999999645, 0.0000000000000000000, 0.8000000000000000444 ) ) ;
#748 = ADVANCED_FACE ( 'NONE', ( #426 ), #487, .F. ) ;
#749 = ORIENTED_EDGE ( 'NONE', *, *, #549, .T. ) ;
#750 = EDGE_CURVE ( 'NONE', #50, #92, #864, .T. ) ;
#751 = FACE_OUTER_BOUND ( 'NONE', #554, .T. ) ;
#752 = CARTESIAN_POINT ( 'NONE',  ( 1.099999999999999645, 0.02749999999999994463, 0.8000000000000000444 ) ) ;
#753 = CARTESIAN_POINT ( 'NONE',  ( 0.0000000000000000000, 0.0000000000000000000, -0.8000000000000000444 ) ) ;
#754 = DIRECTION ( 'NONE',  ( 0.0000000000000000000, -1.000000000000000000, 0.0000000000000000000 ) ) ;
#755 = ADVANCED_FACE ( 'NONE', ( #202 ), #169, .F. ) ;
#756 = CARTESIAN_POINT ( 'NONE',  ( -1.099999999999999645, 0.5224999999999999645, 0.8000000000000000444 ) ) ;
#757 = SURFACE_SIDE_STYLE ('',( #944 ) ) ;
#758 = DIRECTION ( 'NONE',  ( -1.000000000000000000, 0.0000000000000000000, 0.0000000000000000000 ) ) ;
#759 = EDGE_CURVE ( 'NONE', #570, #787, #275, .T. ) ;
#760 = LINE ( 'NONE', #627, #289 ) ;
#761 = CARTESIAN_POINT ( 'NONE',  ( 1.099999999999999645, 0.5499999999999999334, 0.8000000000000000444 ) ) ;
#762 = ORIENTED_EDGE ( 'NONE', *, *, #518, .F. ) ;
#763 = ORIENTED_EDGE ( 'NONE', *, *, #19, .F. ) ;
#764 = DIRECTION ( 'NONE',  ( -1.355252715606880789E-16, 0.0000000000000000000, -1.000000000000000000 ) ) ;
#765 = LINE ( 'NONE', #697, #431 ) ;
#766 = CARTESIAN_POINT ( 'NONE',  ( -1.099999999999999645, 0.0000000000000000000, -0.8000000000000000444 ) ) ;
#767 = MANIFOLD_SOLID_BREP ( 'Mirror2', #641 ) ;
#768 = LINE ( 'NONE', #348, #168 ) ;
#769 = CARTESIAN_POINT ( 'NONE',  ( -1.572499999999999787, 0.02749999999999988565, 0.8000000000000000444 ) ) ;
#770 = PLANE ( 'NONE',  #713 ) ;
#771 = PRODUCT_DEFINITION_SHAPE ( 'NONE', 'NONE',  #71 ) ;
#772 = CARTESIAN_POINT ( 'NONE',  ( 1.099999999999999645, 0.5224999999999999645, -0.8000000000000000444 ) ) ;
#773 =( NAMED_UNIT ( * ) PLANE_ANGLE_UNIT ( ) SI_UNIT ( $, .RADIAN. ) );
#774 = VECTOR ( 'NONE', #106, 1000.000000000000000 ) ;
#775 = LINE ( 'NONE', #235, #193 ) ;
#776 = ORIENTED_EDGE ( 'NONE', *, *, #628, .T. ) ;
#777 = CARTESIAN_POINT ( 'NONE',  ( -1.599999999999999645, -1.959434878635764737E-16, 0.8000000000000000444 ) ) ;
#778 = EDGE_LOOP ( 'NONE', ( #534, #780, #654, #48, #890, #718, #898, #439 ) ) ;
#779 = DIRECTION ( 'NONE',  ( 1.000000000000000000, -9.856383386231858827E-17, -1.355252715606880789E-16 ) ) ;
#780 = ORIENTED_EDGE ( 'NONE', *, *, #40, .F. ) ;
#781 = DIRECTION ( 'NONE',  ( -1.000000000000000000, -1.219010379117300040E-16, 0.0000000000000000000 ) ) ;
#782 = MECHANICAL_DESIGN_GEOMETRIC_PRESENTATION_REPRESENTATION (  '', ( #888 ), #796 ) ;
#783 = ORIENTED_EDGE ( 'NONE', *, *, #750, .F. ) ;
#784 = ORIENTED_EDGE ( 'NONE', *, *, #303, .T. ) ;
#785 = VECTOR ( 'NONE', #334, 1000.000000000000000 ) ;
#786 = EDGE_CURVE ( 'NONE', #50, #318, #819, .T. ) ;
#787 = VERTEX_POINT ( 'NONE', #325 ) ;
#788 = VERTEX_POINT ( 'NONE', #21 ) ;
#789 = DIRECTION ( 'NONE',  ( -0.0000000000000000000, -0.0000000000000000000, -1.000000000000000000 ) ) ;
#790 = AXIS2_PLACEMENT_3D ( 'NONE', #459, #891, #386 ) ;
#791 = EDGE_LOOP ( 'NONE', ( #474, #809, #103, #858 ) ) ;
#792 = ORIENTED_EDGE ( 'NONE', *, *, #417, .T. ) ;
#793 = VECTOR ( 'NONE', #385, 1000.000000000000000 ) ;
#794 = EDGE_CURVE ( 'NONE', #349, #360, #64, .T. ) ;
#795 = CARTESIAN_POINT ( 'NONE',  ( -1.099999999999999867, -2.197794101747088114, -0.8000000000000000444 ) ) ;
#796 =( GEOMETRIC_REPRESENTATION_CONTEXT ( 3 ) GLOBAL_UNCERTAINTY_ASSIGNED_CONTEXT ( ( #734 ) ) GLOBAL_UNIT_ASSIGNED_CONTEXT ( ( #626, #773, #502 ) ) REPRESENTATION_CONTEXT ( 'NONE', 'WORKASPACE' ) );
#797 = CARTESIAN_POINT ( 'NONE',  ( -1.099999999999999645, 0.0000000000000000000, 0.8000000000000000444 ) ) ;
#798 = LINE ( 'NONE', #102, #45 ) ;
#799 = VECTOR ( 'NONE', #323, 1000.000000000000000 ) ;
#800 = ORIENTED_EDGE ( 'NONE', *, *, #85, .T. ) ;
#801 = LINE ( 'NONE', #517, #365 ) ;
#802 = VERTEX_POINT ( 'NONE', #244 ) ;
#803 = CARTESIAN_POINT ( 'NONE',  ( -1.572499999999999787, 0.02749999999999988565, 0.8000000000000000444 ) ) ;
#804 = CARTESIAN_POINT ( 'NONE',  ( -1.099999999999999645, 0.02749999999999994463, 0.8000000000000000444 ) ) ;
#805 = SURFACE_STYLE_FILL_AREA ( #389 ) ;
#806 = VECTOR ( 'NONE', #821, 1000.000000000000000 ) ;
#807 = ORIENTED_EDGE ( 'NONE', *, *, #417, .F. ) ;
#808 = ORIENTED_EDGE ( 'NONE', *, *, #823, .F. ) ;
#809 = ORIENTED_EDGE ( 'NONE', *, *, #682, .T. ) ;
#810 = FACE_OUTER_BOUND ( 'NONE', #791, .T. ) ;
#811 = DIRECTION ( 'NONE',  ( -1.000000000000000000, 0.0000000000000000000, 0.0000000000000000000 ) ) ;
#812 = AXIS2_PLACEMENT_3D ( 'NONE', #795, #179, #591 ) ;
#813 = VECTOR ( 'NONE', #462, 1000.000000000000000 ) ;
#814 = LINE ( 'NONE', #359, #432 ) ;
#815 = CARTESIAN_POINT ( 'NONE',  ( 0.0000000000000000000, 0.0000000000000000000, 0.8000000000000000444 ) ) ;
#816 = ORIENTED_EDGE ( 'NONE', *, *, #883, .T. ) ;
#817 = SURFACE_STYLE_FILL_AREA ( #212 ) ;
#818 = VECTOR ( 'NONE', #252, 1000.000000000000000 ) ;
#819 = LINE ( 'NONE', #632, #611 ) ;
#820 = CARTESIAN_POINT ( 'NONE',  ( -1.572499999999999787, 0.02749999999999988565, -0.7999999999999999334 ) ) ;
#821 = DIRECTION ( 'NONE',  ( -0.0000000000000000000, 1.000000000000000000, -0.0000000000000000000 ) ) ;
#822 = EDGE_LOOP ( 'NONE', ( #313, #731, #680, #738 ) ) ;
#823 = EDGE_CURVE ( 'NONE', #788, #391, #663, .T. ) ;
#824 = CARTESIAN_POINT ( 'NONE',  ( 1.572499999999999787, 0.5224999999999999645, 0.8000000000000000444 ) ) ;
#825 = CARTESIAN_POINT ( 'NONE',  ( -1.572499999999999787, 0.5224999999999999645, -0.7999999999999999334 ) ) ;
#826 = ADVANCED_FACE ( 'NONE', ( #122 ), #95, .F. ) ;
#827 = ORIENTED_EDGE ( 'NONE', *, *, #34, .T. ) ;
#828 = CARTESIAN_POINT ( 'NONE',  ( -1.572499999999999787, 0.5224999999999999645, -0.7999999999999999334 ) ) ;
#829 = AXIS2_PLACEMENT_3D ( 'NONE', #593, #811, #729 ) ;
#830 = CARTESIAN_POINT ( 'NONE',  ( -1.572499999999999787, 0.02749999999999988565, -0.8000000000000000444 ) ) ;
#831 = EDGE_CURVE ( 'NONE', #39, #479, #246, .T. ) ;
#832 = PRESENTATION_STYLE_ASSIGNMENT (( #406 ) ) ;
#833 = CARTESIAN_POINT ( 'NONE',  ( 1.099999999999999645, 0.02749999999999994463, -0.8000000000000000444 ) ) ;
#834 = VERTEX_POINT ( 'NONE', #695 ) ;
#835 = MECHANICAL_DESIGN_GEOMETRIC_PRESENTATION_REPRESENTATION (  '', ( #465 ), #276 ) ;
#836 = DIRECTION ( 'NONE',  ( 0.0000000000000000000, -0.0000000000000000000, -1.000000000000000000 ) ) ;
#837 = CARTESIAN_POINT ( 'NONE',  ( -1.572499999999999787, 0.5224999999999999645, -3.983716381840567866 ) ) ;
#838 = FACE_OUTER_BOUND ( 'NONE', #703, .T. ) ;
#839 = ORIENTED_EDGE ( 'NONE', *, *, #682, .F. ) ;
#840 = LINE ( 'NONE', #744, #181 ) ;
#841 = DIRECTION ( 'NONE',  ( 0.0000000000000000000, 0.0000000000000000000, 1.000000000000000000 ) ) ;
#842 = ORIENTED_EDGE ( 'NONE', *, *, #175, .T. ) ;
#843 = DIRECTION ( 'NONE',  ( 9.856383386231858827E-17, 1.000000000000000000, 0.0000000000000000000 ) ) ;
#844 = EDGE_CURVE ( 'NONE', #119, #433, #775, .T. ) ;
#845 = CARTESIAN_POINT ( 'NONE',  ( 1.099999999999999645, 0.02749999999999994463, 0.8000000000000000444 ) ) ;
#846 = VECTOR ( 'NONE', #639, 1000.000000000000000 ) ;
#847 = CARTESIAN_POINT ( 'NONE',  ( 0.0000000000000000000, 0.0000000000000000000, -0.8000000000000000444 ) ) ;
#848 = ORIENTED_EDGE ( 'NONE', *, *, #873, .F. ) ;
#849 = ORIENTED_EDGE ( 'NONE', *, *, #175, .F. ) ;
#850 = CARTESIAN_POINT ( 'NONE',  ( -1.599999999999999645, -1.959434878635764737E-16, 0.8000000000000000444 ) ) ;
#851 = ORIENTED_EDGE ( 'NONE', *, *, #135, .T. ) ;
#852 = CARTESIAN_POINT ( 'NONE',  ( 1.099999999999999201, -2.197794101747088114, -0.8000000000000000444 ) ) ;
#853 = EDGE_CURVE ( 'NONE', #802, #194, #644, .T. ) ;
#854 = ORIENTED_EDGE ( 'NONE', *, *, #75, .F. ) ;
#855 = CARTESIAN_POINT ( 'NONE',  ( 1.099999999999999645, 0.02749999999999994463, 0.8000000000000000444 ) ) ;
#856 = PRESENTATION_LAYER_ASSIGNMENT (  '', '', ( #251 ) ) ;
#857 = EDGE_CURVE ( 'NONE', #656, #551, #961, .T. ) ;
#858 = ORIENTED_EDGE ( 'NONE', *, *, #721, .F. ) ;
#859 = ORIENTED_EDGE ( 'NONE', *, *, #560, .T. ) ;
#860 = EDGE_LOOP ( 'NONE', ( #375, #808, #180, #716, #112, #198, #152, #559 ) ) ;
#861 = DIRECTION ( 'NONE',  ( -1.355252715606880789E-16, 0.0000000000000000000, -1.000000000000000000 ) ) ;
#862 = ORIENTED_EDGE ( 'NONE', *, *, #470, .F. ) ;
#863 = AXIS2_PLACEMENT_3D ( 'NONE', #585, #126, #706 ) ;
#864 = LINE ( 'NONE', #777, #262 ) ;
#865 = DIRECTION ( 'NONE',  ( -0.0000000000000000000, -0.0000000000000000000, -1.000000000000000000 ) ) ;
#866 = DIRECTION ( 'NONE',  ( -1.219010379117300040E-16, -1.000000000000000000, 0.0000000000000000000 ) ) ;
#867 = EDGE_LOOP ( 'NONE', ( #715, #630, #617, #127 ) ) ;
#868 = FACE_OUTER_BOUND ( 'NONE', #919, .T. ) ;
#869 = ORIENTED_EDGE ( 'NONE', *, *, #121, .F. ) ;
#870 = EDGE_CURVE ( 'NONE', #551, #648, #23, .T. ) ;
#871 = CARTESIAN_POINT ( 'NONE',  ( 1.572499999999999787, 0.5224999999999999645, -3.983716381840567866 ) ) ;
#872 = COLOUR_RGB ( '',0.7921568627450980005, 0.8196078431372548767, 0.9333333333333333481 ) ;
#873 = EDGE_CURVE ( 'NONE', #383, #93, #358, .T. ) ;
#874 = CARTESIAN_POINT ( 'NONE',  ( 1.599999999999999645, 0.5499999999999998224, 0.8000000000000000444 ) ) ;
#875 = DIRECTION ( 'NONE',  ( 0.0000000000000000000, 1.000000000000000000, 0.0000000000000000000 ) ) ;
#876 = ORIENTED_EDGE ( 'NONE', *, *, #121, .T. ) ;
#877 = LINE ( 'NONE', #403, #416 ) ;
#878 = COLOUR_RGB ( '',0.2509803921568627416, 0.2509803921568627416, 0.2509803921568627416 ) ;
#879 = VERTEX_POINT ( 'NONE', #583 ) ;
#880 = DIRECTION ( 'NONE',  ( -2.168404344971008868E-16, -1.000000000000000000, 0.0000000000000000000 ) ) ;
#881 = CARTESIAN_POINT ( 'NONE',  ( 1.572499999999999787, 0.02749999999999988565, 0.8000000000000000444 ) ) ;
#882 = VECTOR ( 'NONE', #717, 1000.000000000000000 ) ;
#883 = EDGE_CURVE ( 'NONE', #376, #318, #723, .T. ) ;
#884 = ORIENTED_EDGE ( 'NONE', *, *, #674, .T. ) ;
#885 = CARTESIAN_POINT ( 'NONE',  ( 0.0000000000000000000, 0.0000000000000000000, -0.8000000000000000444 ) ) ;
#886 = VECTOR ( 'NONE', #322, 1000.000000000000000 ) ;
#887 = ADVANCED_FACE ( 'NONE', ( #143 ), #726, .F. ) ;
#888 = STYLED_ITEM ( 'NONE', ( #832 ), #767 ) ;
#889 = CARTESIAN_POINT ( 'NONE',  ( -1.572499999999999787, 0.02749999999999988565, -0.7999999999999999334 ) ) ;
#890 = ORIENTED_EDGE ( 'NONE', *, *, #857, .F. ) ;
#891 = DIRECTION ( 'NONE',  ( -3.918869757271529967E-16, 1.000000000000000000, 0.0000000000000000000 ) ) ;
#892 = DIRECTION ( 'NONE',  ( 0.0000000000000000000, 0.0000000000000000000, 1.000000000000000000 ) ) ;
#893 = DIRECTION ( 'NONE',  ( -0.0000000000000000000, -0.0000000000000000000, -1.000000000000000000 ) ) ;
#894 = EDGE_CURVE ( 'NONE', #92, #466, #710, .T. ) ;
#895 = VECTOR ( 'NONE', #53, 1000.000000000000000 ) ;
#896 = CARTESIAN_POINT ( 'NONE',  ( -1.099999999999999645, 0.5499999999999999334, -0.8000000000000000444 ) ) ;
#897 = VECTOR ( 'NONE', #372, 1000.000000000000000 ) ;
#898 = ORIENTED_EDGE ( 'NONE', *, *, #66, .F. ) ;
#899 = DIRECTION ( 'NONE',  ( 0.0000000000000000000, 0.0000000000000000000, 1.000000000000000000 ) ) ;
#900 = ADVANCED_FACE ( 'NONE', ( #923 ), #286, .T. ) ;
#901 = AXIS2_PLACEMENT_3D ( 'NONE', #489, #18, #562 ) ;
#902 = VECTOR ( 'NONE', #638, 1000.000000000000000 ) ;
#903 = CARTESIAN_POINT ( 'NONE',  ( 1.099999999999999423, 0.5500000000000000444, -0.8000000000000000444 ) ) ;
#904 = VERTEX_POINT ( 'NONE', #279 ) ;
#905 = CARTESIAN_POINT ( 'NONE',  ( 1.599999999999999645, 0.5499999999999998224, -0.8000000000000000444 ) ) ;
#906 =( GEOMETRIC_REPRESENTATION_CONTEXT ( 3 ) GLOBAL_UNCERTAINTY_ASSIGNED_CONTEXT ( ( #114 ) ) GLOBAL_UNIT_ASSIGNED_CONTEXT ( ( #730, #51, #947 ) ) REPRESENTATION_CONTEXT ( 'NONE', 'WORKASPACE' ) );
#907 = EDGE_CURVE ( 'NONE', #360, #834, #708, .T. ) ;
#908 = DIRECTION ( 'NONE',  ( 0.0000000000000000000, 1.000000000000000000, 0.0000000000000000000 ) ) ;
#909 = PLANE ( 'NONE',  #597 ) ;
#910 = DIRECTION ( 'NONE',  ( -0.0000000000000000000, 1.000000000000000000, -0.0000000000000000000 ) ) ;
#911 = LINE ( 'NONE', #70, #806 ) ;
#912 = DIRECTION ( 'NONE',  ( 1.000000000000000000, -2.168404344971008868E-16, -0.0000000000000000000 ) ) ;
#913 = ORIENTED_EDGE ( 'NONE', *, *, #19, .T. ) ;
#914 = DIRECTION ( 'NONE',  ( 1.355252715606880789E-16, 0.0000000000000000000, 1.000000000000000000 ) ) ;
#915 = CARTESIAN_POINT ( 'NONE',  ( 0.0000000000000000000, 0.0000000000000000000, 0.8000000000000000444 ) ) ;
#916 = CARTESIAN_POINT ( 'NONE',  ( 1.572499999999999787, 0.02749999999999988565, -3.983716381840567866 ) ) ;
#917 = DIRECTION ( 'NONE',  ( 1.000000000000000000, 2.168404344971008868E-16, 0.0000000000000000000 ) ) ;
#918 = VECTOR ( 'NONE', #557, 1000.000000000000000 ) ;
#919 = EDGE_LOOP ( 'NONE', ( #390, #480, #839, #233 ) ) ;
#920 = CARTESIAN_POINT ( 'NONE',  ( -1.099999999999999867, -2.197794101747088114, -0.8000000000000000444 ) ) ;
#921 = DIRECTION ( 'NONE',  ( -1.000000000000000000, -2.168404344971008868E-16, -0.0000000000000000000 ) ) ;
#922 = DIRECTION ( 'NONE',  ( 9.856383386231858827E-17, 1.000000000000000000, 0.0000000000000000000 ) ) ;
#923 = FACE_OUTER_BOUND ( 'NONE', #211, .T. ) ;
#924 = VECTOR ( 'NONE', #861, 1000.000000000000000 ) ;
#925 = EDGE_CURVE ( 'NONE', #603, #493, #158, .T. ) ;
#926 = ORIENTED_EDGE ( 'NONE', *, *, #565, .T. ) ;
#927 = AXIS2_PLACEMENT_3D ( 'NONE', #227, #754, #306 ) ;
#928 = DIRECTION ( 'NONE',  ( -0.0000000000000000000, 1.000000000000000000, -0.0000000000000000000 ) ) ;
#929 = CARTESIAN_POINT ( 'NONE',  ( -1.099999999999999645, 0.5224999999999999645, -0.8000000000000000444 ) ) ;
#930 = ORIENTED_EDGE ( 'NONE', *, *, #727, .F. ) ;
#931 = UNCERTAINTY_MEASURE_WITH_UNIT (LENGTH_MEASURE( 1.000000000000000082E-05 ), #129, 'distance_accuracy_value', 'NONE');
#932 = EDGE_CURVE ( 'NONE', #124, #341, #413, .T. ) ;
#933 = DIRECTION ( 'NONE',  ( -0.0000000000000000000, -0.0000000000000000000, -1.000000000000000000 ) ) ;
#934 = AXIS2_PLACEMENT_3D ( 'NONE', #105, #14, #157 ) ;
#935 = DIRECTION ( 'NONE',  ( 0.0000000000000000000, -0.0000000000000000000, -1.000000000000000000 ) ) ;
#936 = CARTESIAN_POINT ( 'NONE',  ( -1.599999999999999645, 0.5499999999999998224, -0.8000000000000000444 ) ) ;
#937 = FACE_OUTER_BOUND ( 'NONE', #867, .T. ) ;
#938 = LINE ( 'NONE', #401, #746 ) ;
#939 = ORIENTED_EDGE ( 'NONE', *, *, #662, .T. ) ;
#940 = EDGE_CURVE ( 'NONE', #904, #594, #380, .T. ) ;
#941 = ORIENTED_EDGE ( 'NONE', *, *, #237, .T. ) ;
#942 = ORIENTED_EDGE ( 'NONE', *, *, #940, .T. ) ;
#943 = CARTESIAN_POINT ( 'NONE',  ( 1.599999999999999645, 0.5499999999999998224, 0.8000000000000000444 ) ) ;
#944 = SURFACE_STYLE_FILL_AREA ( #144 ) ;
#945 = VECTOR ( 'NONE', #933, 1000.000000000000000 ) ;
#946 = CARTESIAN_POINT ( 'NONE',  ( -1.099999999999999867, 0.5224999999999999645, -0.8000000000000000444 ) ) ;
#947 =( NAMED_UNIT ( * ) SI_UNIT ( $, .STERADIAN. ) SOLID_ANGLE_UNIT ( ) );
#948 = DIRECTION ( 'NONE',  ( 1.000000000000000000, 0.0000000000000000000, 0.0000000000000000000 ) ) ;
#949 = EDGE_CURVE ( 'NONE', #141, #648, #733, .T. ) ;
#950 = LINE ( 'NONE', #165, #918 ) ;
#951 = EDGE_LOOP ( 'NONE', ( #477, #315, #827, #580 ) ) ;
#952 = LINE ( 'NONE', #625, #902 ) ;
#953 = DIRECTION ( 'NONE',  ( 0.0000000000000000000, -0.0000000000000000000, -1.000000000000000000 ) ) ;
#954 = VECTOR ( 'NONE', #492, 1000.000000000000000 ) ;
#955 = PLANE ( 'NONE',  #140 ) ;
#956 = DIRECTION ( 'NONE',  ( 1.000000000000000000, 1.219010379117300040E-16, 0.0000000000000000000 ) ) ;
#957 = CARTESIAN_POINT ( 'NONE',  ( -1.572499999999999787, 0.5224999999999999645, 0.8000000000000000444 ) ) ;
#958 = PLANE ( 'NONE',  #790 ) ;
#959 = LINE ( 'NONE', #916, #173 ) ;
#960 = DIRECTION ( 'NONE',  ( 0.0000000000000000000, 1.000000000000000000, 0.0000000000000000000 ) ) ;
#961 = LINE ( 'NONE', #347, #215 ) ;
ENDSEC;
END-ISO-10303-21;
