ISO-10303-21;
HEADER;
FILE_DESCRIPTION(('FreeCAD Model'),'2;1');
FILE_NAME('Open CASCADE Shape Model','2024-09-29T01:28:38',('Author'),(
    ''),'Open CASCADE STEP processor 7.6','FreeCAD','Unknown');
FILE_SCHEMA(('AUTOMOTIVE_DESIGN { 1 0 10303 214 1 1 1 1 }'));
ENDSEC;
DATA;
#1 = APPLICATION_PROTOCOL_DEFINITION('international standard',
  'automotive_design',2000,#2);
#2 = APPLICATION_CONTEXT(
  'core data for automotive mechanical design processes');
#3 = SHAPE_DEFINITION_REPRESENTATION(#4,#10);
#4 = PRODUCT_DEFINITION_SHAPE('','',#5);
#5 = PRODUCT_DEFINITION('design','',#6,#9);
#6 = PRODUCT_DEFINITION_FORMATION('','',#7);
#7 = PRODUCT('SSD M2 22110','SSD M2 22110','',(#8));
#8 = PRODUCT_CONTEXT('',#2,'mechanical');
#9 = PRODUCT_DEFINITION_CONTEXT('part definition',#2,'design');
#10 = SHAPE_REPRESENTATION('',(#11,#15,#165,#719),#869);
#11 = AXIS2_PLACEMENT_3D('',#12,#13,#14);
#12 = CARTESIAN_POINT('',(0.,0.,0.));
#13 = DIRECTION('',(0.,0.,1.));
#14 = DIRECTION('',(1.,0.,-0.));
#15 = MANIFOLD_SOLID_BREP('',#16);
#16 = CLOSED_SHELL('',(#17,#57,#88,#119,#141,#153));
#17 = ADVANCED_FACE('',(#18),#52,.T.);
#18 = FACE_BOUND('',#19,.T.);
#19 = EDGE_LOOP('',(#20,#30,#38,#46));
#20 = ORIENTED_EDGE('',*,*,#21,.T.);
#21 = EDGE_CURVE('',#22,#24,#26,.T.);
#22 = VERTEX_POINT('',#23);
#23 = CARTESIAN_POINT('',(-51.,11.,2.15));
#24 = VERTEX_POINT('',#25);
#25 = CARTESIAN_POINT('',(-51.,11.,3.5));
#26 = LINE('',#27,#28);
#27 = CARTESIAN_POINT('',(-51.,11.,2.15));
#28 = VECTOR('',#29,1.);
#29 = DIRECTION('',(0.,0.,1.));
#30 = ORIENTED_EDGE('',*,*,#31,.T.);
#31 = EDGE_CURVE('',#24,#32,#34,.T.);
#32 = VERTEX_POINT('',#33);
#33 = CARTESIAN_POINT('',(51.,11.,3.5));
#34 = LINE('',#35,#36);
#35 = CARTESIAN_POINT('',(-51.,11.,3.5));
#36 = VECTOR('',#37,1.);
#37 = DIRECTION('',(1.,0.,0.));
#38 = ORIENTED_EDGE('',*,*,#39,.F.);
#39 = EDGE_CURVE('',#40,#32,#42,.T.);
#40 = VERTEX_POINT('',#41);
#41 = CARTESIAN_POINT('',(51.,11.,2.15));
#42 = LINE('',#43,#44);
#43 = CARTESIAN_POINT('',(51.,11.,2.15));
#44 = VECTOR('',#45,1.);
#45 = DIRECTION('',(0.,0.,1.));
#46 = ORIENTED_EDGE('',*,*,#47,.F.);
#47 = EDGE_CURVE('',#22,#40,#48,.T.);
#48 = LINE('',#49,#50);
#49 = CARTESIAN_POINT('',(-51.,11.,2.15));
#50 = VECTOR('',#51,1.);
#51 = DIRECTION('',(1.,0.,0.));
#52 = PLANE('',#53);
#53 = AXIS2_PLACEMENT_3D('',#54,#55,#56);
#54 = CARTESIAN_POINT('',(-51.,11.,2.15));
#55 = DIRECTION('',(0.,1.,0.));
#56 = DIRECTION('',(1.,0.,0.));
#57 = ADVANCED_FACE('',(#58),#83,.T.);
#58 = FACE_BOUND('',#59,.T.);
#59 = EDGE_LOOP('',(#60,#61,#69,#77));
#60 = ORIENTED_EDGE('',*,*,#39,.T.);
#61 = ORIENTED_EDGE('',*,*,#62,.T.);
#62 = EDGE_CURVE('',#32,#63,#65,.T.);
#63 = VERTEX_POINT('',#64);
#64 = CARTESIAN_POINT('',(51.,-11.,3.5));
#65 = LINE('',#66,#67);
#66 = CARTESIAN_POINT('',(51.,11.,3.5));
#67 = VECTOR('',#68,1.);
#68 = DIRECTION('',(0.,-1.,0.));
#69 = ORIENTED_EDGE('',*,*,#70,.F.);
#70 = EDGE_CURVE('',#71,#63,#73,.T.);
#71 = VERTEX_POINT('',#72);
#72 = CARTESIAN_POINT('',(51.,-11.,2.15));
#73 = LINE('',#74,#75);
#74 = CARTESIAN_POINT('',(51.,-11.,2.15));
#75 = VECTOR('',#76,1.);
#76 = DIRECTION('',(0.,0.,1.));
#77 = ORIENTED_EDGE('',*,*,#78,.F.);
#78 = EDGE_CURVE('',#40,#71,#79,.T.);
#79 = LINE('',#80,#81);
#80 = CARTESIAN_POINT('',(51.,11.,2.15));
#81 = VECTOR('',#82,1.);
#82 = DIRECTION('',(0.,-1.,0.));
#83 = PLANE('',#84);
#84 = AXIS2_PLACEMENT_3D('',#85,#86,#87);
#85 = CARTESIAN_POINT('',(51.,11.,2.15));
#86 = DIRECTION('',(1.,0.,0.));
#87 = DIRECTION('',(0.,-1.,0.));
#88 = ADVANCED_FACE('',(#89),#114,.T.);
#89 = FACE_BOUND('',#90,.T.);
#90 = EDGE_LOOP('',(#91,#92,#100,#108));
#91 = ORIENTED_EDGE('',*,*,#70,.T.);
#92 = ORIENTED_EDGE('',*,*,#93,.T.);
#93 = EDGE_CURVE('',#63,#94,#96,.T.);
#94 = VERTEX_POINT('',#95);
#95 = CARTESIAN_POINT('',(-51.,-11.,3.5));
#96 = LINE('',#97,#98);
#97 = CARTESIAN_POINT('',(51.,-11.,3.5));
#98 = VECTOR('',#99,1.);
#99 = DIRECTION('',(-1.,0.,0.));
#100 = ORIENTED_EDGE('',*,*,#101,.F.);
#101 = EDGE_CURVE('',#102,#94,#104,.T.);
#102 = VERTEX_POINT('',#103);
#103 = CARTESIAN_POINT('',(-51.,-11.,2.15));
#104 = LINE('',#105,#106);
#105 = CARTESIAN_POINT('',(-51.,-11.,2.15));
#106 = VECTOR('',#107,1.);
#107 = DIRECTION('',(0.,0.,1.));
#108 = ORIENTED_EDGE('',*,*,#109,.F.);
#109 = EDGE_CURVE('',#71,#102,#110,.T.);
#110 = LINE('',#111,#112);
#111 = CARTESIAN_POINT('',(51.,-11.,2.15));
#112 = VECTOR('',#113,1.);
#113 = DIRECTION('',(-1.,0.,0.));
#114 = PLANE('',#115);
#115 = AXIS2_PLACEMENT_3D('',#116,#117,#118);
#116 = CARTESIAN_POINT('',(51.,-11.,2.15));
#117 = DIRECTION('',(0.,-1.,0.));
#118 = DIRECTION('',(-1.,0.,0.));
#119 = ADVANCED_FACE('',(#120),#136,.T.);
#120 = FACE_BOUND('',#121,.T.);
#121 = EDGE_LOOP('',(#122,#123,#129,#130));
#122 = ORIENTED_EDGE('',*,*,#101,.T.);
#123 = ORIENTED_EDGE('',*,*,#124,.T.);
#124 = EDGE_CURVE('',#94,#24,#125,.T.);
#125 = LINE('',#126,#127);
#126 = CARTESIAN_POINT('',(-51.,-11.,3.5));
#127 = VECTOR('',#128,1.);
#128 = DIRECTION('',(0.,1.,0.));
#129 = ORIENTED_EDGE('',*,*,#21,.F.);
#130 = ORIENTED_EDGE('',*,*,#131,.F.);
#131 = EDGE_CURVE('',#102,#22,#132,.T.);
#132 = LINE('',#133,#134);
#133 = CARTESIAN_POINT('',(-51.,-11.,2.15));
#134 = VECTOR('',#135,1.);
#135 = DIRECTION('',(0.,1.,0.));
#136 = PLANE('',#137);
#137 = AXIS2_PLACEMENT_3D('',#138,#139,#140);
#138 = CARTESIAN_POINT('',(-51.,-11.,2.15));
#139 = DIRECTION('',(-1.,0.,0.));
#140 = DIRECTION('',(0.,1.,0.));
#141 = ADVANCED_FACE('',(#142),#148,.F.);
#142 = FACE_BOUND('',#143,.T.);
#143 = EDGE_LOOP('',(#144,#145,#146,#147));
#144 = ORIENTED_EDGE('',*,*,#47,.T.);
#145 = ORIENTED_EDGE('',*,*,#78,.T.);
#146 = ORIENTED_EDGE('',*,*,#109,.T.);
#147 = ORIENTED_EDGE('',*,*,#131,.T.);
#148 = PLANE('',#149);
#149 = AXIS2_PLACEMENT_3D('',#150,#151,#152);
#150 = CARTESIAN_POINT('',(0.,0.,2.15));
#151 = DIRECTION('',(0.,0.,1.));
#152 = DIRECTION('',(1.,0.,0.));
#153 = ADVANCED_FACE('',(#154),#160,.T.);
#154 = FACE_BOUND('',#155,.F.);
#155 = EDGE_LOOP('',(#156,#157,#158,#159));
#156 = ORIENTED_EDGE('',*,*,#31,.T.);
#157 = ORIENTED_EDGE('',*,*,#62,.T.);
#158 = ORIENTED_EDGE('',*,*,#93,.T.);
#159 = ORIENTED_EDGE('',*,*,#124,.T.);
#160 = PLANE('',#161);
#161 = AXIS2_PLACEMENT_3D('',#162,#163,#164);
#162 = CARTESIAN_POINT('',(0.,0.,3.5));
#163 = DIRECTION('',(0.,0.,1.));
#164 = DIRECTION('',(1.,0.,0.));
#165 = MANIFOLD_SOLID_BREP('',#166);
#166 = CLOSED_SHELL('',(#167,#207,#238,#271,#302,#333,#364,#397,#428,
    #459,#490,#523,#554,#585,#616,#649,#671,#695));
#167 = ADVANCED_FACE('',(#168),#202,.T.);
#168 = FACE_BOUND('',#169,.T.);
#169 = EDGE_LOOP('',(#170,#180,#188,#196));
#170 = ORIENTED_EDGE('',*,*,#171,.T.);
#171 = EDGE_CURVE('',#172,#174,#176,.T.);
#172 = VERTEX_POINT('',#173);
#173 = CARTESIAN_POINT('',(-51.,11.,1.35));
#174 = VERTEX_POINT('',#175);
#175 = CARTESIAN_POINT('',(-51.,11.,2.15));
#176 = LINE('',#177,#178);
#177 = CARTESIAN_POINT('',(-51.,11.,1.35));
#178 = VECTOR('',#179,1.);
#179 = DIRECTION('',(0.,0.,1.));
#180 = ORIENTED_EDGE('',*,*,#181,.T.);
#181 = EDGE_CURVE('',#174,#182,#184,.T.);
#182 = VERTEX_POINT('',#183);
#183 = CARTESIAN_POINT('',(55.,11.,2.15));
#184 = LINE('',#185,#186);
#185 = CARTESIAN_POINT('',(-51.,11.,2.15));
#186 = VECTOR('',#187,1.);
#187 = DIRECTION('',(1.,0.,0.));
#188 = ORIENTED_EDGE('',*,*,#189,.F.);
#189 = EDGE_CURVE('',#190,#182,#192,.T.);
#190 = VERTEX_POINT('',#191);
#191 = CARTESIAN_POINT('',(55.,11.,1.35));
#192 = LINE('',#193,#194);
#193 = CARTESIAN_POINT('',(55.,11.,1.35));
#194 = VECTOR('',#195,1.);
#195 = DIRECTION('',(0.,0.,1.));
#196 = ORIENTED_EDGE('',*,*,#197,.F.);
#197 = EDGE_CURVE('',#172,#190,#198,.T.);
#198 = LINE('',#199,#200);
#199 = CARTESIAN_POINT('',(-51.,11.,1.35));
#200 = VECTOR('',#201,1.);
#201 = DIRECTION('',(1.,0.,0.));
#202 = PLANE('',#203);
#203 = AXIS2_PLACEMENT_3D('',#204,#205,#206);
#204 = CARTESIAN_POINT('',(-51.,11.,1.35));
#205 = DIRECTION('',(0.,1.,0.));
#206 = DIRECTION('',(1.,0.,0.));
#207 = ADVANCED_FACE('',(#208),#233,.T.);
#208 = FACE_BOUND('',#209,.T.);
#209 = EDGE_LOOP('',(#210,#211,#219,#227));
#210 = ORIENTED_EDGE('',*,*,#189,.T.);
#211 = ORIENTED_EDGE('',*,*,#212,.T.);
#212 = EDGE_CURVE('',#182,#213,#215,.T.);
#213 = VERTEX_POINT('',#214);
#214 = CARTESIAN_POINT('',(55.,1.75,2.15));
#215 = LINE('',#216,#217);
#216 = CARTESIAN_POINT('',(55.,11.,2.15));
#217 = VECTOR('',#218,1.);
#218 = DIRECTION('',(0.,-1.,0.));
#219 = ORIENTED_EDGE('',*,*,#220,.F.);
#220 = EDGE_CURVE('',#221,#213,#223,.T.);
#221 = VERTEX_POINT('',#222);
#222 = CARTESIAN_POINT('',(55.,1.75,1.35));
#223 = LINE('',#224,#225);
#224 = CARTESIAN_POINT('',(55.,1.75,1.35));
#225 = VECTOR('',#226,1.);
#226 = DIRECTION('',(0.,0.,1.));
#227 = ORIENTED_EDGE('',*,*,#228,.F.);
#228 = EDGE_CURVE('',#190,#221,#229,.T.);
#229 = LINE('',#230,#231);
#230 = CARTESIAN_POINT('',(55.,11.,1.35));
#231 = VECTOR('',#232,1.);
#232 = DIRECTION('',(0.,-1.,0.));
#233 = PLANE('',#234);
#234 = AXIS2_PLACEMENT_3D('',#235,#236,#237);
#235 = CARTESIAN_POINT('',(55.,11.,1.35));
#236 = DIRECTION('',(1.,0.,0.));
#237 = DIRECTION('',(0.,-1.,0.));
#238 = ADVANCED_FACE('',(#239),#266,.F.);
#239 = FACE_BOUND('',#240,.T.);
#240 = EDGE_LOOP('',(#241,#242,#251,#259));
#241 = ORIENTED_EDGE('',*,*,#220,.T.);
#242 = ORIENTED_EDGE('',*,*,#243,.T.);
#243 = EDGE_CURVE('',#213,#244,#246,.T.);
#244 = VERTEX_POINT('',#245);
#245 = CARTESIAN_POINT('',(55.,-1.75,2.15));
#246 = CIRCLE('',#247,1.75);
#247 = AXIS2_PLACEMENT_3D('',#248,#249,#250);
#248 = CARTESIAN_POINT('',(55.,0.,2.15));
#249 = DIRECTION('',(0.,0.,1.));
#250 = DIRECTION('',(1.,0.,0.));
#251 = ORIENTED_EDGE('',*,*,#252,.F.);
#252 = EDGE_CURVE('',#253,#244,#255,.T.);
#253 = VERTEX_POINT('',#254);
#254 = CARTESIAN_POINT('',(55.,-1.75,1.35));
#255 = LINE('',#256,#257);
#256 = CARTESIAN_POINT('',(55.,-1.75,1.35));
#257 = VECTOR('',#258,1.);
#258 = DIRECTION('',(0.,0.,1.));
#259 = ORIENTED_EDGE('',*,*,#260,.F.);
#260 = EDGE_CURVE('',#221,#253,#261,.T.);
#261 = CIRCLE('',#262,1.75);
#262 = AXIS2_PLACEMENT_3D('',#263,#264,#265);
#263 = CARTESIAN_POINT('',(55.,0.,1.35));
#264 = DIRECTION('',(0.,0.,1.));
#265 = DIRECTION('',(1.,0.,0.));
#266 = CYLINDRICAL_SURFACE('',#267,1.75);
#267 = AXIS2_PLACEMENT_3D('',#268,#269,#270);
#268 = CARTESIAN_POINT('',(55.,0.,1.35));
#269 = DIRECTION('',(-0.,-0.,-1.));
#270 = DIRECTION('',(1.,0.,0.));
#271 = ADVANCED_FACE('',(#272),#297,.T.);
#272 = FACE_BOUND('',#273,.T.);
#273 = EDGE_LOOP('',(#274,#275,#283,#291));
#274 = ORIENTED_EDGE('',*,*,#252,.T.);
#275 = ORIENTED_EDGE('',*,*,#276,.T.);
#276 = EDGE_CURVE('',#244,#277,#279,.T.);
#277 = VERTEX_POINT('',#278);
#278 = CARTESIAN_POINT('',(55.,-11.,2.15));
#279 = LINE('',#280,#281);
#280 = CARTESIAN_POINT('',(55.,-1.75,2.15));
#281 = VECTOR('',#282,1.);
#282 = DIRECTION('',(0.,-1.,0.));
#283 = ORIENTED_EDGE('',*,*,#284,.F.);
#284 = EDGE_CURVE('',#285,#277,#287,.T.);
#285 = VERTEX_POINT('',#286);
#286 = CARTESIAN_POINT('',(55.,-11.,1.35));
#287 = LINE('',#288,#289);
#288 = CARTESIAN_POINT('',(55.,-11.,1.35));
#289 = VECTOR('',#290,1.);
#290 = DIRECTION('',(0.,0.,1.));
#291 = ORIENTED_EDGE('',*,*,#292,.F.);
#292 = EDGE_CURVE('',#253,#285,#293,.T.);
#293 = LINE('',#294,#295);
#294 = CARTESIAN_POINT('',(55.,-1.75,1.35));
#295 = VECTOR('',#296,1.);
#296 = DIRECTION('',(0.,-1.,0.));
#297 = PLANE('',#298);
#298 = AXIS2_PLACEMENT_3D('',#299,#300,#301);
#299 = CARTESIAN_POINT('',(55.,-1.75,1.35));
#300 = DIRECTION('',(1.,0.,0.));
#301 = DIRECTION('',(0.,-1.,0.));
#302 = ADVANCED_FACE('',(#303),#328,.T.);
#303 = FACE_BOUND('',#304,.T.);
#304 = EDGE_LOOP('',(#305,#306,#314,#322));
#305 = ORIENTED_EDGE('',*,*,#284,.T.);
#306 = ORIENTED_EDGE('',*,*,#307,.T.);
#307 = EDGE_CURVE('',#277,#308,#310,.T.);
#308 = VERTEX_POINT('',#309);
#309 = CARTESIAN_POINT('',(-51.,-11.,2.15));
#310 = LINE('',#311,#312);
#311 = CARTESIAN_POINT('',(55.,-11.,2.15));
#312 = VECTOR('',#313,1.);
#313 = DIRECTION('',(-1.,0.,0.));
#314 = ORIENTED_EDGE('',*,*,#315,.F.);
#315 = EDGE_CURVE('',#316,#308,#318,.T.);
#316 = VERTEX_POINT('',#317);
#317 = CARTESIAN_POINT('',(-51.,-11.,1.35));
#318 = LINE('',#319,#320);
#319 = CARTESIAN_POINT('',(-51.,-11.,1.35));
#320 = VECTOR('',#321,1.);
#321 = DIRECTION('',(0.,0.,1.));
#322 = ORIENTED_EDGE('',*,*,#323,.F.);
#323 = EDGE_CURVE('',#285,#316,#324,.T.);
#324 = LINE('',#325,#326);
#325 = CARTESIAN_POINT('',(55.,-11.,1.35));
#326 = VECTOR('',#327,1.);
#327 = DIRECTION('',(-1.,0.,0.));
#328 = PLANE('',#329);
#329 = AXIS2_PLACEMENT_3D('',#330,#331,#332);
#330 = CARTESIAN_POINT('',(55.,-11.,1.35));
#331 = DIRECTION('',(0.,-1.,0.));
#332 = DIRECTION('',(-1.,0.,0.));
#333 = ADVANCED_FACE('',(#334),#359,.F.);
#334 = FACE_BOUND('',#335,.F.);
#335 = EDGE_LOOP('',(#336,#346,#352,#353));
#336 = ORIENTED_EDGE('',*,*,#337,.T.);
#337 = EDGE_CURVE('',#338,#340,#342,.T.);
#338 = VERTEX_POINT('',#339);
#339 = CARTESIAN_POINT('',(-51.,-10.425,1.35));
#340 = VERTEX_POINT('',#341);
#341 = CARTESIAN_POINT('',(-51.,-10.425,2.15));
#342 = LINE('',#343,#344);
#343 = CARTESIAN_POINT('',(-51.,-10.425,1.35));
#344 = VECTOR('',#345,1.);
#345 = DIRECTION('',(0.,0.,1.));
#346 = ORIENTED_EDGE('',*,*,#347,.T.);
#347 = EDGE_CURVE('',#340,#308,#348,.T.);
#348 = LINE('',#349,#350);
#349 = CARTESIAN_POINT('',(-51.,-10.425,2.15));
#350 = VECTOR('',#351,1.);
#351 = DIRECTION('',(0.,-1.,0.));
#352 = ORIENTED_EDGE('',*,*,#315,.F.);
#353 = ORIENTED_EDGE('',*,*,#354,.F.);
#354 = EDGE_CURVE('',#338,#316,#355,.T.);
#355 = LINE('',#356,#357);
#356 = CARTESIAN_POINT('',(-51.,-10.425,1.35));
#357 = VECTOR('',#358,1.);
#358 = DIRECTION('',(0.,-1.,0.));
#359 = PLANE('',#360);
#360 = AXIS2_PLACEMENT_3D('',#361,#362,#363);
#361 = CARTESIAN_POINT('',(-51.,-10.425,1.35));
#362 = DIRECTION('',(1.,0.,0.));
#363 = DIRECTION('',(0.,-1.,0.));
#364 = ADVANCED_FACE('',(#365),#392,.F.);
#365 = FACE_BOUND('',#366,.T.);
#366 = EDGE_LOOP('',(#367,#368,#377,#385));
#367 = ORIENTED_EDGE('',*,*,#337,.T.);
#368 = ORIENTED_EDGE('',*,*,#369,.T.);
#369 = EDGE_CURVE('',#340,#370,#372,.T.);
#370 = VERTEX_POINT('',#371);
#371 = CARTESIAN_POINT('',(-51.5,-9.925,2.15));
#372 = CIRCLE('',#373,0.5);
#373 = AXIS2_PLACEMENT_3D('',#374,#375,#376);
#374 = CARTESIAN_POINT('',(-51.5,-10.425,2.15));
#375 = DIRECTION('',(0.,0.,1.));
#376 = DIRECTION('',(1.,0.,0.));
#377 = ORIENTED_EDGE('',*,*,#378,.F.);
#378 = EDGE_CURVE('',#379,#370,#381,.T.);
#379 = VERTEX_POINT('',#380);
#380 = CARTESIAN_POINT('',(-51.5,-9.925,1.35));
#381 = LINE('',#382,#383);
#382 = CARTESIAN_POINT('',(-51.5,-9.925,1.35));
#383 = VECTOR('',#384,1.);
#384 = DIRECTION('',(0.,0.,1.));
#385 = ORIENTED_EDGE('',*,*,#386,.F.);
#386 = EDGE_CURVE('',#338,#379,#387,.T.);
#387 = CIRCLE('',#388,0.5);
#388 = AXIS2_PLACEMENT_3D('',#389,#390,#391);
#389 = CARTESIAN_POINT('',(-51.5,-10.425,1.35));
#390 = DIRECTION('',(0.,0.,1.));
#391 = DIRECTION('',(1.,0.,0.));
#392 = CYLINDRICAL_SURFACE('',#393,0.5);
#393 = AXIS2_PLACEMENT_3D('',#394,#395,#396);
#394 = CARTESIAN_POINT('',(-51.5,-10.425,1.35));
#395 = DIRECTION('',(-0.,-0.,-1.));
#396 = DIRECTION('',(1.,0.,0.));
#397 = ADVANCED_FACE('',(#398),#423,.F.);
#398 = FACE_BOUND('',#399,.F.);
#399 = EDGE_LOOP('',(#400,#410,#416,#417));
#400 = ORIENTED_EDGE('',*,*,#401,.T.);
#401 = EDGE_CURVE('',#402,#404,#406,.T.);
#402 = VERTEX_POINT('',#403);
#403 = CARTESIAN_POINT('',(-55.,-9.925,1.35));
#404 = VERTEX_POINT('',#405);
#405 = CARTESIAN_POINT('',(-55.,-9.925,2.15));
#406 = LINE('',#407,#408);
#407 = CARTESIAN_POINT('',(-55.,-9.925,1.35));
#408 = VECTOR('',#409,1.);
#409 = DIRECTION('',(0.,0.,1.));
#410 = ORIENTED_EDGE('',*,*,#411,.T.);
#411 = EDGE_CURVE('',#404,#370,#412,.T.);
#412 = LINE('',#413,#414);
#413 = CARTESIAN_POINT('',(-55.,-9.925,2.15));
#414 = VECTOR('',#415,1.);
#415 = DIRECTION('',(1.,0.,0.));
#416 = ORIENTED_EDGE('',*,*,#378,.F.);
#417 = ORIENTED_EDGE('',*,*,#418,.F.);
#418 = EDGE_CURVE('',#402,#379,#419,.T.);
#419 = LINE('',#420,#421);
#420 = CARTESIAN_POINT('',(-55.,-9.925,1.35));
#421 = VECTOR('',#422,1.);
#422 = DIRECTION('',(1.,0.,0.));
#423 = PLANE('',#424);
#424 = AXIS2_PLACEMENT_3D('',#425,#426,#427);
#425 = CARTESIAN_POINT('',(-55.,-9.925,1.35));
#426 = DIRECTION('',(0.,1.,0.));
#427 = DIRECTION('',(1.,0.,0.));
#428 = ADVANCED_FACE('',(#429),#454,.F.);
#429 = FACE_BOUND('',#430,.F.);
#430 = EDGE_LOOP('',(#431,#441,#447,#448));
#431 = ORIENTED_EDGE('',*,*,#432,.T.);
#432 = EDGE_CURVE('',#433,#435,#437,.T.);
#433 = VERTEX_POINT('',#434);
#434 = CARTESIAN_POINT('',(-55.,5.525,1.35));
#435 = VERTEX_POINT('',#436);
#436 = CARTESIAN_POINT('',(-55.,5.525,2.15));
#437 = LINE('',#438,#439);
#438 = CARTESIAN_POINT('',(-55.,5.525,1.35));
#439 = VECTOR('',#440,1.);
#440 = DIRECTION('',(0.,0.,1.));
#441 = ORIENTED_EDGE('',*,*,#442,.T.);
#442 = EDGE_CURVE('',#435,#404,#443,.T.);
#443 = LINE('',#444,#445);
#444 = CARTESIAN_POINT('',(-55.,5.525,2.15));
#445 = VECTOR('',#446,1.);
#446 = DIRECTION('',(0.,-1.,0.));
#447 = ORIENTED_EDGE('',*,*,#401,.F.);
#448 = ORIENTED_EDGE('',*,*,#449,.F.);
#449 = EDGE_CURVE('',#433,#402,#450,.T.);
#450 = LINE('',#451,#452);
#451 = CARTESIAN_POINT('',(-55.,5.525,1.35));
#452 = VECTOR('',#453,1.);
#453 = DIRECTION('',(0.,-1.,0.));
#454 = PLANE('',#455);
#455 = AXIS2_PLACEMENT_3D('',#456,#457,#458);
#456 = CARTESIAN_POINT('',(-55.,5.525,1.35));
#457 = DIRECTION('',(1.,0.,0.));
#458 = DIRECTION('',(0.,-1.,0.));
#459 = ADVANCED_FACE('',(#460),#485,.F.);
#460 = FACE_BOUND('',#461,.F.);
#461 = EDGE_LOOP('',(#462,#472,#478,#479));
#462 = ORIENTED_EDGE('',*,*,#463,.T.);
#463 = EDGE_CURVE('',#464,#466,#468,.T.);
#464 = VERTEX_POINT('',#465);
#465 = CARTESIAN_POINT('',(-52.1,5.525,1.35));
#466 = VERTEX_POINT('',#467);
#467 = CARTESIAN_POINT('',(-52.1,5.525,2.15));
#468 = LINE('',#469,#470);
#469 = CARTESIAN_POINT('',(-52.1,5.525,1.35));
#470 = VECTOR('',#471,1.);
#471 = DIRECTION('',(0.,0.,1.));
#472 = ORIENTED_EDGE('',*,*,#473,.T.);
#473 = EDGE_CURVE('',#466,#435,#474,.T.);
#474 = LINE('',#475,#476);
#475 = CARTESIAN_POINT('',(-52.1,5.525,2.15));
#476 = VECTOR('',#477,1.);
#477 = DIRECTION('',(-1.,0.,0.));
#478 = ORIENTED_EDGE('',*,*,#432,.F.);
#479 = ORIENTED_EDGE('',*,*,#480,.F.);
#480 = EDGE_CURVE('',#464,#433,#481,.T.);
#481 = LINE('',#482,#483);
#482 = CARTESIAN_POINT('',(-52.1,5.525,1.35));
#483 = VECTOR('',#484,1.);
#484 = DIRECTION('',(-1.,0.,0.));
#485 = PLANE('',#486);
#486 = AXIS2_PLACEMENT_3D('',#487,#488,#489);
#487 = CARTESIAN_POINT('',(-52.1,5.525,1.35));
#488 = DIRECTION('',(0.,-1.,0.));
#489 = DIRECTION('',(-1.,0.,0.));
#490 = ADVANCED_FACE('',(#491),#518,.F.);
#491 = FACE_BOUND('',#492,.T.);
#492 = EDGE_LOOP('',(#493,#494,#503,#511));
#493 = ORIENTED_EDGE('',*,*,#463,.T.);
#494 = ORIENTED_EDGE('',*,*,#495,.T.);
#495 = EDGE_CURVE('',#466,#496,#498,.T.);
#496 = VERTEX_POINT('',#497);
#497 = CARTESIAN_POINT('',(-52.1,6.725,2.15));
#498 = CIRCLE('',#499,0.6);
#499 = AXIS2_PLACEMENT_3D('',#500,#501,#502);
#500 = CARTESIAN_POINT('',(-52.1,6.125,2.15));
#501 = DIRECTION('',(0.,0.,1.));
#502 = DIRECTION('',(1.,0.,0.));
#503 = ORIENTED_EDGE('',*,*,#504,.F.);
#504 = EDGE_CURVE('',#505,#496,#507,.T.);
#505 = VERTEX_POINT('',#506);
#506 = CARTESIAN_POINT('',(-52.1,6.725,1.35));
#507 = LINE('',#508,#509);
#508 = CARTESIAN_POINT('',(-52.1,6.725,1.35));
#509 = VECTOR('',#510,1.);
#510 = DIRECTION('',(0.,0.,1.));
#511 = ORIENTED_EDGE('',*,*,#512,.F.);
#512 = EDGE_CURVE('',#464,#505,#513,.T.);
#513 = CIRCLE('',#514,0.6);
#514 = AXIS2_PLACEMENT_3D('',#515,#516,#517);
#515 = CARTESIAN_POINT('',(-52.1,6.125,1.35));
#516 = DIRECTION('',(0.,0.,1.));
#517 = DIRECTION('',(1.,0.,0.));
#518 = CYLINDRICAL_SURFACE('',#519,0.6);
#519 = AXIS2_PLACEMENT_3D('',#520,#521,#522);
#520 = CARTESIAN_POINT('',(-52.1,6.125,1.35));
#521 = DIRECTION('',(-0.,-0.,-1.));
#522 = DIRECTION('',(1.,0.,0.));
#523 = ADVANCED_FACE('',(#524),#549,.F.);
#524 = FACE_BOUND('',#525,.F.);
#525 = EDGE_LOOP('',(#526,#536,#542,#543));
#526 = ORIENTED_EDGE('',*,*,#527,.T.);
#527 = EDGE_CURVE('',#528,#530,#532,.T.);
#528 = VERTEX_POINT('',#529);
#529 = CARTESIAN_POINT('',(-55.,6.725,1.35));
#530 = VERTEX_POINT('',#531);
#531 = CARTESIAN_POINT('',(-55.,6.725,2.15));
#532 = LINE('',#533,#534);
#533 = CARTESIAN_POINT('',(-55.,6.725,1.35));
#534 = VECTOR('',#535,1.);
#535 = DIRECTION('',(0.,0.,1.));
#536 = ORIENTED_EDGE('',*,*,#537,.T.);
#537 = EDGE_CURVE('',#530,#496,#538,.T.);
#538 = LINE('',#539,#540);
#539 = CARTESIAN_POINT('',(-55.,6.725,2.15));
#540 = VECTOR('',#541,1.);
#541 = DIRECTION('',(1.,0.,0.));
#542 = ORIENTED_EDGE('',*,*,#504,.F.);
#543 = ORIENTED_EDGE('',*,*,#544,.F.);
#544 = EDGE_CURVE('',#528,#505,#545,.T.);
#545 = LINE('',#546,#547);
#546 = CARTESIAN_POINT('',(-55.,6.725,1.35));
#547 = VECTOR('',#548,1.);
#548 = DIRECTION('',(1.,0.,0.));
#549 = PLANE('',#550);
#550 = AXIS2_PLACEMENT_3D('',#551,#552,#553);
#551 = CARTESIAN_POINT('',(-55.,6.725,1.35));
#552 = DIRECTION('',(0.,1.,0.));
#553 = DIRECTION('',(1.,0.,0.));
#554 = ADVANCED_FACE('',(#555),#580,.F.);
#555 = FACE_BOUND('',#556,.F.);
#556 = EDGE_LOOP('',(#557,#567,#573,#574));
#557 = ORIENTED_EDGE('',*,*,#558,.T.);
#558 = EDGE_CURVE('',#559,#561,#563,.T.);
#559 = VERTEX_POINT('',#560);
#560 = CARTESIAN_POINT('',(-55.,9.925,1.35));
#561 = VERTEX_POINT('',#562);
#562 = CARTESIAN_POINT('',(-55.,9.925,2.15));
#563 = LINE('',#564,#565);
#564 = CARTESIAN_POINT('',(-55.,9.925,1.35));
#565 = VECTOR('',#566,1.);
#566 = DIRECTION('',(0.,0.,1.));
#567 = ORIENTED_EDGE('',*,*,#568,.T.);
#568 = EDGE_CURVE('',#561,#530,#569,.T.);
#569 = LINE('',#570,#571);
#570 = CARTESIAN_POINT('',(-55.,9.925,2.15));
#571 = VECTOR('',#572,1.);
#572 = DIRECTION('',(0.,-1.,0.));
#573 = ORIENTED_EDGE('',*,*,#527,.F.);
#574 = ORIENTED_EDGE('',*,*,#575,.F.);
#575 = EDGE_CURVE('',#559,#528,#576,.T.);
#576 = LINE('',#577,#578);
#577 = CARTESIAN_POINT('',(-55.,9.925,1.35));
#578 = VECTOR('',#579,1.);
#579 = DIRECTION('',(0.,-1.,0.));
#580 = PLANE('',#581);
#581 = AXIS2_PLACEMENT_3D('',#582,#583,#584);
#582 = CARTESIAN_POINT('',(-55.,9.925,1.35));
#583 = DIRECTION('',(1.,0.,0.));
#584 = DIRECTION('',(0.,-1.,0.));
#585 = ADVANCED_FACE('',(#586),#611,.T.);
#586 = FACE_BOUND('',#587,.T.);
#587 = EDGE_LOOP('',(#588,#589,#597,#605));
#588 = ORIENTED_EDGE('',*,*,#558,.T.);
#589 = ORIENTED_EDGE('',*,*,#590,.T.);
#590 = EDGE_CURVE('',#561,#591,#593,.T.);
#591 = VERTEX_POINT('',#592);
#592 = CARTESIAN_POINT('',(-51.5,9.925,2.15));
#593 = LINE('',#594,#595);
#594 = CARTESIAN_POINT('',(-55.,9.925,2.15));
#595 = VECTOR('',#596,1.);
#596 = DIRECTION('',(1.,0.,0.));
#597 = ORIENTED_EDGE('',*,*,#598,.F.);
#598 = EDGE_CURVE('',#599,#591,#601,.T.);
#599 = VERTEX_POINT('',#600);
#600 = CARTESIAN_POINT('',(-51.5,9.925,1.35));
#601 = LINE('',#602,#603);
#602 = CARTESIAN_POINT('',(-51.5,9.925,1.35));
#603 = VECTOR('',#604,1.);
#604 = DIRECTION('',(0.,0.,1.));
#605 = ORIENTED_EDGE('',*,*,#606,.F.);
#606 = EDGE_CURVE('',#559,#599,#607,.T.);
#607 = LINE('',#608,#609);
#608 = CARTESIAN_POINT('',(-55.,9.925,1.35));
#609 = VECTOR('',#610,1.);
#610 = DIRECTION('',(1.,0.,0.));
#611 = PLANE('',#612);
#612 = AXIS2_PLACEMENT_3D('',#613,#614,#615);
#613 = CARTESIAN_POINT('',(-55.,9.925,1.35));
#614 = DIRECTION('',(0.,1.,0.));
#615 = DIRECTION('',(1.,0.,0.));
#616 = ADVANCED_FACE('',(#617),#644,.F.);
#617 = FACE_BOUND('',#618,.T.);
#618 = EDGE_LOOP('',(#619,#620,#629,#637));
#619 = ORIENTED_EDGE('',*,*,#598,.T.);
#620 = ORIENTED_EDGE('',*,*,#621,.T.);
#621 = EDGE_CURVE('',#591,#622,#624,.T.);
#622 = VERTEX_POINT('',#623);
#623 = CARTESIAN_POINT('',(-51.,10.425,2.15));
#624 = CIRCLE('',#625,0.5);
#625 = AXIS2_PLACEMENT_3D('',#626,#627,#628);
#626 = CARTESIAN_POINT('',(-51.5,10.425,2.15));
#627 = DIRECTION('',(0.,0.,1.));
#628 = DIRECTION('',(1.,0.,0.));
#629 = ORIENTED_EDGE('',*,*,#630,.F.);
#630 = EDGE_CURVE('',#631,#622,#633,.T.);
#631 = VERTEX_POINT('',#632);
#632 = CARTESIAN_POINT('',(-51.,10.425,1.35));
#633 = LINE('',#634,#635);
#634 = CARTESIAN_POINT('',(-51.,10.425,1.35));
#635 = VECTOR('',#636,1.);
#636 = DIRECTION('',(0.,0.,1.));
#637 = ORIENTED_EDGE('',*,*,#638,.F.);
#638 = EDGE_CURVE('',#599,#631,#639,.T.);
#639 = CIRCLE('',#640,0.5);
#640 = AXIS2_PLACEMENT_3D('',#641,#642,#643);
#641 = CARTESIAN_POINT('',(-51.5,10.425,1.35));
#642 = DIRECTION('',(0.,0.,1.));
#643 = DIRECTION('',(1.,0.,0.));
#644 = CYLINDRICAL_SURFACE('',#645,0.5);
#645 = AXIS2_PLACEMENT_3D('',#646,#647,#648);
#646 = CARTESIAN_POINT('',(-51.5,10.425,1.35));
#647 = DIRECTION('',(-0.,-0.,-1.));
#648 = DIRECTION('',(1.,0.,0.));
#649 = ADVANCED_FACE('',(#650),#666,.F.);
#650 = FACE_BOUND('',#651,.F.);
#651 = EDGE_LOOP('',(#652,#653,#659,#660));
#652 = ORIENTED_EDGE('',*,*,#171,.T.);
#653 = ORIENTED_EDGE('',*,*,#654,.T.);
#654 = EDGE_CURVE('',#174,#622,#655,.T.);
#655 = LINE('',#656,#657);
#656 = CARTESIAN_POINT('',(-51.,11.,2.15));
#657 = VECTOR('',#658,1.);
#658 = DIRECTION('',(0.,-1.,0.));
#659 = ORIENTED_EDGE('',*,*,#630,.F.);
#660 = ORIENTED_EDGE('',*,*,#661,.F.);
#661 = EDGE_CURVE('',#172,#631,#662,.T.);
#662 = LINE('',#663,#664);
#663 = CARTESIAN_POINT('',(-51.,11.,1.35));
#664 = VECTOR('',#665,1.);
#665 = DIRECTION('',(0.,-1.,0.));
#666 = PLANE('',#667);
#667 = AXIS2_PLACEMENT_3D('',#668,#669,#670);
#668 = CARTESIAN_POINT('',(-51.,11.,1.35));
#669 = DIRECTION('',(1.,0.,0.));
#670 = DIRECTION('',(0.,-1.,0.));
#671 = ADVANCED_FACE('',(#672),#690,.F.);
#672 = FACE_BOUND('',#673,.T.);
#673 = EDGE_LOOP('',(#674,#675,#676,#677,#678,#679,#680,#681,#682,#683,
    #684,#685,#686,#687,#688,#689));
#674 = ORIENTED_EDGE('',*,*,#197,.T.);
#675 = ORIENTED_EDGE('',*,*,#228,.T.);
#676 = ORIENTED_EDGE('',*,*,#260,.T.);
#677 = ORIENTED_EDGE('',*,*,#292,.T.);
#678 = ORIENTED_EDGE('',*,*,#323,.T.);
#679 = ORIENTED_EDGE('',*,*,#354,.F.);
#680 = ORIENTED_EDGE('',*,*,#386,.T.);
#681 = ORIENTED_EDGE('',*,*,#418,.F.);
#682 = ORIENTED_EDGE('',*,*,#449,.F.);
#683 = ORIENTED_EDGE('',*,*,#480,.F.);
#684 = ORIENTED_EDGE('',*,*,#512,.T.);
#685 = ORIENTED_EDGE('',*,*,#544,.F.);
#686 = ORIENTED_EDGE('',*,*,#575,.F.);
#687 = ORIENTED_EDGE('',*,*,#606,.T.);
#688 = ORIENTED_EDGE('',*,*,#638,.T.);
#689 = ORIENTED_EDGE('',*,*,#661,.F.);
#690 = PLANE('',#691);
#691 = AXIS2_PLACEMENT_3D('',#692,#693,#694);
#692 = CARTESIAN_POINT('',(-0.792935879651,0.144275228351,1.35));
#693 = DIRECTION('',(0.,0.,1.));
#694 = DIRECTION('',(1.,0.,0.));
#695 = ADVANCED_FACE('',(#696),#714,.T.);
#696 = FACE_BOUND('',#697,.F.);
#697 = EDGE_LOOP('',(#698,#699,#700,#701,#702,#703,#704,#705,#706,#707,
    #708,#709,#710,#711,#712,#713));
#698 = ORIENTED_EDGE('',*,*,#181,.T.);
#699 = ORIENTED_EDGE('',*,*,#212,.T.);
#700 = ORIENTED_EDGE('',*,*,#243,.T.);
#701 = ORIENTED_EDGE('',*,*,#276,.T.);
#702 = ORIENTED_EDGE('',*,*,#307,.T.);
#703 = ORIENTED_EDGE('',*,*,#347,.F.);
#704 = ORIENTED_EDGE('',*,*,#369,.T.);
#705 = ORIENTED_EDGE('',*,*,#411,.F.);
#706 = ORIENTED_EDGE('',*,*,#442,.F.);
#707 = ORIENTED_EDGE('',*,*,#473,.F.);
#708 = ORIENTED_EDGE('',*,*,#495,.T.);
#709 = ORIENTED_EDGE('',*,*,#537,.F.);
#710 = ORIENTED_EDGE('',*,*,#568,.F.);
#711 = ORIENTED_EDGE('',*,*,#590,.T.);
#712 = ORIENTED_EDGE('',*,*,#621,.T.);
#713 = ORIENTED_EDGE('',*,*,#654,.F.);
#714 = PLANE('',#715);
#715 = AXIS2_PLACEMENT_3D('',#716,#717,#718);
#716 = CARTESIAN_POINT('',(-0.792935879651,0.144275228351,2.15));
#717 = DIRECTION('',(0.,0.,1.));
#718 = DIRECTION('',(1.,0.,0.));
#719 = MANIFOLD_SOLID_BREP('',#720);
#720 = CLOSED_SHELL('',(#721,#761,#792,#823,#845,#857));
#721 = ADVANCED_FACE('',(#722),#756,.F.);
#722 = FACE_BOUND('',#723,.F.);
#723 = EDGE_LOOP('',(#724,#734,#742,#750));
#724 = ORIENTED_EDGE('',*,*,#725,.T.);
#725 = EDGE_CURVE('',#726,#728,#730,.T.);
#726 = VERTEX_POINT('',#727);
#727 = CARTESIAN_POINT('',(-49.8,11.,1.35));
#728 = VERTEX_POINT('',#729);
#729 = CARTESIAN_POINT('',(-49.8,11.,0.));
#730 = LINE('',#731,#732);
#731 = CARTESIAN_POINT('',(-49.8,11.,1.35));
#732 = VECTOR('',#733,1.);
#733 = DIRECTION('',(-0.,-0.,-1.));
#734 = ORIENTED_EDGE('',*,*,#735,.T.);
#735 = EDGE_CURVE('',#728,#736,#738,.T.);
#736 = VERTEX_POINT('',#737);
#737 = CARTESIAN_POINT('',(51.,11.,0.));
#738 = LINE('',#739,#740);
#739 = CARTESIAN_POINT('',(-49.8,11.,0.));
#740 = VECTOR('',#741,1.);
#741 = DIRECTION('',(1.,0.,0.));
#742 = ORIENTED_EDGE('',*,*,#743,.F.);
#743 = EDGE_CURVE('',#744,#736,#746,.T.);
#744 = VERTEX_POINT('',#745);
#745 = CARTESIAN_POINT('',(51.,11.,1.35));
#746 = LINE('',#747,#748);
#747 = CARTESIAN_POINT('',(51.,11.,1.35));
#748 = VECTOR('',#749,1.);
#749 = DIRECTION('',(-0.,-0.,-1.));
#750 = ORIENTED_EDGE('',*,*,#751,.F.);
#751 = EDGE_CURVE('',#726,#744,#752,.T.);
#752 = LINE('',#753,#754);
#753 = CARTESIAN_POINT('',(-49.8,11.,1.35));
#754 = VECTOR('',#755,1.);
#755 = DIRECTION('',(1.,0.,0.));
#756 = PLANE('',#757);
#757 = AXIS2_PLACEMENT_3D('',#758,#759,#760);
#758 = CARTESIAN_POINT('',(-49.8,11.,1.35));
#759 = DIRECTION('',(0.,-1.,0.));
#760 = DIRECTION('',(1.,0.,0.));
#761 = ADVANCED_FACE('',(#762),#787,.F.);
#762 = FACE_BOUND('',#763,.F.);
#763 = EDGE_LOOP('',(#764,#765,#773,#781));
#764 = ORIENTED_EDGE('',*,*,#743,.T.);
#765 = ORIENTED_EDGE('',*,*,#766,.T.);
#766 = EDGE_CURVE('',#736,#767,#769,.T.);
#767 = VERTEX_POINT('',#768);
#768 = CARTESIAN_POINT('',(51.,-11.,0.));
#769 = LINE('',#770,#771);
#770 = CARTESIAN_POINT('',(51.,11.,0.));
#771 = VECTOR('',#772,1.);
#772 = DIRECTION('',(0.,-1.,0.));
#773 = ORIENTED_EDGE('',*,*,#774,.F.);
#774 = EDGE_CURVE('',#775,#767,#777,.T.);
#775 = VERTEX_POINT('',#776);
#776 = CARTESIAN_POINT('',(51.,-11.,1.35));
#777 = LINE('',#778,#779);
#778 = CARTESIAN_POINT('',(51.,-11.,1.35));
#779 = VECTOR('',#780,1.);
#780 = DIRECTION('',(-0.,-0.,-1.));
#781 = ORIENTED_EDGE('',*,*,#782,.F.);
#782 = EDGE_CURVE('',#744,#775,#783,.T.);
#783 = LINE('',#784,#785);
#784 = CARTESIAN_POINT('',(51.,11.,1.35));
#785 = VECTOR('',#786,1.);
#786 = DIRECTION('',(0.,-1.,0.));
#787 = PLANE('',#788);
#788 = AXIS2_PLACEMENT_3D('',#789,#790,#791);
#789 = CARTESIAN_POINT('',(51.,11.,1.35));
#790 = DIRECTION('',(-1.,0.,0.));
#791 = DIRECTION('',(0.,-1.,0.));
#792 = ADVANCED_FACE('',(#793),#818,.F.);
#793 = FACE_BOUND('',#794,.F.);
#794 = EDGE_LOOP('',(#795,#796,#804,#812));
#795 = ORIENTED_EDGE('',*,*,#774,.T.);
#796 = ORIENTED_EDGE('',*,*,#797,.T.);
#797 = EDGE_CURVE('',#767,#798,#800,.T.);
#798 = VERTEX_POINT('',#799);
#799 = CARTESIAN_POINT('',(-49.8,-11.,0.));
#800 = LINE('',#801,#802);
#801 = CARTESIAN_POINT('',(51.,-11.,0.));
#802 = VECTOR('',#803,1.);
#803 = DIRECTION('',(-1.,0.,0.));
#804 = ORIENTED_EDGE('',*,*,#805,.F.);
#805 = EDGE_CURVE('',#806,#798,#808,.T.);
#806 = VERTEX_POINT('',#807);
#807 = CARTESIAN_POINT('',(-49.8,-11.,1.35));
#808 = LINE('',#809,#810);
#809 = CARTESIAN_POINT('',(-49.8,-11.,1.35));
#810 = VECTOR('',#811,1.);
#811 = DIRECTION('',(-0.,-0.,-1.));
#812 = ORIENTED_EDGE('',*,*,#813,.F.);
#813 = EDGE_CURVE('',#775,#806,#814,.T.);
#814 = LINE('',#815,#816);
#815 = CARTESIAN_POINT('',(51.,-11.,1.35));
#816 = VECTOR('',#817,1.);
#817 = DIRECTION('',(-1.,0.,0.));
#818 = PLANE('',#819);
#819 = AXIS2_PLACEMENT_3D('',#820,#821,#822);
#820 = CARTESIAN_POINT('',(51.,-11.,1.35));
#821 = DIRECTION('',(0.,1.,0.));
#822 = DIRECTION('',(-1.,0.,0.));
#823 = ADVANCED_FACE('',(#824),#840,.F.);
#824 = FACE_BOUND('',#825,.F.);
#825 = EDGE_LOOP('',(#826,#827,#833,#834));
#826 = ORIENTED_EDGE('',*,*,#805,.T.);
#827 = ORIENTED_EDGE('',*,*,#828,.T.);
#828 = EDGE_CURVE('',#798,#728,#829,.T.);
#829 = LINE('',#830,#831);
#830 = CARTESIAN_POINT('',(-49.8,-11.,0.));
#831 = VECTOR('',#832,1.);
#832 = DIRECTION('',(0.,1.,0.));
#833 = ORIENTED_EDGE('',*,*,#725,.F.);
#834 = ORIENTED_EDGE('',*,*,#835,.F.);
#835 = EDGE_CURVE('',#806,#726,#836,.T.);
#836 = LINE('',#837,#838);
#837 = CARTESIAN_POINT('',(-49.8,-11.,1.35));
#838 = VECTOR('',#839,1.);
#839 = DIRECTION('',(0.,1.,0.));
#840 = PLANE('',#841);
#841 = AXIS2_PLACEMENT_3D('',#842,#843,#844);
#842 = CARTESIAN_POINT('',(-49.8,-11.,1.35));
#843 = DIRECTION('',(1.,0.,0.));
#844 = DIRECTION('',(0.,1.,0.));
#845 = ADVANCED_FACE('',(#846),#852,.T.);
#846 = FACE_BOUND('',#847,.F.);
#847 = EDGE_LOOP('',(#848,#849,#850,#851));
#848 = ORIENTED_EDGE('',*,*,#751,.T.);
#849 = ORIENTED_EDGE('',*,*,#782,.T.);
#850 = ORIENTED_EDGE('',*,*,#813,.T.);
#851 = ORIENTED_EDGE('',*,*,#835,.T.);
#852 = PLANE('',#853);
#853 = AXIS2_PLACEMENT_3D('',#854,#855,#856);
#854 = CARTESIAN_POINT('',(0.6,0.,1.35));
#855 = DIRECTION('',(0.,0.,1.));
#856 = DIRECTION('',(1.,0.,0.));
#857 = ADVANCED_FACE('',(#858),#864,.F.);
#858 = FACE_BOUND('',#859,.T.);
#859 = EDGE_LOOP('',(#860,#861,#862,#863));
#860 = ORIENTED_EDGE('',*,*,#735,.T.);
#861 = ORIENTED_EDGE('',*,*,#766,.T.);
#862 = ORIENTED_EDGE('',*,*,#797,.T.);
#863 = ORIENTED_EDGE('',*,*,#828,.T.);
#864 = PLANE('',#865);
#865 = AXIS2_PLACEMENT_3D('',#866,#867,#868);
#866 = CARTESIAN_POINT('',(0.6,0.,0.));
#867 = DIRECTION('',(0.,0.,1.));
#868 = DIRECTION('',(1.,0.,0.));
#869 = ( GEOMETRIC_REPRESENTATION_CONTEXT(3) 
GLOBAL_UNCERTAINTY_ASSIGNED_CONTEXT((#873)) GLOBAL_UNIT_ASSIGNED_CONTEXT
((#870,#871,#872)) REPRESENTATION_CONTEXT('Context #1',
  '3D Context with UNIT and UNCERTAINTY') );
#870 = ( LENGTH_UNIT() NAMED_UNIT(*) SI_UNIT(.MILLI.,.METRE.) );
#871 = ( NAMED_UNIT(*) PLANE_ANGLE_UNIT() SI_UNIT($,.RADIAN.) );
#872 = ( NAMED_UNIT(*) SI_UNIT($,.STERADIAN.) SOLID_ANGLE_UNIT() );
#873 = UNCERTAINTY_MEASURE_WITH_UNIT(LENGTH_MEASURE(1.E-07),#870,
  'distance_accuracy_value','confusion accuracy');
#874 = PRODUCT_RELATED_PRODUCT_CATEGORY('part',$,(#7));
#875 = MECHANICAL_DESIGN_GEOMETRIC_PRESENTATION_REPRESENTATION('',(#876,
    #887,#895,#902,#909,#916,#923,#930,#939,#947,#954,#961,#968,#975,
    #982,#989,#996,#1003,#1010,#1017,#1024,#1031,#1038,#1045,#1052,#1059
    ,#1066,#1075,#1082,#1089,#1096,#1103,#1110),#869);
#876 = STYLED_ITEM('color',(#877),#15);
#877 = PRESENTATION_STYLE_ASSIGNMENT((#878,#884));
#878 = SURFACE_STYLE_USAGE(.BOTH.,#879);
#879 = SURFACE_SIDE_STYLE('',(#880));
#880 = SURFACE_STYLE_FILL_AREA(#881);
#881 = FILL_AREA_STYLE('',(#882));
#882 = FILL_AREA_STYLE_COLOUR('',#883);
#883 = COLOUR_RGB('',0.800000010877,0.800000010877,0.800000010877);
#884 = CURVE_STYLE('',#885,POSITIVE_LENGTH_MEASURE(0.1),#886);
#885 = DRAUGHTING_PRE_DEFINED_CURVE_FONT('continuous');
#886 = COLOUR_RGB('',9.803921802644E-02,9.803921802644E-02,
  9.803921802644E-02);
#887 = OVER_RIDING_STYLED_ITEM('overriding color',(#888),#17,#876);
#888 = PRESENTATION_STYLE_ASSIGNMENT((#889));
#889 = SURFACE_STYLE_USAGE(.BOTH.,#890);
#890 = SURFACE_SIDE_STYLE('',(#891));
#891 = SURFACE_STYLE_FILL_AREA(#892);
#892 = FILL_AREA_STYLE('',(#893));
#893 = FILL_AREA_STYLE_COLOUR('',#894);
#894 = DRAUGHTING_PRE_DEFINED_COLOUR('black');
#895 = OVER_RIDING_STYLED_ITEM('overriding color',(#896),#57,#876);
#896 = PRESENTATION_STYLE_ASSIGNMENT((#897));
#897 = SURFACE_STYLE_USAGE(.BOTH.,#898);
#898 = SURFACE_SIDE_STYLE('',(#899));
#899 = SURFACE_STYLE_FILL_AREA(#900);
#900 = FILL_AREA_STYLE('',(#901));
#901 = FILL_AREA_STYLE_COLOUR('',#894);
#902 = OVER_RIDING_STYLED_ITEM('overriding color',(#903),#88,#876);
#903 = PRESENTATION_STYLE_ASSIGNMENT((#904));
#904 = SURFACE_STYLE_USAGE(.BOTH.,#905);
#905 = SURFACE_SIDE_STYLE('',(#906));
#906 = SURFACE_STYLE_FILL_AREA(#907);
#907 = FILL_AREA_STYLE('',(#908));
#908 = FILL_AREA_STYLE_COLOUR('',#894);
#909 = OVER_RIDING_STYLED_ITEM('overriding color',(#910),#119,#876);
#910 = PRESENTATION_STYLE_ASSIGNMENT((#911));
#911 = SURFACE_STYLE_USAGE(.BOTH.,#912);
#912 = SURFACE_SIDE_STYLE('',(#913));
#913 = SURFACE_STYLE_FILL_AREA(#914);
#914 = FILL_AREA_STYLE('',(#915));
#915 = FILL_AREA_STYLE_COLOUR('',#894);
#916 = OVER_RIDING_STYLED_ITEM('overriding color',(#917),#141,#876);
#917 = PRESENTATION_STYLE_ASSIGNMENT((#918));
#918 = SURFACE_STYLE_USAGE(.BOTH.,#919);
#919 = SURFACE_SIDE_STYLE('',(#920));
#920 = SURFACE_STYLE_FILL_AREA(#921);
#921 = FILL_AREA_STYLE('',(#922));
#922 = FILL_AREA_STYLE_COLOUR('',#894);
#923 = OVER_RIDING_STYLED_ITEM('overriding color',(#924),#153,#876);
#924 = PRESENTATION_STYLE_ASSIGNMENT((#925));
#925 = SURFACE_STYLE_USAGE(.BOTH.,#926);
#926 = SURFACE_SIDE_STYLE('',(#927));
#927 = SURFACE_STYLE_FILL_AREA(#928);
#928 = FILL_AREA_STYLE('',(#929));
#929 = FILL_AREA_STYLE_COLOUR('',#894);
#930 = STYLED_ITEM('color',(#931),#165);
#931 = PRESENTATION_STYLE_ASSIGNMENT((#932,#937));
#932 = SURFACE_STYLE_USAGE(.BOTH.,#933);
#933 = SURFACE_SIDE_STYLE('',(#934));
#934 = SURFACE_STYLE_FILL_AREA(#935);
#935 = FILL_AREA_STYLE('',(#936));
#936 = FILL_AREA_STYLE_COLOUR('',#883);
#937 = CURVE_STYLE('',#938,POSITIVE_LENGTH_MEASURE(0.1),#886);
#938 = DRAUGHTING_PRE_DEFINED_CURVE_FONT('continuous');
#939 = OVER_RIDING_STYLED_ITEM('overriding color',(#940),#167,#930);
#940 = PRESENTATION_STYLE_ASSIGNMENT((#941));
#941 = SURFACE_STYLE_USAGE(.BOTH.,#942);
#942 = SURFACE_SIDE_STYLE('',(#943));
#943 = SURFACE_STYLE_FILL_AREA(#944);
#944 = FILL_AREA_STYLE('',(#945));
#945 = FILL_AREA_STYLE_COLOUR('',#946);
#946 = COLOUR_RGB('',7.450980588415E-02,0.615686309239,
  7.450980588415E-02);
#947 = OVER_RIDING_STYLED_ITEM('overriding color',(#948),#207,#930);
#948 = PRESENTATION_STYLE_ASSIGNMENT((#949));
#949 = SURFACE_STYLE_USAGE(.BOTH.,#950);
#950 = SURFACE_SIDE_STYLE('',(#951));
#951 = SURFACE_STYLE_FILL_AREA(#952);
#952 = FILL_AREA_STYLE('',(#953));
#953 = FILL_AREA_STYLE_COLOUR('',#946);
#954 = OVER_RIDING_STYLED_ITEM('overriding color',(#955),#238,#930);
#955 = PRESENTATION_STYLE_ASSIGNMENT((#956));
#956 = SURFACE_STYLE_USAGE(.BOTH.,#957);
#957 = SURFACE_SIDE_STYLE('',(#958));
#958 = SURFACE_STYLE_FILL_AREA(#959);
#959 = FILL_AREA_STYLE('',(#960));
#960 = FILL_AREA_STYLE_COLOUR('',#946);
#961 = OVER_RIDING_STYLED_ITEM('overriding color',(#962),#271,#930);
#962 = PRESENTATION_STYLE_ASSIGNMENT((#963));
#963 = SURFACE_STYLE_USAGE(.BOTH.,#964);
#964 = SURFACE_SIDE_STYLE('',(#965));
#965 = SURFACE_STYLE_FILL_AREA(#966);
#966 = FILL_AREA_STYLE('',(#967));
#967 = FILL_AREA_STYLE_COLOUR('',#946);
#968 = OVER_RIDING_STYLED_ITEM('overriding color',(#969),#302,#930);
#969 = PRESENTATION_STYLE_ASSIGNMENT((#970));
#970 = SURFACE_STYLE_USAGE(.BOTH.,#971);
#971 = SURFACE_SIDE_STYLE('',(#972));
#972 = SURFACE_STYLE_FILL_AREA(#973);
#973 = FILL_AREA_STYLE('',(#974));
#974 = FILL_AREA_STYLE_COLOUR('',#946);
#975 = OVER_RIDING_STYLED_ITEM('overriding color',(#976),#333,#930);
#976 = PRESENTATION_STYLE_ASSIGNMENT((#977));
#977 = SURFACE_STYLE_USAGE(.BOTH.,#978);
#978 = SURFACE_SIDE_STYLE('',(#979));
#979 = SURFACE_STYLE_FILL_AREA(#980);
#980 = FILL_AREA_STYLE('',(#981));
#981 = FILL_AREA_STYLE_COLOUR('',#946);
#982 = OVER_RIDING_STYLED_ITEM('overriding color',(#983),#364,#930);
#983 = PRESENTATION_STYLE_ASSIGNMENT((#984));
#984 = SURFACE_STYLE_USAGE(.BOTH.,#985);
#985 = SURFACE_SIDE_STYLE('',(#986));
#986 = SURFACE_STYLE_FILL_AREA(#987);
#987 = FILL_AREA_STYLE('',(#988));
#988 = FILL_AREA_STYLE_COLOUR('',#946);
#989 = OVER_RIDING_STYLED_ITEM('overriding color',(#990),#397,#930);
#990 = PRESENTATION_STYLE_ASSIGNMENT((#991));
#991 = SURFACE_STYLE_USAGE(.BOTH.,#992);
#992 = SURFACE_SIDE_STYLE('',(#993));
#993 = SURFACE_STYLE_FILL_AREA(#994);
#994 = FILL_AREA_STYLE('',(#995));
#995 = FILL_AREA_STYLE_COLOUR('',#946);
#996 = OVER_RIDING_STYLED_ITEM('overriding color',(#997),#428,#930);
#997 = PRESENTATION_STYLE_ASSIGNMENT((#998));
#998 = SURFACE_STYLE_USAGE(.BOTH.,#999);
#999 = SURFACE_SIDE_STYLE('',(#1000));
#1000 = SURFACE_STYLE_FILL_AREA(#1001);
#1001 = FILL_AREA_STYLE('',(#1002));
#1002 = FILL_AREA_STYLE_COLOUR('',#946);
#1003 = OVER_RIDING_STYLED_ITEM('overriding color',(#1004),#459,#930);
#1004 = PRESENTATION_STYLE_ASSIGNMENT((#1005));
#1005 = SURFACE_STYLE_USAGE(.BOTH.,#1006);
#1006 = SURFACE_SIDE_STYLE('',(#1007));
#1007 = SURFACE_STYLE_FILL_AREA(#1008);
#1008 = FILL_AREA_STYLE('',(#1009));
#1009 = FILL_AREA_STYLE_COLOUR('',#946);
#1010 = OVER_RIDING_STYLED_ITEM('overriding color',(#1011),#490,#930);
#1011 = PRESENTATION_STYLE_ASSIGNMENT((#1012));
#1012 = SURFACE_STYLE_USAGE(.BOTH.,#1013);
#1013 = SURFACE_SIDE_STYLE('',(#1014));
#1014 = SURFACE_STYLE_FILL_AREA(#1015);
#1015 = FILL_AREA_STYLE('',(#1016));
#1016 = FILL_AREA_STYLE_COLOUR('',#946);
#1017 = OVER_RIDING_STYLED_ITEM('overriding color',(#1018),#523,#930);
#1018 = PRESENTATION_STYLE_ASSIGNMENT((#1019));
#1019 = SURFACE_STYLE_USAGE(.BOTH.,#1020);
#1020 = SURFACE_SIDE_STYLE('',(#1021));
#1021 = SURFACE_STYLE_FILL_AREA(#1022);
#1022 = FILL_AREA_STYLE('',(#1023));
#1023 = FILL_AREA_STYLE_COLOUR('',#946);
#1024 = OVER_RIDING_STYLED_ITEM('overriding color',(#1025),#554,#930);
#1025 = PRESENTATION_STYLE_ASSIGNMENT((#1026));
#1026 = SURFACE_STYLE_USAGE(.BOTH.,#1027);
#1027 = SURFACE_SIDE_STYLE('',(#1028));
#1028 = SURFACE_STYLE_FILL_AREA(#1029);
#1029 = FILL_AREA_STYLE('',(#1030));
#1030 = FILL_AREA_STYLE_COLOUR('',#946);
#1031 = OVER_RIDING_STYLED_ITEM('overriding color',(#1032),#585,#930);
#1032 = PRESENTATION_STYLE_ASSIGNMENT((#1033));
#1033 = SURFACE_STYLE_USAGE(.BOTH.,#1034);
#1034 = SURFACE_SIDE_STYLE('',(#1035));
#1035 = SURFACE_STYLE_FILL_AREA(#1036);
#1036 = FILL_AREA_STYLE('',(#1037));
#1037 = FILL_AREA_STYLE_COLOUR('',#946);
#1038 = OVER_RIDING_STYLED_ITEM('overriding color',(#1039),#616,#930);
#1039 = PRESENTATION_STYLE_ASSIGNMENT((#1040));
#1040 = SURFACE_STYLE_USAGE(.BOTH.,#1041);
#1041 = SURFACE_SIDE_STYLE('',(#1042));
#1042 = SURFACE_STYLE_FILL_AREA(#1043);
#1043 = FILL_AREA_STYLE('',(#1044));
#1044 = FILL_AREA_STYLE_COLOUR('',#946);
#1045 = OVER_RIDING_STYLED_ITEM('overriding color',(#1046),#649,#930);
#1046 = PRESENTATION_STYLE_ASSIGNMENT((#1047));
#1047 = SURFACE_STYLE_USAGE(.BOTH.,#1048);
#1048 = SURFACE_SIDE_STYLE('',(#1049));
#1049 = SURFACE_STYLE_FILL_AREA(#1050);
#1050 = FILL_AREA_STYLE('',(#1051));
#1051 = FILL_AREA_STYLE_COLOUR('',#946);
#1052 = OVER_RIDING_STYLED_ITEM('overriding color',(#1053),#671,#930);
#1053 = PRESENTATION_STYLE_ASSIGNMENT((#1054));
#1054 = SURFACE_STYLE_USAGE(.BOTH.,#1055);
#1055 = SURFACE_SIDE_STYLE('',(#1056));
#1056 = SURFACE_STYLE_FILL_AREA(#1057);
#1057 = FILL_AREA_STYLE('',(#1058));
#1058 = FILL_AREA_STYLE_COLOUR('',#946);
#1059 = OVER_RIDING_STYLED_ITEM('overriding color',(#1060),#695,#930);
#1060 = PRESENTATION_STYLE_ASSIGNMENT((#1061));
#1061 = SURFACE_STYLE_USAGE(.BOTH.,#1062);
#1062 = SURFACE_SIDE_STYLE('',(#1063));
#1063 = SURFACE_STYLE_FILL_AREA(#1064);
#1064 = FILL_AREA_STYLE('',(#1065));
#1065 = FILL_AREA_STYLE_COLOUR('',#946);
#1066 = STYLED_ITEM('color',(#1067),#719);
#1067 = PRESENTATION_STYLE_ASSIGNMENT((#1068,#1073));
#1068 = SURFACE_STYLE_USAGE(.BOTH.,#1069);
#1069 = SURFACE_SIDE_STYLE('',(#1070));
#1070 = SURFACE_STYLE_FILL_AREA(#1071);
#1071 = FILL_AREA_STYLE('',(#1072));
#1072 = FILL_AREA_STYLE_COLOUR('',#883);
#1073 = CURVE_STYLE('',#1074,POSITIVE_LENGTH_MEASURE(0.1),#886);
#1074 = DRAUGHTING_PRE_DEFINED_CURVE_FONT('continuous');
#1075 = OVER_RIDING_STYLED_ITEM('overriding color',(#1076),#721,#1066);
#1076 = PRESENTATION_STYLE_ASSIGNMENT((#1077));
#1077 = SURFACE_STYLE_USAGE(.BOTH.,#1078);
#1078 = SURFACE_SIDE_STYLE('',(#1079));
#1079 = SURFACE_STYLE_FILL_AREA(#1080);
#1080 = FILL_AREA_STYLE('',(#1081));
#1081 = FILL_AREA_STYLE_COLOUR('',#894);
#1082 = OVER_RIDING_STYLED_ITEM('overriding color',(#1083),#761,#1066);
#1083 = PRESENTATION_STYLE_ASSIGNMENT((#1084));
#1084 = SURFACE_STYLE_USAGE(.BOTH.,#1085);
#1085 = SURFACE_SIDE_STYLE('',(#1086));
#1086 = SURFACE_STYLE_FILL_AREA(#1087);
#1087 = FILL_AREA_STYLE('',(#1088));
#1088 = FILL_AREA_STYLE_COLOUR('',#894);
#1089 = OVER_RIDING_STYLED_ITEM('overriding color',(#1090),#792,#1066);
#1090 = PRESENTATION_STYLE_ASSIGNMENT((#1091));
#1091 = SURFACE_STYLE_USAGE(.BOTH.,#1092);
#1092 = SURFACE_SIDE_STYLE('',(#1093));
#1093 = SURFACE_STYLE_FILL_AREA(#1094);
#1094 = FILL_AREA_STYLE('',(#1095));
#1095 = FILL_AREA_STYLE_COLOUR('',#894);
#1096 = OVER_RIDING_STYLED_ITEM('overriding color',(#1097),#823,#1066);
#1097 = PRESENTATION_STYLE_ASSIGNMENT((#1098));
#1098 = SURFACE_STYLE_USAGE(.BOTH.,#1099);
#1099 = SURFACE_SIDE_STYLE('',(#1100));
#1100 = SURFACE_STYLE_FILL_AREA(#1101);
#1101 = FILL_AREA_STYLE('',(#1102));
#1102 = FILL_AREA_STYLE_COLOUR('',#894);
#1103 = OVER_RIDING_STYLED_ITEM('overriding color',(#1104),#845,#1066);
#1104 = PRESENTATION_STYLE_ASSIGNMENT((#1105));
#1105 = SURFACE_STYLE_USAGE(.BOTH.,#1106);
#1106 = SURFACE_SIDE_STYLE('',(#1107));
#1107 = SURFACE_STYLE_FILL_AREA(#1108);
#1108 = FILL_AREA_STYLE('',(#1109));
#1109 = FILL_AREA_STYLE_COLOUR('',#894);
#1110 = OVER_RIDING_STYLED_ITEM('overriding color',(#1111),#857,#1066);
#1111 = PRESENTATION_STYLE_ASSIGNMENT((#1112));
#1112 = SURFACE_STYLE_USAGE(.BOTH.,#1113);
#1113 = SURFACE_SIDE_STYLE('',(#1114));
#1114 = SURFACE_STYLE_FILL_AREA(#1115);
#1115 = FILL_AREA_STYLE('',(#1116));
#1116 = FILL_AREA_STYLE_COLOUR('',#894);
ENDSEC;
END-ISO-10303-21;
