ISO-10303-21;
HEADER;
FILE_DESCRIPTION (( 'STEP AP214' ),
    '1' );
FILE_NAME ('MGV2016101R0M-10.STEP',
    '2021-05-11T23:40:48',
    ( '' ),
    ( '' ),
    'SwSTEP 2.0',
    'SolidWorks 2017',
    '' );
FILE_SCHEMA (( 'AUTOMOTIVE_DESIGN' ));
ENDSEC;

DATA;
#1 = DIRECTION ( 'NONE',  ( -0.0000000000000000000, -0.0000000000000000000, -1.000000000000000000 ) ) ;
#2 = LINE ( 'NONE', #336, #150 ) ;
#3 = DIRECTION ( 'NONE',  ( -0.0000000000000000000, -1.000000000000000000, -0.0000000000000000000 ) ) ;
#4 = EDGE_CURVE ( 'NONE', #368, #274, #85, .T. ) ;
#5 = ORIENTED_EDGE ( 'NONE', *, *, #850, .T. ) ;
#6 = AXIS2_PLACEMENT_3D ( 'NONE', #39, #607, #182 ) ;
#7 = VERTEX_POINT ( 'NONE', #233 ) ;
#8 = CARTESIAN_POINT ( 'NONE',  ( -0.9999999999999995600, 0.07499999999999999700, -0.5750000000000000700 ) ) ;
#9 = DIRECTION ( 'NONE',  ( 0.0000000000000000000, 1.000000000000000000, 0.0000000000000000000 ) ) ;
#10 = UNCERTAINTY_MEASURE_WITH_UNIT (LENGTH_MEASURE( 1.000000000000000100E-005 ), #421, 'distance_accuracy_value', 'NONE');
#11 = VECTOR ( 'NONE', #177, 1000.000000000000000 ) ;
#12 = FACE_OUTER_BOUND ( 'NONE', #868, .T. ) ;
#13 = DIRECTION ( 'NONE',  ( -0.0000000000000000000, 0.0000000000000000000, 1.000000000000000000 ) ) ;
#14 =( LENGTH_UNIT ( ) NAMED_UNIT ( * ) SI_UNIT ( .MILLI., .METRE. ) );
#15 = ORIENTED_EDGE ( 'NONE', *, *, #186, .T. ) ;
#16 = DIRECTION ( 'NONE',  ( 0.0000000000000000000, 1.000000000000000000, 0.0000000000000000000 ) ) ;
#17 = CARTESIAN_POINT ( 'NONE',  ( 0.9249999999999998200, 1.000000000000000000, -0.5750000000000000700 ) ) ;
#18 = LINE ( 'NONE', #720, #907 ) ;
#19 = UNCERTAINTY_MEASURE_WITH_UNIT (LENGTH_MEASURE( 1.000000000000000100E-005 ), #799, 'distance_accuracy_value', 'NONE');
#20 = CARTESIAN_POINT ( 'NONE',  ( -0.9249999999999998200, 1.000000000000000000, -0.6500000000000000200 ) ) ;
#21 = VECTOR ( 'NONE', #396, 1000.000000000000000 ) ;
#22 = CARTESIAN_POINT ( 'NONE',  ( 0.9249999999999998200, 1.000000000000000000, 0.6500000000000000200 ) ) ;
#23 = FACE_OUTER_BOUND ( 'NONE', #129, .T. ) ;
#24 = ORIENTED_EDGE ( 'NONE', *, *, #770, .F. ) ;
#25 = DIRECTION ( 'NONE',  ( 1.000000000000000000, 0.0000000000000000000, 0.0000000000000000000 ) ) ;
#26 = ORIENTED_EDGE ( 'NONE', *, *, #317, .F. ) ;
#27 = DIRECTION ( 'NONE',  ( 0.0000000000000000000, 1.000000000000000000, 0.0000000000000000000 ) ) ;
#28 = ADVANCED_FACE ( 'NONE', ( #242 ), #726, .F. ) ;
#29 = ORIENTED_EDGE ( 'NONE', *, *, #45, .T. ) ;
#30 = EDGE_CURVE ( 'NONE', #622, #529, #44, .T. ) ;
#31 = CARTESIAN_POINT ( 'NONE',  ( 0.9249999999999998200, 0.07499999999999999700, 0.6500000000000000200 ) ) ;
#32 = DIRECTION ( 'NONE',  ( -0.0000000000000000000, -0.0000000000000000000, -1.000000000000000000 ) ) ;
#33 = LINE ( 'NONE', #558, #494 ) ;
#34 = ADVANCED_FACE ( 'NONE', ( #592 ), #191, .T. ) ;
#35 = CARTESIAN_POINT ( 'NONE',  ( 0.9249999999999998200, 0.0000000000000000000, -0.6500000000000001300 ) ) ;
#36 =( NAMED_UNIT ( * ) PLANE_ANGLE_UNIT ( ) SI_UNIT ( $, .RADIAN. ) );
#37 = VECTOR ( 'NONE', #94, 1000.000000000000000 ) ;
#38 = CARTESIAN_POINT ( 'NONE',  ( 0.5749999999999998400, 0.07499999999999999700, 0.6500000000000000200 ) ) ;
#39 = CARTESIAN_POINT ( 'NONE',  ( 0.9249999999999998200, 0.07499999999999999700, 0.6500000000000001300 ) ) ;
#40 = ADVANCED_FACE ( 'NONE', ( #221 ), #243, .F. ) ;
#41 = EDGE_CURVE ( 'NONE', #778, #858, #755, .T. ) ;
#42 = VERTEX_POINT ( 'NONE', #787 ) ;
#43 = CARTESIAN_POINT ( 'NONE',  ( 0.5000000000000000000, 0.07499999999999999700, -0.5749999999999999600 ) ) ;
#44 = CIRCLE ( 'NONE', #89, 0.07499999999999987200 ) ;
#45 = EDGE_CURVE ( 'NONE', #893, #864, #18, .T. ) ;
#46 = DIRECTION ( 'NONE',  ( 1.000000000000000000, 0.0000000000000000000, 0.0000000000000000000 ) ) ;
#47 = PRESENTATION_STYLE_ASSIGNMENT (( #836 ) ) ;
#48 = SURFACE_SIDE_STYLE ('',( #613 ) ) ;
#49 = LINE ( 'NONE', #654, #513 ) ;
#50 = DIRECTION ( 'NONE',  ( -0.0000000000000000000, -1.000000000000000000, -0.0000000000000000000 ) ) ;
#51 = ORIENTED_EDGE ( 'NONE', *, *, #707, .F. ) ;
#52 = CARTESIAN_POINT ( 'NONE',  ( -0.5749999999999998400, 0.0000000000000000000, -0.6500000000000001300 ) ) ;
#53 = STYLED_ITEM ( 'NONE', ( #618 ), #653 ) ;
#54 = DIRECTION ( 'NONE',  ( 0.0000000000000000000, 0.0000000000000000000, 1.000000000000000000 ) ) ;
#55 = EDGE_LOOP ( 'NONE', ( #320, #112, #346, #278, #436, #855 ) ) ;
#56 = EDGE_CURVE ( 'NONE', #296, #179, #369, .T. ) ;
#57 = ORIENTED_EDGE ( 'NONE', *, *, #273, .T. ) ;
#58 = CARTESIAN_POINT ( 'NONE',  ( -0.9249999999999998200, 0.07499999999999999700, 0.5750000000000000700 ) ) ;
#59 = VERTEX_POINT ( 'NONE', #729 ) ;
#60 = CARTESIAN_POINT ( 'NONE',  ( 0.4999999999999998900, 0.07499999999999999700, -0.5749999999999999600 ) ) ;
#61 = FACE_OUTER_BOUND ( 'NONE', #178, .T. ) ;
#62 = FACE_OUTER_BOUND ( 'NONE', #567, .T. ) ;
#63 = VECTOR ( 'NONE', #371, 1000.000000000000000 ) ;
#64 = FILL_AREA_STYLE ('',( #141 ) ) ;
#65 = VERTEX_POINT ( 'NONE', #440 ) ;
#66 = ORIENTED_EDGE ( 'NONE', *, *, #215, .F. ) ;
#67 = ORIENTED_EDGE ( 'NONE', *, *, #395, .F. ) ;
#68 = AXIS2_PLACEMENT_3D ( 'NONE', #151, #71, #147 ) ;
#69 = FACE_OUTER_BOUND ( 'NONE', #321, .T. ) ;
#70 = ORIENTED_EDGE ( 'NONE', *, *, #696, .T. ) ;
#71 = DIRECTION ( 'NONE',  ( -0.0000000000000000000, -1.000000000000000000, -0.0000000000000000000 ) ) ;
#72 = VECTOR ( 'NONE', #1, 1000.000000000000000 ) ;
#73 = CARTESIAN_POINT ( 'NONE',  ( 0.9249999999999998200, 0.0000000000000000000, -0.6500000000000001300 ) ) ;
#74 = EDGE_CURVE ( 'NONE', #274, #564, #831, .T. ) ;
#75 = DIRECTION ( 'NONE',  ( 0.0000000000000000000, 0.0000000000000000000, -1.000000000000000000 ) ) ;
#76 = LINE ( 'NONE', #500, #355 ) ;
#77 = ORIENTED_EDGE ( 'NONE', *, *, #717, .T. ) ;
#78 = ORIENTED_EDGE ( 'NONE', *, *, #186, .F. ) ;
#79 = FACE_OUTER_BOUND ( 'NONE', #679, .T. ) ;
#80 = DIRECTION ( 'NONE',  ( 0.0000000000000000000, 0.0000000000000000000, 1.000000000000000000 ) ) ;
#81 = AXIS2_PLACEMENT_3D ( 'NONE', #759, #409, #898 ) ;
#82 = CARTESIAN_POINT ( 'NONE',  ( -0.9250000000000000400, 1.000000000000000000, 0.8000000000000000400 ) ) ;
#83 = ORIENTED_EDGE ( 'NONE', *, *, #4, .F. ) ;
#84 = DIRECTION ( 'NONE',  ( -0.0000000000000000000, -1.000000000000000000, -0.0000000000000000000 ) ) ;
#85 = LINE ( 'NONE', #458, #600 ) ;
#86 = EDGE_CURVE ( 'NONE', #529, #145, #557, .T. ) ;
#87 = AXIS2_PLACEMENT_3D ( 'NONE', #419, #269, #687 ) ;
#88 = CARTESIAN_POINT ( 'NONE',  ( 0.5749999999999998400, 0.07499999999999999700, 0.5749999999999999600 ) ) ;
#89 = AXIS2_PLACEMENT_3D ( 'NONE', #231, #16, #80 ) ;
#90 = PLANE ( 'NONE',  #455 ) ;
#91 = FACE_OUTER_BOUND ( 'NONE', #271, .T. ) ;
#92 = DIRECTION ( 'NONE',  ( 1.000000000000000000, 0.0000000000000000000, -0.0000000000000000000 ) ) ;
#93 = AXIS2_PLACEMENT_3D ( 'NONE', #495, #120, #345 ) ;
#94 = DIRECTION ( 'NONE',  ( -0.0000000000000000000, -0.0000000000000000000, -1.000000000000000000 ) ) ;
#95 = VERTEX_POINT ( 'NONE', #800 ) ;
#96 = ADVANCED_FACE ( 'NONE', ( #348 ), #388, .F. ) ;
#97 = VERTEX_POINT ( 'NONE', #797 ) ;
#98 = AXIS2_PLACEMENT_3D ( 'NONE', #872, #606, #332 ) ;
#99 = ADVANCED_FACE ( 'NONE', ( #230 ), #877, .T. ) ;
#100 = LINE ( 'NONE', #325, #736 ) ;
#101 = PRESENTATION_LAYER_ASSIGNMENT (  '', '', ( #286 ) ) ;
#102 = LINE ( 'NONE', #669, #444 ) ;
#103 = CARTESIAN_POINT ( 'NONE',  ( -0.9999999999999995600, 1.000000000000000000, -0.5750000000000000700 ) ) ;
#104 = DIRECTION ( 'NONE',  ( 0.0000000000000000000, 1.000000000000000000, 0.0000000000000000000 ) ) ;
#105 = ORIENTED_EDGE ( 'NONE', *, *, #215, .T. ) ;
#106 = ORIENTED_EDGE ( 'NONE', *, *, #240, .T. ) ;
#107 = CARTESIAN_POINT ( 'NONE',  ( 0.4999999999999998900, 0.07499999999999999700, -0.5749999999999999600 ) ) ;
#108 = LINE ( 'NONE', #338, #408 ) ;
#109 = DIRECTION ( 'NONE',  ( 0.0000000000000000000, 1.000000000000000000, 0.0000000000000000000 ) ) ;
#110 = FACE_OUTER_BOUND ( 'NONE', #264, .T. ) ;
#111 = EDGE_CURVE ( 'NONE', #65, #502, #783, .T. ) ;
#112 = ORIENTED_EDGE ( 'NONE', *, *, #41, .T. ) ;
#113 = DIRECTION ( 'NONE',  ( 1.000000000000000000, -0.0000000000000000000, -0.0000000000000000000 ) ) ;
#114 = AXIS2_PLACEMENT_3D ( 'NONE', #58, #690, #407 ) ;
#115 = CARTESIAN_POINT ( 'NONE',  ( -0.9249999999999998200, 0.0000000000000000000, -0.6500000000000000200 ) ) ;
#116 = VERTEX_POINT ( 'NONE', #468 ) ;
#117 = EDGE_CURVE ( 'NONE', #42, #179, #683, .T. ) ;
#118 = ORIENTED_EDGE ( 'NONE', *, *, #383, .F. ) ;
#119 = ORIENTED_EDGE ( 'NONE', *, *, #4, .T. ) ;
#120 = DIRECTION ( 'NONE',  ( 0.0000000000000000000, 0.0000000000000000000, 1.000000000000000000 ) ) ;
#121 = CYLINDRICAL_SURFACE ( 'NONE', #399, 0.07499999999999987200 ) ;
#122 = DIRECTION ( 'NONE',  ( 0.0000000000000000000, 0.0000000000000000000, 1.000000000000000000 ) ) ;
#123 = CARTESIAN_POINT ( 'NONE',  ( 0.9999999999999995600, 0.0000000000000000000, -0.5750000000000000700 ) ) ;
#124 =( GEOMETRIC_REPRESENTATION_CONTEXT ( 3 ) GLOBAL_UNCERTAINTY_ASSIGNED_CONTEXT ( ( #10 ) ) GLOBAL_UNIT_ASSIGNED_CONTEXT ( ( #421, #134, #354 ) ) REPRESENTATION_CONTEXT ( 'NONE', 'WORKASPACE' ) );
#125 = CARTESIAN_POINT ( 'NONE',  ( -0.9999999999999995600, 1.000000000000000000, 0.5750000000000000700 ) ) ;
#126 = CIRCLE ( 'NONE', #298, 0.07499999999999998300 ) ;
#127 = AXIS2_PLACEMENT_3D ( 'NONE', #520, #84, #381 ) ;
#128 = PLANE ( 'NONE',  #161 ) ;
#129 = EDGE_LOOP ( 'NONE', ( #515, #485, #704, #609 ) ) ;
#130 = ORIENTED_EDGE ( 'NONE', *, *, #860, .T. ) ;
#131 = VECTOR ( 'NONE', #32, 1000.000000000000000 ) ;
#132 = EDGE_LOOP ( 'NONE', ( #568, #311, #851, #318 ) ) ;
#133 = VECTOR ( 'NONE', #46, 1000.000000000000000 ) ;
#134 =( NAMED_UNIT ( * ) PLANE_ANGLE_UNIT ( ) SI_UNIT ( $, .RADIAN. ) );
#135 = DIRECTION ( 'NONE',  ( 0.0000000000000000000, 0.0000000000000000000, 1.000000000000000000 ) ) ;
#136 = EDGE_CURVE ( 'NONE', #377, #410, #360, .T. ) ;
#137 = PRESENTATION_LAYER_ASSIGNMENT (  '', '', ( #488 ) ) ;
#138 = PRESENTATION_STYLE_ASSIGNMENT (( #791 ) ) ;
#139 = DIRECTION ( 'NONE',  ( 0.0000000000000000000, 1.000000000000000000, -0.0000000000000000000 ) ) ;
#140 = EDGE_LOOP ( 'NONE', ( #166, #51, #218, #827 ) ) ;
#141 = FILL_AREA_STYLE_COLOUR ( '', #322 ) ;
#142 = FACE_OUTER_BOUND ( 'NONE', #719, .T. ) ;
#143 = ORIENTED_EDGE ( 'NONE', *, *, #30, .T. ) ;
#144 = PLANE ( 'NONE',  #248 ) ;
#145 = VERTEX_POINT ( 'NONE', #541 ) ;
#146 = ORIENTED_EDGE ( 'NONE', *, *, #74, .T. ) ;
#147 = DIRECTION ( 'NONE',  ( 0.0000000000000000000, 0.0000000000000000000, -1.000000000000000000 ) ) ;
#148 = CYLINDRICAL_SURFACE ( 'NONE', #794, 0.07499999999999987200 ) ;
#149 = MECHANICAL_DESIGN_GEOMETRIC_PRESENTATION_REPRESENTATION (  '', ( #628 ), #394 ) ;
#150 = VECTOR ( 'NONE', #327, 1000.000000000000000 ) ;
#151 = CARTESIAN_POINT ( 'NONE',  ( -0.5749999999999998400, 0.07499999999999999700, -0.5749999999999999600 ) ) ;
#152 = DIRECTION ( 'NONE',  ( -0.0000000000000000000, -1.000000000000000000, -0.0000000000000000000 ) ) ;
#153 = ORIENTED_EDGE ( 'NONE', *, *, #902, .T. ) ;
#154 = DIRECTION ( 'NONE',  ( 0.0000000000000000000, -1.000000000000000000, 0.0000000000000000000 ) ) ;
#155 = VECTOR ( 'NONE', #843, 1000.000000000000000 ) ;
#156 = ORIENTED_EDGE ( 'NONE', *, *, #871, .T. ) ;
#157 = ORIENTED_EDGE ( 'NONE', *, *, #640, .F. ) ;
#158 = ORIENTED_EDGE ( 'NONE', *, *, #757, .T. ) ;
#159 = CARTESIAN_POINT ( 'NONE',  ( 0.9249999999999998200, 0.07499999999999999700, 0.8000000000000000400 ) ) ;
#160 = FACE_OUTER_BOUND ( 'NONE', #239, .T. ) ;
#161 = AXIS2_PLACEMENT_3D ( 'NONE', #420, #434, #514 ) ;
#162 = FILL_AREA_STYLE ('',( #452 ) ) ;
#163 = CARTESIAN_POINT ( 'NONE',  ( -0.9249999999999998200, 0.07499999999999999700, 0.6500000000000001300 ) ) ;
#164 =( NAMED_UNIT ( * ) PLANE_ANGLE_UNIT ( ) SI_UNIT ( $, .RADIAN. ) );
#165 = PRODUCT_DEFINITION_CONTEXT ( 'detailed design', #213, 'design' ) ;
#166 = ORIENTED_EDGE ( 'NONE', *, *, #387, .T. ) ;
#167 = ORIENTED_EDGE ( 'NONE', *, *, #696, .F. ) ;
#168 = EDGE_CURVE ( 'NONE', #368, #7, #543, .T. ) ;
#169 = ADVANCED_FACE ( 'NONE', ( #398 ), #171, .F. ) ;
#170 = PLANE ( 'NONE',  #660 ) ;
#171 = PLANE ( 'NONE',  #6 ) ;
#172 = CARTESIAN_POINT ( 'NONE',  ( 0.5749999999999998400, 0.0000000000000000000, 0.5749999999999999600 ) ) ;
#173 = DIRECTION ( 'NONE',  ( 0.0000000000000000000, 1.000000000000000000, 0.0000000000000000000 ) ) ;
#174 = ORIENTED_EDGE ( 'NONE', *, *, #387, .F. ) ;
#175 = EDGE_LOOP ( 'NONE', ( #602, #741, #306, #625 ) ) ;
#176 = ADVANCED_FACE ( 'NONE', ( #378 ), #416, .F. ) ;
#177 = DIRECTION ( 'NONE',  ( 0.0000000000000000000, 0.0000000000000000000, 1.000000000000000000 ) ) ;
#178 = EDGE_LOOP ( 'NONE', ( #635, #833, #78, #888 ) ) ;
#179 = VERTEX_POINT ( 'NONE', #611 ) ;
#180 = MECHANICAL_DESIGN_GEOMETRIC_PRESENTATION_REPRESENTATION (  '', ( #53 ), #314 ) ;
#181 = DIRECTION ( 'NONE',  ( 0.0000000000000000000, 0.0000000000000000000, -1.000000000000000000 ) ) ;
#182 = DIRECTION ( 'NONE',  ( -1.000000000000000000, 0.0000000000000000000, -0.0000000000000000000 ) ) ;
#183 = ADVANCED_FACE ( 'NONE', ( #110 ), #121, .T. ) ;
#184 = DIRECTION ( 'NONE',  ( 0.0000000000000000000, 0.0000000000000000000, 1.000000000000000000 ) ) ;
#185 = FILL_AREA_STYLE ('',( #414 ) ) ;
#186 = EDGE_CURVE ( 'NONE', #7, #393, #859, .T. ) ;
#187 = CARTESIAN_POINT ( 'NONE',  ( 0.9249999999999998200, 0.0000000000000000000, 0.6500000000000001300 ) ) ;
#188 = DIRECTION ( 'NONE',  ( 0.0000000000000000000, 0.0000000000000000000, 1.000000000000000000 ) ) ;
#189 = ORIENTED_EDGE ( 'NONE', *, *, #451, .F. ) ;
#190 = EDGE_CURVE ( 'NONE', #261, #376, #310, .T. ) ;
#191 = CYLINDRICAL_SURFACE ( 'NONE', #634, 0.07499999999999987200 ) ;
#192 = CARTESIAN_POINT ( 'NONE',  ( 0.5749999999999998400, 0.07499999999999999700, 0.5749999999999999600 ) ) ;
#193 = CARTESIAN_POINT ( 'NONE',  ( 0.9249999999999998200, 1.000000000000000000, -0.5750000000000000700 ) ) ;
#194 = AXIS2_PLACEMENT_3D ( 'NONE', #846, #637, #429 ) ;
#195 = LINE ( 'NONE', #197, #133 ) ;
#196 = LINE ( 'NONE', #103, #11 ) ;
#197 = CARTESIAN_POINT ( 'NONE',  ( -0.9249999999999998200, 0.0000000000000000000, 0.6500000000000001300 ) ) ;
#198 = DIRECTION ( 'NONE',  ( 0.0000000000000000000, 0.0000000000000000000, -1.000000000000000000 ) ) ;
#199 = LINE ( 'NONE', #38, #302 ) ;
#200 = DIRECTION ( 'NONE',  ( 0.0000000000000000000, 0.0000000000000000000, 1.000000000000000000 ) ) ;
#201 = AXIS2_PLACEMENT_3D ( 'NONE', #892, #214, #208 ) ;
#202 = CARTESIAN_POINT ( 'NONE',  ( 0.9250000000000000400, 1.000000000000000000, 0.8000000000000000400 ) ) ;
#203 = ORIENTED_EDGE ( 'NONE', *, *, #365, .F. ) ;
#204 = LINE ( 'NONE', #774, #487 ) ;
#205 = ORIENTED_EDGE ( 'NONE', *, *, #724, .T. ) ;
#206 = CARTESIAN_POINT ( 'NONE',  ( 0.9249999999999998200, 0.07499999999999999700, -0.6500000000000001300 ) ) ;
#207 = ORIENTED_EDGE ( 'NONE', *, *, #770, .T. ) ;
#208 = DIRECTION ( 'NONE',  ( 0.0000000000000000000, 0.0000000000000000000, -1.000000000000000000 ) ) ;
#209 = APPLICATION_PROTOCOL_DEFINITION ( 'draft international standard', 'automotive_design', 1998, #213 ) ;
#210 = MANIFOLD_SOLID_BREP ( 'Pad[2]', #764 ) ;
#211 = CARTESIAN_POINT ( 'NONE',  ( 0.9999999999999995600, 1.000000000000000000, -0.5750000000000000700 ) ) ;
#212 =( GEOMETRIC_REPRESENTATION_CONTEXT ( 3 ) GLOBAL_UNCERTAINTY_ASSIGNED_CONTEXT ( ( #904 ) ) GLOBAL_UNIT_ASSIGNED_CONTEXT ( ( #217, #367, #772 ) ) REPRESENTATION_CONTEXT ( 'NONE', 'WORKASPACE' ) );
#213 = APPLICATION_CONTEXT ( 'automotive_design' ) ;
#214 = DIRECTION ( 'NONE',  ( 0.0000000000000000000, 1.000000000000000000, -0.0000000000000000000 ) ) ;
#215 = EDGE_CURVE ( 'NONE', #668, #296, #450, .T. ) ;
#216 = LINE ( 'NONE', #713, #748 ) ;
#217 =( LENGTH_UNIT ( ) NAMED_UNIT ( * ) SI_UNIT ( .MILLI., .METRE. ) );
#218 = ORIENTED_EDGE ( 'NONE', *, *, #905, .F. ) ;
#219 = CARTESIAN_POINT ( 'NONE',  ( 0.9249999999999998200, 1.000000000000000000, 0.6500000000000000200 ) ) ;
#220 = ORIENTED_EDGE ( 'NONE', *, *, #190, .T. ) ;
#221 = FACE_OUTER_BOUND ( 'NONE', #792, .T. ) ;
#222 = DIRECTION ( 'NONE',  ( 0.0000000000000000000, -1.000000000000000000, 0.0000000000000000000 ) ) ;
#223 = CARTESIAN_POINT ( 'NONE',  ( 0.9249999999999998200, 0.07499999999999999700, -0.6500000000000001300 ) ) ;
#224 = CARTESIAN_POINT ( 'NONE',  ( -0.9249999999999998200, 0.07499999999999999700, 0.8000000000000000400 ) ) ;
#225 = ORIENTED_EDGE ( 'NONE', *, *, #86, .F. ) ;
#226 = LINE ( 'NONE', #629, #878 ) ;
#227 = ORIENTED_EDGE ( 'NONE', *, *, #847, .F. ) ;
#228 = CARTESIAN_POINT ( 'NONE',  ( -0.4999999999999998900, 0.07499999999999999700, -0.5749999999999999600 ) ) ;
#229 = VECTOR ( 'NONE', #546, 1000.000000000000000 ) ;
#230 = FACE_OUTER_BOUND ( 'NONE', #499, .T. ) ;
#231 = CARTESIAN_POINT ( 'NONE',  ( -0.9249999999999998200, 1.000000000000000000, -0.5750000000000000700 ) ) ;
#232 = VERTEX_POINT ( 'NONE', #552 ) ;
#233 = CARTESIAN_POINT ( 'NONE',  ( 0.9249999999999998200, 1.000000000000000000, -0.6500000000000001300 ) ) ;
#234 = FACE_OUTER_BOUND ( 'NONE', #55, .T. ) ;
#235 = COLOUR_RGB ( '',0.2509803921568627400, 0.2509803921568627400, 0.2509803921568627400 ) ;
#236 =( NAMED_UNIT ( * ) SI_UNIT ( $, .STERADIAN. ) SOLID_ANGLE_UNIT ( ) );
#237 = ORIENTED_EDGE ( 'NONE', *, *, #678, .T. ) ;
#238 = DIRECTION ( 'NONE',  ( 0.0000000000000000000, 0.0000000000000000000, -1.000000000000000000 ) ) ;
#239 = EDGE_LOOP ( 'NONE', ( #77, #526, #581, #220 ) ) ;
#240 = EDGE_CURVE ( 'NONE', #867, #368, #108, .T. ) ;
#241 = DIRECTION ( 'NONE',  ( -0.0000000000000000000, -1.000000000000000000, -0.0000000000000000000 ) ) ;
#242 = FACE_OUTER_BOUND ( 'NONE', #283, .T. ) ;
#243 = PLANE ( 'NONE',  #586 ) ;
#244 = EDGE_CURVE ( 'NONE', #464, #97, #650, .T. ) ;
#245 = DIRECTION ( 'NONE',  ( -2.344220913482171700E-016, 1.000000000000000000, 0.0000000000000000000 ) ) ;
#246 = DIRECTION ( 'NONE',  ( -0.0000000000000000000, -1.000000000000000000, -0.0000000000000000000 ) ) ;
#247 = ADVANCED_FACE ( 'NONE', ( #69 ), #756, .F. ) ;
#248 = AXIS2_PLACEMENT_3D ( 'NONE', #373, #222, #380 ) ;
#249 = DIRECTION ( 'NONE',  ( -0.0000000000000000000, -1.000000000000000000, -0.0000000000000000000 ) ) ;
#250 = ORIENTED_EDGE ( 'NONE', *, *, #881, .F. ) ;
#251 = ADVANCED_FACE ( 'NONE', ( #691 ), #276, .F. ) ;
#252 = ORIENTED_EDGE ( 'NONE', *, *, #340, .F. ) ;
#253 = EDGE_CURVE ( 'NONE', #858, #116, #126, .T. ) ;
#254 = ORIENTED_EDGE ( 'NONE', *, *, #405, .T. ) ;
#255 = CARTESIAN_POINT ( 'NONE',  ( -0.5749999999999998400, 0.0000000000000000000, 0.6500000000000000200 ) ) ;
#256 = CIRCLE ( 'NONE', #883, 0.07499999999999998300 ) ;
#257 = AXIS2_PLACEMENT_3D ( 'NONE', #272, #685, #482 ) ;
#258 = LINE ( 'NONE', #738, #576 ) ;
#259 = FACE_OUTER_BOUND ( 'NONE', #765, .T. ) ;
#260 = PLANE ( 'NONE',  #98 ) ;
#261 = VERTEX_POINT ( 'NONE', #621 ) ;
#262 = CARTESIAN_POINT ( 'NONE',  ( -0.9250000000000000400, 1.000000000000000000, 0.8000000000000000400 ) ) ;
#263 = VERTEX_POINT ( 'NONE', #60 ) ;
#264 = EDGE_LOOP ( 'NONE', ( #146, #475, #26, #807, #119 ) ) ;
#265 = VECTOR ( 'NONE', #682, 1000.000000000000000 ) ;
#266 =( NAMED_UNIT ( * ) SI_UNIT ( $, .STERADIAN. ) SOLID_ANGLE_UNIT ( ) );
#267 = PRESENTATION_LAYER_ASSIGNMENT (  '', '', ( #53 ) ) ;
#268 = SURFACE_STYLE_FILL_AREA ( #802 ) ;
#269 = DIRECTION ( 'NONE',  ( -1.000000000000000000, 0.0000000000000000000, 0.0000000000000000000 ) ) ;
#270 = LINE ( 'NONE', #854, #619 ) ;
#271 = EDGE_LOOP ( 'NONE', ( #466, #818, #397, #427, #906, #608, #174, #491 ) ) ;
#272 = CARTESIAN_POINT ( 'NONE',  ( -0.9249999999999998200, 0.07499999999999999700, 0.6500000000000001300 ) ) ;
#273 = EDGE_CURVE ( 'NONE', #864, #145, #703, .T. ) ;
#274 = VERTEX_POINT ( 'NONE', #123 ) ;
#275 = CARTESIAN_POINT ( 'NONE',  ( -0.9999999999999995600, 0.0000000000000000000, -0.5750000000000000700 ) ) ;
#276 = PLANE ( 'NONE',  #81 ) ;
#277 = DIRECTION ( 'NONE',  ( -0.0000000000000000000, -0.0000000000000000000, -1.000000000000000000 ) ) ;
#278 = ORIENTED_EDGE ( 'NONE', *, *, #497, .T. ) ;
#279 = LINE ( 'NONE', #547, #810 ) ;
#280 = DIRECTION ( 'NONE',  ( 0.0000000000000000000, 1.000000000000000000, 0.0000000000000000000 ) ) ;
#281 = APPLICATION_CONTEXT ( 'automotive_design' ) ;
#282 = DIRECTION ( 'NONE',  ( 0.0000000000000000000, 1.000000000000000000, 0.0000000000000000000 ) ) ;
#283 = EDGE_LOOP ( 'NONE', ( #519, #505, #430, #66 ) ) ;
#284 = ORIENTED_EDGE ( 'NONE', *, *, #484, .T. ) ;
#285 = DIRECTION ( 'NONE',  ( -0.0000000000000000000, -0.0000000000000000000, -1.000000000000000000 ) ) ;
#286 = STYLED_ITEM ( 'NONE', ( #428 ), #210 ) ;
#287 = ORIENTED_EDGE ( 'NONE', *, *, #850, .F. ) ;
#288 = DIRECTION ( 'NONE',  ( -0.0000000000000000000, -1.000000000000000000, -0.0000000000000000000 ) ) ;
#289 = EDGE_CURVE ( 'NONE', #858, #742, #204, .T. ) ;
#290 = VECTOR ( 'NONE', #423, 1000.000000000000000 ) ;
#291 = VECTOR ( 'NONE', #593, 1000.000000000000000 ) ;
#292 = CARTESIAN_POINT ( 'NONE',  ( -0.9249999999999998200, 0.07499999999999999700, -0.5750000000000000700 ) ) ;
#293 = ORIENTED_EDGE ( 'NONE', *, *, #790, .T. ) ;
#294 = DIRECTION ( 'NONE',  ( 0.0000000000000000000, 0.0000000000000000000, -1.000000000000000000 ) ) ;
#295 = EDGE_LOOP ( 'NONE', ( #297, #626, #227, #880 ) ) ;
#296 = VERTEX_POINT ( 'NONE', #624 ) ;
#297 = ORIENTED_EDGE ( 'NONE', *, *, #773, .T. ) ;
#298 = AXIS2_PLACEMENT_3D ( 'NONE', #633, #422, #498 ) ;
#299 = LINE ( 'NONE', #676, #390 ) ;
#300 = CARTESIAN_POINT ( 'NONE',  ( -0.9999999999999995600, 0.07499999999999999700, 0.5750000000000000700 ) ) ;
#301 = EDGE_CURVE ( 'NONE', #725, #274, #76, .T. ) ;
#302 = VECTOR ( 'NONE', #545, 1000.000000000000000 ) ;
#303 = DIRECTION ( 'NONE',  ( -1.000000000000000000, -0.0000000000000000000, -0.0000000000000000000 ) ) ;
#304 = VECTOR ( 'NONE', #3, 1000.000000000000000 ) ;
#305 = DIRECTION ( 'NONE',  ( 0.0000000000000000000, 0.0000000000000000000, -1.000000000000000000 ) ) ;
#306 = ORIENTED_EDGE ( 'NONE', *, *, #604, .F. ) ;
#307 = CARTESIAN_POINT ( 'NONE',  ( -0.9999999999999995600, 0.07499999999999999700, -0.5750000000000000700 ) ) ;
#308 = CARTESIAN_POINT ( 'NONE',  ( -0.9999999999999995600, 0.0000000000000000000, 0.5750000000000000700 ) ) ;
#309 = PRODUCT_DEFINITION_SHAPE ( 'NONE', 'NONE',  #578 ) ;
#310 = LINE ( 'NONE', #262, #528 ) ;
#311 = ORIENTED_EDGE ( 'NONE', *, *, #813, .F. ) ;
#312 = CARTESIAN_POINT ( 'NONE',  ( 0.5000000000000000000, 0.07499999999999999700, 0.5749999999999999600 ) ) ;
#313 = LINE ( 'NONE', #551, #522 ) ;
#314 =( GEOMETRIC_REPRESENTATION_CONTEXT ( 3 ) GLOBAL_UNCERTAINTY_ASSIGNED_CONTEXT ( ( #403 ) ) GLOBAL_UNIT_ASSIGNED_CONTEXT ( ( #14, #460, #523 ) ) REPRESENTATION_CONTEXT ( 'NONE', 'WORKASPACE' ) );
#315 = LINE ( 'NONE', #849, #72 ) ;
#316 = ORIENTED_EDGE ( 'NONE', *, *, #798, .T. ) ;
#317 = EDGE_CURVE ( 'NONE', #7, #59, #803, .T. ) ;
#318 = ORIENTED_EDGE ( 'NONE', *, *, #289, .T. ) ;
#319 = DIRECTION ( 'NONE',  ( 1.000000000000000000, 2.344220913482171700E-016, -0.0000000000000000000 ) ) ;
#320 = ORIENTED_EDGE ( 'NONE', *, *, #902, .F. ) ;
#321 = EDGE_LOOP ( 'NONE', ( #538, #694, #252, #614 ) ) ;
#322 = COLOUR_RGB ( '',0.7921568627450980000, 0.8196078431372548800, 0.9333333333333333500 ) ;
#323 = CARTESIAN_POINT ( 'NONE',  ( 0.9249999999999998200, 0.0000000000000000000, -0.5750000000000000700 ) ) ;
#324 = CYLINDRICAL_SURFACE ( 'NONE', #570, 0.07499999999999998300 ) ;
#325 = CARTESIAN_POINT ( 'NONE',  ( 0.9249999999999998200, 0.0000000000000000000, 0.6500000000000001300 ) ) ;
#326 = ORIENTED_EDGE ( 'NONE', *, *, #832, .T. ) ;
#327 = DIRECTION ( 'NONE',  ( 2.344220913482171700E-016, -1.000000000000000000, 0.0000000000000000000 ) ) ;
#328 = CIRCLE ( 'NONE', #747, 0.07499999999999987200 ) ;
#329 = AXIS2_PLACEMENT_3D ( 'NONE', #899, #351, #135 ) ;
#330 = ORIENTED_EDGE ( 'NONE', *, *, #365, .T. ) ;
#331 = ORIENTED_EDGE ( 'NONE', *, *, #862, .T. ) ;
#332 = DIRECTION ( 'NONE',  ( 0.0000000000000000000, -0.0000000000000000000, -1.000000000000000000 ) ) ;
#333 = DIRECTION ( 'NONE',  ( -0.0000000000000000000, -0.0000000000000000000, -1.000000000000000000 ) ) ;
#334 = VECTOR ( 'NONE', #342, 1000.000000000000000 ) ;
#335 =( GEOMETRIC_REPRESENTATION_CONTEXT ( 3 ) GLOBAL_UNCERTAINTY_ASSIGNED_CONTEXT ( ( #560 ) ) GLOBAL_UNIT_ASSIGNED_CONTEXT ( ( #343, #36, #266 ) ) REPRESENTATION_CONTEXT ( 'NONE', 'WORKASPACE' ) );
#336 = CARTESIAN_POINT ( 'NONE',  ( -0.9250000000000000400, 1.000000000000000000, -0.8000000000000000400 ) ) ;
#337 = VECTOR ( 'NONE', #599, 1000.000000000000000 ) ;
#338 = CARTESIAN_POINT ( 'NONE',  ( 0.9999999999999995600, 1.000000000000000000, 0.5750000000000000700 ) ) ;
#339 = SURFACE_STYLE_FILL_AREA ( #162 ) ;
#340 = EDGE_CURVE ( 'NONE', #95, #42, #435, .T. ) ;
#341 = VERTEX_POINT ( 'NONE', #425 ) ;
#342 = DIRECTION ( 'NONE',  ( 0.0000000000000000000, 0.0000000000000000000, 1.000000000000000000 ) ) ;
#343 =( LENGTH_UNIT ( ) NAMED_UNIT ( * ) SI_UNIT ( .MILLI., .METRE. ) );
#344 = ORIENTED_EDGE ( 'NONE', *, *, #871, .F. ) ;
#345 = DIRECTION ( 'NONE',  ( 1.000000000000000000, 0.0000000000000000000, -0.0000000000000000000 ) ) ;
#346 = ORIENTED_EDGE ( 'NONE', *, *, #253, .T. ) ;
#347 = CARTESIAN_POINT ( 'NONE',  ( 0.9250000000000000400, 1.000000000000000000, 0.8000000000000000400 ) ) ;
#348 = FACE_OUTER_BOUND ( 'NONE', #760, .T. ) ;
#349 = LINE ( 'NONE', #206, #734 ) ;
#350 = CARTESIAN_POINT ( 'NONE',  ( 0.9249999999999998200, 0.07499999999999999700, -0.5750000000000000700 ) ) ;
#351 = DIRECTION ( 'NONE',  ( 0.0000000000000000000, 1.000000000000000000, 0.0000000000000000000 ) ) ;
#352 = EDGE_CURVE ( 'NONE', #42, #261, #857, .T. ) ;
#353 = ORIENTED_EDGE ( 'NONE', *, *, #737, .F. ) ;
#354 =( NAMED_UNIT ( * ) SI_UNIT ( $, .STERADIAN. ) SOLID_ANGLE_UNIT ( ) );
#355 = VECTOR ( 'NONE', #285, 1000.000000000000000 ) ;
#356 = DIRECTION ( 'NONE',  ( -0.0000000000000000000, -1.000000000000000000, -0.0000000000000000000 ) ) ;
#357 = AXIS2_PLACEMENT_3D ( 'NONE', #866, #27, #401 ) ;
#358 = ADVANCED_BREP_SHAPE_REPRESENTATION ( 'MGV2016101R0M-10', ( #620, #653, #210, #363 ), #212 ) ;
#359 = ORIENTED_EDGE ( 'NONE', *, *, #289, .F. ) ;
#360 = CIRCLE ( 'NONE', #835, 0.07499999999999987200 ) ;
#361 = PRODUCT_CONTEXT ( 'NONE', #281, 'mechanical' ) ;
#362 = ORIENTED_EDGE ( 'NONE', *, *, #582, .T. ) ;
#363 = AXIS2_PLACEMENT_3D ( 'NONE', #821, #710, #645 ) ;
#364 = LINE ( 'NONE', #555, #532 ) ;
#365 = EDGE_CURVE ( 'NONE', #647, #232, #328, .T. ) ;
#366 = AXIS2_PLACEMENT_3D ( 'NONE', #402, #173, #876 ) ;
#367 =( NAMED_UNIT ( * ) PLANE_ANGLE_UNIT ( ) SI_UNIT ( $, .RADIAN. ) );
#368 = VERTEX_POINT ( 'NONE', #211 ) ;
#369 = LINE ( 'NONE', #375, #889 ) ;
#370 = DIRECTION ( 'NONE',  ( 0.0000000000000000000, 0.0000000000000000000, -1.000000000000000000 ) ) ;
#371 = DIRECTION ( 'NONE',  ( 1.000000000000000000, 0.0000000000000000000, 0.0000000000000000000 ) ) ;
#372 = ORIENTED_EDGE ( 'NONE', *, *, #860, .F. ) ;
#373 = CARTESIAN_POINT ( 'NONE',  ( -0.9250000000000000400, 1.000000000000000000, 0.8000000000000000400 ) ) ;
#374 = ORIENTED_EDGE ( 'NONE', *, *, #352, .T. ) ;
#375 = CARTESIAN_POINT ( 'NONE',  ( 0.9250000000000000400, 1.000000000000000000, -0.8000000000000000400 ) ) ;
#376 = VERTEX_POINT ( 'NONE', #901 ) ;
#377 = VERTEX_POINT ( 'NONE', #125 ) ;
#378 = FACE_OUTER_BOUND ( 'NONE', #708, .T. ) ;
#379 = EDGE_CURVE ( 'NONE', #341, #793, #226, .T. ) ;
#380 = DIRECTION ( 'NONE',  ( 0.0000000000000000000, -0.0000000000000000000, -1.000000000000000000 ) ) ;
#381 = DIRECTION ( 'NONE',  ( 0.0000000000000000000, 0.0000000000000000000, -1.000000000000000000 ) ) ;
#382 = ORIENTED_EDGE ( 'NONE', *, *, #832, .F. ) ;
#383 = EDGE_CURVE ( 'NONE', #97, #893, #782, .T. ) ;
#384 = DIRECTION ( 'NONE',  ( 0.0000000000000000000, 0.0000000000000000000, 1.000000000000000000 ) ) ;
#385 = VECTOR ( 'NONE', #569, 1000.000000000000000 ) ;
#386 = ORIENTED_EDGE ( 'NONE', *, *, #813, .T. ) ;
#387 = EDGE_CURVE ( 'NONE', #508, #879, #680, .T. ) ;
#388 = PLANE ( 'NONE',  #681 ) ;
#389 = VECTOR ( 'NONE', #413, 1000.000000000000000 ) ;
#390 = VECTOR ( 'NONE', #610, 1000.000000000000000 ) ;
#391 = MECHANICAL_DESIGN_GEOMETRIC_PRESENTATION_REPRESENTATION (  '', ( #488 ), #124 ) ;
#392 = ADVANCED_FACE ( 'NONE', ( #142 ), #769, .F. ) ;
#393 = VERTEX_POINT ( 'NONE', #219 ) ;
#394 =( GEOMETRIC_REPRESENTATION_CONTEXT ( 3 ) GLOBAL_UNCERTAINTY_ASSIGNED_CONTEXT ( ( #19 ) ) GLOBAL_UNIT_ASSIGNED_CONTEXT ( ( #799, #164, #236 ) ) REPRESENTATION_CONTEXT ( 'NONE', 'WORKASPACE' ) );
#395 = EDGE_CURVE ( 'NONE', #622, #793, #418, .T. ) ;
#396 = DIRECTION ( 'NONE',  ( -1.000000000000000000, 0.0000000000000000000, 0.0000000000000000000 ) ) ;
#397 = ORIENTED_EDGE ( 'NONE', *, *, #405, .F. ) ;
#398 = FACE_OUTER_BOUND ( 'NONE', #817, .T. ) ;
#399 = AXIS2_PLACEMENT_3D ( 'NONE', #350, #822, #198 ) ;
#400 = LINE ( 'NONE', #743, #441 ) ;
#401 = DIRECTION ( 'NONE',  ( 0.0000000000000000000, -0.0000000000000000000, 1.000000000000000000 ) ) ;
#402 = CARTESIAN_POINT ( 'NONE',  ( -0.9249999999999998200, 0.0000000000000000000, 0.5750000000000000700 ) ) ;
#403 = UNCERTAINTY_MEASURE_WITH_UNIT (LENGTH_MEASURE( 1.000000000000000100E-005 ), #14, 'distance_accuracy_value', 'NONE');
#404 = ADVANCED_FACE ( 'NONE', ( #828 ), #128, .T. ) ;
#405 = EDGE_CURVE ( 'NONE', #895, #725, #476, .T. ) ;
#406 = ORIENTED_EDGE ( 'NONE', *, *, #273, .F. ) ;
#407 = DIRECTION ( 'NONE',  ( 0.0000000000000000000, -0.0000000000000000000, 1.000000000000000000 ) ) ;
#408 = VECTOR ( 'NONE', #754, 1000.000000000000000 ) ;
#409 = DIRECTION ( 'NONE',  ( 0.0000000000000000000, 1.000000000000000000, 0.0000000000000000000 ) ) ;
#410 = VERTEX_POINT ( 'NONE', #579 ) ;
#411 = AXIS2_PLACEMENT_3D ( 'NONE', #43, #627, #693 ) ;
#412 = ORIENTED_EDGE ( 'NONE', *, *, #549, .F. ) ;
#413 = DIRECTION ( 'NONE',  ( -0.0000000000000000000, -1.000000000000000000, -0.0000000000000000000 ) ) ;
#414 = FILL_AREA_STYLE_COLOUR ( '', #796 ) ;
#415 = CARTESIAN_POINT ( 'NONE',  ( -0.9249999999999998200, 0.07499999999999999700, -0.6500000000000000200 ) ) ;
#416 = PLANE ( 'NONE',  #257 ) ;
#417 = ORIENTED_EDGE ( 'NONE', *, *, #757, .F. ) ;
#418 = LINE ( 'NONE', #572, #751 ) ;
#419 = CARTESIAN_POINT ( 'NONE',  ( -0.9249999999999998200, 1.000000000000000000, -0.6500000000000000200 ) ) ;
#420 = CARTESIAN_POINT ( 'NONE',  ( 0.0000000000000000000, 0.0000000000000000000, 0.8000000000000000400 ) ) ;
#421 =( LENGTH_UNIT ( ) NAMED_UNIT ( * ) SI_UNIT ( .MILLI., .METRE. ) );
#422 = DIRECTION ( 'NONE',  ( 0.0000000000000000000, 1.000000000000000000, -0.0000000000000000000 ) ) ;
#423 = DIRECTION ( 'NONE',  ( -0.0000000000000000000, -0.0000000000000000000, -1.000000000000000000 ) ) ;
#424 = ORIENTED_EDGE ( 'NONE', *, *, #516, .T. ) ;
#425 = CARTESIAN_POINT ( 'NONE',  ( -0.5749999999999998400, 0.07499999999999999700, -0.6500000000000001300 ) ) ;
#426 = AXIS2_PLACEMENT_3D ( 'NONE', #347, #826, #890 ) ;
#427 = ORIENTED_EDGE ( 'NONE', *, *, #763, .F. ) ;
#428 = PRESENTATION_STYLE_ASSIGNMENT (( #477 ) ) ;
#429 = DIRECTION ( 'NONE',  ( 0.0000000000000000000, 0.0000000000000000000, -1.000000000000000000 ) ) ;
#430 = ORIENTED_EDGE ( 'NONE', *, *, #56, .F. ) ;
#431 = DIRECTION ( 'NONE',  ( -0.0000000000000000000, -0.0000000000000000000, -1.000000000000000000 ) ) ;
#432 = CARTESIAN_POINT ( 'NONE',  ( -0.5749999999999998400, 0.07499999999999999700, 0.5749999999999999600 ) ) ;
#433 = CYLINDRICAL_SURFACE ( 'NONE', #68, 0.07499999999999998300 ) ;
#434 = DIRECTION ( 'NONE',  ( -0.0000000000000000000, 0.0000000000000000000, 1.000000000000000000 ) ) ;
#435 = LINE ( 'NONE', #202, #478 ) ;
#436 = ORIENTED_EDGE ( 'NONE', *, *, #604, .T. ) ;
#437 = DIRECTION ( 'NONE',  ( -0.0000000000000000000, -1.000000000000000000, -0.0000000000000000000 ) ) ;
#438 = CARTESIAN_POINT ( 'NONE',  ( 0.9249999999999998200, 0.0000000000000000000, -0.5750000000000000700 ) ) ;
#439 = SHAPE_DEFINITION_REPRESENTATION ( #309, #358 ) ;
#440 = CARTESIAN_POINT ( 'NONE',  ( 0.5000000000000000000, 0.0000000000000000000, 0.5749999999999999600 ) ) ;
#441 = VECTOR ( 'NONE', #767, 1000.000000000000000 ) ;
#442 = DIRECTION ( 'NONE',  ( -0.0000000000000000000, -1.000000000000000000, -0.0000000000000000000 ) ) ;
#443 = MECHANICAL_DESIGN_GEOMETRIC_PRESENTATION_REPRESENTATION (  '', ( #286 ), #335 ) ;
#444 = VECTOR ( 'NONE', #249, 1000.000000000000000 ) ;
#445 = DIRECTION ( 'NONE',  ( 2.344220913482171700E-016, 1.000000000000000000, -0.0000000000000000000 ) ) ;
#446 = VERTEX_POINT ( 'NONE', #718 ) ;
#447 = DIRECTION ( 'NONE',  ( 0.0000000000000000000, 0.0000000000000000000, -1.000000000000000000 ) ) ;
#448 = ORIENTED_EDGE ( 'NONE', *, *, #763, .T. ) ;
#449 = EDGE_LOOP ( 'NONE', ( #894, #83, #848, #527 ) ) ;
#450 = LINE ( 'NONE', #820, #265 ) ;
#451 = EDGE_CURVE ( 'NONE', #742, #689, #749, .T. ) ;
#452 = FILL_AREA_STYLE_COLOUR ( '', #235 ) ;
#453 = ORIENTED_EDGE ( 'NONE', *, *, #780, .F. ) ;
#454 = CARTESIAN_POINT ( 'NONE',  ( 0.9249999999999998200, 0.07499999999999999700, 0.5750000000000000700 ) ) ;
#455 = AXIS2_PLACEMENT_3D ( 'NONE', #661, #457, #727 ) ;
#456 = LINE ( 'NONE', #275, #334 ) ;
#457 = DIRECTION ( 'NONE',  ( -1.000000000000000000, 0.0000000000000000000, 0.0000000000000000000 ) ) ;
#458 = CARTESIAN_POINT ( 'NONE',  ( 0.9999999999999995600, 0.07499999999999999700, -0.5750000000000000700 ) ) ;
#459 = VECTOR ( 'NONE', #649, 1000.000000000000000 ) ;
#460 =( NAMED_UNIT ( * ) PLANE_ANGLE_UNIT ( ) SI_UNIT ( $, .RADIAN. ) );
#461 = ADVANCED_FACE ( 'NONE', ( #473 ), #433, .T. ) ;
#462 = ORIENTED_EDGE ( 'NONE', *, *, #651, .T. ) ;
#463 = CARTESIAN_POINT ( 'NONE',  ( -0.5000000000000000000, 0.0000000000000000000, 0.5749999999999999600 ) ) ;
#464 = VERTEX_POINT ( 'NONE', #228 ) ;
#465 = ADVANCED_FACE ( 'NONE', ( #838 ), #587, .T. ) ;
#466 = ORIENTED_EDGE ( 'NONE', *, *, #74, .F. ) ;
#467 = DIRECTION ( 'NONE',  ( 0.0000000000000000000, -0.0000000000000000000, 1.000000000000000000 ) ) ;
#468 = CARTESIAN_POINT ( 'NONE',  ( -0.5000000000000000000, 0.07499999999999999700, 0.5749999999999999600 ) ) ;
#469 = LINE ( 'NONE', #825, #559 ) ;
#470 = LINE ( 'NONE', #869, #534 ) ;
#471 = CARTESIAN_POINT ( 'NONE',  ( 0.5000000000000000000, 0.0000000000000000000, -0.5749999999999999600 ) ) ;
#472 = LINE ( 'NONE', #530, #37 ) ;
#473 = FACE_OUTER_BOUND ( 'NONE', #175, .T. ) ;
#474 = CARTESIAN_POINT ( 'NONE',  ( -0.9249999999999998200, 0.07499999999999999700, 0.8000000000000000400 ) ) ;
#475 = ORIENTED_EDGE ( 'NONE', *, *, #484, .F. ) ;
#476 = CIRCLE ( 'NONE', #709, 0.07499999999999987200 ) ;
#477 = SURFACE_STYLE_USAGE ( .BOTH. , #48 ) ;
#478 = VECTOR ( 'NONE', #699, 1000.000000000000000 ) ;
#479 = CARTESIAN_POINT ( 'NONE',  ( -0.9249999999999998200, 0.07499999999999999700, 0.5750000000000000700 ) ) ;
#480 = EDGE_LOOP ( 'NONE', ( #57, #225, #562, #583, #856 ) ) ;
#481 = CARTESIAN_POINT ( 'NONE',  ( 0.9999999999999995600, 1.000000000000000000, 0.5750000000000000700 ) ) ;
#482 = DIRECTION ( 'NONE',  ( -1.000000000000000000, 0.0000000000000000000, -0.0000000000000000000 ) ) ;
#483 = ADVANCED_FACE ( 'NONE', ( #23 ), #144, .F. ) ;
#484 = EDGE_CURVE ( 'NONE', #59, #564, #644, .T. ) ;
#485 = ORIENTED_EDGE ( 'NONE', *, *, #190, .F. ) ;
#486 = PLANE ( 'NONE',  #411 ) ;
#487 = VECTOR ( 'NONE', #288, 1000.000000000000000 ) ;
#488 = STYLED_ITEM ( 'NONE', ( #47 ), #358 ) ;
#489 = ORIENTED_EDGE ( 'NONE', *, *, #798, .F. ) ;
#490 = PLANE ( 'NONE',  #93 ) ;
#491 = ORIENTED_EDGE ( 'NONE', *, *, #678, .F. ) ;
#492 = CARTESIAN_POINT ( 'NONE',  ( -0.9249999999999998200, 0.0000000000000000000, 0.5750000000000000700 ) ) ;
#493 = FACE_OUTER_BOUND ( 'NONE', #829, .T. ) ;
#494 = VECTOR ( 'NONE', #561, 1000.000000000000000 ) ;
#495 = CARTESIAN_POINT ( 'NONE',  ( -0.9249999999999998200, 0.07499999999999999700, -0.6500000000000001300 ) ) ;
#496 = AXIS2_PLACEMENT_3D ( 'NONE', #292, #437, #305 ) ;
#497 = EDGE_CURVE ( 'NONE', #116, #464, #216, .T. ) ;
#498 = DIRECTION ( 'NONE',  ( 0.0000000000000000000, 0.0000000000000000000, -1.000000000000000000 ) ) ;
#499 = EDGE_LOOP ( 'NONE', ( #731, #130, #143, #207 ) ) ;
#500 = CARTESIAN_POINT ( 'NONE',  ( 0.9999999999999995600, 0.0000000000000000000, -0.5750000000000000700 ) ) ;
#501 = VECTOR ( 'NONE', #616, 1000.000000000000000 ) ;
#502 = VERTEX_POINT ( 'NONE', #788 ) ;
#503 = EDGE_CURVE ( 'NONE', #341, #893, #270, .T. ) ;
#504 = CYLINDRICAL_SURFACE ( 'NONE', #553, 0.07499999999999998300 ) ;
#505 = ORIENTED_EDGE ( 'NONE', *, *, #539, .F. ) ;
#506 = DIRECTION ( 'NONE',  ( -1.000000000000000000, -0.0000000000000000000, -0.0000000000000000000 ) ) ;
#507 = ORIENTED_EDGE ( 'NONE', *, *, #136, .F. ) ;
#508 = VERTEX_POINT ( 'NONE', #777 ) ;
#509 = EDGE_CURVE ( 'NONE', #786, #95, #814, .T. ) ;
#510 = ORIENTED_EDGE ( 'NONE', *, *, #862, .F. ) ;
#511 = FACE_OUTER_BOUND ( 'NONE', #638, .T. ) ;
#512 = AXIS2_PLACEMENT_3D ( 'NONE', #323, #811, #816 ) ;
#513 = VECTOR ( 'NONE', #506, 1000.000000000000000 ) ;
#514 = DIRECTION ( 'NONE',  ( 1.000000000000000000, 0.0000000000000000000, 0.0000000000000000000 ) ) ;
#515 = ORIENTED_EDGE ( 'NONE', *, *, #539, .T. ) ;
#516 = EDGE_CURVE ( 'NONE', #377, #647, #861, .T. ) ;
#517 = CARTESIAN_POINT ( 'NONE',  ( 0.5749999999999998400, 0.07499999999999999700, -0.6500000000000001300 ) ) ;
#518 = ORIENTED_EDGE ( 'NONE', *, *, #45, .F. ) ;
#519 = ORIENTED_EDGE ( 'NONE', *, *, #717, .F. ) ;
#520 = CARTESIAN_POINT ( 'NONE',  ( 0.5749999999999998400, 0.07499999999999999700, -0.5749999999999999600 ) ) ;
#521 = CARTESIAN_POINT ( 'NONE',  ( 0.0000000000000000000, 0.0000000000000000000, -0.8000000000000000400 ) ) ;
#522 = VECTOR ( 'NONE', #50, 1000.000000000000000 ) ;
#523 =( NAMED_UNIT ( * ) SI_UNIT ( $, .STERADIAN. ) SOLID_ANGLE_UNIT ( ) );
#524 = CYLINDRICAL_SURFACE ( 'NONE', #127, 0.07499999999999998300 ) ;
#525 = DIRECTION ( 'NONE',  ( 0.0000000000000000000, 1.000000000000000000, 0.0000000000000000000 ) ) ;
#526 = ORIENTED_EDGE ( 'NONE', *, *, #631, .F. ) ;
#527 = ORIENTED_EDGE ( 'NONE', *, *, #744, .T. ) ;
#528 = VECTOR ( 'NONE', #333, 1000.000000000000000 ) ;
#529 = VERTEX_POINT ( 'NONE', #908 ) ;
#530 = CARTESIAN_POINT ( 'NONE',  ( -0.9249999999999998200, 0.07499999999999999700, 0.8000000000000000400 ) ) ;
#531 = DIRECTION ( 'NONE',  ( 0.0000000000000000000, 0.0000000000000000000, 1.000000000000000000 ) ) ;
#532 = VECTOR ( 'NONE', #277, 1000.000000000000000 ) ;
#533 = DIRECTION ( 'NONE',  ( 0.0000000000000000000, 0.0000000000000000000, -1.000000000000000000 ) ) ;
#534 = VECTOR ( 'NONE', #882, 1000.000000000000000 ) ;
#535 = ADVANCED_FACE ( 'NONE', ( #91 ), #573, .T. ) ;
#536 = PLANE ( 'NONE',  #366 ) ;
#537 = CARTESIAN_POINT ( 'NONE',  ( -0.9249999999999998200, 1.000000000000000000, 0.5750000000000000700 ) ) ;
#538 = ORIENTED_EDGE ( 'NONE', *, *, #56, .T. ) ;
#539 = EDGE_CURVE ( 'NONE', #179, #376, #49, .T. ) ;
#540 = CARTESIAN_POINT ( 'NONE',  ( -0.9249999999999998200, 0.07499999999999999700, 0.6500000000000001300 ) ) ;
#541 = CARTESIAN_POINT ( 'NONE',  ( -0.9999999999999995600, 0.0000000000000000000, -0.5750000000000000700 ) ) ;
#542 = EDGE_LOOP ( 'NONE', ( #105, #157, #648, #702 ) ) ;
#543 = CIRCLE ( 'NONE', #874, 0.07499999999999987200 ) ;
#544 = ORIENTED_EDGE ( 'NONE', *, *, #737, .T. ) ;
#545 = DIRECTION ( 'NONE',  ( -0.0000000000000000000, -1.000000000000000000, -0.0000000000000000000 ) ) ;
#546 = DIRECTION ( 'NONE',  ( -0.0000000000000000000, -1.000000000000000000, -0.0000000000000000000 ) ) ;
#547 = CARTESIAN_POINT ( 'NONE',  ( 0.9249999999999998200, 0.07499999999999999700, -0.6500000000000001300 ) ) ;
#548 = DIRECTION ( 'NONE',  ( 0.0000000000000000000, 1.000000000000000000, 0.0000000000000000000 ) ) ;
#549 = EDGE_CURVE ( 'NONE', #793, #864, #665, .T. ) ;
#550 = ADVANCED_FACE ( 'NONE', ( #643 ), #504, .T. ) ;
#551 = CARTESIAN_POINT ( 'NONE',  ( -0.9249999999999998200, 1.000000000000000000, 0.6500000000000001300 ) ) ;
#552 = CARTESIAN_POINT ( 'NONE',  ( -0.9249999999999998200, 0.0000000000000000000, 0.6500000000000001300 ) ) ;
#553 = AXIS2_PLACEMENT_3D ( 'NONE', #432, #575, #370 ) ;
#554 = ORIENTED_EDGE ( 'NONE', *, *, #509, .T. ) ;
#555 = CARTESIAN_POINT ( 'NONE',  ( -0.9249999999999998200, 1.000000000000000000, -0.6500000000000000200 ) ) ;
#556 = ORIENTED_EDGE ( 'NONE', *, *, #497, .F. ) ;
#557 = LINE ( 'NONE', #8, #715 ) ;
#558 = CARTESIAN_POINT ( 'NONE',  ( -0.9249999999999998200, 0.07499999999999999700, 0.6500000000000001300 ) ) ;
#559 = VECTOR ( 'NONE', #200, 1000.000000000000000 ) ;
#560 = UNCERTAINTY_MEASURE_WITH_UNIT (LENGTH_MEASURE( 1.000000000000000100E-005 ), #343, 'distance_accuracy_value', 'NONE');
#561 = DIRECTION ( 'NONE',  ( -0.0000000000000000000, -1.000000000000000000, -0.0000000000000000000 ) ) ;
#562 = ORIENTED_EDGE ( 'NONE', *, *, #30, .F. ) ;
#563 = CARTESIAN_POINT ( 'NONE',  ( -0.5749999999999998400, 0.07499999999999999700, 0.6500000000000000200 ) ) ;
#564 = VERTEX_POINT ( 'NONE', #73 ) ;
#565 = CARTESIAN_POINT ( 'NONE',  ( 0.9249999999999998200, 1.000000000000000000, -0.6500000000000001300 ) ) ;
#566 = ORIENTED_EDGE ( 'NONE', *, *, #168, .T. ) ;
#567 = EDGE_LOOP ( 'NONE', ( #330, #658, #382, #507, #424 ) ) ;
#568 = ORIENTED_EDGE ( 'NONE', *, *, #451, .T. ) ;
#569 = DIRECTION ( 'NONE',  ( -1.000000000000000000, -0.0000000000000000000, -0.0000000000000000000 ) ) ;
#570 = AXIS2_PLACEMENT_3D ( 'NONE', #88, #442, #447 ) ;
#571 = DIRECTION ( 'NONE',  ( -1.000000000000000000, -0.0000000000000000000, -0.0000000000000000000 ) ) ;
#572 = CARTESIAN_POINT ( 'NONE',  ( -0.9249999999999998200, 1.000000000000000000, -0.6500000000000000200 ) ) ;
#573 = PLANE ( 'NONE',  #768 ) ;
#574 = VECTOR ( 'NONE', #664, 1000.000000000000000 ) ;
#575 = DIRECTION ( 'NONE',  ( -0.0000000000000000000, -1.000000000000000000, -0.0000000000000000000 ) ) ;
#576 = VECTOR ( 'NONE', #603, 1000.000000000000000 ) ;
#577 = LINE ( 'NONE', #22, #632 ) ;
#578 = PRODUCT_DEFINITION ( 'UNKNOWN', '', #623, #165 ) ;
#579 = CARTESIAN_POINT ( 'NONE',  ( -0.9249999999999998200, 1.000000000000000000, 0.6500000000000001300 ) ) ;
#580 = ORIENTED_EDGE ( 'NONE', *, *, #516, .F. ) ;
#581 = ORIENTED_EDGE ( 'NONE', *, *, #728, .F. ) ;
#582 = EDGE_CURVE ( 'NONE', #689, #97, #315, .T. ) ;
#583 = ORIENTED_EDGE ( 'NONE', *, *, #395, .T. ) ;
#584 = DIRECTION ( 'NONE',  ( 0.0000000000000000000, 0.0000000000000000000, -1.000000000000000000 ) ) ;
#585 = SURFACE_STYLE_USAGE ( .BOTH. , #863 ) ;
#586 = AXIS2_PLACEMENT_3D ( 'NONE', #307, #591, #238 ) ;
#587 = CYLINDRICAL_SURFACE ( 'NONE', #496, 0.07499999999999987200 ) ;
#588 = CARTESIAN_POINT ( 'NONE',  ( -0.5749999999999998400, 0.07499999999999999700, -0.5749999999999999600 ) ) ;
#589 = ORIENTED_EDGE ( 'NONE', *, *, #86, .T. ) ;
#590 = CARTESIAN_POINT ( 'NONE',  ( -0.9249999999999998200, 0.07499999999999999700, -0.8000000000000000400 ) ) ;
#591 = DIRECTION ( 'NONE',  ( 1.000000000000000000, 0.0000000000000000000, 0.0000000000000000000 ) ) ;
#592 = FACE_OUTER_BOUND ( 'NONE', #692, .T. ) ;
#593 = DIRECTION ( 'NONE',  ( -0.0000000000000000000, -0.0000000000000000000, -1.000000000000000000 ) ) ;
#594 = ADVANCED_FACE ( 'NONE', ( #700 ), #90, .F. ) ;
#595 = CIRCLE ( 'NONE', #824, 0.07499999999999987200 ) ;
#596 = PLANE ( 'NONE',  #842 ) ;
#597 = ORIENTED_EDGE ( 'NONE', *, *, #244, .F. ) ;
#598 = ORIENTED_EDGE ( 'NONE', *, *, #905, .T. ) ;
#599 = DIRECTION ( 'NONE',  ( -0.0000000000000000000, -1.000000000000000000, -0.0000000000000000000 ) ) ;
#600 = VECTOR ( 'NONE', #152, 1000.000000000000000 ) ;
#601 = CARTESIAN_POINT ( 'NONE',  ( 0.9250000000000000400, 1.000000000000000000, 0.8000000000000000400 ) ) ;
#602 = ORIENTED_EDGE ( 'NONE', *, *, #383, .T. ) ;
#603 = DIRECTION ( 'NONE',  ( 2.344220913482171700E-016, -1.000000000000000000, 0.0000000000000000000 ) ) ;
#604 = EDGE_CURVE ( 'NONE', #464, #341, #900, .T. ) ;
#605 = ADVANCED_FACE ( 'NONE', ( #160 ), #735, .F. ) ;
#606 = DIRECTION ( 'NONE',  ( 0.0000000000000000000, -1.000000000000000000, 0.0000000000000000000 ) ) ;
#607 = DIRECTION ( 'NONE',  ( 0.0000000000000000000, 0.0000000000000000000, -1.000000000000000000 ) ) ;
#608 = ORIENTED_EDGE ( 'NONE', *, *, #773, .F. ) ;
#609 = ORIENTED_EDGE ( 'NONE', *, *, #117, .T. ) ;
#610 = DIRECTION ( 'NONE',  ( -0.0000000000000000000, -1.000000000000000000, -0.0000000000000000000 ) ) ;
#611 = CARTESIAN_POINT ( 'NONE',  ( 0.9250000000000000400, 1.000000000000000000, -0.8000000000000000400 ) ) ;
#612 = ADVANCED_FACE ( 'NONE', ( #711 ), #524, .T. ) ;
#613 = SURFACE_STYLE_FILL_AREA ( #185 ) ;
#614 = ORIENTED_EDGE ( 'NONE', *, *, #640, .T. ) ;
#615 = DIRECTION ( 'NONE',  ( 0.0000000000000000000, 1.000000000000000000, 0.0000000000000000000 ) ) ;
#616 = DIRECTION ( 'NONE',  ( 0.0000000000000000000, 0.0000000000000000000, 1.000000000000000000 ) ) ;
#617 = LINE ( 'NONE', #415, #290 ) ;
#618 = PRESENTATION_STYLE_ASSIGNMENT (( #585 ) ) ;
#619 = VECTOR ( 'NONE', #646, 1000.000000000000000 ) ;
#620 = MANIFOLD_SOLID_BREP ( 'Housing', #659 ) ;
#621 = CARTESIAN_POINT ( 'NONE',  ( -0.9250000000000000400, 1.000000000000000000, 0.8000000000000000400 ) ) ;
#622 = VERTEX_POINT ( 'NONE', #20 ) ;
#623 = PRODUCT_DEFINITION_FORMATION_WITH_SPECIFIED_SOURCE ( 'ANY', '', #686, .NOT_KNOWN. ) ;
#624 = CARTESIAN_POINT ( 'NONE',  ( 0.9249999999999998200, 0.07499999999999999700, -0.8000000000000000400 ) ) ;
#625 = ORIENTED_EDGE ( 'NONE', *, *, #244, .T. ) ;
#626 = ORIENTED_EDGE ( 'NONE', *, *, #651, .F. ) ;
#627 = DIRECTION ( 'NONE',  ( 1.000000000000000000, 0.0000000000000000000, 0.0000000000000000000 ) ) ;
#628 = STYLED_ITEM ( 'NONE', ( #138 ), #620 ) ;
#629 = CARTESIAN_POINT ( 'NONE',  ( -0.9249999999999998200, 0.07499999999999999700, -0.6500000000000001300 ) ) ;
#630 = LINE ( 'NONE', #471, #698 ) ;
#631 = EDGE_CURVE ( 'NONE', #786, #668, #472, .T. ) ;
#632 = VECTOR ( 'NONE', #815, 1000.000000000000000 ) ;
#633 = CARTESIAN_POINT ( 'NONE',  ( -0.5749999999999998400, 0.07499999999999999700, 0.5749999999999999600 ) ) ;
#634 = AXIS2_PLACEMENT_3D ( 'NONE', #454, #662, #584 ) ;
#635 = ORIENTED_EDGE ( 'NONE', *, *, #881, .T. ) ;
#636 = SURFACE_SIDE_STYLE ('',( #697 ) ) ;
#637 = DIRECTION ( 'NONE',  ( 0.0000000000000000000, 1.000000000000000000, -0.0000000000000000000 ) ) ;
#638 = EDGE_LOOP ( 'NONE', ( #153, #67, #372, #326 ) ) ;
#639 = DIRECTION ( 'NONE',  ( 0.0000000000000000000, 0.0000000000000000000, 1.000000000000000000 ) ) ;
#640 = EDGE_CURVE ( 'NONE', #95, #296, #845, .T. ) ;
#641 = LINE ( 'NONE', #761, #389 ) ;
#642 = AXIS2_PLACEMENT_3D ( 'NONE', #588, #9, #384 ) ;
#643 = FACE_OUTER_BOUND ( 'NONE', #132, .T. ) ;
#644 = LINE ( 'NONE', #223, #459 ) ;
#645 = DIRECTION ( 'NONE',  ( 1.000000000000000000, 0.0000000000000000000, 0.0000000000000000000 ) ) ;
#646 = DIRECTION ( 'NONE',  ( -0.0000000000000000000, -1.000000000000000000, -0.0000000000000000000 ) ) ;
#647 = VERTEX_POINT ( 'NONE', #308 ) ;
#648 = ORIENTED_EDGE ( 'NONE', *, *, #509, .F. ) ;
#649 = DIRECTION ( 'NONE',  ( -0.0000000000000000000, -1.000000000000000000, -0.0000000000000000000 ) ) ;
#650 = LINE ( 'NONE', #695, #229 ) ;
#651 = EDGE_CURVE ( 'NONE', #446, #65, #823, .T. ) ;
#652 = VERTEX_POINT ( 'NONE', #865 ) ;
#653 = MANIFOLD_SOLID_BREP ( 'Pad[1]', #841 ) ;
#654 = CARTESIAN_POINT ( 'NONE',  ( -0.9250000000000000400, 1.000000000000000000, -0.8000000000000000400 ) ) ;
#655 = LINE ( 'NONE', #107, #337 ) ;
#656 = DIRECTION ( 'NONE',  ( -0.0000000000000000000, -1.000000000000000000, -0.0000000000000000000 ) ) ;
#657 = DIRECTION ( 'NONE',  ( 1.000000000000000000, 0.0000000000000000000, 0.0000000000000000000 ) ) ;
#658 = ORIENTED_EDGE ( 'NONE', *, *, #790, .F. ) ;
#659 = CLOSED_SHELL ( 'NONE', ( #605, #251, #247, #483, #404, #28 ) ) ;
#660 = AXIS2_PLACEMENT_3D ( 'NONE', #17, #525, #467 ) ;
#661 = CARTESIAN_POINT ( 'NONE',  ( 0.9999999999999995600, 0.07499999999999999700, -0.5750000000000000700 ) ) ;
#662 = DIRECTION ( 'NONE',  ( -0.0000000000000000000, -1.000000000000000000, -0.0000000000000000000 ) ) ;
#663 = CIRCLE ( 'NONE', #194, 0.07499999999999998300 ) ;
#664 = DIRECTION ( 'NONE',  ( 1.000000000000000000, 0.0000000000000000000, 0.0000000000000000000 ) ) ;
#665 = LINE ( 'NONE', #784, #776 ) ;
#666 = EDGE_CURVE ( 'NONE', #671, #508, #102, .T. ) ;
#667 = ADVANCED_FACE ( 'NONE', ( #12 ), #324, .T. ) ;
#668 = VERTEX_POINT ( 'NONE', #590 ) ;
#669 = CARTESIAN_POINT ( 'NONE',  ( 0.5749999999999998400, 0.07499999999999999700, -0.6500000000000001300 ) ) ;
#670 = DIRECTION ( 'NONE',  ( 0.0000000000000000000, -0.0000000000000000000, 1.000000000000000000 ) ) ;
#671 = VERTEX_POINT ( 'NONE', #517 ) ;
#672 = EDGE_LOOP ( 'NONE', ( #250, #158, #598, #808, #316, #781 ) ) ;
#673 = ORIENTED_EDGE ( 'NONE', *, *, #666, .F. ) ;
#674 = FACE_OUTER_BOUND ( 'NONE', #295, .T. ) ;
#675 = ADVANCED_FACE ( 'NONE', ( #259 ), #170, .T. ) ;
#676 = CARTESIAN_POINT ( 'NONE',  ( 0.9249999999999998200, 0.07499999999999999700, 0.6500000000000001300 ) ) ;
#677 = PRESENTATION_LAYER_ASSIGNMENT (  '', '', ( #628 ) ) ;
#678 = EDGE_CURVE ( 'NONE', #564, #508, #873, .T. ) ;
#679 = EDGE_LOOP ( 'NONE', ( #203, #344, #406, #518, #118, #839, #189, #510 ) ) ;
#680 = CIRCLE ( 'NONE', #201, 0.07499999999999998300 ) ;
#681 = AXIS2_PLACEMENT_3D ( 'NONE', #739, #670, #92 ) ;
#682 = DIRECTION ( 'NONE',  ( 1.000000000000000000, 0.0000000000000000000, 0.0000000000000000000 ) ) ;
#683 = LINE ( 'NONE', #601, #131 ) ;
#684 = PRODUCT_RELATED_PRODUCT_CATEGORY ( 'part', '', ( #686 ) ) ;
#685 = DIRECTION ( 'NONE',  ( 0.0000000000000000000, 0.0000000000000000000, -1.000000000000000000 ) ) ;
#686 = PRODUCT ( 'MGV2016101R0M-10', 'MGV2016101R0M-10', '', ( #361 ) ) ;
#687 = DIRECTION ( 'NONE',  ( 0.0000000000000000000, 0.0000000000000000000, 1.000000000000000000 ) ) ;
#688 = AXIS2_PLACEMENT_3D ( 'NONE', #82, #319, #245 ) ;
#689 = VERTEX_POINT ( 'NONE', #463 ) ;
#690 = DIRECTION ( 'NONE',  ( 0.0000000000000000000, 1.000000000000000000, 0.0000000000000000000 ) ) ;
#691 = FACE_OUTER_BOUND ( 'NONE', #542, .T. ) ;
#692 = EDGE_LOOP ( 'NONE', ( #254, #903, #287, #205, #544 ) ) ;
#693 = DIRECTION ( 'NONE',  ( 0.0000000000000000000, 0.0000000000000000000, -1.000000000000000000 ) ) ;
#694 = ORIENTED_EDGE ( 'NONE', *, *, #117, .F. ) ;
#695 = CARTESIAN_POINT ( 'NONE',  ( -0.4999999999999998900, 0.07499999999999999700, -0.5749999999999999600 ) ) ;
#696 = EDGE_CURVE ( 'NONE', #652, #502, #199, .T. ) ;
#697 = SURFACE_STYLE_FILL_AREA ( #64 ) ;
#698 = VECTOR ( 'NONE', #184, 1000.000000000000000 ) ;
#699 = DIRECTION ( 'NONE',  ( 2.344220913482171700E-016, 1.000000000000000000, -0.0000000000000000000 ) ) ;
#700 = FACE_OUTER_BOUND ( 'NONE', #449, .T. ) ;
#701 = DIRECTION ( 'NONE',  ( 0.0000000000000000000, 0.0000000000000000000, 1.000000000000000000 ) ) ;
#702 = ORIENTED_EDGE ( 'NONE', *, *, #631, .T. ) ;
#703 = CIRCLE ( 'NONE', #896, 0.07499999999999987200 ) ;
#704 = ORIENTED_EDGE ( 'NONE', *, *, #352, .F. ) ;
#705 = ORIENTED_EDGE ( 'NONE', *, *, #728, .T. ) ;
#706 = CARTESIAN_POINT ( 'NONE',  ( -0.5000000000000000000, 0.07499999999999999700, -0.5749999999999999600 ) ) ;
#707 = EDGE_CURVE ( 'NONE', #263, #879, #655, .T. ) ;
#708 = EDGE_LOOP ( 'NONE', ( #331, #359, #722, #293 ) ) ;
#709 = AXIS2_PLACEMENT_3D ( 'NONE', #716, #139, #75 ) ;
#710 = DIRECTION ( 'NONE',  ( 0.0000000000000000000, 0.0000000000000000000, 1.000000000000000000 ) ) ;
#711 = FACE_OUTER_BOUND ( 'NONE', #140, .T. ) ;
#712 = APPLICATION_PROTOCOL_DEFINITION ( 'draft international standard', 'automotive_design', 1998, #281 ) ;
#713 = CARTESIAN_POINT ( 'NONE',  ( -0.5000000000000000000, 0.07499999999999999700, -0.5749999999999999600 ) ) ;
#714 = ORIENTED_EDGE ( 'NONE', *, *, #340, .T. ) ;
#715 = VECTOR ( 'NONE', #246, 1000.000000000000000 ) ;
#716 = CARTESIAN_POINT ( 'NONE',  ( 0.9249999999999998200, 0.0000000000000000000, 0.5750000000000000700 ) ) ;
#717 = EDGE_CURVE ( 'NONE', #376, #668, #2, .T. ) ;
#718 = CARTESIAN_POINT ( 'NONE',  ( 0.5000000000000000000, 0.07499999999999999700, 0.5749999999999999600 ) ) ;
#719 = EDGE_LOOP ( 'NONE', ( #362, #597, #556, #386 ) ) ;
#720 = CARTESIAN_POINT ( 'NONE',  ( -0.9249999999999998200, 0.0000000000000000000, -0.6500000000000001300 ) ) ;
#721 = AXIS2_PLACEMENT_3D ( 'NONE', #779, #723, #294 ) ;
#722 = ORIENTED_EDGE ( 'NONE', *, *, #41, .F. ) ;
#723 = DIRECTION ( 'NONE',  ( 0.0000000000000000000, 1.000000000000000000, -0.0000000000000000000 ) ) ;
#724 = EDGE_CURVE ( 'NONE', #393, #766, #577, .T. ) ;
#725 = VERTEX_POINT ( 'NONE', #750 ) ;
#726 = PLANE ( 'NONE',  #730 ) ;
#727 = DIRECTION ( 'NONE',  ( 0.0000000000000000000, 0.0000000000000000000, 1.000000000000000000 ) ) ;
#728 = EDGE_CURVE ( 'NONE', #261, #786, #258, .T. ) ;
#729 = CARTESIAN_POINT ( 'NONE',  ( 0.9249999999999998200, 0.07499999999999999700, -0.6500000000000001300 ) ) ;
#730 = AXIS2_PLACEMENT_3D ( 'NONE', #521, #13, #657 ) ;
#731 = ORIENTED_EDGE ( 'NONE', *, *, #136, .T. ) ;
#732 = SURFACE_SIDE_STYLE ('',( #339 ) ) ;
#733 = ADVANCED_FACE ( 'NONE', ( #62 ), #148, .T. ) ;
#734 = VECTOR ( 'NONE', #701, 1000.000000000000000 ) ;
#735 = PLANE ( 'NONE',  #688 ) ;
#736 = VECTOR ( 'NONE', #113, 1000.000000000000000 ) ;
#737 = EDGE_CURVE ( 'NONE', #766, #895, #299, .T. ) ;
#738 = CARTESIAN_POINT ( 'NONE',  ( -0.9250000000000000400, 1.000000000000000000, 0.8000000000000000400 ) ) ;
#739 = CARTESIAN_POINT ( 'NONE',  ( 0.9249999999999998200, 0.07499999999999999700, -0.6500000000000001300 ) ) ;
#740 = ADVANCED_FACE ( 'NONE', ( #853 ), #260, .F. ) ;
#741 = ORIENTED_EDGE ( 'NONE', *, *, #503, .F. ) ;
#742 = VERTEX_POINT ( 'NONE', #255 ) ;
#743 = CARTESIAN_POINT ( 'NONE',  ( 0.9249999999999998200, 0.07499999999999999700, 0.6500000000000001300 ) ) ;
#744 = EDGE_CURVE ( 'NONE', #867, #725, #470, .T. ) ;
#745 = CARTESIAN_POINT ( 'NONE',  ( 0.9249999999999998200, 1.000000000000000000, -0.6500000000000001300 ) ) ;
#746 = ADVANCED_FACE ( 'NONE', ( #61 ), #596, .F. ) ;
#747 = AXIS2_PLACEMENT_3D ( 'NONE', #492, #844, #54 ) ;
#748 = VECTOR ( 'NONE', #431, 1000.000000000000000 ) ;
#749 = CIRCLE ( 'NONE', #721, 0.07499999999999998300 ) ;
#750 = CARTESIAN_POINT ( 'NONE',  ( 0.9999999999999995600, 0.0000000000000000000, 0.5750000000000000700 ) ) ;
#751 = VECTOR ( 'NONE', #356, 1000.000000000000000 ) ;
#752 = ADVANCED_FACE ( 'NONE', ( #79 ), #536, .F. ) ;
#753 = CARTESIAN_POINT ( 'NONE',  ( 0.4999999999999998900, 0.0000000000000000000, -0.5749999999999999600 ) ) ;
#754 = DIRECTION ( 'NONE',  ( 0.0000000000000000000, 0.0000000000000000000, -1.000000000000000000 ) ) ;
#755 = LINE ( 'NONE', #163, #574 ) ;
#756 = PLANE ( 'NONE',  #426 ) ;
#757 = EDGE_CURVE ( 'NONE', #59, #671, #279, .T. ) ;
#758 = CARTESIAN_POINT ( 'NONE',  ( 0.9249999999999998200, 1.000000000000000000, 0.5750000000000000700 ) ) ;
#759 = CARTESIAN_POINT ( 'NONE',  ( -0.9249999999999998200, 0.07499999999999999700, 0.8000000000000000400 ) ) ;
#760 = EDGE_LOOP ( 'NONE', ( #237, #673, #417, #284 ) ) ;
#761 = CARTESIAN_POINT ( 'NONE',  ( -0.5000000000000000000, 0.07499999999999999700, 0.5749999999999999600 ) ) ;
#762 = DIRECTION ( 'NONE',  ( -1.000000000000000000, 0.0000000000000000000, 0.0000000000000000000 ) ) ;
#763 = EDGE_CURVE ( 'NONE', #502, #895, #100, .T. ) ;
#764 = CLOSED_SHELL ( 'NONE', ( #740, #183, #96, #612, #805, #667, #169, #34, #594, #535, #746, #675 ) ) ;
#765 = EDGE_LOOP ( 'NONE', ( #566, #15, #5, #106 ) ) ;
#766 = VERTEX_POINT ( 'NONE', #31 ) ;
#767 = DIRECTION ( 'NONE',  ( 1.000000000000000000, -0.0000000000000000000, -0.0000000000000000000 ) ) ;
#768 = AXIS2_PLACEMENT_3D ( 'NONE', #438, #154, #852 ) ;
#769 = PLANE ( 'NONE',  #812 ) ;
#770 = EDGE_CURVE ( 'NONE', #529, #377, #196, .T. ) ;
#771 = COLOUR_RGB ( '',0.7921568627450980000, 0.8196078431372548800, 0.9333333333333333500 ) ;
#772 =( NAMED_UNIT ( * ) SI_UNIT ( $, .STERADIAN. ) SOLID_ANGLE_UNIT ( ) );
#773 = EDGE_CURVE ( 'NONE', #879, #65, #630, .T. ) ;
#774 = CARTESIAN_POINT ( 'NONE',  ( -0.5749999999999998400, 0.07499999999999999700, 0.6500000000000000200 ) ) ;
#775 = EDGE_LOOP ( 'NONE', ( #705, #554, #714, #374 ) ) ;
#776 = VECTOR ( 'NONE', #656, 1000.000000000000000 ) ;
#777 = CARTESIAN_POINT ( 'NONE',  ( 0.5749999999999998400, 0.0000000000000000000, -0.6500000000000001300 ) ) ;
#778 = VERTEX_POINT ( 'NONE', #540 ) ;
#779 = CARTESIAN_POINT ( 'NONE',  ( -0.5749999999999998400, 0.0000000000000000000, 0.5749999999999999600 ) ) ;
#780 = EDGE_CURVE ( 'NONE', #652, #766, #400, .T. ) ;
#781 = ORIENTED_EDGE ( 'NONE', *, *, #780, .T. ) ;
#782 = CIRCLE ( 'NONE', #329, 0.07499999999999998300 ) ;
#783 = CIRCLE ( 'NONE', #785, 0.07499999999999998300 ) ;
#784 = CARTESIAN_POINT ( 'NONE',  ( -0.9249999999999998200, 0.07499999999999999700, -0.6500000000000000200 ) ) ;
#785 = AXIS2_PLACEMENT_3D ( 'NONE', #172, #104, #531 ) ;
#786 = VERTEX_POINT ( 'NONE', #474 ) ;
#787 = CARTESIAN_POINT ( 'NONE',  ( 0.9250000000000000400, 1.000000000000000000, 0.8000000000000000400 ) ) ;
#788 = CARTESIAN_POINT ( 'NONE',  ( 0.5749999999999998400, 0.0000000000000000000, 0.6500000000000000200 ) ) ;
#789 = VECTOR ( 'NONE', #241, 1000.000000000000000 ) ;
#790 = EDGE_CURVE ( 'NONE', #778, #232, #33, .T. ) ;
#791 = SURFACE_STYLE_USAGE ( .BOTH. , #732 ) ;
#792 = EDGE_LOOP ( 'NONE', ( #156, #580, #24, #589 ) ) ;
#793 = VERTEX_POINT ( 'NONE', #819 ) ;
#794 = AXIS2_PLACEMENT_3D ( 'NONE', #479, #806, #533 ) ;
#795 = FILL_AREA_STYLE_COLOUR ( '', #771 ) ;
#796 = COLOUR_RGB ( '',0.7921568627450980000, 0.8196078431372548800, 0.9333333333333333500 ) ;
#797 = CARTESIAN_POINT ( 'NONE',  ( -0.4999999999999998900, 0.0000000000000000000, -0.5749999999999999600 ) ) ;
#798 = EDGE_CURVE ( 'NONE', #446, #652, #256, .T. ) ;
#799 =( LENGTH_UNIT ( ) NAMED_UNIT ( * ) SI_UNIT ( .MILLI., .METRE. ) );
#800 = CARTESIAN_POINT ( 'NONE',  ( 0.9249999999999998200, 0.07499999999999999700, 0.8000000000000000400 ) ) ;
#801 = ADVANCED_FACE ( 'NONE', ( #234 ), #884, .T. ) ;
#802 = FILL_AREA_STYLE ('',( #795 ) ) ;
#803 = LINE ( 'NONE', #565, #155 ) ;
#804 = ORIENTED_EDGE ( 'NONE', *, *, #503, .T. ) ;
#805 = ADVANCED_FACE ( 'NONE', ( #674 ), #486, .F. ) ;
#806 = DIRECTION ( 'NONE',  ( -0.0000000000000000000, -1.000000000000000000, -0.0000000000000000000 ) ) ;
#807 = ORIENTED_EDGE ( 'NONE', *, *, #168, .F. ) ;
#808 = ORIENTED_EDGE ( 'NONE', *, *, #847, .T. ) ;
#809 = DIRECTION ( 'NONE',  ( -1.000000000000000000, 0.0000000000000000000, 0.0000000000000000000 ) ) ;
#810 = VECTOR ( 'NONE', #809, 1000.000000000000000 ) ;
#811 = DIRECTION ( 'NONE',  ( 0.0000000000000000000, 1.000000000000000000, -0.0000000000000000000 ) ) ;
#812 = AXIS2_PLACEMENT_3D ( 'NONE', #706, #762, #639 ) ;
#813 = EDGE_CURVE ( 'NONE', #116, #689, #641, .T. ) ;
#814 = LINE ( 'NONE', #224, #63 ) ;
#815 = DIRECTION ( 'NONE',  ( -0.0000000000000000000, -1.000000000000000000, -0.0000000000000000000 ) ) ;
#816 = DIRECTION ( 'NONE',  ( 0.0000000000000000000, 0.0000000000000000000, -1.000000000000000000 ) ) ;
#817 = EDGE_LOOP ( 'NONE', ( #448, #353, #453, #70 ) ) ;
#818 = ORIENTED_EDGE ( 'NONE', *, *, #301, .F. ) ;
#819 = CARTESIAN_POINT ( 'NONE',  ( -0.9249999999999998200, 0.07499999999999999700, -0.6500000000000000200 ) ) ;
#820 = CARTESIAN_POINT ( 'NONE',  ( -0.9249999999999998200, 0.07499999999999999700, -0.8000000000000000400 ) ) ;
#821 = CARTESIAN_POINT ( 'NONE',  ( 0.0000000000000000000, 0.0000000000000000000, 0.0000000000000000000 ) ) ;
#822 = DIRECTION ( 'NONE',  ( -0.0000000000000000000, -1.000000000000000000, -0.0000000000000000000 ) ) ;
#823 = LINE ( 'NONE', #312, #789 ) ;
#824 = AXIS2_PLACEMENT_3D ( 'NONE', #758, #615, #122 ) ;
#825 = CARTESIAN_POINT ( 'NONE',  ( 0.5000000000000000000, 0.07499999999999999700, -0.5749999999999999600 ) ) ;
#826 = DIRECTION ( 'NONE',  ( -1.000000000000000000, 2.344220913482171700E-016, 0.0000000000000000000 ) ) ;
#827 = ORIENTED_EDGE ( 'NONE', *, *, #666, .T. ) ;
#828 = FACE_OUTER_BOUND ( 'NONE', #775, .T. ) ;
#829 = EDGE_LOOP ( 'NONE', ( #29, #412, #897, #804 ) ) ;
#830 = DIRECTION ( 'NONE',  ( 0.0000000000000000000, 0.0000000000000000000, 1.000000000000000000 ) ) ;
#831 = CIRCLE ( 'NONE', #512, 0.07499999999999987200 ) ;
#832 = EDGE_CURVE ( 'NONE', #410, #778, #313, .T. ) ;
#833 = ORIENTED_EDGE ( 'NONE', *, *, #724, .F. ) ;
#834 = PLANE ( 'NONE',  #87 ) ;
#835 = AXIS2_PLACEMENT_3D ( 'NONE', #537, #548, #887 ) ;
#836 = SURFACE_STYLE_USAGE ( .BOTH. , #636 ) ;
#837 = CARTESIAN_POINT ( 'NONE',  ( -0.9250000000000000400, 1.000000000000000000, 0.8000000000000000400 ) ) ;
#838 = FACE_OUTER_BOUND ( 'NONE', #480, .T. ) ;
#839 = ORIENTED_EDGE ( 'NONE', *, *, #582, .F. ) ;
#840 = CARTESIAN_POINT ( 'NONE',  ( -0.9249999999999998200, 0.0000000000000000000, -0.5750000000000000700 ) ) ;
#841 = CLOSED_SHELL ( 'NONE', ( #733, #176, #550, #392, #461, #870, #465, #40, #801, #752, #875, #99 ) ) ;
#842 = AXIS2_PLACEMENT_3D ( 'NONE', #745, #25, #181 ) ;
#843 = DIRECTION ( 'NONE',  ( -0.0000000000000000000, -1.000000000000000000, -0.0000000000000000000 ) ) ;
#844 = DIRECTION ( 'NONE',  ( 0.0000000000000000000, 1.000000000000000000, 0.0000000000000000000 ) ) ;
#845 = LINE ( 'NONE', #159, #291 ) ;
#846 = CARTESIAN_POINT ( 'NONE',  ( 0.5749999999999998400, 0.07499999999999999700, -0.5749999999999999600 ) ) ;
#847 = EDGE_CURVE ( 'NONE', #263, #446, #469, .T. ) ;
#848 = ORIENTED_EDGE ( 'NONE', *, *, #240, .F. ) ;
#849 = CARTESIAN_POINT ( 'NONE',  ( -0.5000000000000000000, 0.0000000000000000000, -0.5749999999999999600 ) ) ;
#850 = EDGE_CURVE ( 'NONE', #393, #867, #595, .T. ) ;
#851 = ORIENTED_EDGE ( 'NONE', *, *, #253, .F. ) ;
#852 = DIRECTION ( 'NONE',  ( 0.0000000000000000000, -0.0000000000000000000, -1.000000000000000000 ) ) ;
#853 = FACE_OUTER_BOUND ( 'NONE', #672, .T. ) ;
#854 = CARTESIAN_POINT ( 'NONE',  ( -0.5749999999999998400, 0.07499999999999999700, -0.6500000000000001300 ) ) ;
#855 = ORIENTED_EDGE ( 'NONE', *, *, #379, .T. ) ;
#856 = ORIENTED_EDGE ( 'NONE', *, *, #549, .T. ) ;
#857 = LINE ( 'NONE', #837, #385 ) ;
#858 = VERTEX_POINT ( 'NONE', #563 ) ;
#859 = LINE ( 'NONE', #885, #501 ) ;
#860 = EDGE_CURVE ( 'NONE', #410, #622, #364, .T. ) ;
#861 = LINE ( 'NONE', #300, #304 ) ;
#862 = EDGE_CURVE ( 'NONE', #232, #742, #195, .T. ) ;
#863 = SURFACE_SIDE_STYLE ('',( #268 ) ) ;
#864 = VERTEX_POINT ( 'NONE', #115 ) ;
#865 = CARTESIAN_POINT ( 'NONE',  ( 0.5749999999999998400, 0.07499999999999999700, 0.6500000000000000200 ) ) ;
#866 = CARTESIAN_POINT ( 'NONE',  ( -0.9249999999999998200, 1.000000000000000000, 0.5750000000000000700 ) ) ;
#867 = VERTEX_POINT ( 'NONE', #481 ) ;
#868 = EDGE_LOOP ( 'NONE', ( #886, #167, #489, #462 ) ) ;
#869 = CARTESIAN_POINT ( 'NONE',  ( 0.9999999999999995600, 0.07499999999999999700, 0.5750000000000000700 ) ) ;
#870 = ADVANCED_FACE ( 'NONE', ( #493 ), #490, .F. ) ;
#871 = EDGE_CURVE ( 'NONE', #145, #647, #456, .T. ) ;
#872 = CARTESIAN_POINT ( 'NONE',  ( 0.9249999999999998200, 0.07499999999999999700, -0.5750000000000000700 ) ) ;
#873 = LINE ( 'NONE', #35, #21 ) ;
#874 = AXIS2_PLACEMENT_3D ( 'NONE', #193, #109, #188 ) ;
#875 = ADVANCED_FACE ( 'NONE', ( #511 ), #834, .F. ) ;
#876 = DIRECTION ( 'NONE',  ( 0.0000000000000000000, -0.0000000000000000000, 1.000000000000000000 ) ) ;
#877 = PLANE ( 'NONE',  #357 ) ;
#878 = VECTOR ( 'NONE', #571, 1000.000000000000000 ) ;
#879 = VERTEX_POINT ( 'NONE', #753 ) ;
#880 = ORIENTED_EDGE ( 'NONE', *, *, #707, .T. ) ;
#881 = EDGE_CURVE ( 'NONE', #59, #766, #349, .T. ) ;
#882 = DIRECTION ( 'NONE',  ( -0.0000000000000000000, -1.000000000000000000, -0.0000000000000000000 ) ) ;
#883 = AXIS2_PLACEMENT_3D ( 'NONE', #192, #280, #830 ) ;
#884 = PLANE ( 'NONE',  #114 ) ;
#885 = CARTESIAN_POINT ( 'NONE',  ( 0.9249999999999998200, 1.000000000000000000, -0.6500000000000001300 ) ) ;
#886 = ORIENTED_EDGE ( 'NONE', *, *, #111, .T. ) ;
#887 = DIRECTION ( 'NONE',  ( 0.0000000000000000000, 0.0000000000000000000, 1.000000000000000000 ) ) ;
#888 = ORIENTED_EDGE ( 'NONE', *, *, #317, .T. ) ;
#889 = VECTOR ( 'NONE', #445, 1000.000000000000000 ) ;
#890 = DIRECTION ( 'NONE',  ( -2.344220913482171700E-016, -1.000000000000000000, 0.0000000000000000000 ) ) ;
#891 = DIRECTION ( 'NONE',  ( 0.0000000000000000000, 0.0000000000000000000, 1.000000000000000000 ) ) ;
#892 = CARTESIAN_POINT ( 'NONE',  ( 0.5749999999999998400, 0.0000000000000000000, -0.5749999999999999600 ) ) ;
#893 = VERTEX_POINT ( 'NONE', #52 ) ;
#894 = ORIENTED_EDGE ( 'NONE', *, *, #301, .T. ) ;
#895 = VERTEX_POINT ( 'NONE', #187 ) ;
#896 = AXIS2_PLACEMENT_3D ( 'NONE', #840, #282, #891 ) ;
#897 = ORIENTED_EDGE ( 'NONE', *, *, #379, .F. ) ;
#898 = DIRECTION ( 'NONE',  ( 0.0000000000000000000, -0.0000000000000000000, 1.000000000000000000 ) ) ;
#899 = CARTESIAN_POINT ( 'NONE',  ( -0.5749999999999998400, 0.0000000000000000000, -0.5749999999999999600 ) ) ;
#900 = CIRCLE ( 'NONE', #642, 0.07499999999999998300 ) ;
#901 = CARTESIAN_POINT ( 'NONE',  ( -0.9250000000000000400, 1.000000000000000000, -0.8000000000000000400 ) ) ;
#902 = EDGE_CURVE ( 'NONE', #778, #793, #617, .T. ) ;
#903 = ORIENTED_EDGE ( 'NONE', *, *, #744, .F. ) ;
#904 = UNCERTAINTY_MEASURE_WITH_UNIT (LENGTH_MEASURE( 1.000000000000000100E-005 ), #217, 'distance_accuracy_value', 'NONE');
#905 = EDGE_CURVE ( 'NONE', #671, #263, #663, .T. ) ;
#906 = ORIENTED_EDGE ( 'NONE', *, *, #111, .F. ) ;
#907 = VECTOR ( 'NONE', #303, 1000.000000000000000 ) ;
#908 = CARTESIAN_POINT ( 'NONE',  ( -0.9999999999999995600, 1.000000000000000000, -0.5750000000000000700 ) ) ;
ENDSEC;
END-ISO-10303-21;
