ISO-10303-21;
HEADER;
FILE_DESCRIPTION(('FreeCAD Model'),'2;1');
FILE_NAME('Open CASCADE Shape Model','2025-09-13T02:09:03',(''),(''),
  'Open CASCADE STEP processor 7.8','FreeCAD','Unknown');
FILE_SCHEMA(('AUTOMOTIVE_DESIGN { 1 0 10303 214 1 1 1 1 }'));
ENDSEC;
DATA;
#1 = APPLICATION_PROTOCOL_DEFINITION('international standard',
  'automotive_design',2000,#2);
#2 = APPLICATION_CONTEXT(
  'core data for automotive mechanical design processes');
#3 = SHAPE_DEFINITION_REPRESENTATION(#4,#10);
#4 = PRODUCT_DEFINITION_SHAPE('','',#5);
#5 = PRODUCT_DEFINITION('design','',#6,#9);
#6 = PRODUCT_DEFINITION_FORMATION('','',#7);
#7 = PRODUCT('BGA_Test','BGA_Test','',(#8));
#8 = PRODUCT_CONTEXT('',#2,'mechanical');
#9 = PRODUCT_DEFINITION_CONTEXT('part definition',#2,'design');
#10 = SHAPE_REPRESENTATION('',(#11,#15,#19,#23,#27,#31,#35,#39,#43,#47,
    #51,#55,#59,#63,#67,#71,#75,#79,#83,#87,#91,#95,#99),#103);
#11 = AXIS2_PLACEMENT_3D('',#12,#13,#14);
#12 = CARTESIAN_POINT('',(0.,0.,0.));
#13 = DIRECTION('',(0.,0.,1.));
#14 = DIRECTION('',(1.,0.,-0.));
#15 = AXIS2_PLACEMENT_3D('',#16,#17,#18);
#16 = CARTESIAN_POINT('',(0.,0.,0.));
#17 = DIRECTION('',(0.,0.,1.));
#18 = DIRECTION('',(1.,0.,0.));
#19 = AXIS2_PLACEMENT_3D('',#20,#21,#22);
#20 = CARTESIAN_POINT('',(0.,0.,0.));
#21 = DIRECTION('',(0.,0.,1.));
#22 = DIRECTION('',(1.,0.,0.));
#23 = AXIS2_PLACEMENT_3D('',#24,#25,#26);
#24 = CARTESIAN_POINT('',(0.,0.,0.));
#25 = DIRECTION('',(0.,0.,1.));
#26 = DIRECTION('',(1.,0.,0.));
#27 = AXIS2_PLACEMENT_3D('',#28,#29,#30);
#28 = CARTESIAN_POINT('',(1.110223024625E-16,0.,0.4));
#29 = DIRECTION('',(0.,0.,1.));
#30 = DIRECTION('',(1.,0.,0.));
#31 = AXIS2_PLACEMENT_3D('',#32,#33,#34);
#32 = CARTESIAN_POINT('',(1.110223024625E-16,0.,0.8));
#33 = DIRECTION('',(0.,0.,1.));
#34 = DIRECTION('',(1.,0.,0.));
#35 = AXIS2_PLACEMENT_3D('',#36,#37,#38);
#36 = CARTESIAN_POINT('',(1.110223024625E-16,0.,1.2));
#37 = DIRECTION('',(0.,0.,1.));
#38 = DIRECTION('',(1.,0.,0.));
#39 = AXIS2_PLACEMENT_3D('',#40,#41,#42);
#40 = CARTESIAN_POINT('',(1.110223024625E-16,0.,1.6));
#41 = DIRECTION('',(0.,0.,1.));
#42 = DIRECTION('',(1.,0.,0.));
#43 = AXIS2_PLACEMENT_3D('',#44,#45,#46);
#44 = CARTESIAN_POINT('',(0.4,0.,0.));
#45 = DIRECTION('',(0.,0.,1.));
#46 = DIRECTION('',(1.,0.,0.));
#47 = AXIS2_PLACEMENT_3D('',#48,#49,#50);
#48 = CARTESIAN_POINT('',(0.4,0.,0.4));
#49 = DIRECTION('',(0.,0.,1.));
#50 = DIRECTION('',(1.,0.,0.));
#51 = AXIS2_PLACEMENT_3D('',#52,#53,#54);
#52 = CARTESIAN_POINT('',(0.4,0.,0.8));
#53 = DIRECTION('',(0.,0.,1.));
#54 = DIRECTION('',(1.,0.,0.));
#55 = AXIS2_PLACEMENT_3D('',#56,#57,#58);
#56 = CARTESIAN_POINT('',(0.4,0.,1.2));
#57 = DIRECTION('',(0.,0.,1.));
#58 = DIRECTION('',(1.,0.,0.));
#59 = AXIS2_PLACEMENT_3D('',#60,#61,#62);
#60 = CARTESIAN_POINT('',(0.4,0.,1.6));
#61 = DIRECTION('',(0.,0.,1.));
#62 = DIRECTION('',(1.,0.,0.));
#63 = AXIS2_PLACEMENT_3D('',#64,#65,#66);
#64 = CARTESIAN_POINT('',(0.8,0.,0.));
#65 = DIRECTION('',(0.,0.,1.));
#66 = DIRECTION('',(1.,0.,0.));
#67 = AXIS2_PLACEMENT_3D('',#68,#69,#70);
#68 = CARTESIAN_POINT('',(0.8,0.,0.4));
#69 = DIRECTION('',(0.,0.,1.));
#70 = DIRECTION('',(1.,0.,0.));
#71 = AXIS2_PLACEMENT_3D('',#72,#73,#74);
#72 = CARTESIAN_POINT('',(0.8,0.,0.8));
#73 = DIRECTION('',(0.,0.,1.));
#74 = DIRECTION('',(1.,0.,0.));
#75 = AXIS2_PLACEMENT_3D('',#76,#77,#78);
#76 = CARTESIAN_POINT('',(0.8,0.,1.2));
#77 = DIRECTION('',(0.,0.,1.));
#78 = DIRECTION('',(1.,0.,0.));
#79 = AXIS2_PLACEMENT_3D('',#80,#81,#82);
#80 = CARTESIAN_POINT('',(0.8,0.,1.6));
#81 = DIRECTION('',(0.,0.,1.));
#82 = DIRECTION('',(1.,0.,0.));
#83 = AXIS2_PLACEMENT_3D('',#84,#85,#86);
#84 = CARTESIAN_POINT('',(1.2,0.,0.));
#85 = DIRECTION('',(0.,0.,1.));
#86 = DIRECTION('',(1.,0.,0.));
#87 = AXIS2_PLACEMENT_3D('',#88,#89,#90);
#88 = CARTESIAN_POINT('',(1.2,0.,0.4));
#89 = DIRECTION('',(0.,0.,1.));
#90 = DIRECTION('',(1.,0.,0.));
#91 = AXIS2_PLACEMENT_3D('',#92,#93,#94);
#92 = CARTESIAN_POINT('',(1.2,0.,0.8));
#93 = DIRECTION('',(0.,0.,1.));
#94 = DIRECTION('',(1.,0.,0.));
#95 = AXIS2_PLACEMENT_3D('',#96,#97,#98);
#96 = CARTESIAN_POINT('',(1.2,0.,1.2));
#97 = DIRECTION('',(0.,0.,1.));
#98 = DIRECTION('',(1.,0.,0.));
#99 = AXIS2_PLACEMENT_3D('',#100,#101,#102);
#100 = CARTESIAN_POINT('',(1.2,0.,1.6));
#101 = DIRECTION('',(0.,0.,1.));
#102 = DIRECTION('',(1.,0.,0.));
#103 = ( GEOMETRIC_REPRESENTATION_CONTEXT(3) 
GLOBAL_UNCERTAINTY_ASSIGNED_CONTEXT((#107)) GLOBAL_UNIT_ASSIGNED_CONTEXT
((#104,#105,#106)) REPRESENTATION_CONTEXT('Context #1',
  '3D Context with UNIT and UNCERTAINTY') );
#104 = ( LENGTH_UNIT() NAMED_UNIT(*) SI_UNIT(.MILLI.,.METRE.) );
#105 = ( NAMED_UNIT(*) PLANE_ANGLE_UNIT() SI_UNIT($,.RADIAN.) );
#106 = ( NAMED_UNIT(*) SI_UNIT($,.STERADIAN.) SOLID_ANGLE_UNIT() );
#107 = UNCERTAINTY_MEASURE_WITH_UNIT(LENGTH_MEASURE(1.E-07),#104,
  'distance_accuracy_value','confusion accuracy');
#108 = PRODUCT_RELATED_PRODUCT_CATEGORY('part',$,(#7));
#109 = SHAPE_DEFINITION_REPRESENTATION(#110,#116);
#110 = PRODUCT_DEFINITION_SHAPE('','',#111);
#111 = PRODUCT_DEFINITION('design','',#112,#115);
#112 = PRODUCT_DEFINITION_FORMATION('','',#113);
#113 = PRODUCT('Body_Solid1','Body_Solid1','',(#114));
#114 = PRODUCT_CONTEXT('',#2,'mechanical');
#115 = PRODUCT_DEFINITION_CONTEXT('part definition',#2,'design');
#116 = ADVANCED_BREP_SHAPE_REPRESENTATION('',(#11,#117),#312);
#117 = MANIFOLD_SOLID_BREP('',#118);
#118 = CLOSED_SHELL('',(#119,#159,#190,#214,#249,#266,#278,#303));
#119 = ADVANCED_FACE('',(#120),#154,.T.);
#120 = FACE_BOUND('',#121,.T.);
#121 = EDGE_LOOP('',(#122,#132,#140,#148));
#122 = ORIENTED_EDGE('',*,*,#123,.F.);
#123 = EDGE_CURVE('',#124,#126,#128,.T.);
#124 = VERTEX_POINT('',#125);
#125 = CARTESIAN_POINT('',(-0.81,0.16,1.01));
#126 = VERTEX_POINT('',#127);
#127 = CARTESIAN_POINT('',(-0.81,0.16,-1.01));
#128 = LINE('',#129,#130);
#129 = CARTESIAN_POINT('',(-0.81,0.16,1.01));
#130 = VECTOR('',#131,1.);
#131 = DIRECTION('',(0.,-2.22044604925E-16,-1.));
#132 = ORIENTED_EDGE('',*,*,#133,.T.);
#133 = EDGE_CURVE('',#124,#134,#136,.T.);
#134 = VERTEX_POINT('',#135);
#135 = CARTESIAN_POINT('',(-0.81,0.66,1.01));
#136 = LINE('',#137,#138);
#137 = CARTESIAN_POINT('',(-0.81,2.242650509743E-16,1.01));
#138 = VECTOR('',#139,1.);
#139 = DIRECTION('',(0.,1.,-2.22044604925E-16));
#140 = ORIENTED_EDGE('',*,*,#141,.T.);
#141 = EDGE_CURVE('',#134,#142,#144,.T.);
#142 = VERTEX_POINT('',#143);
#143 = CARTESIAN_POINT('',(-0.81,0.66,-1.01));
#144 = LINE('',#145,#146);
#145 = CARTESIAN_POINT('',(-0.81,0.66,1.01));
#146 = VECTOR('',#147,1.);
#147 = DIRECTION('',(0.,-2.22044604925E-16,-1.));
#148 = ORIENTED_EDGE('',*,*,#149,.F.);
#149 = EDGE_CURVE('',#126,#142,#150,.T.);
#150 = LINE('',#151,#152);
#151 = CARTESIAN_POINT('',(-0.81,-2.242650509743E-16,-1.01));
#152 = VECTOR('',#153,1.);
#153 = DIRECTION('',(0.,1.,-2.22044604925E-16));
#154 = PLANE('',#155);
#155 = AXIS2_PLACEMENT_3D('',#156,#157,#158);
#156 = CARTESIAN_POINT('',(-0.81,2.242650509743E-16,1.01));
#157 = DIRECTION('',(-1.,0.,0.));
#158 = DIRECTION('',(0.,-2.22044604925E-16,-1.));
#159 = ADVANCED_FACE('',(#160),#185,.F.);
#160 = FACE_BOUND('',#161,.T.);
#161 = EDGE_LOOP('',(#162,#163,#171,#179));
#162 = ORIENTED_EDGE('',*,*,#123,.T.);
#163 = ORIENTED_EDGE('',*,*,#164,.T.);
#164 = EDGE_CURVE('',#126,#165,#167,.T.);
#165 = VERTEX_POINT('',#166);
#166 = CARTESIAN_POINT('',(0.81,0.16,-1.01));
#167 = LINE('',#168,#169);
#168 = CARTESIAN_POINT('',(-0.81,0.16,-1.01));
#169 = VECTOR('',#170,1.);
#170 = DIRECTION('',(1.,0.,0.));
#171 = ORIENTED_EDGE('',*,*,#172,.T.);
#172 = EDGE_CURVE('',#165,#173,#175,.T.);
#173 = VERTEX_POINT('',#174);
#174 = CARTESIAN_POINT('',(0.81,0.16,1.01));
#175 = LINE('',#176,#177);
#176 = CARTESIAN_POINT('',(0.81,0.16,-1.01));
#177 = VECTOR('',#178,1.);
#178 = DIRECTION('',(0.,2.22044604925E-16,1.));
#179 = ORIENTED_EDGE('',*,*,#180,.T.);
#180 = EDGE_CURVE('',#173,#124,#181,.T.);
#181 = LINE('',#182,#183);
#182 = CARTESIAN_POINT('',(0.81,0.16,1.01));
#183 = VECTOR('',#184,1.);
#184 = DIRECTION('',(-1.,0.,0.));
#185 = PLANE('',#186);
#186 = AXIS2_PLACEMENT_3D('',#187,#188,#189);
#187 = CARTESIAN_POINT('',(3.050063254465E-17,0.16,0.));
#188 = DIRECTION('',(0.,1.,0.));
#189 = DIRECTION('',(0.,0.,1.));
#190 = ADVANCED_FACE('',(#191),#209,.T.);
#191 = FACE_BOUND('',#192,.T.);
#192 = EDGE_LOOP('',(#193,#194,#195,#203));
#193 = ORIENTED_EDGE('',*,*,#164,.F.);
#194 = ORIENTED_EDGE('',*,*,#149,.T.);
#195 = ORIENTED_EDGE('',*,*,#196,.T.);
#196 = EDGE_CURVE('',#142,#197,#199,.T.);
#197 = VERTEX_POINT('',#198);
#198 = CARTESIAN_POINT('',(0.81,0.66,-1.01));
#199 = LINE('',#200,#201);
#200 = CARTESIAN_POINT('',(-0.81,0.66,-1.01));
#201 = VECTOR('',#202,1.);
#202 = DIRECTION('',(1.,0.,0.));
#203 = ORIENTED_EDGE('',*,*,#204,.F.);
#204 = EDGE_CURVE('',#165,#197,#205,.T.);
#205 = LINE('',#206,#207);
#206 = CARTESIAN_POINT('',(0.81,-2.242650509743E-16,-1.01));
#207 = VECTOR('',#208,1.);
#208 = DIRECTION('',(0.,1.,-2.22044604925E-16));
#209 = PLANE('',#210);
#210 = AXIS2_PLACEMENT_3D('',#211,#212,#213);
#211 = CARTESIAN_POINT('',(-0.81,-2.242650509743E-16,-1.01));
#212 = DIRECTION('',(0.,-2.22044604925E-16,-1.));
#213 = DIRECTION('',(1.,0.,0.));
#214 = ADVANCED_FACE('',(#215,#233),#244,.T.);
#215 = FACE_BOUND('',#216,.T.);
#216 = EDGE_LOOP('',(#217,#218,#226,#232));
#217 = ORIENTED_EDGE('',*,*,#141,.F.);
#218 = ORIENTED_EDGE('',*,*,#219,.F.);
#219 = EDGE_CURVE('',#220,#134,#222,.T.);
#220 = VERTEX_POINT('',#221);
#221 = CARTESIAN_POINT('',(0.81,0.66,1.01));
#222 = LINE('',#223,#224);
#223 = CARTESIAN_POINT('',(0.81,0.66,1.01));
#224 = VECTOR('',#225,1.);
#225 = DIRECTION('',(-1.,0.,0.));
#226 = ORIENTED_EDGE('',*,*,#227,.F.);
#227 = EDGE_CURVE('',#197,#220,#228,.T.);
#228 = LINE('',#229,#230);
#229 = CARTESIAN_POINT('',(0.81,0.66,-1.01));
#230 = VECTOR('',#231,1.);
#231 = DIRECTION('',(0.,2.22044604925E-16,1.));
#232 = ORIENTED_EDGE('',*,*,#196,.F.);
#233 = FACE_BOUND('',#234,.T.);
#234 = EDGE_LOOP('',(#235));
#235 = ORIENTED_EDGE('',*,*,#236,.F.);
#236 = EDGE_CURVE('',#237,#237,#239,.T.);
#237 = VERTEX_POINT('',#238);
#238 = CARTESIAN_POINT('',(-0.483277310924,0.66,-0.778571428571));
#239 = CIRCLE('',#240,9.529411764706E-02);
#240 = AXIS2_PLACEMENT_3D('',#241,#242,#243);
#241 = CARTESIAN_POINT('',(-0.578571428571,0.66,-0.778571428571));
#242 = DIRECTION('',(-0.,1.,2.22044604925E-16));
#243 = DIRECTION('',(1.,0.,0.));
#244 = PLANE('',#245);
#245 = AXIS2_PLACEMENT_3D('',#246,#247,#248);
#246 = CARTESIAN_POINT('',(3.050063254465E-17,0.66,-1.110223024625E-16)
  );
#247 = DIRECTION('',(0.,1.,0.));
#248 = DIRECTION('',(0.,0.,1.));
#249 = ADVANCED_FACE('',(#250),#261,.T.);
#250 = FACE_BOUND('',#251,.T.);
#251 = EDGE_LOOP('',(#252,#253,#259,#260));
#252 = ORIENTED_EDGE('',*,*,#180,.F.);
#253 = ORIENTED_EDGE('',*,*,#254,.T.);
#254 = EDGE_CURVE('',#173,#220,#255,.T.);
#255 = LINE('',#256,#257);
#256 = CARTESIAN_POINT('',(0.81,2.242650509743E-16,1.01));
#257 = VECTOR('',#258,1.);
#258 = DIRECTION('',(0.,1.,-2.22044604925E-16));
#259 = ORIENTED_EDGE('',*,*,#219,.T.);
#260 = ORIENTED_EDGE('',*,*,#133,.F.);
#261 = PLANE('',#262);
#262 = AXIS2_PLACEMENT_3D('',#263,#264,#265);
#263 = CARTESIAN_POINT('',(0.81,2.242650509743E-16,1.01));
#264 = DIRECTION('',(0.,2.22044604925E-16,1.));
#265 = DIRECTION('',(-1.,0.,0.));
#266 = ADVANCED_FACE('',(#267),#273,.T.);
#267 = FACE_BOUND('',#268,.T.);
#268 = EDGE_LOOP('',(#269,#270,#271,#272));
#269 = ORIENTED_EDGE('',*,*,#172,.F.);
#270 = ORIENTED_EDGE('',*,*,#204,.T.);
#271 = ORIENTED_EDGE('',*,*,#227,.T.);
#272 = ORIENTED_EDGE('',*,*,#254,.F.);
#273 = PLANE('',#274);
#274 = AXIS2_PLACEMENT_3D('',#275,#276,#277);
#275 = CARTESIAN_POINT('',(0.81,-2.242650509743E-16,-1.01));
#276 = DIRECTION('',(1.,0.,0.));
#277 = DIRECTION('',(0.,2.22044604925E-16,1.));
#278 = ADVANCED_FACE('',(#279),#298,.F.);
#279 = FACE_BOUND('',#280,.F.);
#280 = EDGE_LOOP('',(#281,#289,#296,#297));
#281 = ORIENTED_EDGE('',*,*,#282,.T.);
#282 = EDGE_CURVE('',#237,#283,#285,.T.);
#283 = VERTEX_POINT('',#284);
#284 = CARTESIAN_POINT('',(-0.483277310924,0.61,-0.778571428571));
#285 = LINE('',#286,#287);
#286 = CARTESIAN_POINT('',(-0.483277310924,0.66,-0.778571428571));
#287 = VECTOR('',#288,1.);
#288 = DIRECTION('',(0.,-1.,-2.22044604925E-16));
#289 = ORIENTED_EDGE('',*,*,#290,.T.);
#290 = EDGE_CURVE('',#283,#283,#291,.T.);
#291 = CIRCLE('',#292,9.529411764706E-02);
#292 = AXIS2_PLACEMENT_3D('',#293,#294,#295);
#293 = CARTESIAN_POINT('',(-0.578571428571,0.61,-0.778571428571));
#294 = DIRECTION('',(-0.,1.,2.22044604925E-16));
#295 = DIRECTION('',(1.,0.,0.));
#296 = ORIENTED_EDGE('',*,*,#282,.F.);
#297 = ORIENTED_EDGE('',*,*,#236,.F.);
#298 = CYLINDRICAL_SURFACE('',#299,9.529411764706E-02);
#299 = AXIS2_PLACEMENT_3D('',#300,#301,#302);
#300 = CARTESIAN_POINT('',(-0.578571428571,0.66,-0.778571428571));
#301 = DIRECTION('',(0.,1.,2.22044604925E-16));
#302 = DIRECTION('',(1.,0.,0.));
#303 = ADVANCED_FACE('',(#304),#307,.T.);
#304 = FACE_BOUND('',#305,.T.);
#305 = EDGE_LOOP('',(#306));
#306 = ORIENTED_EDGE('',*,*,#290,.T.);
#307 = PLANE('',#308);
#308 = AXIS2_PLACEMENT_3D('',#309,#310,#311);
#309 = CARTESIAN_POINT('',(-0.578571428571,0.61,-0.778571428571));
#310 = DIRECTION('',(-3.883496176672E-16,1.,6.726412688996E-16));
#311 = DIRECTION('',(0.,-6.726412688996E-16,1.));
#312 = ( GEOMETRIC_REPRESENTATION_CONTEXT(3) 
GLOBAL_UNCERTAINTY_ASSIGNED_CONTEXT((#316)) GLOBAL_UNIT_ASSIGNED_CONTEXT
((#313,#314,#315)) REPRESENTATION_CONTEXT('Context #1',
  '3D Context with UNIT and UNCERTAINTY') );
#313 = ( LENGTH_UNIT() NAMED_UNIT(*) SI_UNIT(.MILLI.,.METRE.) );
#314 = ( NAMED_UNIT(*) PLANE_ANGLE_UNIT() SI_UNIT($,.RADIAN.) );
#315 = ( NAMED_UNIT(*) SI_UNIT($,.STERADIAN.) SOLID_ANGLE_UNIT() );
#316 = UNCERTAINTY_MEASURE_WITH_UNIT(LENGTH_MEASURE(1.E-07),#313,
  'distance_accuracy_value','confusion accuracy');
#317 = CONTEXT_DEPENDENT_SHAPE_REPRESENTATION(#318,#320);
#318 = ( REPRESENTATION_RELATIONSHIP('','',#116,#10) 
REPRESENTATION_RELATIONSHIP_WITH_TRANSFORMATION(#319) 
SHAPE_REPRESENTATION_RELATIONSHIP() );
#319 = ITEM_DEFINED_TRANSFORMATION('','',#11,#15);
#320 = PRODUCT_DEFINITION_SHAPE('Placement','Placement of an item',#321
  );
#321 = NEXT_ASSEMBLY_USAGE_OCCURRENCE('80568','Body_Solid1','',#5,#111,$
  );
#322 = PRODUCT_RELATED_PRODUCT_CATEGORY('part',$,(#113));
#323 = SHAPE_DEFINITION_REPRESENTATION(#324,#330);
#324 = PRODUCT_DEFINITION_SHAPE('','',#325);
#325 = PRODUCT_DEFINITION('design','',#326,#329);
#326 = PRODUCT_DEFINITION_FORMATION('','',#327);
#327 = PRODUCT('Body002_Solid1','Body002_Solid1','',(#328));
#328 = PRODUCT_CONTEXT('',#2,'mechanical');
#329 = PRODUCT_DEFINITION_CONTEXT('part definition',#2,'design');
#330 = ADVANCED_BREP_SHAPE_REPRESENTATION('',(#11,#331),#384);
#331 = MANIFOLD_SOLID_BREP('',#332);
#332 = CLOSED_SHELL('',(#333,#366,#375));
#333 = ADVANCED_FACE('',(#334),#361,.T.);
#334 = FACE_BOUND('',#335,.F.);
#335 = EDGE_LOOP('',(#336,#346,#353,#354));
#336 = ORIENTED_EDGE('',*,*,#337,.T.);
#337 = EDGE_CURVE('',#338,#340,#342,.T.);
#338 = VERTEX_POINT('',#339);
#339 = CARTESIAN_POINT('',(-0.673865546218,0.61,-0.778571428571));
#340 = VERTEX_POINT('',#341);
#341 = CARTESIAN_POINT('',(-0.673865546218,0.66,-0.778571428571));
#342 = LINE('',#343,#344);
#343 = CARTESIAN_POINT('',(-0.673865546218,0.61,-0.778571428571));
#344 = VECTOR('',#345,1.);
#345 = DIRECTION('',(0.,1.,-2.22044604925E-16));
#346 = ORIENTED_EDGE('',*,*,#347,.T.);
#347 = EDGE_CURVE('',#340,#340,#348,.T.);
#348 = CIRCLE('',#349,9.529411764706E-02);
#349 = AXIS2_PLACEMENT_3D('',#350,#351,#352);
#350 = CARTESIAN_POINT('',(-0.578571428571,0.66,-0.778571428571));
#351 = DIRECTION('',(0.,1.,-2.22044604925E-16));
#352 = DIRECTION('',(-1.,0.,0.));
#353 = ORIENTED_EDGE('',*,*,#337,.F.);
#354 = ORIENTED_EDGE('',*,*,#355,.F.);
#355 = EDGE_CURVE('',#338,#338,#356,.T.);
#356 = CIRCLE('',#357,9.529411764706E-02);
#357 = AXIS2_PLACEMENT_3D('',#358,#359,#360);
#358 = CARTESIAN_POINT('',(-0.578571428571,0.61,-0.778571428571));
#359 = DIRECTION('',(0.,1.,-2.22044604925E-16));
#360 = DIRECTION('',(-1.,0.,0.));
#361 = CYLINDRICAL_SURFACE('',#362,9.529411764706E-02);
#362 = AXIS2_PLACEMENT_3D('',#363,#364,#365);
#363 = CARTESIAN_POINT('',(-0.578571428571,0.61,-0.778571428571));
#364 = DIRECTION('',(0.,-1.,2.22044604925E-16));
#365 = DIRECTION('',(-1.,0.,0.));
#366 = ADVANCED_FACE('',(#367),#370,.F.);
#367 = FACE_BOUND('',#368,.F.);
#368 = EDGE_LOOP('',(#369));
#369 = ORIENTED_EDGE('',*,*,#355,.T.);
#370 = PLANE('',#371);
#371 = AXIS2_PLACEMENT_3D('',#372,#373,#374);
#372 = CARTESIAN_POINT('',(-0.578571428571,0.61,-0.778571428571));
#373 = DIRECTION('',(-3.883496176672E-16,1.,-6.726412688996E-16));
#374 = DIRECTION('',(0.,6.726412688996E-16,1.));
#375 = ADVANCED_FACE('',(#376),#379,.T.);
#376 = FACE_BOUND('',#377,.T.);
#377 = EDGE_LOOP('',(#378));
#378 = ORIENTED_EDGE('',*,*,#347,.T.);
#379 = PLANE('',#380);
#380 = AXIS2_PLACEMENT_3D('',#381,#382,#383);
#381 = CARTESIAN_POINT('',(-0.578571428571,0.66,-0.778571428571));
#382 = DIRECTION('',(-3.883496176672E-16,1.,-6.726412688996E-16));
#383 = DIRECTION('',(0.,6.726412688996E-16,1.));
#384 = ( GEOMETRIC_REPRESENTATION_CONTEXT(3) 
GLOBAL_UNCERTAINTY_ASSIGNED_CONTEXT((#388)) GLOBAL_UNIT_ASSIGNED_CONTEXT
((#385,#386,#387)) REPRESENTATION_CONTEXT('Context #1',
  '3D Context with UNIT and UNCERTAINTY') );
#385 = ( LENGTH_UNIT() NAMED_UNIT(*) SI_UNIT(.MILLI.,.METRE.) );
#386 = ( NAMED_UNIT(*) PLANE_ANGLE_UNIT() SI_UNIT($,.RADIAN.) );
#387 = ( NAMED_UNIT(*) SI_UNIT($,.STERADIAN.) SOLID_ANGLE_UNIT() );
#388 = UNCERTAINTY_MEASURE_WITH_UNIT(LENGTH_MEASURE(1.E-07),#385,
  'distance_accuracy_value','confusion accuracy');
#389 = CONTEXT_DEPENDENT_SHAPE_REPRESENTATION(#390,#392);
#390 = ( REPRESENTATION_RELATIONSHIP('','',#330,#10) 
REPRESENTATION_RELATIONSHIP_WITH_TRANSFORMATION(#391) 
SHAPE_REPRESENTATION_RELATIONSHIP() );
#391 = ITEM_DEFINED_TRANSFORMATION('','',#11,#19);
#392 = PRODUCT_DEFINITION_SHAPE('Placement','Placement of an item',#393
  );
#393 = NEXT_ASSEMBLY_USAGE_OCCURRENCE('80569','Body002_Solid1','',#5,
  #325,$);
#394 = PRODUCT_RELATED_PRODUCT_CATEGORY('part',$,(#327));
#395 = SHAPE_DEFINITION_REPRESENTATION(#396,#402);
#396 = PRODUCT_DEFINITION_SHAPE('','',#397);
#397 = PRODUCT_DEFINITION('design','',#398,#401);
#398 = PRODUCT_DEFINITION_FORMATION('','',#399);
#399 = PRODUCT('BALL_0001','BALL_0001','',(#400));
#400 = PRODUCT_CONTEXT('',#2,'mechanical');
#401 = PRODUCT_DEFINITION_CONTEXT('part definition',#2,'design');
#402 = ADVANCED_BREP_SHAPE_REPRESENTATION('',(#11,#403),#441);
#403 = MANIFOLD_SOLID_BREP('',#404);
#404 = CLOSED_SHELL('',(#405,#432));
#405 = ADVANCED_FACE('',(#406),#427,.T.);
#406 = FACE_BOUND('',#407,.T.);
#407 = EDGE_LOOP('',(#408,#417,#426));
#408 = ORIENTED_EDGE('',*,*,#409,.T.);
#409 = EDGE_CURVE('',#410,#410,#412,.T.);
#410 = VERTEX_POINT('',#411);
#411 = CARTESIAN_POINT('',(-0.6,0.16,-0.72));
#412 = CIRCLE('',#413,8.E-02);
#413 = AXIS2_PLACEMENT_3D('',#414,#415,#416);
#414 = CARTESIAN_POINT('',(-0.6,0.16,-0.8));
#415 = DIRECTION('',(-5.551115123126E-17,-1.,0.));
#416 = DIRECTION('',(-3.851859888774E-32,2.138211768074E-48,1.));
#417 = ORIENTED_EDGE('',*,*,#418,.T.);
#418 = EDGE_CURVE('',#410,#419,#421,.T.);
#419 = VERTEX_POINT('',#420);
#420 = CARTESIAN_POINT('',(-0.6,-9.719146104221E-17,-0.8));
#421 = CIRCLE('',#422,0.1);
#422 = AXIS2_PLACEMENT_3D('',#423,#424,#425);
#423 = CARTESIAN_POINT('',(-0.6,1.E-01,-0.8));
#424 = DIRECTION('',(1.,-1.110223024625E-16,-5.551115123126E-17));
#425 = DIRECTION('',(1.110223024625E-16,1.,5.551115123126E-17));
#426 = ORIENTED_EDGE('',*,*,#418,.F.);
#427 = SPHERICAL_SURFACE('',#428,0.1);
#428 = AXIS2_PLACEMENT_3D('',#429,#430,#431);
#429 = CARTESIAN_POINT('',(-0.6,1.E-01,-0.8));
#430 = DIRECTION('',(-5.551115123126E-17,-1.,-0.));
#431 = DIRECTION('',(-3.789729042486E-32,2.103722220029E-48,1.));
#432 = ADVANCED_FACE('',(#433),#436,.F.);
#433 = FACE_BOUND('',#434,.F.);
#434 = EDGE_LOOP('',(#435));
#435 = ORIENTED_EDGE('',*,*,#409,.T.);
#436 = PLANE('',#437);
#437 = AXIS2_PLACEMENT_3D('',#438,#439,#440);
#438 = CARTESIAN_POINT('',(-0.6,0.16,-0.8));
#439 = DIRECTION('',(-5.551115123126E-17,-1.,-0.));
#440 = DIRECTION('',(-3.851859888774E-32,2.138211768074E-48,1.));
#441 = ( GEOMETRIC_REPRESENTATION_CONTEXT(3) 
GLOBAL_UNCERTAINTY_ASSIGNED_CONTEXT((#445)) GLOBAL_UNIT_ASSIGNED_CONTEXT
((#442,#443,#444)) REPRESENTATION_CONTEXT('Context #1',
  '3D Context with UNIT and UNCERTAINTY') );
#442 = ( LENGTH_UNIT() NAMED_UNIT(*) SI_UNIT(.MILLI.,.METRE.) );
#443 = ( NAMED_UNIT(*) PLANE_ANGLE_UNIT() SI_UNIT($,.RADIAN.) );
#444 = ( NAMED_UNIT(*) SI_UNIT($,.STERADIAN.) SOLID_ANGLE_UNIT() );
#445 = UNCERTAINTY_MEASURE_WITH_UNIT(LENGTH_MEASURE(1.E-07),#442,
  'distance_accuracy_value','confusion accuracy');
#446 = CONTEXT_DEPENDENT_SHAPE_REPRESENTATION(#447,#449);
#447 = ( REPRESENTATION_RELATIONSHIP('','',#402,#10) 
REPRESENTATION_RELATIONSHIP_WITH_TRANSFORMATION(#448) 
SHAPE_REPRESENTATION_RELATIONSHIP() );
#448 = ITEM_DEFINED_TRANSFORMATION('','',#11,#23);
#449 = PRODUCT_DEFINITION_SHAPE('Placement','Placement of an item',#450
  );
#450 = NEXT_ASSEMBLY_USAGE_OCCURRENCE('80570','BALL_0001','',#5,#397,$);
#451 = PRODUCT_RELATED_PRODUCT_CATEGORY('part',$,(#399));
#452 = SHAPE_DEFINITION_REPRESENTATION(#453,#459);
#453 = PRODUCT_DEFINITION_SHAPE('','',#454);
#454 = PRODUCT_DEFINITION('design','',#455,#458);
#455 = PRODUCT_DEFINITION_FORMATION('','',#456);
#456 = PRODUCT('BALL_0002','BALL_0002','',(#457));
#457 = PRODUCT_CONTEXT('',#2,'mechanical');
#458 = PRODUCT_DEFINITION_CONTEXT('part definition',#2,'design');
#459 = ADVANCED_BREP_SHAPE_REPRESENTATION('',(#11,#460),#498);
#460 = MANIFOLD_SOLID_BREP('',#461);
#461 = CLOSED_SHELL('',(#462,#489));
#462 = ADVANCED_FACE('',(#463),#484,.T.);
#463 = FACE_BOUND('',#464,.T.);
#464 = EDGE_LOOP('',(#465,#474,#483));
#465 = ORIENTED_EDGE('',*,*,#466,.T.);
#466 = EDGE_CURVE('',#467,#467,#469,.T.);
#467 = VERTEX_POINT('',#468);
#468 = CARTESIAN_POINT('',(-0.6,0.16,-0.72));
#469 = CIRCLE('',#470,8.E-02);
#470 = AXIS2_PLACEMENT_3D('',#471,#472,#473);
#471 = CARTESIAN_POINT('',(-0.6,0.16,-0.8));
#472 = DIRECTION('',(-5.551115123126E-17,-1.,0.));
#473 = DIRECTION('',(-3.851859888774E-32,2.138211768074E-48,1.));
#474 = ORIENTED_EDGE('',*,*,#475,.T.);
#475 = EDGE_CURVE('',#467,#476,#478,.T.);
#476 = VERTEX_POINT('',#477);
#477 = CARTESIAN_POINT('',(-0.6,-9.719146104221E-17,-0.8));
#478 = CIRCLE('',#479,0.1);
#479 = AXIS2_PLACEMENT_3D('',#480,#481,#482);
#480 = CARTESIAN_POINT('',(-0.6,1.E-01,-0.8));
#481 = DIRECTION('',(1.,-1.110223024625E-16,-5.551115123126E-17));
#482 = DIRECTION('',(1.110223024625E-16,1.,5.551115123126E-17));
#483 = ORIENTED_EDGE('',*,*,#475,.F.);
#484 = SPHERICAL_SURFACE('',#485,0.1);
#485 = AXIS2_PLACEMENT_3D('',#486,#487,#488);
#486 = CARTESIAN_POINT('',(-0.6,1.E-01,-0.8));
#487 = DIRECTION('',(-5.551115123126E-17,-1.,-0.));
#488 = DIRECTION('',(-3.789729042486E-32,2.103722220029E-48,1.));
#489 = ADVANCED_FACE('',(#490),#493,.F.);
#490 = FACE_BOUND('',#491,.F.);
#491 = EDGE_LOOP('',(#492));
#492 = ORIENTED_EDGE('',*,*,#466,.T.);
#493 = PLANE('',#494);
#494 = AXIS2_PLACEMENT_3D('',#495,#496,#497);
#495 = CARTESIAN_POINT('',(-0.6,0.16,-0.8));
#496 = DIRECTION('',(-5.551115123126E-17,-1.,-0.));
#497 = DIRECTION('',(-3.851859888774E-32,2.138211768074E-48,1.));
#498 = ( GEOMETRIC_REPRESENTATION_CONTEXT(3) 
GLOBAL_UNCERTAINTY_ASSIGNED_CONTEXT((#502)) GLOBAL_UNIT_ASSIGNED_CONTEXT
((#499,#500,#501)) REPRESENTATION_CONTEXT('Context #1',
  '3D Context with UNIT and UNCERTAINTY') );
#499 = ( LENGTH_UNIT() NAMED_UNIT(*) SI_UNIT(.MILLI.,.METRE.) );
#500 = ( NAMED_UNIT(*) PLANE_ANGLE_UNIT() SI_UNIT($,.RADIAN.) );
#501 = ( NAMED_UNIT(*) SI_UNIT($,.STERADIAN.) SOLID_ANGLE_UNIT() );
#502 = UNCERTAINTY_MEASURE_WITH_UNIT(LENGTH_MEASURE(1.E-07),#499,
  'distance_accuracy_value','confusion accuracy');
#503 = CONTEXT_DEPENDENT_SHAPE_REPRESENTATION(#504,#506);
#504 = ( REPRESENTATION_RELATIONSHIP('','',#459,#10) 
REPRESENTATION_RELATIONSHIP_WITH_TRANSFORMATION(#505) 
SHAPE_REPRESENTATION_RELATIONSHIP() );
#505 = ITEM_DEFINED_TRANSFORMATION('','',#11,#27);
#506 = PRODUCT_DEFINITION_SHAPE('Placement','Placement of an item',#507
  );
#507 = NEXT_ASSEMBLY_USAGE_OCCURRENCE('80571','BALL_0002','',#5,#454,$);
#508 = PRODUCT_RELATED_PRODUCT_CATEGORY('part',$,(#456));
#509 = SHAPE_DEFINITION_REPRESENTATION(#510,#516);
#510 = PRODUCT_DEFINITION_SHAPE('','',#511);
#511 = PRODUCT_DEFINITION('design','',#512,#515);
#512 = PRODUCT_DEFINITION_FORMATION('','',#513);
#513 = PRODUCT('BALL_0003','BALL_0003','',(#514));
#514 = PRODUCT_CONTEXT('',#2,'mechanical');
#515 = PRODUCT_DEFINITION_CONTEXT('part definition',#2,'design');
#516 = ADVANCED_BREP_SHAPE_REPRESENTATION('',(#11,#517),#555);
#517 = MANIFOLD_SOLID_BREP('',#518);
#518 = CLOSED_SHELL('',(#519,#546));
#519 = ADVANCED_FACE('',(#520),#541,.T.);
#520 = FACE_BOUND('',#521,.T.);
#521 = EDGE_LOOP('',(#522,#531,#540));
#522 = ORIENTED_EDGE('',*,*,#523,.T.);
#523 = EDGE_CURVE('',#524,#524,#526,.T.);
#524 = VERTEX_POINT('',#525);
#525 = CARTESIAN_POINT('',(-0.6,0.16,-0.72));
#526 = CIRCLE('',#527,8.E-02);
#527 = AXIS2_PLACEMENT_3D('',#528,#529,#530);
#528 = CARTESIAN_POINT('',(-0.6,0.16,-0.8));
#529 = DIRECTION('',(-5.551115123126E-17,-1.,0.));
#530 = DIRECTION('',(-3.851859888774E-32,2.138211768074E-48,1.));
#531 = ORIENTED_EDGE('',*,*,#532,.T.);
#532 = EDGE_CURVE('',#524,#533,#535,.T.);
#533 = VERTEX_POINT('',#534);
#534 = CARTESIAN_POINT('',(-0.6,-9.719146104221E-17,-0.8));
#535 = CIRCLE('',#536,0.1);
#536 = AXIS2_PLACEMENT_3D('',#537,#538,#539);
#537 = CARTESIAN_POINT('',(-0.6,1.E-01,-0.8));
#538 = DIRECTION('',(1.,-1.110223024625E-16,-5.551115123126E-17));
#539 = DIRECTION('',(1.110223024625E-16,1.,5.551115123126E-17));
#540 = ORIENTED_EDGE('',*,*,#532,.F.);
#541 = SPHERICAL_SURFACE('',#542,0.1);
#542 = AXIS2_PLACEMENT_3D('',#543,#544,#545);
#543 = CARTESIAN_POINT('',(-0.6,1.E-01,-0.8));
#544 = DIRECTION('',(-5.551115123126E-17,-1.,-0.));
#545 = DIRECTION('',(-3.789729042486E-32,2.103722220029E-48,1.));
#546 = ADVANCED_FACE('',(#547),#550,.F.);
#547 = FACE_BOUND('',#548,.F.);
#548 = EDGE_LOOP('',(#549));
#549 = ORIENTED_EDGE('',*,*,#523,.T.);
#550 = PLANE('',#551);
#551 = AXIS2_PLACEMENT_3D('',#552,#553,#554);
#552 = CARTESIAN_POINT('',(-0.6,0.16,-0.8));
#553 = DIRECTION('',(-5.551115123126E-17,-1.,-0.));
#554 = DIRECTION('',(-3.851859888774E-32,2.138211768074E-48,1.));
#555 = ( GEOMETRIC_REPRESENTATION_CONTEXT(3) 
GLOBAL_UNCERTAINTY_ASSIGNED_CONTEXT((#559)) GLOBAL_UNIT_ASSIGNED_CONTEXT
((#556,#557,#558)) REPRESENTATION_CONTEXT('Context #1',
  '3D Context with UNIT and UNCERTAINTY') );
#556 = ( LENGTH_UNIT() NAMED_UNIT(*) SI_UNIT(.MILLI.,.METRE.) );
#557 = ( NAMED_UNIT(*) PLANE_ANGLE_UNIT() SI_UNIT($,.RADIAN.) );
#558 = ( NAMED_UNIT(*) SI_UNIT($,.STERADIAN.) SOLID_ANGLE_UNIT() );
#559 = UNCERTAINTY_MEASURE_WITH_UNIT(LENGTH_MEASURE(1.E-07),#556,
  'distance_accuracy_value','confusion accuracy');
#560 = CONTEXT_DEPENDENT_SHAPE_REPRESENTATION(#561,#563);
#561 = ( REPRESENTATION_RELATIONSHIP('','',#516,#10) 
REPRESENTATION_RELATIONSHIP_WITH_TRANSFORMATION(#562) 
SHAPE_REPRESENTATION_RELATIONSHIP() );
#562 = ITEM_DEFINED_TRANSFORMATION('','',#11,#31);
#563 = PRODUCT_DEFINITION_SHAPE('Placement','Placement of an item',#564
  );
#564 = NEXT_ASSEMBLY_USAGE_OCCURRENCE('80572','BALL_0003','',#5,#511,$);
#565 = PRODUCT_RELATED_PRODUCT_CATEGORY('part',$,(#513));
#566 = SHAPE_DEFINITION_REPRESENTATION(#567,#573);
#567 = PRODUCT_DEFINITION_SHAPE('','',#568);
#568 = PRODUCT_DEFINITION('design','',#569,#572);
#569 = PRODUCT_DEFINITION_FORMATION('','',#570);
#570 = PRODUCT('BALL_0004','BALL_0004','',(#571));
#571 = PRODUCT_CONTEXT('',#2,'mechanical');
#572 = PRODUCT_DEFINITION_CONTEXT('part definition',#2,'design');
#573 = ADVANCED_BREP_SHAPE_REPRESENTATION('',(#11,#574),#612);
#574 = MANIFOLD_SOLID_BREP('',#575);
#575 = CLOSED_SHELL('',(#576,#603));
#576 = ADVANCED_FACE('',(#577),#598,.T.);
#577 = FACE_BOUND('',#578,.T.);
#578 = EDGE_LOOP('',(#579,#588,#597));
#579 = ORIENTED_EDGE('',*,*,#580,.T.);
#580 = EDGE_CURVE('',#581,#581,#583,.T.);
#581 = VERTEX_POINT('',#582);
#582 = CARTESIAN_POINT('',(-0.6,0.16,-0.72));
#583 = CIRCLE('',#584,8.E-02);
#584 = AXIS2_PLACEMENT_3D('',#585,#586,#587);
#585 = CARTESIAN_POINT('',(-0.6,0.16,-0.8));
#586 = DIRECTION('',(-5.551115123126E-17,-1.,0.));
#587 = DIRECTION('',(-3.851859888774E-32,2.138211768074E-48,1.));
#588 = ORIENTED_EDGE('',*,*,#589,.T.);
#589 = EDGE_CURVE('',#581,#590,#592,.T.);
#590 = VERTEX_POINT('',#591);
#591 = CARTESIAN_POINT('',(-0.6,-9.719146104221E-17,-0.8));
#592 = CIRCLE('',#593,0.1);
#593 = AXIS2_PLACEMENT_3D('',#594,#595,#596);
#594 = CARTESIAN_POINT('',(-0.6,1.E-01,-0.8));
#595 = DIRECTION('',(1.,-1.110223024625E-16,-5.551115123126E-17));
#596 = DIRECTION('',(1.110223024625E-16,1.,5.551115123126E-17));
#597 = ORIENTED_EDGE('',*,*,#589,.F.);
#598 = SPHERICAL_SURFACE('',#599,0.1);
#599 = AXIS2_PLACEMENT_3D('',#600,#601,#602);
#600 = CARTESIAN_POINT('',(-0.6,1.E-01,-0.8));
#601 = DIRECTION('',(-5.551115123126E-17,-1.,-0.));
#602 = DIRECTION('',(-3.789729042486E-32,2.103722220029E-48,1.));
#603 = ADVANCED_FACE('',(#604),#607,.F.);
#604 = FACE_BOUND('',#605,.F.);
#605 = EDGE_LOOP('',(#606));
#606 = ORIENTED_EDGE('',*,*,#580,.T.);
#607 = PLANE('',#608);
#608 = AXIS2_PLACEMENT_3D('',#609,#610,#611);
#609 = CARTESIAN_POINT('',(-0.6,0.16,-0.8));
#610 = DIRECTION('',(-5.551115123126E-17,-1.,-0.));
#611 = DIRECTION('',(-3.851859888774E-32,2.138211768074E-48,1.));
#612 = ( GEOMETRIC_REPRESENTATION_CONTEXT(3) 
GLOBAL_UNCERTAINTY_ASSIGNED_CONTEXT((#616)) GLOBAL_UNIT_ASSIGNED_CONTEXT
((#613,#614,#615)) REPRESENTATION_CONTEXT('Context #1',
  '3D Context with UNIT and UNCERTAINTY') );
#613 = ( LENGTH_UNIT() NAMED_UNIT(*) SI_UNIT(.MILLI.,.METRE.) );
#614 = ( NAMED_UNIT(*) PLANE_ANGLE_UNIT() SI_UNIT($,.RADIAN.) );
#615 = ( NAMED_UNIT(*) SI_UNIT($,.STERADIAN.) SOLID_ANGLE_UNIT() );
#616 = UNCERTAINTY_MEASURE_WITH_UNIT(LENGTH_MEASURE(1.E-07),#613,
  'distance_accuracy_value','confusion accuracy');
#617 = CONTEXT_DEPENDENT_SHAPE_REPRESENTATION(#618,#620);
#618 = ( REPRESENTATION_RELATIONSHIP('','',#573,#10) 
REPRESENTATION_RELATIONSHIP_WITH_TRANSFORMATION(#619) 
SHAPE_REPRESENTATION_RELATIONSHIP() );
#619 = ITEM_DEFINED_TRANSFORMATION('','',#11,#35);
#620 = PRODUCT_DEFINITION_SHAPE('Placement','Placement of an item',#621
  );
#621 = NEXT_ASSEMBLY_USAGE_OCCURRENCE('80573','BALL_0004','',#5,#568,$);
#622 = PRODUCT_RELATED_PRODUCT_CATEGORY('part',$,(#570));
#623 = SHAPE_DEFINITION_REPRESENTATION(#624,#630);
#624 = PRODUCT_DEFINITION_SHAPE('','',#625);
#625 = PRODUCT_DEFINITION('design','',#626,#629);
#626 = PRODUCT_DEFINITION_FORMATION('','',#627);
#627 = PRODUCT('BALL_0005','BALL_0005','',(#628));
#628 = PRODUCT_CONTEXT('',#2,'mechanical');
#629 = PRODUCT_DEFINITION_CONTEXT('part definition',#2,'design');
#630 = ADVANCED_BREP_SHAPE_REPRESENTATION('',(#11,#631),#669);
#631 = MANIFOLD_SOLID_BREP('',#632);
#632 = CLOSED_SHELL('',(#633,#660));
#633 = ADVANCED_FACE('',(#634),#655,.T.);
#634 = FACE_BOUND('',#635,.T.);
#635 = EDGE_LOOP('',(#636,#645,#654));
#636 = ORIENTED_EDGE('',*,*,#637,.T.);
#637 = EDGE_CURVE('',#638,#638,#640,.T.);
#638 = VERTEX_POINT('',#639);
#639 = CARTESIAN_POINT('',(-0.6,0.16,-0.72));
#640 = CIRCLE('',#641,8.E-02);
#641 = AXIS2_PLACEMENT_3D('',#642,#643,#644);
#642 = CARTESIAN_POINT('',(-0.6,0.16,-0.8));
#643 = DIRECTION('',(-5.551115123126E-17,-1.,0.));
#644 = DIRECTION('',(-3.851859888774E-32,2.138211768074E-48,1.));
#645 = ORIENTED_EDGE('',*,*,#646,.T.);
#646 = EDGE_CURVE('',#638,#647,#649,.T.);
#647 = VERTEX_POINT('',#648);
#648 = CARTESIAN_POINT('',(-0.6,-9.719146104221E-17,-0.8));
#649 = CIRCLE('',#650,0.1);
#650 = AXIS2_PLACEMENT_3D('',#651,#652,#653);
#651 = CARTESIAN_POINT('',(-0.6,1.E-01,-0.8));
#652 = DIRECTION('',(1.,-1.110223024625E-16,-5.551115123126E-17));
#653 = DIRECTION('',(1.110223024625E-16,1.,5.551115123126E-17));
#654 = ORIENTED_EDGE('',*,*,#646,.F.);
#655 = SPHERICAL_SURFACE('',#656,0.1);
#656 = AXIS2_PLACEMENT_3D('',#657,#658,#659);
#657 = CARTESIAN_POINT('',(-0.6,1.E-01,-0.8));
#658 = DIRECTION('',(-5.551115123126E-17,-1.,-0.));
#659 = DIRECTION('',(-3.789729042486E-32,2.103722220029E-48,1.));
#660 = ADVANCED_FACE('',(#661),#664,.F.);
#661 = FACE_BOUND('',#662,.F.);
#662 = EDGE_LOOP('',(#663));
#663 = ORIENTED_EDGE('',*,*,#637,.T.);
#664 = PLANE('',#665);
#665 = AXIS2_PLACEMENT_3D('',#666,#667,#668);
#666 = CARTESIAN_POINT('',(-0.6,0.16,-0.8));
#667 = DIRECTION('',(-5.551115123126E-17,-1.,-0.));
#668 = DIRECTION('',(-3.851859888774E-32,2.138211768074E-48,1.));
#669 = ( GEOMETRIC_REPRESENTATION_CONTEXT(3) 
GLOBAL_UNCERTAINTY_ASSIGNED_CONTEXT((#673)) GLOBAL_UNIT_ASSIGNED_CONTEXT
((#670,#671,#672)) REPRESENTATION_CONTEXT('Context #1',
  '3D Context with UNIT and UNCERTAINTY') );
#670 = ( LENGTH_UNIT() NAMED_UNIT(*) SI_UNIT(.MILLI.,.METRE.) );
#671 = ( NAMED_UNIT(*) PLANE_ANGLE_UNIT() SI_UNIT($,.RADIAN.) );
#672 = ( NAMED_UNIT(*) SI_UNIT($,.STERADIAN.) SOLID_ANGLE_UNIT() );
#673 = UNCERTAINTY_MEASURE_WITH_UNIT(LENGTH_MEASURE(1.E-07),#670,
  'distance_accuracy_value','confusion accuracy');
#674 = CONTEXT_DEPENDENT_SHAPE_REPRESENTATION(#675,#677);
#675 = ( REPRESENTATION_RELATIONSHIP('','',#630,#10) 
REPRESENTATION_RELATIONSHIP_WITH_TRANSFORMATION(#676) 
SHAPE_REPRESENTATION_RELATIONSHIP() );
#676 = ITEM_DEFINED_TRANSFORMATION('','',#11,#39);
#677 = PRODUCT_DEFINITION_SHAPE('Placement','Placement of an item',#678
  );
#678 = NEXT_ASSEMBLY_USAGE_OCCURRENCE('80574','BALL_0005','',#5,#625,$);
#679 = PRODUCT_RELATED_PRODUCT_CATEGORY('part',$,(#627));
#680 = SHAPE_DEFINITION_REPRESENTATION(#681,#687);
#681 = PRODUCT_DEFINITION_SHAPE('','',#682);
#682 = PRODUCT_DEFINITION('design','',#683,#686);
#683 = PRODUCT_DEFINITION_FORMATION('','',#684);
#684 = PRODUCT('BALL_0006','BALL_0006','',(#685));
#685 = PRODUCT_CONTEXT('',#2,'mechanical');
#686 = PRODUCT_DEFINITION_CONTEXT('part definition',#2,'design');
#687 = ADVANCED_BREP_SHAPE_REPRESENTATION('',(#11,#688),#726);
#688 = MANIFOLD_SOLID_BREP('',#689);
#689 = CLOSED_SHELL('',(#690,#717));
#690 = ADVANCED_FACE('',(#691),#712,.T.);
#691 = FACE_BOUND('',#692,.T.);
#692 = EDGE_LOOP('',(#693,#702,#711));
#693 = ORIENTED_EDGE('',*,*,#694,.T.);
#694 = EDGE_CURVE('',#695,#695,#697,.T.);
#695 = VERTEX_POINT('',#696);
#696 = CARTESIAN_POINT('',(-0.6,0.16,-0.72));
#697 = CIRCLE('',#698,8.E-02);
#698 = AXIS2_PLACEMENT_3D('',#699,#700,#701);
#699 = CARTESIAN_POINT('',(-0.6,0.16,-0.8));
#700 = DIRECTION('',(-5.551115123126E-17,-1.,0.));
#701 = DIRECTION('',(-3.851859888774E-32,2.138211768074E-48,1.));
#702 = ORIENTED_EDGE('',*,*,#703,.T.);
#703 = EDGE_CURVE('',#695,#704,#706,.T.);
#704 = VERTEX_POINT('',#705);
#705 = CARTESIAN_POINT('',(-0.6,-9.719146104221E-17,-0.8));
#706 = CIRCLE('',#707,0.1);
#707 = AXIS2_PLACEMENT_3D('',#708,#709,#710);
#708 = CARTESIAN_POINT('',(-0.6,1.E-01,-0.8));
#709 = DIRECTION('',(1.,-1.110223024625E-16,-5.551115123126E-17));
#710 = DIRECTION('',(1.110223024625E-16,1.,5.551115123126E-17));
#711 = ORIENTED_EDGE('',*,*,#703,.F.);
#712 = SPHERICAL_SURFACE('',#713,0.1);
#713 = AXIS2_PLACEMENT_3D('',#714,#715,#716);
#714 = CARTESIAN_POINT('',(-0.6,1.E-01,-0.8));
#715 = DIRECTION('',(-5.551115123126E-17,-1.,-0.));
#716 = DIRECTION('',(-3.789729042486E-32,2.103722220029E-48,1.));
#717 = ADVANCED_FACE('',(#718),#721,.F.);
#718 = FACE_BOUND('',#719,.F.);
#719 = EDGE_LOOP('',(#720));
#720 = ORIENTED_EDGE('',*,*,#694,.T.);
#721 = PLANE('',#722);
#722 = AXIS2_PLACEMENT_3D('',#723,#724,#725);
#723 = CARTESIAN_POINT('',(-0.6,0.16,-0.8));
#724 = DIRECTION('',(-5.551115123126E-17,-1.,-0.));
#725 = DIRECTION('',(-3.851859888774E-32,2.138211768074E-48,1.));
#726 = ( GEOMETRIC_REPRESENTATION_CONTEXT(3) 
GLOBAL_UNCERTAINTY_ASSIGNED_CONTEXT((#730)) GLOBAL_UNIT_ASSIGNED_CONTEXT
((#727,#728,#729)) REPRESENTATION_CONTEXT('Context #1',
  '3D Context with UNIT and UNCERTAINTY') );
#727 = ( LENGTH_UNIT() NAMED_UNIT(*) SI_UNIT(.MILLI.,.METRE.) );
#728 = ( NAMED_UNIT(*) PLANE_ANGLE_UNIT() SI_UNIT($,.RADIAN.) );
#729 = ( NAMED_UNIT(*) SI_UNIT($,.STERADIAN.) SOLID_ANGLE_UNIT() );
#730 = UNCERTAINTY_MEASURE_WITH_UNIT(LENGTH_MEASURE(1.E-07),#727,
  'distance_accuracy_value','confusion accuracy');
#731 = CONTEXT_DEPENDENT_SHAPE_REPRESENTATION(#732,#734);
#732 = ( REPRESENTATION_RELATIONSHIP('','',#687,#10) 
REPRESENTATION_RELATIONSHIP_WITH_TRANSFORMATION(#733) 
SHAPE_REPRESENTATION_RELATIONSHIP() );
#733 = ITEM_DEFINED_TRANSFORMATION('','',#11,#43);
#734 = PRODUCT_DEFINITION_SHAPE('Placement','Placement of an item',#735
  );
#735 = NEXT_ASSEMBLY_USAGE_OCCURRENCE('80575','BALL_0006','',#5,#682,$);
#736 = PRODUCT_RELATED_PRODUCT_CATEGORY('part',$,(#684));
#737 = SHAPE_DEFINITION_REPRESENTATION(#738,#744);
#738 = PRODUCT_DEFINITION_SHAPE('','',#739);
#739 = PRODUCT_DEFINITION('design','',#740,#743);
#740 = PRODUCT_DEFINITION_FORMATION('','',#741);
#741 = PRODUCT('BALL_0007','BALL_0007','',(#742));
#742 = PRODUCT_CONTEXT('',#2,'mechanical');
#743 = PRODUCT_DEFINITION_CONTEXT('part definition',#2,'design');
#744 = ADVANCED_BREP_SHAPE_REPRESENTATION('',(#11,#745),#783);
#745 = MANIFOLD_SOLID_BREP('',#746);
#746 = CLOSED_SHELL('',(#747,#774));
#747 = ADVANCED_FACE('',(#748),#769,.T.);
#748 = FACE_BOUND('',#749,.T.);
#749 = EDGE_LOOP('',(#750,#759,#768));
#750 = ORIENTED_EDGE('',*,*,#751,.T.);
#751 = EDGE_CURVE('',#752,#752,#754,.T.);
#752 = VERTEX_POINT('',#753);
#753 = CARTESIAN_POINT('',(-0.6,0.16,-0.72));
#754 = CIRCLE('',#755,8.E-02);
#755 = AXIS2_PLACEMENT_3D('',#756,#757,#758);
#756 = CARTESIAN_POINT('',(-0.6,0.16,-0.8));
#757 = DIRECTION('',(-5.551115123126E-17,-1.,0.));
#758 = DIRECTION('',(-3.851859888774E-32,2.138211768074E-48,1.));
#759 = ORIENTED_EDGE('',*,*,#760,.T.);
#760 = EDGE_CURVE('',#752,#761,#763,.T.);
#761 = VERTEX_POINT('',#762);
#762 = CARTESIAN_POINT('',(-0.6,-9.719146104221E-17,-0.8));
#763 = CIRCLE('',#764,0.1);
#764 = AXIS2_PLACEMENT_3D('',#765,#766,#767);
#765 = CARTESIAN_POINT('',(-0.6,1.E-01,-0.8));
#766 = DIRECTION('',(1.,-1.110223024625E-16,-5.551115123126E-17));
#767 = DIRECTION('',(1.110223024625E-16,1.,5.551115123126E-17));
#768 = ORIENTED_EDGE('',*,*,#760,.F.);
#769 = SPHERICAL_SURFACE('',#770,0.1);
#770 = AXIS2_PLACEMENT_3D('',#771,#772,#773);
#771 = CARTESIAN_POINT('',(-0.6,1.E-01,-0.8));
#772 = DIRECTION('',(-5.551115123126E-17,-1.,-0.));
#773 = DIRECTION('',(-3.789729042486E-32,2.103722220029E-48,1.));
#774 = ADVANCED_FACE('',(#775),#778,.F.);
#775 = FACE_BOUND('',#776,.F.);
#776 = EDGE_LOOP('',(#777));
#777 = ORIENTED_EDGE('',*,*,#751,.T.);
#778 = PLANE('',#779);
#779 = AXIS2_PLACEMENT_3D('',#780,#781,#782);
#780 = CARTESIAN_POINT('',(-0.6,0.16,-0.8));
#781 = DIRECTION('',(-5.551115123126E-17,-1.,-0.));
#782 = DIRECTION('',(-3.851859888774E-32,2.138211768074E-48,1.));
#783 = ( GEOMETRIC_REPRESENTATION_CONTEXT(3) 
GLOBAL_UNCERTAINTY_ASSIGNED_CONTEXT((#787)) GLOBAL_UNIT_ASSIGNED_CONTEXT
((#784,#785,#786)) REPRESENTATION_CONTEXT('Context #1',
  '3D Context with UNIT and UNCERTAINTY') );
#784 = ( LENGTH_UNIT() NAMED_UNIT(*) SI_UNIT(.MILLI.,.METRE.) );
#785 = ( NAMED_UNIT(*) PLANE_ANGLE_UNIT() SI_UNIT($,.RADIAN.) );
#786 = ( NAMED_UNIT(*) SI_UNIT($,.STERADIAN.) SOLID_ANGLE_UNIT() );
#787 = UNCERTAINTY_MEASURE_WITH_UNIT(LENGTH_MEASURE(1.E-07),#784,
  'distance_accuracy_value','confusion accuracy');
#788 = CONTEXT_DEPENDENT_SHAPE_REPRESENTATION(#789,#791);
#789 = ( REPRESENTATION_RELATIONSHIP('','',#744,#10) 
REPRESENTATION_RELATIONSHIP_WITH_TRANSFORMATION(#790) 
SHAPE_REPRESENTATION_RELATIONSHIP() );
#790 = ITEM_DEFINED_TRANSFORMATION('','',#11,#47);
#791 = PRODUCT_DEFINITION_SHAPE('Placement','Placement of an item',#792
  );
#792 = NEXT_ASSEMBLY_USAGE_OCCURRENCE('80576','BALL_0007','',#5,#739,$);
#793 = PRODUCT_RELATED_PRODUCT_CATEGORY('part',$,(#741));
#794 = SHAPE_DEFINITION_REPRESENTATION(#795,#801);
#795 = PRODUCT_DEFINITION_SHAPE('','',#796);
#796 = PRODUCT_DEFINITION('design','',#797,#800);
#797 = PRODUCT_DEFINITION_FORMATION('','',#798);
#798 = PRODUCT('BALL_0008','BALL_0008','',(#799));
#799 = PRODUCT_CONTEXT('',#2,'mechanical');
#800 = PRODUCT_DEFINITION_CONTEXT('part definition',#2,'design');
#801 = ADVANCED_BREP_SHAPE_REPRESENTATION('',(#11,#802),#840);
#802 = MANIFOLD_SOLID_BREP('',#803);
#803 = CLOSED_SHELL('',(#804,#831));
#804 = ADVANCED_FACE('',(#805),#826,.T.);
#805 = FACE_BOUND('',#806,.T.);
#806 = EDGE_LOOP('',(#807,#816,#825));
#807 = ORIENTED_EDGE('',*,*,#808,.T.);
#808 = EDGE_CURVE('',#809,#809,#811,.T.);
#809 = VERTEX_POINT('',#810);
#810 = CARTESIAN_POINT('',(-0.6,0.16,-0.72));
#811 = CIRCLE('',#812,8.E-02);
#812 = AXIS2_PLACEMENT_3D('',#813,#814,#815);
#813 = CARTESIAN_POINT('',(-0.6,0.16,-0.8));
#814 = DIRECTION('',(-5.551115123126E-17,-1.,0.));
#815 = DIRECTION('',(-3.851859888774E-32,2.138211768074E-48,1.));
#816 = ORIENTED_EDGE('',*,*,#817,.T.);
#817 = EDGE_CURVE('',#809,#818,#820,.T.);
#818 = VERTEX_POINT('',#819);
#819 = CARTESIAN_POINT('',(-0.6,-9.719146104221E-17,-0.8));
#820 = CIRCLE('',#821,0.1);
#821 = AXIS2_PLACEMENT_3D('',#822,#823,#824);
#822 = CARTESIAN_POINT('',(-0.6,1.E-01,-0.8));
#823 = DIRECTION('',(1.,-1.110223024625E-16,-5.551115123126E-17));
#824 = DIRECTION('',(1.110223024625E-16,1.,5.551115123126E-17));
#825 = ORIENTED_EDGE('',*,*,#817,.F.);
#826 = SPHERICAL_SURFACE('',#827,0.1);
#827 = AXIS2_PLACEMENT_3D('',#828,#829,#830);
#828 = CARTESIAN_POINT('',(-0.6,1.E-01,-0.8));
#829 = DIRECTION('',(-5.551115123126E-17,-1.,-0.));
#830 = DIRECTION('',(-3.789729042486E-32,2.103722220029E-48,1.));
#831 = ADVANCED_FACE('',(#832),#835,.F.);
#832 = FACE_BOUND('',#833,.F.);
#833 = EDGE_LOOP('',(#834));
#834 = ORIENTED_EDGE('',*,*,#808,.T.);
#835 = PLANE('',#836);
#836 = AXIS2_PLACEMENT_3D('',#837,#838,#839);
#837 = CARTESIAN_POINT('',(-0.6,0.16,-0.8));
#838 = DIRECTION('',(-5.551115123126E-17,-1.,-0.));
#839 = DIRECTION('',(-3.851859888774E-32,2.138211768074E-48,1.));
#840 = ( GEOMETRIC_REPRESENTATION_CONTEXT(3) 
GLOBAL_UNCERTAINTY_ASSIGNED_CONTEXT((#844)) GLOBAL_UNIT_ASSIGNED_CONTEXT
((#841,#842,#843)) REPRESENTATION_CONTEXT('Context #1',
  '3D Context with UNIT and UNCERTAINTY') );
#841 = ( LENGTH_UNIT() NAMED_UNIT(*) SI_UNIT(.MILLI.,.METRE.) );
#842 = ( NAMED_UNIT(*) PLANE_ANGLE_UNIT() SI_UNIT($,.RADIAN.) );
#843 = ( NAMED_UNIT(*) SI_UNIT($,.STERADIAN.) SOLID_ANGLE_UNIT() );
#844 = UNCERTAINTY_MEASURE_WITH_UNIT(LENGTH_MEASURE(1.E-07),#841,
  'distance_accuracy_value','confusion accuracy');
#845 = CONTEXT_DEPENDENT_SHAPE_REPRESENTATION(#846,#848);
#846 = ( REPRESENTATION_RELATIONSHIP('','',#801,#10) 
REPRESENTATION_RELATIONSHIP_WITH_TRANSFORMATION(#847) 
SHAPE_REPRESENTATION_RELATIONSHIP() );
#847 = ITEM_DEFINED_TRANSFORMATION('','',#11,#51);
#848 = PRODUCT_DEFINITION_SHAPE('Placement','Placement of an item',#849
  );
#849 = NEXT_ASSEMBLY_USAGE_OCCURRENCE('80577','BALL_0008','',#5,#796,$);
#850 = PRODUCT_RELATED_PRODUCT_CATEGORY('part',$,(#798));
#851 = SHAPE_DEFINITION_REPRESENTATION(#852,#858);
#852 = PRODUCT_DEFINITION_SHAPE('','',#853);
#853 = PRODUCT_DEFINITION('design','',#854,#857);
#854 = PRODUCT_DEFINITION_FORMATION('','',#855);
#855 = PRODUCT('BALL_0009','BALL_0009','',(#856));
#856 = PRODUCT_CONTEXT('',#2,'mechanical');
#857 = PRODUCT_DEFINITION_CONTEXT('part definition',#2,'design');
#858 = ADVANCED_BREP_SHAPE_REPRESENTATION('',(#11,#859),#897);
#859 = MANIFOLD_SOLID_BREP('',#860);
#860 = CLOSED_SHELL('',(#861,#888));
#861 = ADVANCED_FACE('',(#862),#883,.T.);
#862 = FACE_BOUND('',#863,.T.);
#863 = EDGE_LOOP('',(#864,#873,#882));
#864 = ORIENTED_EDGE('',*,*,#865,.T.);
#865 = EDGE_CURVE('',#866,#866,#868,.T.);
#866 = VERTEX_POINT('',#867);
#867 = CARTESIAN_POINT('',(-0.6,0.16,-0.72));
#868 = CIRCLE('',#869,8.E-02);
#869 = AXIS2_PLACEMENT_3D('',#870,#871,#872);
#870 = CARTESIAN_POINT('',(-0.6,0.16,-0.8));
#871 = DIRECTION('',(-5.551115123126E-17,-1.,0.));
#872 = DIRECTION('',(-3.851859888774E-32,2.138211768074E-48,1.));
#873 = ORIENTED_EDGE('',*,*,#874,.T.);
#874 = EDGE_CURVE('',#866,#875,#877,.T.);
#875 = VERTEX_POINT('',#876);
#876 = CARTESIAN_POINT('',(-0.6,-9.719146104221E-17,-0.8));
#877 = CIRCLE('',#878,0.1);
#878 = AXIS2_PLACEMENT_3D('',#879,#880,#881);
#879 = CARTESIAN_POINT('',(-0.6,1.E-01,-0.8));
#880 = DIRECTION('',(1.,-1.110223024625E-16,-5.551115123126E-17));
#881 = DIRECTION('',(1.110223024625E-16,1.,5.551115123126E-17));
#882 = ORIENTED_EDGE('',*,*,#874,.F.);
#883 = SPHERICAL_SURFACE('',#884,0.1);
#884 = AXIS2_PLACEMENT_3D('',#885,#886,#887);
#885 = CARTESIAN_POINT('',(-0.6,1.E-01,-0.8));
#886 = DIRECTION('',(-5.551115123126E-17,-1.,-0.));
#887 = DIRECTION('',(-3.789729042486E-32,2.103722220029E-48,1.));
#888 = ADVANCED_FACE('',(#889),#892,.F.);
#889 = FACE_BOUND('',#890,.F.);
#890 = EDGE_LOOP('',(#891));
#891 = ORIENTED_EDGE('',*,*,#865,.T.);
#892 = PLANE('',#893);
#893 = AXIS2_PLACEMENT_3D('',#894,#895,#896);
#894 = CARTESIAN_POINT('',(-0.6,0.16,-0.8));
#895 = DIRECTION('',(-5.551115123126E-17,-1.,-0.));
#896 = DIRECTION('',(-3.851859888774E-32,2.138211768074E-48,1.));
#897 = ( GEOMETRIC_REPRESENTATION_CONTEXT(3) 
GLOBAL_UNCERTAINTY_ASSIGNED_CONTEXT((#901)) GLOBAL_UNIT_ASSIGNED_CONTEXT
((#898,#899,#900)) REPRESENTATION_CONTEXT('Context #1',
  '3D Context with UNIT and UNCERTAINTY') );
#898 = ( LENGTH_UNIT() NAMED_UNIT(*) SI_UNIT(.MILLI.,.METRE.) );
#899 = ( NAMED_UNIT(*) PLANE_ANGLE_UNIT() SI_UNIT($,.RADIAN.) );
#900 = ( NAMED_UNIT(*) SI_UNIT($,.STERADIAN.) SOLID_ANGLE_UNIT() );
#901 = UNCERTAINTY_MEASURE_WITH_UNIT(LENGTH_MEASURE(1.E-07),#898,
  'distance_accuracy_value','confusion accuracy');
#902 = CONTEXT_DEPENDENT_SHAPE_REPRESENTATION(#903,#905);
#903 = ( REPRESENTATION_RELATIONSHIP('','',#858,#10) 
REPRESENTATION_RELATIONSHIP_WITH_TRANSFORMATION(#904) 
SHAPE_REPRESENTATION_RELATIONSHIP() );
#904 = ITEM_DEFINED_TRANSFORMATION('','',#11,#55);
#905 = PRODUCT_DEFINITION_SHAPE('Placement','Placement of an item',#906
  );
#906 = NEXT_ASSEMBLY_USAGE_OCCURRENCE('80578','BALL_0009','',#5,#853,$);
#907 = PRODUCT_RELATED_PRODUCT_CATEGORY('part',$,(#855));
#908 = SHAPE_DEFINITION_REPRESENTATION(#909,#915);
#909 = PRODUCT_DEFINITION_SHAPE('','',#910);
#910 = PRODUCT_DEFINITION('design','',#911,#914);
#911 = PRODUCT_DEFINITION_FORMATION('','',#912);
#912 = PRODUCT('BALL_0010','BALL_0010','',(#913));
#913 = PRODUCT_CONTEXT('',#2,'mechanical');
#914 = PRODUCT_DEFINITION_CONTEXT('part definition',#2,'design');
#915 = ADVANCED_BREP_SHAPE_REPRESENTATION('',(#11,#916),#954);
#916 = MANIFOLD_SOLID_BREP('',#917);
#917 = CLOSED_SHELL('',(#918,#945));
#918 = ADVANCED_FACE('',(#919),#940,.T.);
#919 = FACE_BOUND('',#920,.T.);
#920 = EDGE_LOOP('',(#921,#930,#939));
#921 = ORIENTED_EDGE('',*,*,#922,.T.);
#922 = EDGE_CURVE('',#923,#923,#925,.T.);
#923 = VERTEX_POINT('',#924);
#924 = CARTESIAN_POINT('',(-0.6,0.16,-0.72));
#925 = CIRCLE('',#926,8.E-02);
#926 = AXIS2_PLACEMENT_3D('',#927,#928,#929);
#927 = CARTESIAN_POINT('',(-0.6,0.16,-0.8));
#928 = DIRECTION('',(-5.551115123126E-17,-1.,0.));
#929 = DIRECTION('',(-3.851859888774E-32,2.138211768074E-48,1.));
#930 = ORIENTED_EDGE('',*,*,#931,.T.);
#931 = EDGE_CURVE('',#923,#932,#934,.T.);
#932 = VERTEX_POINT('',#933);
#933 = CARTESIAN_POINT('',(-0.6,-9.719146104221E-17,-0.8));
#934 = CIRCLE('',#935,0.1);
#935 = AXIS2_PLACEMENT_3D('',#936,#937,#938);
#936 = CARTESIAN_POINT('',(-0.6,1.E-01,-0.8));
#937 = DIRECTION('',(1.,-1.110223024625E-16,-5.551115123126E-17));
#938 = DIRECTION('',(1.110223024625E-16,1.,5.551115123126E-17));
#939 = ORIENTED_EDGE('',*,*,#931,.F.);
#940 = SPHERICAL_SURFACE('',#941,0.1);
#941 = AXIS2_PLACEMENT_3D('',#942,#943,#944);
#942 = CARTESIAN_POINT('',(-0.6,1.E-01,-0.8));
#943 = DIRECTION('',(-5.551115123126E-17,-1.,-0.));
#944 = DIRECTION('',(-3.789729042486E-32,2.103722220029E-48,1.));
#945 = ADVANCED_FACE('',(#946),#949,.F.);
#946 = FACE_BOUND('',#947,.F.);
#947 = EDGE_LOOP('',(#948));
#948 = ORIENTED_EDGE('',*,*,#922,.T.);
#949 = PLANE('',#950);
#950 = AXIS2_PLACEMENT_3D('',#951,#952,#953);
#951 = CARTESIAN_POINT('',(-0.6,0.16,-0.8));
#952 = DIRECTION('',(-5.551115123126E-17,-1.,-0.));
#953 = DIRECTION('',(-3.851859888774E-32,2.138211768074E-48,1.));
#954 = ( GEOMETRIC_REPRESENTATION_CONTEXT(3) 
GLOBAL_UNCERTAINTY_ASSIGNED_CONTEXT((#958)) GLOBAL_UNIT_ASSIGNED_CONTEXT
((#955,#956,#957)) REPRESENTATION_CONTEXT('Context #1',
  '3D Context with UNIT and UNCERTAINTY') );
#955 = ( LENGTH_UNIT() NAMED_UNIT(*) SI_UNIT(.MILLI.,.METRE.) );
#956 = ( NAMED_UNIT(*) PLANE_ANGLE_UNIT() SI_UNIT($,.RADIAN.) );
#957 = ( NAMED_UNIT(*) SI_UNIT($,.STERADIAN.) SOLID_ANGLE_UNIT() );
#958 = UNCERTAINTY_MEASURE_WITH_UNIT(LENGTH_MEASURE(1.E-07),#955,
  'distance_accuracy_value','confusion accuracy');
#959 = CONTEXT_DEPENDENT_SHAPE_REPRESENTATION(#960,#962);
#960 = ( REPRESENTATION_RELATIONSHIP('','',#915,#10) 
REPRESENTATION_RELATIONSHIP_WITH_TRANSFORMATION(#961) 
SHAPE_REPRESENTATION_RELATIONSHIP() );
#961 = ITEM_DEFINED_TRANSFORMATION('','',#11,#59);
#962 = PRODUCT_DEFINITION_SHAPE('Placement','Placement of an item',#963
  );
#963 = NEXT_ASSEMBLY_USAGE_OCCURRENCE('80579','BALL_0010','',#5,#910,$);
#964 = PRODUCT_RELATED_PRODUCT_CATEGORY('part',$,(#912));
#965 = SHAPE_DEFINITION_REPRESENTATION(#966,#972);
#966 = PRODUCT_DEFINITION_SHAPE('','',#967);
#967 = PRODUCT_DEFINITION('design','',#968,#971);
#968 = PRODUCT_DEFINITION_FORMATION('','',#969);
#969 = PRODUCT('BALL_0011','BALL_0011','',(#970));
#970 = PRODUCT_CONTEXT('',#2,'mechanical');
#971 = PRODUCT_DEFINITION_CONTEXT('part definition',#2,'design');
#972 = ADVANCED_BREP_SHAPE_REPRESENTATION('',(#11,#973),#1011);
#973 = MANIFOLD_SOLID_BREP('',#974);
#974 = CLOSED_SHELL('',(#975,#1002));
#975 = ADVANCED_FACE('',(#976),#997,.T.);
#976 = FACE_BOUND('',#977,.T.);
#977 = EDGE_LOOP('',(#978,#987,#996));
#978 = ORIENTED_EDGE('',*,*,#979,.T.);
#979 = EDGE_CURVE('',#980,#980,#982,.T.);
#980 = VERTEX_POINT('',#981);
#981 = CARTESIAN_POINT('',(-0.6,0.16,-0.72));
#982 = CIRCLE('',#983,8.E-02);
#983 = AXIS2_PLACEMENT_3D('',#984,#985,#986);
#984 = CARTESIAN_POINT('',(-0.6,0.16,-0.8));
#985 = DIRECTION('',(-5.551115123126E-17,-1.,0.));
#986 = DIRECTION('',(-3.851859888774E-32,2.138211768074E-48,1.));
#987 = ORIENTED_EDGE('',*,*,#988,.T.);
#988 = EDGE_CURVE('',#980,#989,#991,.T.);
#989 = VERTEX_POINT('',#990);
#990 = CARTESIAN_POINT('',(-0.6,-9.719146104221E-17,-0.8));
#991 = CIRCLE('',#992,0.1);
#992 = AXIS2_PLACEMENT_3D('',#993,#994,#995);
#993 = CARTESIAN_POINT('',(-0.6,1.E-01,-0.8));
#994 = DIRECTION('',(1.,-1.110223024625E-16,-5.551115123126E-17));
#995 = DIRECTION('',(1.110223024625E-16,1.,5.551115123126E-17));
#996 = ORIENTED_EDGE('',*,*,#988,.F.);
#997 = SPHERICAL_SURFACE('',#998,0.1);
#998 = AXIS2_PLACEMENT_3D('',#999,#1000,#1001);
#999 = CARTESIAN_POINT('',(-0.6,1.E-01,-0.8));
#1000 = DIRECTION('',(-5.551115123126E-17,-1.,-0.));
#1001 = DIRECTION('',(-3.789729042486E-32,2.103722220029E-48,1.));
#1002 = ADVANCED_FACE('',(#1003),#1006,.F.);
#1003 = FACE_BOUND('',#1004,.F.);
#1004 = EDGE_LOOP('',(#1005));
#1005 = ORIENTED_EDGE('',*,*,#979,.T.);
#1006 = PLANE('',#1007);
#1007 = AXIS2_PLACEMENT_3D('',#1008,#1009,#1010);
#1008 = CARTESIAN_POINT('',(-0.6,0.16,-0.8));
#1009 = DIRECTION('',(-5.551115123126E-17,-1.,-0.));
#1010 = DIRECTION('',(-3.851859888774E-32,2.138211768074E-48,1.));
#1011 = ( GEOMETRIC_REPRESENTATION_CONTEXT(3) 
GLOBAL_UNCERTAINTY_ASSIGNED_CONTEXT((#1015)) 
GLOBAL_UNIT_ASSIGNED_CONTEXT((#1012,#1013,#1014)) REPRESENTATION_CONTEXT
('Context #1','3D Context with UNIT and UNCERTAINTY') );
#1012 = ( LENGTH_UNIT() NAMED_UNIT(*) SI_UNIT(.MILLI.,.METRE.) );
#1013 = ( NAMED_UNIT(*) PLANE_ANGLE_UNIT() SI_UNIT($,.RADIAN.) );
#1014 = ( NAMED_UNIT(*) SI_UNIT($,.STERADIAN.) SOLID_ANGLE_UNIT() );
#1015 = UNCERTAINTY_MEASURE_WITH_UNIT(LENGTH_MEASURE(1.E-07),#1012,
  'distance_accuracy_value','confusion accuracy');
#1016 = CONTEXT_DEPENDENT_SHAPE_REPRESENTATION(#1017,#1019);
#1017 = ( REPRESENTATION_RELATIONSHIP('','',#972,#10) 
REPRESENTATION_RELATIONSHIP_WITH_TRANSFORMATION(#1018) 
SHAPE_REPRESENTATION_RELATIONSHIP() );
#1018 = ITEM_DEFINED_TRANSFORMATION('','',#11,#63);
#1019 = PRODUCT_DEFINITION_SHAPE('Placement','Placement of an item',
  #1020);
#1020 = NEXT_ASSEMBLY_USAGE_OCCURRENCE('80580','BALL_0011','',#5,#967,$
  );
#1021 = PRODUCT_RELATED_PRODUCT_CATEGORY('part',$,(#969));
#1022 = SHAPE_DEFINITION_REPRESENTATION(#1023,#1029);
#1023 = PRODUCT_DEFINITION_SHAPE('','',#1024);
#1024 = PRODUCT_DEFINITION('design','',#1025,#1028);
#1025 = PRODUCT_DEFINITION_FORMATION('','',#1026);
#1026 = PRODUCT('BALL_0012','BALL_0012','',(#1027));
#1027 = PRODUCT_CONTEXT('',#2,'mechanical');
#1028 = PRODUCT_DEFINITION_CONTEXT('part definition',#2,'design');
#1029 = ADVANCED_BREP_SHAPE_REPRESENTATION('',(#11,#1030),#1068);
#1030 = MANIFOLD_SOLID_BREP('',#1031);
#1031 = CLOSED_SHELL('',(#1032,#1059));
#1032 = ADVANCED_FACE('',(#1033),#1054,.T.);
#1033 = FACE_BOUND('',#1034,.T.);
#1034 = EDGE_LOOP('',(#1035,#1044,#1053));
#1035 = ORIENTED_EDGE('',*,*,#1036,.T.);
#1036 = EDGE_CURVE('',#1037,#1037,#1039,.T.);
#1037 = VERTEX_POINT('',#1038);
#1038 = CARTESIAN_POINT('',(-0.6,0.16,-0.72));
#1039 = CIRCLE('',#1040,8.E-02);
#1040 = AXIS2_PLACEMENT_3D('',#1041,#1042,#1043);
#1041 = CARTESIAN_POINT('',(-0.6,0.16,-0.8));
#1042 = DIRECTION('',(-5.551115123126E-17,-1.,0.));
#1043 = DIRECTION('',(-3.851859888774E-32,2.138211768074E-48,1.));
#1044 = ORIENTED_EDGE('',*,*,#1045,.T.);
#1045 = EDGE_CURVE('',#1037,#1046,#1048,.T.);
#1046 = VERTEX_POINT('',#1047);
#1047 = CARTESIAN_POINT('',(-0.6,-9.719146104221E-17,-0.8));
#1048 = CIRCLE('',#1049,0.1);
#1049 = AXIS2_PLACEMENT_3D('',#1050,#1051,#1052);
#1050 = CARTESIAN_POINT('',(-0.6,1.E-01,-0.8));
#1051 = DIRECTION('',(1.,-1.110223024625E-16,-5.551115123126E-17));
#1052 = DIRECTION('',(1.110223024625E-16,1.,5.551115123126E-17));
#1053 = ORIENTED_EDGE('',*,*,#1045,.F.);
#1054 = SPHERICAL_SURFACE('',#1055,0.1);
#1055 = AXIS2_PLACEMENT_3D('',#1056,#1057,#1058);
#1056 = CARTESIAN_POINT('',(-0.6,1.E-01,-0.8));
#1057 = DIRECTION('',(-5.551115123126E-17,-1.,-0.));
#1058 = DIRECTION('',(-3.789729042486E-32,2.103722220029E-48,1.));
#1059 = ADVANCED_FACE('',(#1060),#1063,.F.);
#1060 = FACE_BOUND('',#1061,.F.);
#1061 = EDGE_LOOP('',(#1062));
#1062 = ORIENTED_EDGE('',*,*,#1036,.T.);
#1063 = PLANE('',#1064);
#1064 = AXIS2_PLACEMENT_3D('',#1065,#1066,#1067);
#1065 = CARTESIAN_POINT('',(-0.6,0.16,-0.8));
#1066 = DIRECTION('',(-5.551115123126E-17,-1.,-0.));
#1067 = DIRECTION('',(-3.851859888774E-32,2.138211768074E-48,1.));
#1068 = ( GEOMETRIC_REPRESENTATION_CONTEXT(3) 
GLOBAL_UNCERTAINTY_ASSIGNED_CONTEXT((#1072)) 
GLOBAL_UNIT_ASSIGNED_CONTEXT((#1069,#1070,#1071)) REPRESENTATION_CONTEXT
('Context #1','3D Context with UNIT and UNCERTAINTY') );
#1069 = ( LENGTH_UNIT() NAMED_UNIT(*) SI_UNIT(.MILLI.,.METRE.) );
#1070 = ( NAMED_UNIT(*) PLANE_ANGLE_UNIT() SI_UNIT($,.RADIAN.) );
#1071 = ( NAMED_UNIT(*) SI_UNIT($,.STERADIAN.) SOLID_ANGLE_UNIT() );
#1072 = UNCERTAINTY_MEASURE_WITH_UNIT(LENGTH_MEASURE(1.E-07),#1069,
  'distance_accuracy_value','confusion accuracy');
#1073 = CONTEXT_DEPENDENT_SHAPE_REPRESENTATION(#1074,#1076);
#1074 = ( REPRESENTATION_RELATIONSHIP('','',#1029,#10) 
REPRESENTATION_RELATIONSHIP_WITH_TRANSFORMATION(#1075) 
SHAPE_REPRESENTATION_RELATIONSHIP() );
#1075 = ITEM_DEFINED_TRANSFORMATION('','',#11,#67);
#1076 = PRODUCT_DEFINITION_SHAPE('Placement','Placement of an item',
  #1077);
#1077 = NEXT_ASSEMBLY_USAGE_OCCURRENCE('80581','BALL_0012','',#5,#1024,$
  );
#1078 = PRODUCT_RELATED_PRODUCT_CATEGORY('part',$,(#1026));
#1079 = SHAPE_DEFINITION_REPRESENTATION(#1080,#1086);
#1080 = PRODUCT_DEFINITION_SHAPE('','',#1081);
#1081 = PRODUCT_DEFINITION('design','',#1082,#1085);
#1082 = PRODUCT_DEFINITION_FORMATION('','',#1083);
#1083 = PRODUCT('BALL_0013','BALL_0013','',(#1084));
#1084 = PRODUCT_CONTEXT('',#2,'mechanical');
#1085 = PRODUCT_DEFINITION_CONTEXT('part definition',#2,'design');
#1086 = ADVANCED_BREP_SHAPE_REPRESENTATION('',(#11,#1087),#1125);
#1087 = MANIFOLD_SOLID_BREP('',#1088);
#1088 = CLOSED_SHELL('',(#1089,#1116));
#1089 = ADVANCED_FACE('',(#1090),#1111,.T.);
#1090 = FACE_BOUND('',#1091,.T.);
#1091 = EDGE_LOOP('',(#1092,#1101,#1110));
#1092 = ORIENTED_EDGE('',*,*,#1093,.T.);
#1093 = EDGE_CURVE('',#1094,#1094,#1096,.T.);
#1094 = VERTEX_POINT('',#1095);
#1095 = CARTESIAN_POINT('',(-0.6,0.16,-0.72));
#1096 = CIRCLE('',#1097,8.E-02);
#1097 = AXIS2_PLACEMENT_3D('',#1098,#1099,#1100);
#1098 = CARTESIAN_POINT('',(-0.6,0.16,-0.8));
#1099 = DIRECTION('',(-5.551115123126E-17,-1.,0.));
#1100 = DIRECTION('',(-3.851859888774E-32,2.138211768074E-48,1.));
#1101 = ORIENTED_EDGE('',*,*,#1102,.T.);
#1102 = EDGE_CURVE('',#1094,#1103,#1105,.T.);
#1103 = VERTEX_POINT('',#1104);
#1104 = CARTESIAN_POINT('',(-0.6,-9.719146104221E-17,-0.8));
#1105 = CIRCLE('',#1106,0.1);
#1106 = AXIS2_PLACEMENT_3D('',#1107,#1108,#1109);
#1107 = CARTESIAN_POINT('',(-0.6,1.E-01,-0.8));
#1108 = DIRECTION('',(1.,-1.110223024625E-16,-5.551115123126E-17));
#1109 = DIRECTION('',(1.110223024625E-16,1.,5.551115123126E-17));
#1110 = ORIENTED_EDGE('',*,*,#1102,.F.);
#1111 = SPHERICAL_SURFACE('',#1112,0.1);
#1112 = AXIS2_PLACEMENT_3D('',#1113,#1114,#1115);
#1113 = CARTESIAN_POINT('',(-0.6,1.E-01,-0.8));
#1114 = DIRECTION('',(-5.551115123126E-17,-1.,-0.));
#1115 = DIRECTION('',(-3.789729042486E-32,2.103722220029E-48,1.));
#1116 = ADVANCED_FACE('',(#1117),#1120,.F.);
#1117 = FACE_BOUND('',#1118,.F.);
#1118 = EDGE_LOOP('',(#1119));
#1119 = ORIENTED_EDGE('',*,*,#1093,.T.);
#1120 = PLANE('',#1121);
#1121 = AXIS2_PLACEMENT_3D('',#1122,#1123,#1124);
#1122 = CARTESIAN_POINT('',(-0.6,0.16,-0.8));
#1123 = DIRECTION('',(-5.551115123126E-17,-1.,-0.));
#1124 = DIRECTION('',(-3.851859888774E-32,2.138211768074E-48,1.));
#1125 = ( GEOMETRIC_REPRESENTATION_CONTEXT(3) 
GLOBAL_UNCERTAINTY_ASSIGNED_CONTEXT((#1129)) 
GLOBAL_UNIT_ASSIGNED_CONTEXT((#1126,#1127,#1128)) REPRESENTATION_CONTEXT
('Context #1','3D Context with UNIT and UNCERTAINTY') );
#1126 = ( LENGTH_UNIT() NAMED_UNIT(*) SI_UNIT(.MILLI.,.METRE.) );
#1127 = ( NAMED_UNIT(*) PLANE_ANGLE_UNIT() SI_UNIT($,.RADIAN.) );
#1128 = ( NAMED_UNIT(*) SI_UNIT($,.STERADIAN.) SOLID_ANGLE_UNIT() );
#1129 = UNCERTAINTY_MEASURE_WITH_UNIT(LENGTH_MEASURE(1.E-07),#1126,
  'distance_accuracy_value','confusion accuracy');
#1130 = CONTEXT_DEPENDENT_SHAPE_REPRESENTATION(#1131,#1133);
#1131 = ( REPRESENTATION_RELATIONSHIP('','',#1086,#10) 
REPRESENTATION_RELATIONSHIP_WITH_TRANSFORMATION(#1132) 
SHAPE_REPRESENTATION_RELATIONSHIP() );
#1132 = ITEM_DEFINED_TRANSFORMATION('','',#11,#71);
#1133 = PRODUCT_DEFINITION_SHAPE('Placement','Placement of an item',
  #1134);
#1134 = NEXT_ASSEMBLY_USAGE_OCCURRENCE('80582','BALL_0013','',#5,#1081,$
  );
#1135 = PRODUCT_RELATED_PRODUCT_CATEGORY('part',$,(#1083));
#1136 = SHAPE_DEFINITION_REPRESENTATION(#1137,#1143);
#1137 = PRODUCT_DEFINITION_SHAPE('','',#1138);
#1138 = PRODUCT_DEFINITION('design','',#1139,#1142);
#1139 = PRODUCT_DEFINITION_FORMATION('','',#1140);
#1140 = PRODUCT('BALL_0014','BALL_0014','',(#1141));
#1141 = PRODUCT_CONTEXT('',#2,'mechanical');
#1142 = PRODUCT_DEFINITION_CONTEXT('part definition',#2,'design');
#1143 = ADVANCED_BREP_SHAPE_REPRESENTATION('',(#11,#1144),#1182);
#1144 = MANIFOLD_SOLID_BREP('',#1145);
#1145 = CLOSED_SHELL('',(#1146,#1173));
#1146 = ADVANCED_FACE('',(#1147),#1168,.T.);
#1147 = FACE_BOUND('',#1148,.T.);
#1148 = EDGE_LOOP('',(#1149,#1158,#1167));
#1149 = ORIENTED_EDGE('',*,*,#1150,.T.);
#1150 = EDGE_CURVE('',#1151,#1151,#1153,.T.);
#1151 = VERTEX_POINT('',#1152);
#1152 = CARTESIAN_POINT('',(-0.6,0.16,-0.72));
#1153 = CIRCLE('',#1154,8.E-02);
#1154 = AXIS2_PLACEMENT_3D('',#1155,#1156,#1157);
#1155 = CARTESIAN_POINT('',(-0.6,0.16,-0.8));
#1156 = DIRECTION('',(-5.551115123126E-17,-1.,0.));
#1157 = DIRECTION('',(-3.851859888774E-32,2.138211768074E-48,1.));
#1158 = ORIENTED_EDGE('',*,*,#1159,.T.);
#1159 = EDGE_CURVE('',#1151,#1160,#1162,.T.);
#1160 = VERTEX_POINT('',#1161);
#1161 = CARTESIAN_POINT('',(-0.6,-9.719146104221E-17,-0.8));
#1162 = CIRCLE('',#1163,0.1);
#1163 = AXIS2_PLACEMENT_3D('',#1164,#1165,#1166);
#1164 = CARTESIAN_POINT('',(-0.6,1.E-01,-0.8));
#1165 = DIRECTION('',(1.,-1.110223024625E-16,-5.551115123126E-17));
#1166 = DIRECTION('',(1.110223024625E-16,1.,5.551115123126E-17));
#1167 = ORIENTED_EDGE('',*,*,#1159,.F.);
#1168 = SPHERICAL_SURFACE('',#1169,0.1);
#1169 = AXIS2_PLACEMENT_3D('',#1170,#1171,#1172);
#1170 = CARTESIAN_POINT('',(-0.6,1.E-01,-0.8));
#1171 = DIRECTION('',(-5.551115123126E-17,-1.,-0.));
#1172 = DIRECTION('',(-3.789729042486E-32,2.103722220029E-48,1.));
#1173 = ADVANCED_FACE('',(#1174),#1177,.F.);
#1174 = FACE_BOUND('',#1175,.F.);
#1175 = EDGE_LOOP('',(#1176));
#1176 = ORIENTED_EDGE('',*,*,#1150,.T.);
#1177 = PLANE('',#1178);
#1178 = AXIS2_PLACEMENT_3D('',#1179,#1180,#1181);
#1179 = CARTESIAN_POINT('',(-0.6,0.16,-0.8));
#1180 = DIRECTION('',(-5.551115123126E-17,-1.,-0.));
#1181 = DIRECTION('',(-3.851859888774E-32,2.138211768074E-48,1.));
#1182 = ( GEOMETRIC_REPRESENTATION_CONTEXT(3) 
GLOBAL_UNCERTAINTY_ASSIGNED_CONTEXT((#1186)) 
GLOBAL_UNIT_ASSIGNED_CONTEXT((#1183,#1184,#1185)) REPRESENTATION_CONTEXT
('Context #1','3D Context with UNIT and UNCERTAINTY') );
#1183 = ( LENGTH_UNIT() NAMED_UNIT(*) SI_UNIT(.MILLI.,.METRE.) );
#1184 = ( NAMED_UNIT(*) PLANE_ANGLE_UNIT() SI_UNIT($,.RADIAN.) );
#1185 = ( NAMED_UNIT(*) SI_UNIT($,.STERADIAN.) SOLID_ANGLE_UNIT() );
#1186 = UNCERTAINTY_MEASURE_WITH_UNIT(LENGTH_MEASURE(1.E-07),#1183,
  'distance_accuracy_value','confusion accuracy');
#1187 = CONTEXT_DEPENDENT_SHAPE_REPRESENTATION(#1188,#1190);
#1188 = ( REPRESENTATION_RELATIONSHIP('','',#1143,#10) 
REPRESENTATION_RELATIONSHIP_WITH_TRANSFORMATION(#1189) 
SHAPE_REPRESENTATION_RELATIONSHIP() );
#1189 = ITEM_DEFINED_TRANSFORMATION('','',#11,#75);
#1190 = PRODUCT_DEFINITION_SHAPE('Placement','Placement of an item',
  #1191);
#1191 = NEXT_ASSEMBLY_USAGE_OCCURRENCE('80583','BALL_0014','',#5,#1138,$
  );
#1192 = PRODUCT_RELATED_PRODUCT_CATEGORY('part',$,(#1140));
#1193 = SHAPE_DEFINITION_REPRESENTATION(#1194,#1200);
#1194 = PRODUCT_DEFINITION_SHAPE('','',#1195);
#1195 = PRODUCT_DEFINITION('design','',#1196,#1199);
#1196 = PRODUCT_DEFINITION_FORMATION('','',#1197);
#1197 = PRODUCT('BALL_0015','BALL_0015','',(#1198));
#1198 = PRODUCT_CONTEXT('',#2,'mechanical');
#1199 = PRODUCT_DEFINITION_CONTEXT('part definition',#2,'design');
#1200 = ADVANCED_BREP_SHAPE_REPRESENTATION('',(#11,#1201),#1239);
#1201 = MANIFOLD_SOLID_BREP('',#1202);
#1202 = CLOSED_SHELL('',(#1203,#1230));
#1203 = ADVANCED_FACE('',(#1204),#1225,.T.);
#1204 = FACE_BOUND('',#1205,.T.);
#1205 = EDGE_LOOP('',(#1206,#1215,#1224));
#1206 = ORIENTED_EDGE('',*,*,#1207,.T.);
#1207 = EDGE_CURVE('',#1208,#1208,#1210,.T.);
#1208 = VERTEX_POINT('',#1209);
#1209 = CARTESIAN_POINT('',(-0.6,0.16,-0.72));
#1210 = CIRCLE('',#1211,8.E-02);
#1211 = AXIS2_PLACEMENT_3D('',#1212,#1213,#1214);
#1212 = CARTESIAN_POINT('',(-0.6,0.16,-0.8));
#1213 = DIRECTION('',(-5.551115123126E-17,-1.,0.));
#1214 = DIRECTION('',(-3.851859888774E-32,2.138211768074E-48,1.));
#1215 = ORIENTED_EDGE('',*,*,#1216,.T.);
#1216 = EDGE_CURVE('',#1208,#1217,#1219,.T.);
#1217 = VERTEX_POINT('',#1218);
#1218 = CARTESIAN_POINT('',(-0.6,-9.719146104221E-17,-0.8));
#1219 = CIRCLE('',#1220,0.1);
#1220 = AXIS2_PLACEMENT_3D('',#1221,#1222,#1223);
#1221 = CARTESIAN_POINT('',(-0.6,1.E-01,-0.8));
#1222 = DIRECTION('',(1.,-1.110223024625E-16,-5.551115123126E-17));
#1223 = DIRECTION('',(1.110223024625E-16,1.,5.551115123126E-17));
#1224 = ORIENTED_EDGE('',*,*,#1216,.F.);
#1225 = SPHERICAL_SURFACE('',#1226,0.1);
#1226 = AXIS2_PLACEMENT_3D('',#1227,#1228,#1229);
#1227 = CARTESIAN_POINT('',(-0.6,1.E-01,-0.8));
#1228 = DIRECTION('',(-5.551115123126E-17,-1.,-0.));
#1229 = DIRECTION('',(-3.789729042486E-32,2.103722220029E-48,1.));
#1230 = ADVANCED_FACE('',(#1231),#1234,.F.);
#1231 = FACE_BOUND('',#1232,.F.);
#1232 = EDGE_LOOP('',(#1233));
#1233 = ORIENTED_EDGE('',*,*,#1207,.T.);
#1234 = PLANE('',#1235);
#1235 = AXIS2_PLACEMENT_3D('',#1236,#1237,#1238);
#1236 = CARTESIAN_POINT('',(-0.6,0.16,-0.8));
#1237 = DIRECTION('',(-5.551115123126E-17,-1.,-0.));
#1238 = DIRECTION('',(-3.851859888774E-32,2.138211768074E-48,1.));
#1239 = ( GEOMETRIC_REPRESENTATION_CONTEXT(3) 
GLOBAL_UNCERTAINTY_ASSIGNED_CONTEXT((#1243)) 
GLOBAL_UNIT_ASSIGNED_CONTEXT((#1240,#1241,#1242)) REPRESENTATION_CONTEXT
('Context #1','3D Context with UNIT and UNCERTAINTY') );
#1240 = ( LENGTH_UNIT() NAMED_UNIT(*) SI_UNIT(.MILLI.,.METRE.) );
#1241 = ( NAMED_UNIT(*) PLANE_ANGLE_UNIT() SI_UNIT($,.RADIAN.) );
#1242 = ( NAMED_UNIT(*) SI_UNIT($,.STERADIAN.) SOLID_ANGLE_UNIT() );
#1243 = UNCERTAINTY_MEASURE_WITH_UNIT(LENGTH_MEASURE(1.E-07),#1240,
  'distance_accuracy_value','confusion accuracy');
#1244 = CONTEXT_DEPENDENT_SHAPE_REPRESENTATION(#1245,#1247);
#1245 = ( REPRESENTATION_RELATIONSHIP('','',#1200,#10) 
REPRESENTATION_RELATIONSHIP_WITH_TRANSFORMATION(#1246) 
SHAPE_REPRESENTATION_RELATIONSHIP() );
#1246 = ITEM_DEFINED_TRANSFORMATION('','',#11,#79);
#1247 = PRODUCT_DEFINITION_SHAPE('Placement','Placement of an item',
  #1248);
#1248 = NEXT_ASSEMBLY_USAGE_OCCURRENCE('80584','BALL_0015','',#5,#1195,$
  );
#1249 = PRODUCT_RELATED_PRODUCT_CATEGORY('part',$,(#1197));
#1250 = SHAPE_DEFINITION_REPRESENTATION(#1251,#1257);
#1251 = PRODUCT_DEFINITION_SHAPE('','',#1252);
#1252 = PRODUCT_DEFINITION('design','',#1253,#1256);
#1253 = PRODUCT_DEFINITION_FORMATION('','',#1254);
#1254 = PRODUCT('BALL_0016','BALL_0016','',(#1255));
#1255 = PRODUCT_CONTEXT('',#2,'mechanical');
#1256 = PRODUCT_DEFINITION_CONTEXT('part definition',#2,'design');
#1257 = ADVANCED_BREP_SHAPE_REPRESENTATION('',(#11,#1258),#1296);
#1258 = MANIFOLD_SOLID_BREP('',#1259);
#1259 = CLOSED_SHELL('',(#1260,#1287));
#1260 = ADVANCED_FACE('',(#1261),#1282,.T.);
#1261 = FACE_BOUND('',#1262,.T.);
#1262 = EDGE_LOOP('',(#1263,#1272,#1281));
#1263 = ORIENTED_EDGE('',*,*,#1264,.T.);
#1264 = EDGE_CURVE('',#1265,#1265,#1267,.T.);
#1265 = VERTEX_POINT('',#1266);
#1266 = CARTESIAN_POINT('',(-0.6,0.16,-0.72));
#1267 = CIRCLE('',#1268,8.E-02);
#1268 = AXIS2_PLACEMENT_3D('',#1269,#1270,#1271);
#1269 = CARTESIAN_POINT('',(-0.6,0.16,-0.8));
#1270 = DIRECTION('',(-5.551115123126E-17,-1.,0.));
#1271 = DIRECTION('',(-3.851859888774E-32,2.138211768074E-48,1.));
#1272 = ORIENTED_EDGE('',*,*,#1273,.T.);
#1273 = EDGE_CURVE('',#1265,#1274,#1276,.T.);
#1274 = VERTEX_POINT('',#1275);
#1275 = CARTESIAN_POINT('',(-0.6,-9.719146104221E-17,-0.8));
#1276 = CIRCLE('',#1277,0.1);
#1277 = AXIS2_PLACEMENT_3D('',#1278,#1279,#1280);
#1278 = CARTESIAN_POINT('',(-0.6,1.E-01,-0.8));
#1279 = DIRECTION('',(1.,-1.110223024625E-16,-5.551115123126E-17));
#1280 = DIRECTION('',(1.110223024625E-16,1.,5.551115123126E-17));
#1281 = ORIENTED_EDGE('',*,*,#1273,.F.);
#1282 = SPHERICAL_SURFACE('',#1283,0.1);
#1283 = AXIS2_PLACEMENT_3D('',#1284,#1285,#1286);
#1284 = CARTESIAN_POINT('',(-0.6,1.E-01,-0.8));
#1285 = DIRECTION('',(-5.551115123126E-17,-1.,-0.));
#1286 = DIRECTION('',(-3.789729042486E-32,2.103722220029E-48,1.));
#1287 = ADVANCED_FACE('',(#1288),#1291,.F.);
#1288 = FACE_BOUND('',#1289,.F.);
#1289 = EDGE_LOOP('',(#1290));
#1290 = ORIENTED_EDGE('',*,*,#1264,.T.);
#1291 = PLANE('',#1292);
#1292 = AXIS2_PLACEMENT_3D('',#1293,#1294,#1295);
#1293 = CARTESIAN_POINT('',(-0.6,0.16,-0.8));
#1294 = DIRECTION('',(-5.551115123126E-17,-1.,-0.));
#1295 = DIRECTION('',(-3.851859888774E-32,2.138211768074E-48,1.));
#1296 = ( GEOMETRIC_REPRESENTATION_CONTEXT(3) 
GLOBAL_UNCERTAINTY_ASSIGNED_CONTEXT((#1300)) 
GLOBAL_UNIT_ASSIGNED_CONTEXT((#1297,#1298,#1299)) REPRESENTATION_CONTEXT
('Context #1','3D Context with UNIT and UNCERTAINTY') );
#1297 = ( LENGTH_UNIT() NAMED_UNIT(*) SI_UNIT(.MILLI.,.METRE.) );
#1298 = ( NAMED_UNIT(*) PLANE_ANGLE_UNIT() SI_UNIT($,.RADIAN.) );
#1299 = ( NAMED_UNIT(*) SI_UNIT($,.STERADIAN.) SOLID_ANGLE_UNIT() );
#1300 = UNCERTAINTY_MEASURE_WITH_UNIT(LENGTH_MEASURE(1.E-07),#1297,
  'distance_accuracy_value','confusion accuracy');
#1301 = CONTEXT_DEPENDENT_SHAPE_REPRESENTATION(#1302,#1304);
#1302 = ( REPRESENTATION_RELATIONSHIP('','',#1257,#10) 
REPRESENTATION_RELATIONSHIP_WITH_TRANSFORMATION(#1303) 
SHAPE_REPRESENTATION_RELATIONSHIP() );
#1303 = ITEM_DEFINED_TRANSFORMATION('','',#11,#83);
#1304 = PRODUCT_DEFINITION_SHAPE('Placement','Placement of an item',
  #1305);
#1305 = NEXT_ASSEMBLY_USAGE_OCCURRENCE('80585','BALL_0016','',#5,#1252,$
  );
#1306 = PRODUCT_RELATED_PRODUCT_CATEGORY('part',$,(#1254));
#1307 = SHAPE_DEFINITION_REPRESENTATION(#1308,#1314);
#1308 = PRODUCT_DEFINITION_SHAPE('','',#1309);
#1309 = PRODUCT_DEFINITION('design','',#1310,#1313);
#1310 = PRODUCT_DEFINITION_FORMATION('','',#1311);
#1311 = PRODUCT('BALL_0017','BALL_0017','',(#1312));
#1312 = PRODUCT_CONTEXT('',#2,'mechanical');
#1313 = PRODUCT_DEFINITION_CONTEXT('part definition',#2,'design');
#1314 = ADVANCED_BREP_SHAPE_REPRESENTATION('',(#11,#1315),#1353);
#1315 = MANIFOLD_SOLID_BREP('',#1316);
#1316 = CLOSED_SHELL('',(#1317,#1344));
#1317 = ADVANCED_FACE('',(#1318),#1339,.T.);
#1318 = FACE_BOUND('',#1319,.T.);
#1319 = EDGE_LOOP('',(#1320,#1329,#1338));
#1320 = ORIENTED_EDGE('',*,*,#1321,.T.);
#1321 = EDGE_CURVE('',#1322,#1322,#1324,.T.);
#1322 = VERTEX_POINT('',#1323);
#1323 = CARTESIAN_POINT('',(-0.6,0.16,-0.72));
#1324 = CIRCLE('',#1325,8.E-02);
#1325 = AXIS2_PLACEMENT_3D('',#1326,#1327,#1328);
#1326 = CARTESIAN_POINT('',(-0.6,0.16,-0.8));
#1327 = DIRECTION('',(-5.551115123126E-17,-1.,0.));
#1328 = DIRECTION('',(-3.851859888774E-32,2.138211768074E-48,1.));
#1329 = ORIENTED_EDGE('',*,*,#1330,.T.);
#1330 = EDGE_CURVE('',#1322,#1331,#1333,.T.);
#1331 = VERTEX_POINT('',#1332);
#1332 = CARTESIAN_POINT('',(-0.6,-9.719146104221E-17,-0.8));
#1333 = CIRCLE('',#1334,0.1);
#1334 = AXIS2_PLACEMENT_3D('',#1335,#1336,#1337);
#1335 = CARTESIAN_POINT('',(-0.6,1.E-01,-0.8));
#1336 = DIRECTION('',(1.,-1.110223024625E-16,-5.551115123126E-17));
#1337 = DIRECTION('',(1.110223024625E-16,1.,5.551115123126E-17));
#1338 = ORIENTED_EDGE('',*,*,#1330,.F.);
#1339 = SPHERICAL_SURFACE('',#1340,0.1);
#1340 = AXIS2_PLACEMENT_3D('',#1341,#1342,#1343);
#1341 = CARTESIAN_POINT('',(-0.6,1.E-01,-0.8));
#1342 = DIRECTION('',(-5.551115123126E-17,-1.,-0.));
#1343 = DIRECTION('',(-3.789729042486E-32,2.103722220029E-48,1.));
#1344 = ADVANCED_FACE('',(#1345),#1348,.F.);
#1345 = FACE_BOUND('',#1346,.F.);
#1346 = EDGE_LOOP('',(#1347));
#1347 = ORIENTED_EDGE('',*,*,#1321,.T.);
#1348 = PLANE('',#1349);
#1349 = AXIS2_PLACEMENT_3D('',#1350,#1351,#1352);
#1350 = CARTESIAN_POINT('',(-0.6,0.16,-0.8));
#1351 = DIRECTION('',(-5.551115123126E-17,-1.,-0.));
#1352 = DIRECTION('',(-3.851859888774E-32,2.138211768074E-48,1.));
#1353 = ( GEOMETRIC_REPRESENTATION_CONTEXT(3) 
GLOBAL_UNCERTAINTY_ASSIGNED_CONTEXT((#1357)) 
GLOBAL_UNIT_ASSIGNED_CONTEXT((#1354,#1355,#1356)) REPRESENTATION_CONTEXT
('Context #1','3D Context with UNIT and UNCERTAINTY') );
#1354 = ( LENGTH_UNIT() NAMED_UNIT(*) SI_UNIT(.MILLI.,.METRE.) );
#1355 = ( NAMED_UNIT(*) PLANE_ANGLE_UNIT() SI_UNIT($,.RADIAN.) );
#1356 = ( NAMED_UNIT(*) SI_UNIT($,.STERADIAN.) SOLID_ANGLE_UNIT() );
#1357 = UNCERTAINTY_MEASURE_WITH_UNIT(LENGTH_MEASURE(1.E-07),#1354,
  'distance_accuracy_value','confusion accuracy');
#1358 = CONTEXT_DEPENDENT_SHAPE_REPRESENTATION(#1359,#1361);
#1359 = ( REPRESENTATION_RELATIONSHIP('','',#1314,#10) 
REPRESENTATION_RELATIONSHIP_WITH_TRANSFORMATION(#1360) 
SHAPE_REPRESENTATION_RELATIONSHIP() );
#1360 = ITEM_DEFINED_TRANSFORMATION('','',#11,#87);
#1361 = PRODUCT_DEFINITION_SHAPE('Placement','Placement of an item',
  #1362);
#1362 = NEXT_ASSEMBLY_USAGE_OCCURRENCE('80586','BALL_0017','',#5,#1309,$
  );
#1363 = PRODUCT_RELATED_PRODUCT_CATEGORY('part',$,(#1311));
#1364 = SHAPE_DEFINITION_REPRESENTATION(#1365,#1371);
#1365 = PRODUCT_DEFINITION_SHAPE('','',#1366);
#1366 = PRODUCT_DEFINITION('design','',#1367,#1370);
#1367 = PRODUCT_DEFINITION_FORMATION('','',#1368);
#1368 = PRODUCT('BALL_0018','BALL_0018','',(#1369));
#1369 = PRODUCT_CONTEXT('',#2,'mechanical');
#1370 = PRODUCT_DEFINITION_CONTEXT('part definition',#2,'design');
#1371 = ADVANCED_BREP_SHAPE_REPRESENTATION('',(#11,#1372),#1410);
#1372 = MANIFOLD_SOLID_BREP('',#1373);
#1373 = CLOSED_SHELL('',(#1374,#1401));
#1374 = ADVANCED_FACE('',(#1375),#1396,.T.);
#1375 = FACE_BOUND('',#1376,.T.);
#1376 = EDGE_LOOP('',(#1377,#1386,#1395));
#1377 = ORIENTED_EDGE('',*,*,#1378,.T.);
#1378 = EDGE_CURVE('',#1379,#1379,#1381,.T.);
#1379 = VERTEX_POINT('',#1380);
#1380 = CARTESIAN_POINT('',(-0.6,0.16,-0.72));
#1381 = CIRCLE('',#1382,8.E-02);
#1382 = AXIS2_PLACEMENT_3D('',#1383,#1384,#1385);
#1383 = CARTESIAN_POINT('',(-0.6,0.16,-0.8));
#1384 = DIRECTION('',(-5.551115123126E-17,-1.,0.));
#1385 = DIRECTION('',(-3.851859888774E-32,2.138211768074E-48,1.));
#1386 = ORIENTED_EDGE('',*,*,#1387,.T.);
#1387 = EDGE_CURVE('',#1379,#1388,#1390,.T.);
#1388 = VERTEX_POINT('',#1389);
#1389 = CARTESIAN_POINT('',(-0.6,-9.719146104221E-17,-0.8));
#1390 = CIRCLE('',#1391,0.1);
#1391 = AXIS2_PLACEMENT_3D('',#1392,#1393,#1394);
#1392 = CARTESIAN_POINT('',(-0.6,1.E-01,-0.8));
#1393 = DIRECTION('',(1.,-1.110223024625E-16,-5.551115123126E-17));
#1394 = DIRECTION('',(1.110223024625E-16,1.,5.551115123126E-17));
#1395 = ORIENTED_EDGE('',*,*,#1387,.F.);
#1396 = SPHERICAL_SURFACE('',#1397,0.1);
#1397 = AXIS2_PLACEMENT_3D('',#1398,#1399,#1400);
#1398 = CARTESIAN_POINT('',(-0.6,1.E-01,-0.8));
#1399 = DIRECTION('',(-5.551115123126E-17,-1.,-0.));
#1400 = DIRECTION('',(-3.789729042486E-32,2.103722220029E-48,1.));
#1401 = ADVANCED_FACE('',(#1402),#1405,.F.);
#1402 = FACE_BOUND('',#1403,.F.);
#1403 = EDGE_LOOP('',(#1404));
#1404 = ORIENTED_EDGE('',*,*,#1378,.T.);
#1405 = PLANE('',#1406);
#1406 = AXIS2_PLACEMENT_3D('',#1407,#1408,#1409);
#1407 = CARTESIAN_POINT('',(-0.6,0.16,-0.8));
#1408 = DIRECTION('',(-5.551115123126E-17,-1.,-0.));
#1409 = DIRECTION('',(-3.851859888774E-32,2.138211768074E-48,1.));
#1410 = ( GEOMETRIC_REPRESENTATION_CONTEXT(3) 
GLOBAL_UNCERTAINTY_ASSIGNED_CONTEXT((#1414)) 
GLOBAL_UNIT_ASSIGNED_CONTEXT((#1411,#1412,#1413)) REPRESENTATION_CONTEXT
('Context #1','3D Context with UNIT and UNCERTAINTY') );
#1411 = ( LENGTH_UNIT() NAMED_UNIT(*) SI_UNIT(.MILLI.,.METRE.) );
#1412 = ( NAMED_UNIT(*) PLANE_ANGLE_UNIT() SI_UNIT($,.RADIAN.) );
#1413 = ( NAMED_UNIT(*) SI_UNIT($,.STERADIAN.) SOLID_ANGLE_UNIT() );
#1414 = UNCERTAINTY_MEASURE_WITH_UNIT(LENGTH_MEASURE(1.E-07),#1411,
  'distance_accuracy_value','confusion accuracy');
#1415 = CONTEXT_DEPENDENT_SHAPE_REPRESENTATION(#1416,#1418);
#1416 = ( REPRESENTATION_RELATIONSHIP('','',#1371,#10) 
REPRESENTATION_RELATIONSHIP_WITH_TRANSFORMATION(#1417) 
SHAPE_REPRESENTATION_RELATIONSHIP() );
#1417 = ITEM_DEFINED_TRANSFORMATION('','',#11,#91);
#1418 = PRODUCT_DEFINITION_SHAPE('Placement','Placement of an item',
  #1419);
#1419 = NEXT_ASSEMBLY_USAGE_OCCURRENCE('80587','BALL_0018','',#5,#1366,$
  );
#1420 = PRODUCT_RELATED_PRODUCT_CATEGORY('part',$,(#1368));
#1421 = SHAPE_DEFINITION_REPRESENTATION(#1422,#1428);
#1422 = PRODUCT_DEFINITION_SHAPE('','',#1423);
#1423 = PRODUCT_DEFINITION('design','',#1424,#1427);
#1424 = PRODUCT_DEFINITION_FORMATION('','',#1425);
#1425 = PRODUCT('BALL_0019','BALL_0019','',(#1426));
#1426 = PRODUCT_CONTEXT('',#2,'mechanical');
#1427 = PRODUCT_DEFINITION_CONTEXT('part definition',#2,'design');
#1428 = ADVANCED_BREP_SHAPE_REPRESENTATION('',(#11,#1429),#1467);
#1429 = MANIFOLD_SOLID_BREP('',#1430);
#1430 = CLOSED_SHELL('',(#1431,#1458));
#1431 = ADVANCED_FACE('',(#1432),#1453,.T.);
#1432 = FACE_BOUND('',#1433,.T.);
#1433 = EDGE_LOOP('',(#1434,#1443,#1452));
#1434 = ORIENTED_EDGE('',*,*,#1435,.T.);
#1435 = EDGE_CURVE('',#1436,#1436,#1438,.T.);
#1436 = VERTEX_POINT('',#1437);
#1437 = CARTESIAN_POINT('',(-0.6,0.16,-0.72));
#1438 = CIRCLE('',#1439,8.E-02);
#1439 = AXIS2_PLACEMENT_3D('',#1440,#1441,#1442);
#1440 = CARTESIAN_POINT('',(-0.6,0.16,-0.8));
#1441 = DIRECTION('',(-5.551115123126E-17,-1.,0.));
#1442 = DIRECTION('',(-3.851859888774E-32,2.138211768074E-48,1.));
#1443 = ORIENTED_EDGE('',*,*,#1444,.T.);
#1444 = EDGE_CURVE('',#1436,#1445,#1447,.T.);
#1445 = VERTEX_POINT('',#1446);
#1446 = CARTESIAN_POINT('',(-0.6,-9.719146104221E-17,-0.8));
#1447 = CIRCLE('',#1448,0.1);
#1448 = AXIS2_PLACEMENT_3D('',#1449,#1450,#1451);
#1449 = CARTESIAN_POINT('',(-0.6,1.E-01,-0.8));
#1450 = DIRECTION('',(1.,-1.110223024625E-16,-5.551115123126E-17));
#1451 = DIRECTION('',(1.110223024625E-16,1.,5.551115123126E-17));
#1452 = ORIENTED_EDGE('',*,*,#1444,.F.);
#1453 = SPHERICAL_SURFACE('',#1454,0.1);
#1454 = AXIS2_PLACEMENT_3D('',#1455,#1456,#1457);
#1455 = CARTESIAN_POINT('',(-0.6,1.E-01,-0.8));
#1456 = DIRECTION('',(-5.551115123126E-17,-1.,-0.));
#1457 = DIRECTION('',(-3.789729042486E-32,2.103722220029E-48,1.));
#1458 = ADVANCED_FACE('',(#1459),#1462,.F.);
#1459 = FACE_BOUND('',#1460,.F.);
#1460 = EDGE_LOOP('',(#1461));
#1461 = ORIENTED_EDGE('',*,*,#1435,.T.);
#1462 = PLANE('',#1463);
#1463 = AXIS2_PLACEMENT_3D('',#1464,#1465,#1466);
#1464 = CARTESIAN_POINT('',(-0.6,0.16,-0.8));
#1465 = DIRECTION('',(-5.551115123126E-17,-1.,-0.));
#1466 = DIRECTION('',(-3.851859888774E-32,2.138211768074E-48,1.));
#1467 = ( GEOMETRIC_REPRESENTATION_CONTEXT(3) 
GLOBAL_UNCERTAINTY_ASSIGNED_CONTEXT((#1471)) 
GLOBAL_UNIT_ASSIGNED_CONTEXT((#1468,#1469,#1470)) REPRESENTATION_CONTEXT
('Context #1','3D Context with UNIT and UNCERTAINTY') );
#1468 = ( LENGTH_UNIT() NAMED_UNIT(*) SI_UNIT(.MILLI.,.METRE.) );
#1469 = ( NAMED_UNIT(*) PLANE_ANGLE_UNIT() SI_UNIT($,.RADIAN.) );
#1470 = ( NAMED_UNIT(*) SI_UNIT($,.STERADIAN.) SOLID_ANGLE_UNIT() );
#1471 = UNCERTAINTY_MEASURE_WITH_UNIT(LENGTH_MEASURE(1.E-07),#1468,
  'distance_accuracy_value','confusion accuracy');
#1472 = CONTEXT_DEPENDENT_SHAPE_REPRESENTATION(#1473,#1475);
#1473 = ( REPRESENTATION_RELATIONSHIP('','',#1428,#10) 
REPRESENTATION_RELATIONSHIP_WITH_TRANSFORMATION(#1474) 
SHAPE_REPRESENTATION_RELATIONSHIP() );
#1474 = ITEM_DEFINED_TRANSFORMATION('','',#11,#95);
#1475 = PRODUCT_DEFINITION_SHAPE('Placement','Placement of an item',
  #1476);
#1476 = NEXT_ASSEMBLY_USAGE_OCCURRENCE('80588','BALL_0019','',#5,#1423,$
  );
#1477 = PRODUCT_RELATED_PRODUCT_CATEGORY('part',$,(#1425));
#1478 = SHAPE_DEFINITION_REPRESENTATION(#1479,#1485);
#1479 = PRODUCT_DEFINITION_SHAPE('','',#1480);
#1480 = PRODUCT_DEFINITION('design','',#1481,#1484);
#1481 = PRODUCT_DEFINITION_FORMATION('','',#1482);
#1482 = PRODUCT('BALL_0020','BALL_0020','',(#1483));
#1483 = PRODUCT_CONTEXT('',#2,'mechanical');
#1484 = PRODUCT_DEFINITION_CONTEXT('part definition',#2,'design');
#1485 = ADVANCED_BREP_SHAPE_REPRESENTATION('',(#11,#1486),#1524);
#1486 = MANIFOLD_SOLID_BREP('',#1487);
#1487 = CLOSED_SHELL('',(#1488,#1515));
#1488 = ADVANCED_FACE('',(#1489),#1510,.T.);
#1489 = FACE_BOUND('',#1490,.T.);
#1490 = EDGE_LOOP('',(#1491,#1500,#1509));
#1491 = ORIENTED_EDGE('',*,*,#1492,.T.);
#1492 = EDGE_CURVE('',#1493,#1493,#1495,.T.);
#1493 = VERTEX_POINT('',#1494);
#1494 = CARTESIAN_POINT('',(-0.6,0.16,-0.72));
#1495 = CIRCLE('',#1496,8.E-02);
#1496 = AXIS2_PLACEMENT_3D('',#1497,#1498,#1499);
#1497 = CARTESIAN_POINT('',(-0.6,0.16,-0.8));
#1498 = DIRECTION('',(-5.551115123126E-17,-1.,0.));
#1499 = DIRECTION('',(-3.851859888774E-32,2.138211768074E-48,1.));
#1500 = ORIENTED_EDGE('',*,*,#1501,.T.);
#1501 = EDGE_CURVE('',#1493,#1502,#1504,.T.);
#1502 = VERTEX_POINT('',#1503);
#1503 = CARTESIAN_POINT('',(-0.6,-9.719146104221E-17,-0.8));
#1504 = CIRCLE('',#1505,0.1);
#1505 = AXIS2_PLACEMENT_3D('',#1506,#1507,#1508);
#1506 = CARTESIAN_POINT('',(-0.6,1.E-01,-0.8));
#1507 = DIRECTION('',(1.,-1.110223024625E-16,-5.551115123126E-17));
#1508 = DIRECTION('',(1.110223024625E-16,1.,5.551115123126E-17));
#1509 = ORIENTED_EDGE('',*,*,#1501,.F.);
#1510 = SPHERICAL_SURFACE('',#1511,0.1);
#1511 = AXIS2_PLACEMENT_3D('',#1512,#1513,#1514);
#1512 = CARTESIAN_POINT('',(-0.6,1.E-01,-0.8));
#1513 = DIRECTION('',(-5.551115123126E-17,-1.,-0.));
#1514 = DIRECTION('',(-3.789729042486E-32,2.103722220029E-48,1.));
#1515 = ADVANCED_FACE('',(#1516),#1519,.F.);
#1516 = FACE_BOUND('',#1517,.F.);
#1517 = EDGE_LOOP('',(#1518));
#1518 = ORIENTED_EDGE('',*,*,#1492,.T.);
#1519 = PLANE('',#1520);
#1520 = AXIS2_PLACEMENT_3D('',#1521,#1522,#1523);
#1521 = CARTESIAN_POINT('',(-0.6,0.16,-0.8));
#1522 = DIRECTION('',(-5.551115123126E-17,-1.,-0.));
#1523 = DIRECTION('',(-3.851859888774E-32,2.138211768074E-48,1.));
#1524 = ( GEOMETRIC_REPRESENTATION_CONTEXT(3) 
GLOBAL_UNCERTAINTY_ASSIGNED_CONTEXT((#1528)) 
GLOBAL_UNIT_ASSIGNED_CONTEXT((#1525,#1526,#1527)) REPRESENTATION_CONTEXT
('Context #1','3D Context with UNIT and UNCERTAINTY') );
#1525 = ( LENGTH_UNIT() NAMED_UNIT(*) SI_UNIT(.MILLI.,.METRE.) );
#1526 = ( NAMED_UNIT(*) PLANE_ANGLE_UNIT() SI_UNIT($,.RADIAN.) );
#1527 = ( NAMED_UNIT(*) SI_UNIT($,.STERADIAN.) SOLID_ANGLE_UNIT() );
#1528 = UNCERTAINTY_MEASURE_WITH_UNIT(LENGTH_MEASURE(1.E-07),#1525,
  'distance_accuracy_value','confusion accuracy');
#1529 = CONTEXT_DEPENDENT_SHAPE_REPRESENTATION(#1530,#1532);
#1530 = ( REPRESENTATION_RELATIONSHIP('','',#1485,#10) 
REPRESENTATION_RELATIONSHIP_WITH_TRANSFORMATION(#1531) 
SHAPE_REPRESENTATION_RELATIONSHIP() );
#1531 = ITEM_DEFINED_TRANSFORMATION('','',#11,#99);
#1532 = PRODUCT_DEFINITION_SHAPE('Placement','Placement of an item',
  #1533);
#1533 = NEXT_ASSEMBLY_USAGE_OCCURRENCE('80589','BALL_0020','',#5,#1480,$
  );
#1534 = PRODUCT_RELATED_PRODUCT_CATEGORY('part',$,(#1482));
#1535 = MECHANICAL_DESIGN_GEOMETRIC_PRESENTATION_REPRESENTATION('',(
    #1536),#954);
#1536 = STYLED_ITEM('color',(#1537),#916);
#1537 = PRESENTATION_STYLE_ASSIGNMENT((#1538,#1544));
#1538 = SURFACE_STYLE_USAGE(.BOTH.,#1539);
#1539 = SURFACE_SIDE_STYLE('',(#1540));
#1540 = SURFACE_STYLE_FILL_AREA(#1541);
#1541 = FILL_AREA_STYLE('',(#1542));
#1542 = FILL_AREA_STYLE_COLOUR('',#1543);
#1543 = COLOUR_RGB('',0.796078452645,0.823529417451,0.937254901616);
#1544 = CURVE_STYLE('',#1545,POSITIVE_LENGTH_MEASURE(0.1),#1546);
#1545 = DRAUGHTING_PRE_DEFINED_CURVE_FONT('continuous');
#1546 = COLOUR_RGB('',9.803921802644E-02,9.803921802644E-02,
  9.803921802644E-02);
#1547 = MECHANICAL_DESIGN_GEOMETRIC_PRESENTATION_REPRESENTATION('',(
    #1548),#612);
#1548 = STYLED_ITEM('color',(#1549),#574);
#1549 = PRESENTATION_STYLE_ASSIGNMENT((#1550,#1555));
#1550 = SURFACE_STYLE_USAGE(.BOTH.,#1551);
#1551 = SURFACE_SIDE_STYLE('',(#1552));
#1552 = SURFACE_STYLE_FILL_AREA(#1553);
#1553 = FILL_AREA_STYLE('',(#1554));
#1554 = FILL_AREA_STYLE_COLOUR('',#1543);
#1555 = CURVE_STYLE('',#1556,POSITIVE_LENGTH_MEASURE(0.1),#1546);
#1556 = DRAUGHTING_PRE_DEFINED_CURVE_FONT('continuous');
#1557 = MECHANICAL_DESIGN_GEOMETRIC_PRESENTATION_REPRESENTATION('',(
    #1558),#441);
#1558 = STYLED_ITEM('color',(#1559),#403);
#1559 = PRESENTATION_STYLE_ASSIGNMENT((#1560,#1565));
#1560 = SURFACE_STYLE_USAGE(.BOTH.,#1561);
#1561 = SURFACE_SIDE_STYLE('',(#1562));
#1562 = SURFACE_STYLE_FILL_AREA(#1563);
#1563 = FILL_AREA_STYLE('',(#1564));
#1564 = FILL_AREA_STYLE_COLOUR('',#1543);
#1565 = CURVE_STYLE('',#1566,POSITIVE_LENGTH_MEASURE(0.1),#1546);
#1566 = DRAUGHTING_PRE_DEFINED_CURVE_FONT('continuous');
#1567 = MECHANICAL_DESIGN_GEOMETRIC_PRESENTATION_REPRESENTATION('',(
    #1568),#1410);
#1568 = STYLED_ITEM('color',(#1569),#1372);
#1569 = PRESENTATION_STYLE_ASSIGNMENT((#1570,#1575));
#1570 = SURFACE_STYLE_USAGE(.BOTH.,#1571);
#1571 = SURFACE_SIDE_STYLE('',(#1572));
#1572 = SURFACE_STYLE_FILL_AREA(#1573);
#1573 = FILL_AREA_STYLE('',(#1574));
#1574 = FILL_AREA_STYLE_COLOUR('',#1543);
#1575 = CURVE_STYLE('',#1576,POSITIVE_LENGTH_MEASURE(0.1),#1546);
#1576 = DRAUGHTING_PRE_DEFINED_CURVE_FONT('continuous');
#1577 = MECHANICAL_DESIGN_GEOMETRIC_PRESENTATION_REPRESENTATION('',(
    #1578),#840);
#1578 = STYLED_ITEM('color',(#1579),#802);
#1579 = PRESENTATION_STYLE_ASSIGNMENT((#1580,#1585));
#1580 = SURFACE_STYLE_USAGE(.BOTH.,#1581);
#1581 = SURFACE_SIDE_STYLE('',(#1582));
#1582 = SURFACE_STYLE_FILL_AREA(#1583);
#1583 = FILL_AREA_STYLE('',(#1584));
#1584 = FILL_AREA_STYLE_COLOUR('',#1543);
#1585 = CURVE_STYLE('',#1586,POSITIVE_LENGTH_MEASURE(0.1),#1546);
#1586 = DRAUGHTING_PRE_DEFINED_CURVE_FONT('continuous');
#1587 = MECHANICAL_DESIGN_GEOMETRIC_PRESENTATION_REPRESENTATION('',(
    #1588),#384);
#1588 = STYLED_ITEM('color',(#1589),#331);
#1589 = PRESENTATION_STYLE_ASSIGNMENT((#1590,#1596));
#1590 = SURFACE_STYLE_USAGE(.BOTH.,#1591);
#1591 = SURFACE_SIDE_STYLE('',(#1592));
#1592 = SURFACE_STYLE_FILL_AREA(#1593);
#1593 = FILL_AREA_STYLE('',(#1594));
#1594 = FILL_AREA_STYLE_COLOUR('',#1595);
#1595 = DRAUGHTING_PRE_DEFINED_COLOUR('white');
#1596 = CURVE_STYLE('',#1597,POSITIVE_LENGTH_MEASURE(0.1),#1546);
#1597 = DRAUGHTING_PRE_DEFINED_CURVE_FONT('continuous');
#1598 = MECHANICAL_DESIGN_GEOMETRIC_PRESENTATION_REPRESENTATION('',(
    #1599),#897);
#1599 = STYLED_ITEM('color',(#1600),#859);
#1600 = PRESENTATION_STYLE_ASSIGNMENT((#1601,#1606));
#1601 = SURFACE_STYLE_USAGE(.BOTH.,#1602);
#1602 = SURFACE_SIDE_STYLE('',(#1603));
#1603 = SURFACE_STYLE_FILL_AREA(#1604);
#1604 = FILL_AREA_STYLE('',(#1605));
#1605 = FILL_AREA_STYLE_COLOUR('',#1543);
#1606 = CURVE_STYLE('',#1607,POSITIVE_LENGTH_MEASURE(0.1),#1546);
#1607 = DRAUGHTING_PRE_DEFINED_CURVE_FONT('continuous');
#1608 = MECHANICAL_DESIGN_GEOMETRIC_PRESENTATION_REPRESENTATION('',(
    #1609),#783);
#1609 = STYLED_ITEM('color',(#1610),#745);
#1610 = PRESENTATION_STYLE_ASSIGNMENT((#1611,#1616));
#1611 = SURFACE_STYLE_USAGE(.BOTH.,#1612);
#1612 = SURFACE_SIDE_STYLE('',(#1613));
#1613 = SURFACE_STYLE_FILL_AREA(#1614);
#1614 = FILL_AREA_STYLE('',(#1615));
#1615 = FILL_AREA_STYLE_COLOUR('',#1543);
#1616 = CURVE_STYLE('',#1617,POSITIVE_LENGTH_MEASURE(0.1),#1546);
#1617 = DRAUGHTING_PRE_DEFINED_CURVE_FONT('continuous');
#1618 = MECHANICAL_DESIGN_GEOMETRIC_PRESENTATION_REPRESENTATION('',(
    #1619),#498);
#1619 = STYLED_ITEM('color',(#1620),#460);
#1620 = PRESENTATION_STYLE_ASSIGNMENT((#1621,#1626));
#1621 = SURFACE_STYLE_USAGE(.BOTH.,#1622);
#1622 = SURFACE_SIDE_STYLE('',(#1623));
#1623 = SURFACE_STYLE_FILL_AREA(#1624);
#1624 = FILL_AREA_STYLE('',(#1625));
#1625 = FILL_AREA_STYLE_COLOUR('',#1543);
#1626 = CURVE_STYLE('',#1627,POSITIVE_LENGTH_MEASURE(0.1),#1546);
#1627 = DRAUGHTING_PRE_DEFINED_CURVE_FONT('continuous');
#1628 = MECHANICAL_DESIGN_GEOMETRIC_PRESENTATION_REPRESENTATION('',(
    #1629),#1068);
#1629 = STYLED_ITEM('color',(#1630),#1030);
#1630 = PRESENTATION_STYLE_ASSIGNMENT((#1631,#1636));
#1631 = SURFACE_STYLE_USAGE(.BOTH.,#1632);
#1632 = SURFACE_SIDE_STYLE('',(#1633));
#1633 = SURFACE_STYLE_FILL_AREA(#1634);
#1634 = FILL_AREA_STYLE('',(#1635));
#1635 = FILL_AREA_STYLE_COLOUR('',#1543);
#1636 = CURVE_STYLE('',#1637,POSITIVE_LENGTH_MEASURE(0.1),#1546);
#1637 = DRAUGHTING_PRE_DEFINED_CURVE_FONT('continuous');
#1638 = MECHANICAL_DESIGN_GEOMETRIC_PRESENTATION_REPRESENTATION('',(
    #1639),#1353);
#1639 = STYLED_ITEM('color',(#1640),#1315);
#1640 = PRESENTATION_STYLE_ASSIGNMENT((#1641,#1646));
#1641 = SURFACE_STYLE_USAGE(.BOTH.,#1642);
#1642 = SURFACE_SIDE_STYLE('',(#1643));
#1643 = SURFACE_STYLE_FILL_AREA(#1644);
#1644 = FILL_AREA_STYLE('',(#1645));
#1645 = FILL_AREA_STYLE_COLOUR('',#1543);
#1646 = CURVE_STYLE('',#1647,POSITIVE_LENGTH_MEASURE(0.1),#1546);
#1647 = DRAUGHTING_PRE_DEFINED_CURVE_FONT('continuous');
#1648 = MECHANICAL_DESIGN_GEOMETRIC_PRESENTATION_REPRESENTATION('',(
    #1649),#1467);
#1649 = STYLED_ITEM('color',(#1650),#1429);
#1650 = PRESENTATION_STYLE_ASSIGNMENT((#1651,#1656));
#1651 = SURFACE_STYLE_USAGE(.BOTH.,#1652);
#1652 = SURFACE_SIDE_STYLE('',(#1653));
#1653 = SURFACE_STYLE_FILL_AREA(#1654);
#1654 = FILL_AREA_STYLE('',(#1655));
#1655 = FILL_AREA_STYLE_COLOUR('',#1543);
#1656 = CURVE_STYLE('',#1657,POSITIVE_LENGTH_MEASURE(0.1),#1546);
#1657 = DRAUGHTING_PRE_DEFINED_CURVE_FONT('continuous');
#1658 = MECHANICAL_DESIGN_GEOMETRIC_PRESENTATION_REPRESENTATION('',(
    #1659),#669);
#1659 = STYLED_ITEM('color',(#1660),#631);
#1660 = PRESENTATION_STYLE_ASSIGNMENT((#1661,#1666));
#1661 = SURFACE_STYLE_USAGE(.BOTH.,#1662);
#1662 = SURFACE_SIDE_STYLE('',(#1663));
#1663 = SURFACE_STYLE_FILL_AREA(#1664);
#1664 = FILL_AREA_STYLE('',(#1665));
#1665 = FILL_AREA_STYLE_COLOUR('',#1543);
#1666 = CURVE_STYLE('',#1667,POSITIVE_LENGTH_MEASURE(0.1),#1546);
#1667 = DRAUGHTING_PRE_DEFINED_CURVE_FONT('continuous');
#1668 = MECHANICAL_DESIGN_GEOMETRIC_PRESENTATION_REPRESENTATION('',(
    #1669),#312);
#1669 = STYLED_ITEM('color',(#1670),#117);
#1670 = PRESENTATION_STYLE_ASSIGNMENT((#1671,#1677));
#1671 = SURFACE_STYLE_USAGE(.BOTH.,#1672);
#1672 = SURFACE_SIDE_STYLE('',(#1673));
#1673 = SURFACE_STYLE_FILL_AREA(#1674);
#1674 = FILL_AREA_STYLE('',(#1675));
#1675 = FILL_AREA_STYLE_COLOUR('',#1676);
#1676 = COLOUR_RGB('',0.250980406631,0.250980406631,0.250980406631);
#1677 = CURVE_STYLE('',#1678,POSITIVE_LENGTH_MEASURE(0.1),#1546);
#1678 = DRAUGHTING_PRE_DEFINED_CURVE_FONT('continuous');
#1679 = MECHANICAL_DESIGN_GEOMETRIC_PRESENTATION_REPRESENTATION('',(
    #1680),#555);
#1680 = STYLED_ITEM('color',(#1681),#517);
#1681 = PRESENTATION_STYLE_ASSIGNMENT((#1682,#1687));
#1682 = SURFACE_STYLE_USAGE(.BOTH.,#1683);
#1683 = SURFACE_SIDE_STYLE('',(#1684));
#1684 = SURFACE_STYLE_FILL_AREA(#1685);
#1685 = FILL_AREA_STYLE('',(#1686));
#1686 = FILL_AREA_STYLE_COLOUR('',#1543);
#1687 = CURVE_STYLE('',#1688,POSITIVE_LENGTH_MEASURE(0.1),#1546);
#1688 = DRAUGHTING_PRE_DEFINED_CURVE_FONT('continuous');
#1689 = MECHANICAL_DESIGN_GEOMETRIC_PRESENTATION_REPRESENTATION('',(
    #1690),#1125);
#1690 = STYLED_ITEM('color',(#1691),#1087);
#1691 = PRESENTATION_STYLE_ASSIGNMENT((#1692,#1697));
#1692 = SURFACE_STYLE_USAGE(.BOTH.,#1693);
#1693 = SURFACE_SIDE_STYLE('',(#1694));
#1694 = SURFACE_STYLE_FILL_AREA(#1695);
#1695 = FILL_AREA_STYLE('',(#1696));
#1696 = FILL_AREA_STYLE_COLOUR('',#1543);
#1697 = CURVE_STYLE('',#1698,POSITIVE_LENGTH_MEASURE(0.1),#1546);
#1698 = DRAUGHTING_PRE_DEFINED_CURVE_FONT('continuous');
#1699 = MECHANICAL_DESIGN_GEOMETRIC_PRESENTATION_REPRESENTATION('',(
    #1700),#1524);
#1700 = STYLED_ITEM('color',(#1701),#1486);
#1701 = PRESENTATION_STYLE_ASSIGNMENT((#1702,#1707));
#1702 = SURFACE_STYLE_USAGE(.BOTH.,#1703);
#1703 = SURFACE_SIDE_STYLE('',(#1704));
#1704 = SURFACE_STYLE_FILL_AREA(#1705);
#1705 = FILL_AREA_STYLE('',(#1706));
#1706 = FILL_AREA_STYLE_COLOUR('',#1543);
#1707 = CURVE_STYLE('',#1708,POSITIVE_LENGTH_MEASURE(0.1),#1546);
#1708 = DRAUGHTING_PRE_DEFINED_CURVE_FONT('continuous');
#1709 = MECHANICAL_DESIGN_GEOMETRIC_PRESENTATION_REPRESENTATION('',(
    #1710),#1011);
#1710 = STYLED_ITEM('color',(#1711),#973);
#1711 = PRESENTATION_STYLE_ASSIGNMENT((#1712,#1717));
#1712 = SURFACE_STYLE_USAGE(.BOTH.,#1713);
#1713 = SURFACE_SIDE_STYLE('',(#1714));
#1714 = SURFACE_STYLE_FILL_AREA(#1715);
#1715 = FILL_AREA_STYLE('',(#1716));
#1716 = FILL_AREA_STYLE_COLOUR('',#1543);
#1717 = CURVE_STYLE('',#1718,POSITIVE_LENGTH_MEASURE(0.1),#1546);
#1718 = DRAUGHTING_PRE_DEFINED_CURVE_FONT('continuous');
#1719 = MECHANICAL_DESIGN_GEOMETRIC_PRESENTATION_REPRESENTATION('',(
    #1720),#1296);
#1720 = STYLED_ITEM('color',(#1721),#1258);
#1721 = PRESENTATION_STYLE_ASSIGNMENT((#1722,#1727));
#1722 = SURFACE_STYLE_USAGE(.BOTH.,#1723);
#1723 = SURFACE_SIDE_STYLE('',(#1724));
#1724 = SURFACE_STYLE_FILL_AREA(#1725);
#1725 = FILL_AREA_STYLE('',(#1726));
#1726 = FILL_AREA_STYLE_COLOUR('',#1543);
#1727 = CURVE_STYLE('',#1728,POSITIVE_LENGTH_MEASURE(0.1),#1546);
#1728 = DRAUGHTING_PRE_DEFINED_CURVE_FONT('continuous');
#1729 = MECHANICAL_DESIGN_GEOMETRIC_PRESENTATION_REPRESENTATION('',(
    #1730),#1239);
#1730 = STYLED_ITEM('color',(#1731),#1201);
#1731 = PRESENTATION_STYLE_ASSIGNMENT((#1732,#1737));
#1732 = SURFACE_STYLE_USAGE(.BOTH.,#1733);
#1733 = SURFACE_SIDE_STYLE('',(#1734));
#1734 = SURFACE_STYLE_FILL_AREA(#1735);
#1735 = FILL_AREA_STYLE('',(#1736));
#1736 = FILL_AREA_STYLE_COLOUR('',#1543);
#1737 = CURVE_STYLE('',#1738,POSITIVE_LENGTH_MEASURE(0.1),#1546);
#1738 = DRAUGHTING_PRE_DEFINED_CURVE_FONT('continuous');
#1739 = MECHANICAL_DESIGN_GEOMETRIC_PRESENTATION_REPRESENTATION('',(
    #1740),#1182);
#1740 = STYLED_ITEM('color',(#1741),#1144);
#1741 = PRESENTATION_STYLE_ASSIGNMENT((#1742,#1747));
#1742 = SURFACE_STYLE_USAGE(.BOTH.,#1743);
#1743 = SURFACE_SIDE_STYLE('',(#1744));
#1744 = SURFACE_STYLE_FILL_AREA(#1745);
#1745 = FILL_AREA_STYLE('',(#1746));
#1746 = FILL_AREA_STYLE_COLOUR('',#1543);
#1747 = CURVE_STYLE('',#1748,POSITIVE_LENGTH_MEASURE(0.1),#1546);
#1748 = DRAUGHTING_PRE_DEFINED_CURVE_FONT('continuous');
#1749 = MECHANICAL_DESIGN_GEOMETRIC_PRESENTATION_REPRESENTATION('',(
    #1750),#726);
#1750 = STYLED_ITEM('color',(#1751),#688);
#1751 = PRESENTATION_STYLE_ASSIGNMENT((#1752,#1757));
#1752 = SURFACE_STYLE_USAGE(.BOTH.,#1753);
#1753 = SURFACE_SIDE_STYLE('',(#1754));
#1754 = SURFACE_STYLE_FILL_AREA(#1755);
#1755 = FILL_AREA_STYLE('',(#1756));
#1756 = FILL_AREA_STYLE_COLOUR('',#1543);
#1757 = CURVE_STYLE('',#1758,POSITIVE_LENGTH_MEASURE(0.1),#1546);
#1758 = DRAUGHTING_PRE_DEFINED_CURVE_FONT('continuous');
ENDSEC;
END-ISO-10303-21;
